<svg width="21" height="21" viewBox="0 0 21 21" fill="none" xmlns="http://www.w3.org/2000/svg">
<path d="M10.3813 0.5C16.0613 0.5 20.3613 5.15699 20.3613 10.485C20.3613 16.6642 15.3213 20.5 10.3613 20.5C8.72133 20.5 6.90133 20.0593 5.44133 19.198C4.93133 18.8876 4.50133 18.6572 3.95133 18.8375L1.93133 19.4384C1.42133 19.5986 0.961328 19.198 1.11133 18.6572L1.78133 16.4139C1.89133 16.1034 1.87133 15.7729 1.71133 15.5125C0.851328 13.9301 0.361328 12.1975 0.361328 10.515C0.361328 5.24712 4.57133 0.5 10.3813 0.5ZM14.9513 9.24311C14.2413 9.24311 13.6713 9.81397 13.6713 10.525C13.6713 11.2261 14.2413 11.807 14.9513 11.807C15.6613 11.807 16.2313 11.2261 16.2313 10.525C16.2313 9.81397 15.6613 9.24311 14.9513 9.24311ZM10.3413 9.24311C9.64133 9.2331 9.06133 9.81397 9.06133 10.515C9.06133 11.2261 9.63133 11.7969 10.3413 11.807C11.0513 11.807 11.6213 11.2261 11.6213 10.525C11.6213 9.81397 11.0513 9.24311 10.3413 9.24311ZM5.73133 9.24311C5.02133 9.24311 4.45133 9.81397 4.45133 10.525C4.45133 11.2261 5.03133 11.807 5.73133 11.807C6.44133 11.7969 7.01133 11.2261 7.01133 10.525C7.01133 9.81397 6.44133 9.24311 5.73133 9.24311Z" fill="#FF7717"/>
</svg>
