<svg width="152" height="75" viewBox="0 0 152 75" fill="none" xmlns="http://www.w3.org/2000/svg">
<g clip-path="url(#clip0)">
<path opacity="0.05" d="M151.596 64.4866C151.596 67.8131 117.79 70.4947 76.0963 70.4947C34.4022 70.4947 0.596252 67.8131 0.596252 64.4866C0.596252 61.1601 34.4022 58.4785 76.0963 58.4785C117.79 58.4785 151.596 61.1601 151.596 64.4866Z" fill="#232C63"/>
<path d="M121.552 53.8494C124.154 54.9817 126.457 57.1298 127.137 59.894C127.899 63.0578 126.408 66.4214 124.071 68.6861C121.751 70.9507 118.702 72.2995 115.719 73.515C113.995 74.2144 112.073 74.8805 110.35 74.1978C110.217 73.4817 111.129 73.0987 111.825 72.9322C114.509 72.2995 116.995 70.9174 118.967 68.9858C119.978 67.9867 120.889 66.8211 121.27 65.4556C121.651 64.0902 121.469 62.4916 120.508 61.4426C119.315 60.1104 117.326 59.9439 115.553 59.8773C113.134 59.7774 110.698 59.6608 108.278 59.5609C107.102 59.511 105.892 59.4444 104.782 59.0114C103.688 58.5618 102.694 57.6626 102.495 56.497C102.23 54.9817 103.29 53.5497 104.5 52.6338C106.837 50.8688 110.25 50.0029 113.018 51.1352C115.818 52.2675 118.801 52.6505 121.552 53.8494Z" fill="#FFF9E9"/>
<path d="M118.437 53.9159C118.619 53.5996 118.851 53.2832 119.149 53.0667C117.161 51.9843 114.807 51.6347 112.587 52.0842C110.383 52.5338 108.328 53.7661 106.919 55.5312C106.323 56.2638 105.826 57.2296 106.091 58.1288C106.306 58.8615 106.986 59.3777 107.715 59.5942C108.444 59.8106 109.223 59.794 109.985 59.794C112.786 59.7607 115.553 60.0937 118.354 60.177C117.475 59.6608 117.459 58.4119 117.475 57.4794C117.492 56.2305 117.807 54.9983 118.437 53.9159Z" fill="#F2ECDF"/>
<path d="M67.8271 5.82598C68.5894 6.19231 69.2688 6.77512 69.5671 7.5744C69.8488 8.37368 69.6665 9.35613 68.9871 9.85568C69.5174 9.98889 69.5008 10.7382 69.3185 11.2544C68.6225 13.2526 67.1973 15.001 65.391 16.0834C64.695 16.4997 63.9328 16.8161 63.1373 16.916C60.8836 17.1491 58.7127 15.2508 58.3813 12.9862C58.0167 10.5217 59.5413 8.52355 61.5133 7.29132C63.4853 6.04245 65.4076 4.67701 67.8271 5.82598Z" fill="#DDD8CE"/>
<path d="M65.3579 9.93888C66.4682 8.90648 68.1585 8.50684 69.5836 8.98974C69.6002 8.98974 69.3185 9.57255 69.2688 9.6225C69.1196 9.82232 69.0534 9.87228 68.8214 9.82232C68.4236 9.72241 68.0425 9.6225 67.6448 9.57255C66.8825 9.50594 66.0539 9.57255 65.3579 9.93888Z" fill="#BCB8B1"/>
<path d="M55.1333 26.0744C55.1498 22.6442 55.3321 19.1973 56.227 15.9002C56.923 13.3525 59.011 9.23958 60.1047 8.35704C61.8613 6.9583 67.3962 14.2351 66.3191 14.8012C63.7505 16.15 64.2642 18.4813 64.3802 20.3795C64.4962 22.2778 65.7059 24.0596 66.7334 25.6581C67.7608 27.2567 68.9705 28.7553 69.8157 30.4705C70.4122 31.6527 70.7934 33.1514 70.0145 34.2171C69.6334 34.7333 69.0534 35.033 68.4734 35.2994C66.5345 36.182 64.4631 36.7481 62.3585 36.9646C60.2042 37.1811 56.7904 36.9979 56.1773 34.4169C55.5476 31.7027 55.1167 28.8552 55.1333 26.0744Z" fill="#DDD8CE"/>
<path d="M101.186 8.98976C101.616 8.15717 102.147 7.34124 102.909 6.77509C103.655 6.20893 104.666 5.9092 105.56 6.17563C107.019 6.60857 107.665 5.70938 108.129 7.15807C109.107 10.172 110.084 15.7337 111.046 18.7476C111.659 20.6626 112.289 22.6108 112.487 24.6257C112.819 27.8561 112.057 31.1365 110.681 34.0672C109.67 36.2485 108.112 38.4299 105.792 39.0127C104.55 39.3291 103.24 39.1293 101.981 38.8795C98.385 38.1635 94.7558 36.9146 92.1541 34.3336C90.8615 33.0514 89.8341 31.303 90.0661 29.488C90.2318 28.1558 91.0438 27.0069 91.9221 25.9911C93.7947 23.7764 96.413 22.1779 97.4735 19.397C98.7993 15.9668 99.4787 12.2535 101.186 8.98976Z" fill="#DDD8CE"/>
<path d="M50.4104 62.3418C55.1498 62.6915 59.9059 62.525 64.6453 62.3418C75.8477 61.9421 87.0335 61.5259 98.2359 61.1262C101.152 61.0263 104.102 60.9097 106.919 60.1105C109.72 59.3112 112.421 57.7293 113.995 55.2482C115.155 53.4165 115.619 51.2351 116.034 49.0871C117.094 43.4255 117.857 37.6973 118.304 31.9525C118.519 29.2383 118.254 28.1726 116.73 25.9246C115.039 23.4268 112.189 20.6127 109.223 20.0466C105.096 19.2639 96.5787 17.3989 85.3101 19.4138C79.6094 20.4295 71.3402 23.1771 66.4848 26.3409C61.4802 29.6213 56.7241 32.3022 53.5589 36.4485C49.9132 41.2108 46.6818 46.4894 45.24 52.3175C44.6103 54.8818 44.7263 58.1123 46.9469 59.5277C48.0406 60.227 49.3829 60.3103 50.6755 60.3602L50.4104 62.3418Z" fill="#FFF9E9"/>
<path d="M62.0436 60.4934C66.6173 57.8957 68.8711 52.4007 69.1362 47.1387C69.2522 44.6576 68.9871 42.1099 68.0259 39.812C66.7499 36.7814 64.231 34.3003 61.1819 33.0847C61.5299 34.3003 61.9441 35.5159 62.0933 36.7814C62.5242 40.6446 60.171 44.3579 57.2047 46.8556C54.2384 49.3534 50.6423 50.9686 47.3777 53.0667C46.1017 53.8827 44.8423 54.7985 44.0469 56.0973C41.4948 60.2269 46.168 63.3242 49.9463 62.8413C53.9567 62.3251 58.431 62.5415 62.0436 60.4934Z" fill="#DDD8CE"/>
<path d="M85.6084 3.69463C86.3706 4.06097 87.0501 4.64378 87.3484 5.44306C87.6301 6.24234 87.4478 7.22478 86.7684 7.72433C87.2987 7.85755 87.2821 8.60687 87.0998 9.12308C86.4038 11.1213 84.9786 12.8697 83.1723 13.9521C82.4763 14.3684 81.714 14.6847 80.9186 14.7846C78.6649 15.0178 76.494 13.1195 76.1625 10.8548C75.798 8.3904 77.3225 6.3922 79.2946 5.15998C81.2666 3.9111 83.1889 2.54567 85.6084 3.69463Z" fill="#FFF9E9"/>
<path d="M83.1392 7.80754C84.2495 6.77513 85.9397 6.37549 87.3649 6.85839C87.3815 6.85839 87.0998 7.4412 87.05 7.49116C86.9009 7.69098 86.8346 7.74093 86.6026 7.69098C86.2049 7.59107 85.8237 7.49116 85.426 7.4412C84.6637 7.3746 83.8517 7.4412 83.1392 7.80754Z" fill="#F2E2D3"/>
<path d="M97.3078 2.27919C97.6724 1.52986 98.269 0.863795 99.0644 0.580716C99.8433 0.31429 100.821 0.51411 101.302 1.19683C101.434 0.680626 102.18 0.697278 102.677 0.897098C104.632 1.62977 106.323 3.06181 107.35 4.8935C107.748 5.59287 108.046 6.35884 108.129 7.14147C108.328 9.38945 106.406 11.5209 104.185 11.8039C101.749 12.1203 99.8101 10.5717 98.6336 8.59017C97.4404 6.60862 96.1313 4.67703 97.3078 2.27919Z" fill="#DDD8CE"/>
<path d="M101.318 4.81022C100.324 3.69456 99.9593 2.01274 100.456 0.597348C100.456 0.580696 101.02 0.880426 101.086 0.91373C101.285 1.06359 101.335 1.1302 101.285 1.36332C101.186 1.74631 101.07 2.1293 101.02 2.52894C100.92 3.29492 100.97 4.11085 101.318 4.81022Z" fill="#BCB8B1"/>
<path d="M19.0736 26.8737C19.3718 25.2918 20.0181 23.6766 21.377 22.8107C23.0176 21.7616 25.205 22.1279 26.9616 21.312C28.5028 25.7081 31.4691 29.4214 34.4188 33.0015C35.264 34.0339 36.1588 35.1329 36.2914 36.465C36.4737 38.1635 35.2971 39.7787 33.8057 40.5946C32.3142 41.3939 30.5411 41.5105 28.8508 41.4439C27.1439 41.3606 25.4205 41.1108 23.8959 40.3282C21.6256 39.146 20.5816 36.7648 19.7364 34.4668C18.8416 32.0523 18.593 29.4047 19.0736 26.8737Z" fill="#FF7717"/>
<path d="M44.7594 27.7396C41.5446 28.4057 38.4788 29.6379 35.4959 30.9867C32.5628 32.3022 29.6959 33.7342 26.8787 35.2662C25.437 36.0488 23.9953 36.8814 22.8353 37.9804C20.4158 40.2783 19.1564 43.6753 19.637 46.8224C20.2832 51.0686 20.2004 59.9106 35.6782 62.3917C43.1686 63.5907 51.4378 63.9737 57.6024 59.7108C62.9219 56.0142 65.8053 49.6865 65.623 43.5587C65.5236 40.2117 64.579 36.8814 62.6733 34.0673C60.7676 31.2531 57.8841 29.0051 54.5035 27.9561C51.4046 27.0069 47.9909 27.0736 44.7594 27.7396Z" fill="#FFF9E9"/>
<path d="M26.0833 48.088C25.4204 48.8539 24.9896 49.8031 24.7244 50.7855C24.1776 52.8337 24.3267 55.0151 24.9067 57.0466C25.0559 57.5794 25.321 58.362 25.4536 58.8949C27.7405 60.5434 30.9222 61.8089 35.6782 62.5749C40.5006 63.3575 45.6377 63.624 50.3441 62.6748C50.0624 61.759 49.5818 60.8598 49.1178 60.0272C47.212 56.6969 44.8423 53.3499 41.3457 51.7846C40.5006 51.4016 39.5891 51.1352 38.7605 50.7023C36.9708 49.7698 35.612 48.1546 33.8554 47.1555C31.4028 45.7734 27.9393 45.9399 26.0833 48.088Z" fill="#FF7717"/>
<path d="M29.961 27.2566C30.8725 27.19 31.8336 27.1567 32.6622 26.7904C33.4576 26.4407 33.7891 25.3917 33.6896 24.8088C33.2753 22.6275 31.8833 20.8124 29.8616 19.9133C28.8342 19.447 27.6576 19.4137 26.5307 19.5636C24.973 19.7634 23.465 20.3129 22.1393 21.1455C20.913 21.9115 19.8192 22.9439 19.2558 24.276C18.8912 25.1419 18.4272 27.5564 18.8747 28.4223C18.9244 28.5222 19.3387 26.3408 22.2718 26.1243C25.7021 25.8745 27.2599 27.4731 29.961 27.2566Z" fill="#FFA768"/>
<path d="M60.7675 45.2405C61.215 45.6235 61.6127 46.0898 61.8281 46.6226C62.143 47.4053 62.0932 48.2878 62.027 49.137C62.3087 48.2045 62.4412 47.2054 62.259 46.2396C62.0767 45.2738 61.5132 44.408 60.7012 43.8584C59.7069 43.1757 58.2652 42.7927 56.8566 42.7428C56.4424 42.7261 56.1275 43.0592 55.7463 43.209C55.5475 43.2923 55.3652 43.4255 55.2989 43.6253C55.0835 44.3247 56.0115 44.025 56.2932 43.975C56.8235 43.8918 57.3704 43.8918 57.9006 43.975C58.9612 44.1249 59.9721 44.5578 60.7675 45.2405Z" fill="#DDD8CE"/>
<path d="M60.2373 40.5281C60.5687 40.0452 60.8173 39.4957 60.8836 38.8962C60.983 38.047 60.6847 37.231 60.403 36.4318C60.9167 37.2643 61.331 38.1802 61.4138 39.146C61.4967 40.1118 61.1818 41.1109 60.5521 41.8602C59.7733 42.7927 58.4973 43.5587 57.155 43.975C56.7572 44.0915 56.3761 43.8751 55.9618 43.8251C55.7464 43.8085 55.5309 43.7252 55.4149 43.542C55.0172 42.9259 55.9949 42.9759 56.2767 42.9426C56.807 42.876 57.3372 42.7261 57.8344 42.5096C58.7955 42.0933 59.6407 41.4106 60.2373 40.5281Z" fill="#DDD8CE"/>
<path d="M49.6315 52.1009C50.5761 53.7494 51.8355 54.3489 53.0784 53.4664C54.0561 52.767 54.0892 50.2359 54.5035 49.087C54.9841 47.7715 56.0281 46.7557 56.6744 45.5235C57.3207 44.2913 57.4367 42.5262 56.3098 41.6936C55.995 41.4605 55.5972 41.3273 55.2492 41.1275C54.0561 40.4281 53.5258 39.0127 52.8629 37.7971C52.2001 36.5816 51.0235 35.3493 49.6646 35.6158C48.2395 35.8822 47.6098 37.5807 47.4606 39.0294C47.1126 42.5762 48.6206 50.3358 49.6315 52.1009Z" fill="#231F20"/>
<path opacity="0.29" d="M52.4486 51.9178C52.5646 51.6014 52.4818 51.2518 52.3161 50.952C52.1503 50.6523 51.9183 50.4192 51.6863 50.1694C50.7086 49.0537 50.0126 47.705 49.6812 46.2563C49.6149 46.0065 49.5652 45.7401 49.4326 45.5236C49.3 45.3071 49.0349 45.1406 48.7863 45.1906C48.3057 45.2905 49.7309 49.8197 49.8966 50.2194C50.1618 50.7855 51.7195 53.8494 52.4486 51.9178Z" fill="#FFF9E9"/>
<path d="M35.1148 51.4016C37.6337 51.7679 39.4565 53.6163 39.1748 55.5146C38.8931 57.4128 36.6228 58.6451 34.1039 58.2787C31.5851 57.9124 29.7622 56.0641 30.0439 54.1658C30.3256 52.2675 32.5959 51.0353 35.1148 51.4016Z" fill="white"/>
<path d="M32.6954 53.6829C33.7062 53.8328 34.4188 54.7819 34.2697 55.7977C34.1205 56.8134 33.1759 57.5295 32.1651 57.3796C31.1542 57.2297 30.4416 56.2806 30.5908 55.2648C30.7399 54.2324 31.6845 53.5331 32.6954 53.6829Z" fill="#231F20"/>
<path d="M32.0159 56.7801C32.2645 56.8134 32.5296 56.7135 32.6622 56.5137C32.7285 56.4304 32.7616 56.3138 32.7451 56.1973C32.7119 56.0308 32.5462 55.9142 32.3805 55.8476C32.2148 55.781 32.0325 55.7477 31.9165 55.6145C31.7508 55.4646 31.6845 55.2148 31.4193 55.2648C31.2205 55.2981 31.0382 55.6311 31.0382 55.8143C31.005 56.2972 31.6016 56.7301 32.0159 56.7801Z" fill="white"/>
<path d="M31.7176 34.9498C34.1868 34.317 36.5731 35.2995 37.0537 37.1478C37.5342 38.9961 35.9102 41.0276 33.4411 41.6604C30.9719 42.2932 28.5856 41.3107 28.105 39.4624C27.6245 37.6141 29.2485 35.5992 31.7176 34.9498Z" fill="white"/>
<path d="M30.3588 37.997C31.3531 37.7473 32.3639 38.3467 32.6291 39.3458C32.8777 40.3449 32.2811 41.3607 31.2868 41.6271C30.2925 41.8769 29.2816 41.2774 29.0165 40.2783C28.7679 39.2792 29.3645 38.2635 30.3588 37.997Z" fill="#231F20"/>
<path d="M30.9222 41.1275C31.1542 41.0609 31.3696 40.8777 31.4194 40.628C31.4525 40.528 31.4359 40.3948 31.3696 40.3116C31.2702 40.1617 31.0714 40.1284 30.9056 40.1284C30.7234 40.1284 30.5576 40.1617 30.3919 40.0951C30.1931 40.0118 30.0108 39.8287 29.7953 39.9619C29.6296 40.0785 29.5799 40.4448 29.6462 40.6113C29.8119 41.0609 30.5245 41.2441 30.9222 41.1275Z" fill="white"/>
<path d="M17.4992 61.326C16.7701 61.5258 16.0244 61.759 15.4444 62.2752C14.8478 62.7914 14.4666 63.7072 14.6986 64.5065C14.9969 65.4723 16.0078 65.8386 16.9027 66.0051C26.1827 67.7702 35.4628 62.7414 44.8754 62.7914C44.544 61.6258 43.4834 60.943 42.4891 60.4934C40.716 59.6942 38.8434 59.2779 36.9708 58.9115C34.1371 58.3454 30.077 56.7302 27.3924 58.0956C24.3101 59.6609 20.797 60.3769 17.4992 61.326Z" fill="#FF7717"/>
<path d="M71.2408 27.9561C71.4231 29.4714 72.0031 31.0866 73.3122 31.8526C73.7431 32.1024 74.2402 32.2522 74.7208 32.3521C75.7482 32.5686 76.9414 32.5686 77.7203 31.8526C78.3334 31.2864 78.5323 30.4039 78.5654 29.5713C78.6483 27.4232 77.8031 25.2585 76.2785 23.7599C75.9305 23.4268 76.6763 22.7275 76.2288 22.511C74.986 21.9282 71.2574 23.7765 71.2574 23.7765C71.0916 24.1762 71.0916 26.6739 71.2408 27.9561Z" fill="#F2ECDF"/>
<path d="M72.9145 23.9429C72.9311 20.5127 73.1134 17.0658 74.0082 13.7688C74.7043 11.2211 76.7923 7.10811 77.886 6.22557C79.6426 4.82683 85.1775 12.1036 84.1003 12.6698C81.5317 14.0186 82.0455 16.3498 82.1615 18.2481C82.2775 20.1464 83.4872 21.9281 84.5146 23.5267C85.5421 25.1252 86.7518 26.6239 87.5969 28.339C88.1935 29.5213 88.5747 31.0199 87.7958 32.0856C87.4146 32.6018 86.8346 32.9015 86.2546 33.168C84.3158 34.0505 82.2443 34.6167 80.1397 34.8331C77.9854 35.0496 74.5717 34.8664 73.9585 32.2854C73.3288 29.5712 72.898 26.7238 72.9145 23.9429Z" fill="#FFF9E9"/>
<path d="M112.769 26.2076C114.41 25.9412 116.846 26.0911 116.846 26.0911C118.354 27.623 119.729 30.0042 118.238 31.2531C116.846 32.4187 114.675 32.3521 112.736 32.3021C108.03 32.1689 103.323 32.5519 98.7495 33.4345C98.3518 33.5177 96.4295 35.2495 96.0484 35.1163C93.8775 34.3836 100.224 30.0042 103.373 28.722C106.339 27.4898 109.538 26.7405 112.769 26.2076Z" fill="#F2ECDF"/>
<path d="M129.258 18.2814C129.871 17.7319 130.666 17.3323 131.495 17.3656C132.324 17.3989 133.152 17.9484 133.334 18.7643C133.649 18.3314 134.329 18.6311 134.71 18.9808C136.251 20.3795 137.278 22.3278 137.577 24.3759C137.693 25.1586 137.693 25.9745 137.477 26.7405C136.848 28.8885 134.296 30.1541 132.141 29.5879C129.772 28.9884 128.562 26.8404 128.181 24.5924C127.8 22.3278 127.302 20.0632 129.258 18.2814Z" fill="#FFF9E9"/>
<path d="M132.025 22.0946C131.512 20.6959 131.777 18.9974 132.771 17.8818C132.788 17.8651 133.202 18.348 133.235 18.398C133.368 18.6144 133.384 18.681 133.252 18.8809C133.02 19.1973 132.788 19.5136 132.589 19.8633C132.208 20.546 131.976 21.312 132.025 22.0946Z" fill="#F2E2D3"/>
<path d="M128.147 23.7432C130.086 23.0604 132.489 22.5776 134.014 23.9763C135.157 25.0253 137.61 27.4898 136.417 28.4722C134.793 29.8044 133.301 31.0199 132.29 32.2022C129.009 36.0654 125.711 39.9119 122.43 43.7751C120.641 45.8899 115.769 54.1158 110.184 57.6959C109.256 58.2954 105.71 58.5785 104.666 58.8782C103.257 59.2778 101.766 59.1613 100.34 58.8116C96.065 57.7625 92.3861 54.4821 90.8615 50.3192C89.3369 46.1563 90.0163 41.2607 92.6015 37.6806C94.0598 35.6491 96.1147 34.0839 98.4015 33.1347C100.672 32.1856 109.074 28.5388 117.525 26.8737C120.458 26.2909 125.33 24.7423 128.147 23.7432Z" fill="#FFF9E9"/>
<path d="M14.9969 62.3918C14.3175 63.4575 14.6489 64.9395 15.4775 65.8886C16.3061 66.8378 17.5324 67.3373 18.7421 67.6703C22.1558 68.6028 25.7684 68.403 29.2982 68.02C30.0108 67.9368 30.7399 67.8535 31.4028 67.5371C32.0491 67.2374 32.6291 66.6712 32.7948 65.9719C32.9936 65.0394 32.4136 64.0902 31.6016 63.574C30.8062 63.0745 29.8285 62.9246 28.8839 62.8414C26.7462 62.6415 24.5753 62.6582 22.4376 62.8913C21.4433 63.0079 20.4324 63.1577 19.4547 63.0079C18.3278 62.8247 18.013 62.142 17.1678 61.6091C16.3889 61.1429 15.4775 61.6424 14.9969 62.3918Z" fill="#FFA768"/>
<path d="M107.267 40.7446C106.024 40.0619 104.583 39.6622 103.191 39.8787C101.003 40.2117 99.3461 41.9435 97.573 43.2923C94.9712 45.2905 91.8226 46.5893 88.5746 47.0223C86.9174 47.2387 85.2106 47.2387 83.6528 47.8715C80.7197 49.0704 78.9962 52.4507 79.3111 55.6145C79.5762 58.1123 80.8688 60.0938 82.6254 61.709C87.8786 61.5259 93.1318 61.326 98.3684 61.1429C101.285 61.043 104.235 60.9264 107.052 60.1271C107.483 59.9939 107.93 59.8607 108.361 59.6942C108.328 58.9948 108.146 58.2954 107.798 57.6627C107.317 56.7801 106.571 56.0808 106.157 55.1649C105.428 53.5664 105.875 51.6681 106.654 50.0862C107.433 48.5043 108.51 47.0889 109.14 45.457C109.422 44.7243 109.604 43.9084 109.422 43.1424C109.173 42.0434 108.245 41.2774 107.267 40.7446Z" fill="#FF7717"/>
</g>
<defs>
<clipPath id="clip0">
<rect width="151" height="74" fill="white" transform="translate(0.596252 0.480835)"/>
</clipPath>
</defs>
</svg>
