<svg width="37" height="37" viewBox="0 0 37 37" fill="none" xmlns="http://www.w3.org/2000/svg">
<circle opacity="0.05" cx="18.5" cy="18.9648" r="18" fill="#FF7717"/>
<path d="M27.5 11.9648H9.5C9.23478 11.9648 8.98043 12.0702 8.79289 12.2577C8.60536 12.4453 8.5 12.6996 8.5 12.9648V16.9648H9.393C10.389 16.9648 11.313 17.6458 11.473 18.6288C11.5217 18.9159 11.5073 19.2101 11.4306 19.491C11.3539 19.7718 11.2168 20.0326 11.0289 20.255C10.8411 20.4774 10.6069 20.6562 10.3429 20.7788C10.0788 20.9014 9.79115 20.9649 9.5 20.9648H8.5V24.9648C8.5 25.2301 8.60536 25.4844 8.79289 25.672C8.98043 25.8595 9.23478 25.9648 9.5 25.9648H27.5C27.7652 25.9648 28.0196 25.8595 28.2071 25.672C28.3946 25.4844 28.5 25.2301 28.5 24.9648V20.9648H27.5C27.2089 20.9649 26.9212 20.9014 26.6571 20.7788C26.3931 20.6562 26.1589 20.4774 25.9711 20.255C25.7832 20.0326 25.6461 19.7718 25.5694 19.491C25.4927 19.2101 25.4783 18.9159 25.527 18.6288C25.687 17.6458 26.611 16.9648 27.607 16.9648H28.5V12.9648C28.5 12.6996 28.3946 12.4453 28.2071 12.2577C28.0196 12.0702 27.7652 11.9648 27.5 11.9648ZM17.5 23.9648H15.5V21.9648H17.5V23.9648ZM17.5 19.9648H15.5V17.9648H17.5V19.9648ZM17.5 15.9648H15.5V13.9648H17.5V15.9648Z" fill="#FF7717"/>
</svg>
