<svg width="41" height="42" viewBox="0 0 41 42" fill="none" xmlns="http://www.w3.org/2000/svg">
<circle cx="20.5873" cy="20.895" r="20.25" fill="#00BE63" fill-opacity="0.1"/>
<g clip-path="url(#clip0)">
<path d="M20.7524 18.8803C17.676 15.8043 14.3027 14.1901 13.2176 15.2748C13.0985 15.3995 13.0109 15.5508 12.962 15.7162L12.9445 15.6987L11.9082 19.9456L10.8762 24.1797L9.65298 29.1934L8.87862 32.3687L13.4633 30.6338L19.2946 28.4274L23.9467 26.6671L23.9411 26.6616C24.0969 26.6119 24.2394 26.5277 24.3579 26.4151C25.443 25.33 23.8288 21.9567 20.7524 18.8803Z" fill="#DD1C4B"/>
<path d="M20.7523 18.8792C17.6761 15.8029 14.3027 14.1886 13.2177 15.2736C12.1327 16.3586 13.7469 19.732 16.8232 22.8083C19.8995 25.8846 23.2729 27.4989 24.3579 26.4139C25.4429 25.3289 23.8286 21.9555 20.7523 18.8792Z" fill="#D1E3EE"/>
<path d="M23.5244 26.8041C22.9689 26.8138 22.4178 26.7045 21.9082 26.4834L18.1058 27.9222L12.2725 30.1266L9.14454 31.3101L8.87862 32.4004L13.4633 30.6656L19.2946 28.4592L23.5641 26.8438L23.5244 26.8041Z" fill="#B21D48"/>
<path d="M28.3269 23.6689C28.2794 23.6687 28.2322 23.6603 28.1876 23.6439C26.1726 22.889 23.9946 22.6774 21.872 23.0303L20.4543 23.2664C20.2373 23.2974 20.0362 23.1466 20.0053 22.9296C19.9754 22.7199 20.1153 22.5237 20.3233 22.4837L21.7414 22.2456C24.0015 21.8701 26.3206 22.0953 28.4662 22.8985C28.6725 22.9726 28.7796 23.2 28.7055 23.4062C28.6482 23.5656 28.4962 23.6711 28.3269 23.6689Z" fill="#FFBF41"/>
<path d="M21.1826 21.2872C20.9634 21.2859 20.7867 21.1072 20.788 20.888C20.7889 20.7367 20.8757 20.599 21.0119 20.5331L29.3469 16.564C29.5449 16.4698 29.7817 16.5538 29.876 16.7518C29.9703 16.9497 29.8862 17.1866 29.6883 17.2809L21.3533 21.2499C21.2999 21.2749 21.2416 21.2876 21.1826 21.2872Z" fill="#FFBF41"/>
<path d="M16.5412 20.4934C16.4889 20.4935 16.437 20.4831 16.3888 20.4628C16.1865 20.3784 16.0909 20.1461 16.1753 19.9437V19.9437L16.7524 18.5589C17.6403 16.4372 17.8473 14.0921 17.3449 11.8476C17.2934 11.6345 17.4245 11.4201 17.6375 11.3686C17.8506 11.3171 18.065 11.4481 18.1165 11.6612C18.1177 11.6659 18.1187 11.6706 18.1197 11.6754C18.6579 14.0797 18.436 16.5918 17.4846 18.8645L16.9071 20.2493C16.8455 20.397 16.7013 20.4933 16.5412 20.4934Z" fill="#FFBF41"/>
<path d="M30.3114 25.2566C30.7498 25.2566 31.1052 24.9012 31.1052 24.4628C31.1052 24.0243 30.7498 23.6689 30.3114 23.6689C29.873 23.6689 29.5176 24.0243 29.5176 24.4628C29.5176 24.9012 29.873 25.2566 30.3114 25.2566Z" fill="#D5557E"/>
<path d="M20.7857 14.1428C21.2241 14.1428 21.5795 13.7874 21.5795 13.349C21.5795 12.9106 21.2241 12.5552 20.7857 12.5552C20.3473 12.5552 19.9919 12.9106 19.9919 13.349C19.9919 13.7874 20.3473 14.1428 20.7857 14.1428Z" fill="#DD95C1"/>
<path d="M17.2136 10.571C16.7752 10.571 16.4198 10.2156 16.4198 9.77721C16.4198 9.33878 16.7752 8.9834 17.2136 8.9834C17.652 8.9834 18.0074 9.33878 18.0074 9.77721C18.0074 10.2156 17.652 10.571 17.2136 10.571Z" fill="#7FCCCB"/>
<path d="M28.3269 12.1585C28.1077 12.1585 27.93 11.9808 27.93 11.7616V11.3647C27.93 11.1455 28.1077 10.9678 28.3269 10.9678C28.5461 10.9678 28.7238 11.1455 28.7238 11.3647V11.7616C28.7238 11.9808 28.5461 12.1585 28.3269 12.1585Z" fill="#2276BB"/>
<path d="M28.3269 10.1741C28.1077 10.1741 27.93 9.9964 27.93 9.77721V9.3803C27.93 9.16111 28.1077 8.9834 28.3269 8.9834C28.5461 8.9834 28.7238 9.16111 28.7238 9.3803V9.77721C28.7238 9.9964 28.5461 10.1741 28.3269 10.1741Z" fill="#2276BB"/>
<path d="M29.5176 10.9681H29.1207C28.9015 10.9681 28.7238 10.7904 28.7238 10.5712C28.7238 10.352 28.9015 10.1743 29.1207 10.1743H29.5176C29.7368 10.1743 29.9145 10.352 29.9145 10.5712C29.9145 10.7904 29.7368 10.9681 29.5176 10.9681Z" fill="#2276BB"/>
<path d="M27.5331 10.9681H27.1362C26.917 10.9681 26.7393 10.7904 26.7393 10.5712C26.7393 10.352 26.917 10.1743 27.1362 10.1743H27.5331C27.7523 10.1743 27.93 10.352 27.93 10.5712C27.93 10.7904 27.7523 10.9681 27.5331 10.9681Z" fill="#2276BB"/>
<path d="M12.0292 20.4935C11.9848 20.3236 11.9451 20.1522 11.9082 19.9775L10.8762 24.2117L10.9556 25.1798C11.1286 27.2436 12.0152 29.1827 13.4629 30.6638L19.2946 28.4594C19.2628 28.4495 19.2299 28.4423 19.1981 28.4316C15.662 27.1057 12.9892 24.1461 12.0292 20.4935Z" fill="white"/>
<path d="M19.2945 28.4596C19.2628 28.4497 19.2298 28.4425 19.1981 28.4318C18.8161 28.2872 18.4419 28.1225 18.0772 27.9385L12.8246 29.9258C13.0237 30.1841 13.2369 30.4312 13.4632 30.666L19.2945 28.4596Z" fill="#F6F6E7"/>
<path d="M25.5486 13.7378V15.7306H23.5557V13.7378H25.5486Z" fill="#C9DA53"/>
<path d="M18.4043 20.8905C18.1851 20.8904 18.0074 20.7127 18.0075 20.4935C18.0075 20.3811 18.0552 20.274 18.1387 20.1987L22.1078 16.6266C22.2735 16.4831 22.5242 16.5012 22.6676 16.667C22.8071 16.8281 22.7944 17.0706 22.6388 17.2164L18.6698 20.7885C18.597 20.8541 18.5024 20.8904 18.4043 20.8905Z" fill="#FFBF41"/>
<path d="M29.9145 19.303C29.6954 19.303 29.5176 19.1253 29.5176 18.9061V18.5092C29.5176 18.29 29.6954 18.1123 29.9145 18.1123C30.1337 18.1123 30.3114 18.29 30.3114 18.5092V18.9061C30.3114 19.1253 30.1338 19.303 29.9145 19.303Z" fill="#FFDB43"/>
<path d="M31.318 18.7214C31.2127 18.7217 31.1116 18.6798 31.0374 18.6051L30.7568 18.3245C30.6045 18.1668 30.6088 17.9155 30.7665 17.7633C30.9203 17.6147 31.1642 17.6147 31.318 17.7633L31.5986 18.0439C31.7536 18.1989 31.7536 18.4502 31.5985 18.6052C31.5241 18.6796 31.4232 18.7214 31.318 18.7214Z" fill="#FFDB43"/>
<path d="M31.8991 17.3187H31.5022C31.283 17.3187 31.1053 17.141 31.1053 16.9218C31.1053 16.7026 31.283 16.5249 31.5022 16.5249H31.8991C32.1183 16.5249 32.296 16.7026 32.296 16.9218C32.296 17.141 32.1183 17.3187 31.8991 17.3187Z" fill="#FFDB43"/>
<path d="M31.0374 16.196C30.8182 16.196 30.6405 16.0183 30.6406 15.799C30.6406 15.6938 30.6824 15.5929 30.7568 15.5185L31.0374 15.2379C31.195 15.0856 31.4463 15.09 31.5986 15.2476C31.7471 15.4014 31.7471 15.6453 31.5986 15.7991L31.318 16.0797C31.2436 16.1542 31.1427 16.196 31.0374 16.196Z" fill="#FFDB43"/>
<path d="M29.9145 15.7312C29.6954 15.7312 29.5176 15.5535 29.5176 15.3343V14.9374C29.5176 14.7182 29.6954 14.5405 29.9145 14.5405C30.1337 14.5405 30.3114 14.7182 30.3114 14.9374V15.3343C30.3114 15.5535 30.1338 15.7312 29.9145 15.7312Z" fill="#FFDB43"/>
<path d="M28.7917 16.196C28.6864 16.196 28.5855 16.1541 28.5111 16.0797L28.2305 15.7991C28.0782 15.6414 28.0825 15.3901 28.2402 15.2379C28.394 15.0893 28.6379 15.0893 28.7917 15.2379L29.0723 15.5185C29.2273 15.6735 29.2273 15.9248 29.0722 16.0798C28.9979 16.1542 28.8969 16.196 28.7917 16.196Z" fill="#FFDB43"/>
<path d="M10.8631 9.38037L11.4764 10.6231L12.8477 10.8223L11.8554 11.7896L12.0896 13.1553L10.8631 12.5104L9.6367 13.1553L9.87088 11.7896L8.87862 10.8223L10.2499 10.6231L10.8631 9.38037Z" fill="#FFDB43"/>
<path d="M32.1705 30.4821C31.9817 29.813 31.5471 29.2401 30.9536 28.8782L30.7901 28.6329C29.8732 27.2617 28.4314 26.3294 26.8048 26.0558C26.5878 26.0248 26.3867 26.1757 26.3558 26.3927C26.3259 26.6023 26.4658 26.7985 26.6738 26.8385C27.847 27.0376 28.9163 27.6337 29.7026 28.5269C29.0415 28.6458 28.4633 29.0429 28.1149 29.6172C27.6875 30.3828 27.9616 31.3499 28.7272 31.7774C29.4928 32.2048 30.4599 31.9307 30.8873 31.1651C31.0506 30.8499 31.1388 30.5012 31.1449 30.1463C31.5672 30.7596 31.601 31.5606 31.2318 32.2074C31.12 32.3959 31.1822 32.6394 31.3707 32.7513C31.5592 32.8631 31.8027 32.8009 31.9146 32.6124C31.9181 32.6063 31.9216 32.6002 31.9248 32.594C32.2854 31.9511 32.3739 31.1906 32.1705 30.4821ZM30.1951 30.7778C29.9833 31.1616 29.5004 31.301 29.1166 31.0892C28.7327 30.8773 28.5933 30.3944 28.8052 30.0106C28.8064 30.0085 28.8075 30.0063 28.8087 30.0042C29.043 29.6207 29.438 29.3636 29.8836 29.3048C29.9526 29.303 30.0209 29.3188 30.082 29.3509C30.417 29.5378 30.4349 30.3483 30.1951 30.7778Z" fill="#2BB3CE"/>
</g>
<defs>
<clipPath id="clip0">
<rect width="23.8235" height="23.8235" fill="white" transform="translate(8.67552 8.9834)"/>
</clipPath>
</defs>
</svg>
