<svg width="21" height="20" viewBox="0 0 21 20" fill="none" xmlns="http://www.w3.org/2000/svg">
<path fill-rule="evenodd" clip-rule="evenodd" d="M10.9294 0C16.4434 0 20.9294 4.486 20.9294 10C20.9294 15.514 16.4434 20 10.9294 20C5.41536 20 0.929359 15.514 0.929359 10C0.929359 4.486 5.41536 0 10.9294 0ZM10.9294 1.5C6.24236 1.5 2.42936 5.313 2.42936 10C2.42936 14.687 6.24236 18.5 10.9294 18.5C15.6164 18.5 19.4294 14.687 19.4294 10C19.4294 5.313 15.6164 1.5 10.9294 1.5ZM10.5906 5.0954C11.0056 5.0954 11.3406 5.4314 11.3406 5.8454V10.2674L14.7456 12.2974C15.1006 12.5104 15.2176 12.9704 15.0056 13.3264C14.8646 13.5614 14.6156 13.6924 14.3606 13.6924C14.2296 13.6924 14.0976 13.6584 13.9766 13.5874L10.2066 11.3384C9.98056 11.2024 9.84056 10.9574 9.84056 10.6934V5.8454C9.84056 5.4314 10.1766 5.0954 10.5906 5.0954Z" fill="#B6B7B9"/>
</svg>
