<svg width="30" height="31" viewBox="0 0 30 31" fill="none" xmlns="http://www.w3.org/2000/svg">
<circle cx="15" cy="15.5" r="15" fill="#00BE63" fill-opacity="0.1"/>
<path d="M19.494 11.0422C19.7194 10.8233 20.0194 10.7022 20.3306 10.7046C20.6417 10.707 20.9398 10.8327 21.162 11.0551C21.3841 11.2775 21.5128 11.5793 21.5211 11.8967C21.5293 12.2142 21.4163 12.5224 21.206 12.7565L14.822 20.9034C14.7123 21.0241 14.5798 21.1209 14.4325 21.1881C14.2852 21.2553 14.1262 21.2915 13.9649 21.2946C13.8035 21.2976 13.6433 21.2675 13.4937 21.2059C13.344 21.1443 13.2081 21.0525 13.094 20.9361L8.86045 16.6161C8.74255 16.504 8.64799 16.3688 8.5824 16.2186C8.51681 16.0684 8.48155 15.9063 8.4787 15.7419C8.47586 15.5774 8.5055 15.4141 8.56585 15.2617C8.62621 15.1092 8.71604 14.9707 8.82999 14.8544C8.94394 14.7381 9.07967 14.6465 9.22909 14.5849C9.37851 14.5233 9.53856 14.4931 9.69969 14.496C9.86081 14.4989 10.0197 14.5348 10.1669 14.6018C10.3141 14.6687 10.4466 14.7652 10.5564 14.8855L13.9068 18.3026L19.4636 11.0781C19.4737 11.0656 19.4843 11.0536 19.4956 11.0422H19.494Z" fill="#00BE63"/>
</svg>
