<svg width="24" height="25" viewBox="0 0 24 25" fill="none" xmlns="http://www.w3.org/2000/svg">
<g clip-path="url(#clip0)">
<path d="M22.9091 15.9577H1.09092C0.490922 15.9577 0 15.4668 0 14.8668V2.8668C0 2.2668 0.490922 1.77588 1.09092 1.77588H22.9091C23.5091 1.77588 24 2.2668 24 2.8668V14.8668C24 15.4668 23.5091 15.9577 22.9091 15.9577Z" fill="#0E9347"/>
<path d="M20.1818 11.5942C18.9272 11.5942 17.7818 12.1942 17.1272 13.176C16.5818 12.9034 15.9818 12.6852 15.2727 12.6852C13.3636 12.6852 11.7818 14.1034 11.509 15.9579H22.909C23.4545 15.9579 23.8908 15.5761 24 15.0306C23.7818 13.1215 22.1454 11.5942 20.1818 11.5942Z" fill="#0D8944"/>
<path d="M20.7272 14.8666H3.27262C3.27262 13.6666 2.29082 12.6848 1.09082 12.6848V5.04849C2.29082 5.04849 3.27262 4.0667 3.27262 2.8667H20.7272C20.7272 4.0667 21.709 5.04849 22.909 5.04849V12.6848C21.709 12.6848 20.7272 13.6666 20.7272 14.8666Z" fill="#3BB54A"/>
<path d="M20.1819 11.5942C18.9273 11.5942 17.7819 12.1942 17.1273 13.176C16.5819 12.9034 15.9819 12.6852 15.2728 12.6852C13.7455 12.6852 12.4364 13.5579 11.8364 14.867H20.7273C20.7273 13.667 21.6546 12.7397 22.8546 12.6852C22.1455 12.0306 21.2183 11.5942 20.1819 11.5942Z" fill="#0E9347"/>
<path d="M12.0001 13.7762C14.4101 13.7762 16.3638 11.5783 16.3638 8.86709C16.3638 6.15588 14.4101 3.95801 12.0001 3.95801C9.59014 3.95801 7.63647 6.15588 7.63647 8.86709C7.63647 11.5783 9.59014 13.7762 12.0001 13.7762Z" fill="#0E9347"/>
<path d="M5.45469 9.95821C6.05719 9.95821 6.54561 9.46979 6.54561 8.86729C6.54561 8.26479 6.05719 7.77637 5.45469 7.77637C4.85219 7.77637 4.36377 8.26479 4.36377 8.86729C4.36377 9.46979 4.85219 9.95821 5.45469 9.95821Z" fill="#0E9347"/>
<path d="M18.5455 9.95821C19.148 9.95821 19.6364 9.46979 19.6364 8.86729C19.6364 8.26479 19.148 7.77637 18.5455 7.77637C17.943 7.77637 17.4546 8.26479 17.4546 8.86729C17.4546 9.46979 17.943 9.95821 18.5455 9.95821Z" fill="#0E9347"/>
<path d="M12.5453 8.32143H11.4544C11.1271 8.32143 10.909 8.10322 10.909 7.77599C10.909 7.44871 11.1272 7.23055 11.4544 7.23055H13.0908C13.4181 7.23055 13.6362 7.01235 13.6362 6.68511C13.6362 6.35783 13.418 6.13968 13.0908 6.13968H12.5453C12.5453 5.81239 12.3271 5.59424 11.9999 5.59424C11.6726 5.59424 11.4545 5.81244 11.4545 6.13968C10.5272 6.13968 9.81812 6.84875 9.81812 7.77604C9.81812 8.70332 10.5272 9.4124 11.4545 9.4124H12.5454C12.8727 9.4124 13.0908 9.6306 13.0908 9.95783C13.0908 10.2851 12.8726 10.5033 12.5454 10.5033H10.909C10.5818 10.5033 10.3636 10.7215 10.3636 11.0487C10.3636 11.376 10.5818 11.5941 10.909 11.5941H11.4545C11.4545 11.9214 11.6727 12.1396 11.9999 12.1396C12.3272 12.1396 12.5453 11.9214 12.5453 11.5941C13.4726 11.5941 14.1817 10.8851 14.1817 9.95779C14.1817 9.0305 13.4726 8.32143 12.5453 8.32143Z" fill="#89C763"/>
<path d="M14.1817 20.3215C16.2905 20.3215 17.9999 18.612 17.9999 16.5033C17.9999 14.3945 16.2905 12.6851 14.1817 12.6851C12.073 12.6851 10.3635 14.3945 10.3635 16.5033C10.3635 18.612 12.073 20.3215 14.1817 20.3215Z" fill="#FFCA5D"/>
<path d="M19.0909 19.2307C21.1996 19.2307 22.9091 17.5212 22.9091 15.4124C22.9091 13.3037 21.1996 11.5942 19.0909 11.5942C16.9822 11.5942 15.2727 13.3037 15.2727 15.4124C15.2727 17.5212 16.9822 19.2307 19.0909 19.2307Z" fill="#F6B545"/>
<path d="M19.0909 11.5942C16.9636 11.5942 15.2727 13.2852 15.2727 15.4124C15.2727 17.5397 16.9636 19.2307 19.0909 19.2307C21.2182 19.2307 22.9091 17.5397 22.9091 15.4124C22.9091 13.2852 21.2182 11.5942 19.0909 11.5942ZM19.0909 18.1397C17.5636 18.1397 16.3636 16.9397 16.3636 15.4124C16.3636 13.8852 17.5636 12.6852 19.0909 12.6852C20.6182 12.6852 21.8182 13.8852 21.8182 15.4124C21.8182 16.9397 20.6182 18.1397 19.0909 18.1397Z" fill="#FFCB5B"/>
<path d="M19.0908 19.1757C21.2181 19.2303 22.909 17.4848 22.909 15.4121H22.8545C22.5817 15.4121 22.3635 15.6303 22.309 15.903C22.1999 16.6667 21.8181 17.3757 21.2727 17.8667C20.8363 18.303 20.2363 18.5757 19.5817 18.6848C19.309 18.6848 19.0908 18.903 19.0908 19.1757Z" fill="#F6B545"/>
<path d="M19.0909 11.6487C16.9636 11.5941 15.2727 13.3396 15.2727 15.4124H15.3273C15.6 15.4124 15.8182 15.1941 15.8727 14.9214C15.9818 14.1578 16.3636 13.4487 16.9091 12.9578C17.3454 12.5214 17.9454 12.2487 18.6 12.1396C18.8727 12.1396 19.0909 11.9214 19.0909 11.6487Z" fill="#FFE27A"/>
<path d="M16.7456 15.7941C16.7456 14.2669 17.9456 13.0669 19.4728 13.0669C20.1274 13.0669 20.7274 13.2851 21.2183 13.7214C20.6728 13.0669 19.9638 12.6851 19.0911 12.6851C17.5638 12.6851 16.3638 13.8851 16.3638 15.4123C16.3638 16.2851 16.7456 16.9941 17.3456 17.4851C16.9638 17.0487 16.7456 16.4487 16.7456 15.7941Z" fill="#F19920"/>
<path d="M20.7271 17.1033C20.6726 17.1033 20.6181 17.1033 20.5635 17.0487C20.4544 16.9396 20.4544 16.776 20.5635 16.6669C20.8908 16.3396 21.0544 15.8487 21.0544 15.4124C21.0544 15.2487 21.1635 15.1396 21.3271 15.1396C21.4908 15.1396 21.5999 15.2487 21.5999 15.4124C21.5999 16.0124 21.3817 16.6124 20.9999 17.0487C20.8908 17.1033 20.7817 17.1033 20.7271 17.1033Z" fill="#FFCB5B"/>
<path d="M19.0908 17.0486C18.7636 17.0486 18.5454 16.8303 18.5454 16.5031V14.3213C18.5454 13.994 18.7636 13.7759 19.0908 13.7759C19.4181 13.7759 19.6363 13.9941 19.6363 14.3213V16.5031C19.6363 16.8303 19.4181 17.0486 19.0908 17.0486Z" fill="#F19920"/>
<path d="M21.109 18.6305C20.7272 17.2669 19.7454 16.1759 18.4908 15.6851C18.2726 14.4305 17.4544 13.3396 16.4181 12.6851C15.7635 13.3941 15.3271 14.3214 15.3271 15.3578C15.3271 17.4851 17.0181 19.176 19.1454 19.176C19.8545 19.2305 20.509 19.0123 21.109 18.6305Z" fill="#F19920"/>
<path d="M17.3454 17.4849C16.9636 16.994 16.6908 16.394 16.6908 15.7395C16.6908 14.9758 17.0181 14.2668 17.5635 13.7758C17.4544 13.6122 17.3453 13.5031 17.2362 13.394C16.6908 13.885 16.3635 14.594 16.3635 15.4122C16.3636 16.2849 16.7454 16.994 17.3454 17.4849Z" fill="#E78825"/>
<path d="M18.5454 15.7393V16.5029C18.5454 16.8302 18.7636 17.0483 19.0908 17.0483C19.4181 17.0483 19.6363 16.8301 19.6363 16.5029V16.3938C19.309 16.1211 18.9273 15.9029 18.5454 15.7393Z" fill="#E78825"/>
<path d="M21.1091 18.6302C21 18.2484 20.8909 17.9211 20.6727 17.5939C20.2363 17.9211 19.6909 18.1393 19.0909 18.1393C17.5636 18.1393 16.3636 16.9393 16.3636 15.412C16.3636 14.5938 16.6909 13.8847 17.2363 13.3938C16.9636 13.1211 16.6909 12.9029 16.3636 12.7393C15.7091 13.4483 15.2727 14.3756 15.2727 15.412C15.2727 17.5393 16.9636 19.2302 19.0909 19.2302C19.8546 19.2302 20.5091 19.0121 21.1091 18.6302Z" fill="#F6B545"/>
<path d="M20.9454 18.1396C20.5636 18.4124 20.0727 18.576 19.5817 18.6851C19.309 18.7396 19.0908 18.9578 19.0908 19.2305C19.8545 19.2305 20.509 19.0123 21.109 18.6305C21.0545 18.4669 20.9999 18.3033 20.9454 18.1396Z" fill="#F19920"/>
<path d="M16.3636 12.7393C15.7091 13.4483 15.2727 14.3756 15.2727 15.412H15.3273C15.6 15.412 15.8182 15.1938 15.8727 14.9211C15.9818 14.1574 16.3636 13.5029 16.8545 13.012C16.6909 12.9574 16.5273 12.8483 16.3636 12.7393Z" fill="#FFCB5B"/>
<path d="M14.1817 20.3215C16.2905 20.3215 17.9999 18.612 17.9999 16.5033C17.9999 14.3945 16.2905 12.6851 14.1817 12.6851C12.073 12.6851 10.3635 14.3945 10.3635 16.5033C10.3635 18.612 12.073 20.3215 14.1817 20.3215Z" fill="#F6B545"/>
<path d="M13.6362 19.2303C13.6362 19.6121 13.6908 19.9394 13.7999 20.3212C13.9089 20.3212 14.0726 20.3212 14.1817 20.3212C16.3089 20.3212 17.9999 18.6303 17.9999 16.503C17.9999 16.1212 17.9453 15.794 17.8362 15.4121C17.7272 15.4121 17.5635 15.4121 17.4544 15.4121C15.3272 15.4122 13.6362 17.1031 13.6362 19.2303Z" fill="#F19920"/>
<path d="M14.1817 12.6851C12.0544 12.6851 10.3635 14.376 10.3635 16.5033C10.3635 18.6305 12.0544 20.3215 14.1817 20.3215C16.309 20.3215 17.9999 18.6305 17.9999 16.5033C17.9999 14.376 16.309 12.6851 14.1817 12.6851ZM14.1817 19.2305C12.6544 19.2305 11.4544 18.0305 11.4544 16.5032C11.4544 14.9759 12.6544 13.7759 14.1817 13.7759C15.709 13.7759 16.909 14.9759 16.909 16.5032C16.909 18.0305 15.709 19.2305 14.1817 19.2305Z" fill="#FFCB5B"/>
<path d="M14.1819 20.267C16.3092 20.3216 18.0001 18.5761 18.0001 16.5034H17.9455C17.6728 16.5034 17.4546 16.7216 17.4001 16.9943C17.291 17.758 16.9092 18.4671 16.3637 18.958C15.9274 19.3943 15.3274 19.6671 14.6728 19.7762C14.4001 19.7761 14.1819 19.9943 14.1819 20.267Z" fill="#F6B545"/>
<path d="M14.1817 12.74C12.0544 12.6855 10.3635 14.4309 10.3635 16.5037H10.4181C10.6908 16.5037 10.909 16.2854 10.9635 16.0127C11.0726 15.2491 11.4544 14.54 11.9999 14.0491C12.4362 13.6127 13.0362 13.34 13.6908 13.2309C13.9636 13.2309 14.1817 13.0127 14.1817 12.74Z" fill="#FFE27A"/>
<path d="M11.8364 16.885C11.8364 15.3577 13.0364 14.1577 14.5637 14.1577C15.2183 14.1577 15.8183 14.3759 16.3092 14.8122C15.7637 14.1577 15.0546 13.7759 14.1819 13.7759C12.6546 13.7759 11.4546 14.9759 11.4546 16.5032C11.4546 17.3759 11.8364 18.085 12.4364 18.5759C12.0546 18.1395 11.8364 17.5395 11.8364 16.885Z" fill="#F19920"/>
<path d="M15.8182 18.1941C15.7636 18.1941 15.7091 18.1941 15.6546 18.1396C15.5455 18.0305 15.5455 17.8668 15.6546 17.7578C15.9818 17.4305 16.1455 16.9395 16.1455 16.5032C16.1455 16.3395 16.2546 16.2305 16.4182 16.2305C16.5819 16.2305 16.6909 16.3395 16.6909 16.5032C16.6909 17.1032 16.4727 17.7032 16.0909 18.1396C15.9818 18.1941 15.8727 18.1941 15.8182 18.1941Z" fill="#FFCB5B"/>
<path d="M14.1817 18.1399C13.8544 18.1399 13.6362 17.9217 13.6362 17.5944V15.4126C13.6362 15.0853 13.8544 14.8672 14.1817 14.8672C14.5089 14.8672 14.7271 15.0854 14.7271 15.4126V17.5944C14.7272 17.9217 14.5089 18.1399 14.1817 18.1399Z" fill="#F19920"/>
<path d="M16.691 15.4667C16.8001 15.794 16.9092 16.1212 16.9092 16.503C16.9092 18.0303 15.7092 19.2303 14.1819 19.2303C14.0183 19.2303 13.8001 19.2303 13.6365 19.1757V19.2303C13.6365 19.6121 13.691 19.9394 13.8001 20.3212C13.9092 20.3212 14.0728 20.3212 14.1819 20.3212C16.3092 20.3212 18.0001 18.6303 18.0001 16.503C18.0001 16.1212 17.9456 15.794 17.8365 15.4121C17.7274 15.4121 17.5638 15.4121 17.4547 15.4121C17.1819 15.4122 16.9637 15.4122 16.691 15.4667Z" fill="#F6B545"/>
<path d="M16.909 23.5939C19.0178 23.5939 20.7272 21.8845 20.7272 19.7757C20.7272 17.667 19.0178 15.9575 16.909 15.9575C14.8003 15.9575 13.0908 17.667 13.0908 19.7757C13.0908 21.8845 14.8003 23.5939 16.909 23.5939Z" fill="#F6B545"/>
<path d="M16.909 15.958C14.7817 15.958 13.0908 17.6489 13.0908 19.7762C13.0908 21.9035 14.7817 23.5944 16.909 23.5944C19.0363 23.5944 20.7272 21.9035 20.7272 19.7762C20.7272 17.6489 19.0363 15.958 16.909 15.958ZM16.909 22.5035C15.3817 22.5035 14.1817 21.3035 14.1817 19.7762C14.1817 18.2489 15.3817 17.0489 16.909 17.0489C18.4363 17.0489 19.6363 18.2489 19.6363 19.7762C19.6363 21.3035 18.4363 22.5035 16.909 22.5035Z" fill="#FFCB5B"/>
<path d="M16.9092 23.5395C19.0365 23.5941 20.7274 21.8486 20.7274 19.7759H20.6728C20.4001 19.7759 20.1819 19.9941 20.1274 20.2668C20.0183 21.0304 19.6365 21.7395 19.091 22.2304C18.6547 22.6668 18.0547 22.9395 17.4001 23.0486C17.1274 23.0486 16.9092 23.2667 16.9092 23.5395Z" fill="#F6B545"/>
<path d="M16.909 16.0125C14.7817 15.9579 13.0908 17.7034 13.0908 19.7761H13.1454C13.4181 19.7761 13.6363 19.5579 13.6908 19.2852C13.7999 18.5216 14.1817 17.8125 14.7272 17.3216C15.1635 16.8852 15.7635 16.6125 16.4181 16.5034C16.6909 16.5034 16.909 16.2852 16.909 16.0125Z" fill="#FFE27A"/>
<path d="M14.5637 20.1579C14.5637 18.6306 15.7637 17.4306 17.291 17.4306C17.9456 17.4306 18.5456 17.6488 19.0364 18.0852C18.491 17.4306 17.7819 17.0488 16.9092 17.0488C15.3819 17.0488 14.1819 18.2488 14.1819 19.7761C14.1819 20.6488 14.5637 21.3579 15.1637 21.8488C14.7819 21.4125 14.5637 20.8125 14.5637 20.1579Z" fill="#F19920"/>
<path d="M18.5455 21.4671C18.4909 21.4671 18.4364 21.4671 18.3819 21.4125C18.2728 21.3034 18.2728 21.1398 18.3819 21.0307C18.7091 20.7034 18.8728 20.2125 18.8728 19.7761C18.8728 19.6125 18.9819 19.5034 19.1455 19.5034C19.3091 19.5034 19.4182 19.6125 19.4182 19.7761C19.4182 20.3761 19.2 20.9761 18.8182 21.4125C18.7091 21.4671 18.6001 21.4671 18.5455 21.4671Z" fill="#FFCB5B"/>
<path d="M16.9092 21.4124C16.5819 21.4124 16.3638 21.1942 16.3638 20.8669V18.6851C16.3638 18.3578 16.582 18.1396 16.9092 18.1396C17.2365 18.1396 17.4546 18.3579 17.4546 18.6851V20.8669C17.4547 21.1942 17.2365 21.4124 16.9092 21.4124Z" fill="#F19920"/>
</g>
<defs>
<clipPath id="clip0">
<rect width="24" height="24" fill="white" transform="translate(0 0.685059)"/>
</clipPath>
</defs>
</svg>
