<svg width="27" height="26" viewBox="0 0 27 26" fill="none" xmlns="http://www.w3.org/2000/svg">
<path d="M3.54941 14.0834H4.63274V21.6667C4.63274 22.8616 5.60449 23.8334 6.79941 23.8334H19.7994C20.9943 23.8334 21.9661 22.8616 21.9661 21.6667V14.0834H23.0494C23.2636 14.0833 23.473 14.0198 23.6512 13.9007C23.8293 13.7817 23.9681 13.6125 24.0501 13.4146C24.132 13.2167 24.1535 12.9989 24.1117 12.7888C24.0699 12.5787 23.9668 12.3856 23.8153 12.2341L14.0653 2.48414C13.9648 2.38345 13.8454 2.30356 13.714 2.24906C13.5826 2.19456 13.4417 2.1665 13.2994 2.1665C13.1571 2.1665 13.0163 2.19456 12.8848 2.24906C12.7534 2.30356 12.634 2.38345 12.5335 2.48414L2.78349 12.2341C2.63203 12.3856 2.52889 12.5787 2.48711 12.7888C2.44533 12.9989 2.46678 13.2167 2.54876 13.4146C2.63074 13.6125 2.76955 13.7817 2.94766 13.9007C3.12578 14.0198 3.33518 14.0833 3.54941 14.0834ZM13.2994 4.78189L19.7994 11.2819V16.2501L19.8005 21.6667H6.79941V11.2819L13.2994 4.78189Z" fill="#FF7717"/>
<path d="M13.1909 11.1774L13.2993 11.1699C13.4919 11.1699 13.6779 11.2397 13.8231 11.3662C13.9682 11.4928 14.0626 11.6676 14.0888 11.8584L14.0962 11.9668V14.622L16.7524 14.623C16.945 14.6231 17.1311 14.6928 17.2762 14.8194C17.4213 14.9459 17.5157 15.1208 17.5419 15.3115L17.5493 15.4199C17.5493 15.6125 17.4796 15.7985 17.353 15.9437C17.2264 16.0888 17.0516 16.1832 16.8608 16.2094L16.7524 16.2168L14.0962 16.2157V18.873C14.0962 19.0656 14.0264 19.2517 13.8999 19.3968C13.7733 19.5419 13.5985 19.6363 13.4077 19.6625L13.2993 19.6699C13.1068 19.6699 12.9207 19.6002 12.7756 19.4736C12.6305 19.347 12.5361 19.1722 12.5099 18.9814L12.5024 18.873V16.2157L9.84619 16.2168C9.65363 16.2168 9.46758 16.1471 9.32245 16.0205C9.17733 15.8939 9.08294 15.7191 9.05675 15.5283L9.04932 15.4199C9.04932 15.2274 9.11906 15.0413 9.24563 14.8962C9.3722 14.7511 9.54704 14.6567 9.73782 14.6305L9.84619 14.623L12.5024 14.622V11.9668C12.5024 11.7742 12.5722 11.5882 12.6988 11.4431C12.8253 11.2979 13.0002 11.2035 13.1909 11.1774L13.2993 11.1699L13.1909 11.1774Z" fill="#FF7717"/>
</svg>
