<svg width="25" height="25" viewBox="0 0 25 25" fill="none" xmlns="http://www.w3.org/2000/svg">
<circle cx="12.0423" cy="12.5918" r="12" fill="#EB5757"/>
<g clip-path="url(#clip0)">
<path d="M8.15429 7.6076L12.0423 11.4956L15.9143 7.6236C15.9822 7.55138 16.0639 7.4936 16.1546 7.45373C16.2454 7.41387 16.3432 7.39273 16.4423 7.3916C16.6545 7.3916 16.858 7.47589 17.008 7.62592C17.158 7.77595 17.2423 7.97943 17.2423 8.1916C17.2442 8.28968 17.226 8.38711 17.1888 8.47791C17.1517 8.5687 17.0964 8.65095 17.0263 8.7196L13.1143 12.5916L17.0263 16.5036C17.1581 16.6326 17.2355 16.8073 17.2423 16.9916C17.2423 17.2038 17.158 17.4073 17.008 17.5573C16.858 17.7073 16.6545 17.7916 16.4423 17.7916C16.3403 17.7958 16.2386 17.7788 16.1436 17.7416C16.0486 17.7044 15.9623 17.6479 15.8903 17.5756L12.0423 13.6876L8.16229 17.5676C8.0947 17.6374 8.01394 17.6932 7.92469 17.7316C7.83544 17.7701 7.73946 17.7904 7.64229 17.7916C7.43012 17.7916 7.22664 17.7073 7.07661 17.5573C6.92658 17.4073 6.84229 17.2038 6.84229 16.9916C6.84043 16.8935 6.85863 16.7961 6.89577 16.7053C6.93291 16.6145 6.98822 16.5323 7.05829 16.4636L10.9703 12.5916L7.05829 8.6796C6.92644 8.55061 6.84912 8.37593 6.84229 8.1916C6.84229 7.97943 6.92658 7.77595 7.07661 7.62592C7.22664 7.47589 7.43012 7.3916 7.64229 7.3916C7.83429 7.394 8.01829 7.4716 8.15429 7.6076Z" fill="white"/>
</g>
<defs>
<clipPath id="clip0">
<rect width="12" height="12" fill="white" transform="translate(6.0423 6.5918)"/>
</clipPath>
</defs>
</svg>
