<svg width="18" height="21" viewBox="0 0 18 21" fill="none" xmlns="http://www.w3.org/2000/svg">
<path fill-rule="evenodd" clip-rule="evenodd" d="M9.10504 0.165039C10.238 0.165039 16.183 2.20604 16.97 2.99304C17.626 3.64904 17.616 4.17904 17.57 6.71904C17.552 7.73704 17.527 9.12404 17.527 11.044C17.527 17.926 9.65704 20.388 9.32204 20.489C9.25104 20.511 9.17804 20.521 9.10504 20.521C9.03204 20.521 8.95904 20.511 8.88804 20.489C8.55304 20.388 0.683037 17.926 0.683037 11.044C0.683037 9.12704 0.658037 7.74004 0.640037 6.72204C0.631823 6.26793 0.624757 5.87801 0.622431 5.54011L0.622147 5.1588C0.630725 3.90616 0.748287 3.48504 1.24104 2.99304C2.02604 2.20604 7.97104 0.165039 9.10504 0.165039ZM9.10504 1.66504C8.25704 1.66504 2.90704 3.54904 2.29004 4.06404C2.10804 4.24704 2.10104 4.56504 2.14004 6.69404C2.15804 7.72004 2.18304 9.11404 2.18304 11.044C2.18304 16.245 7.90504 18.554 9.10404 18.979C10.302 18.552 16.027 16.23 16.027 11.044C16.027 9.11204 16.052 7.71704 16.071 6.69104C16.109 4.56404 16.102 4.24604 15.909 4.05404C15.304 3.54904 9.95304 1.66504 9.10504 1.66504ZM12.8265 7.50454C13.1195 7.79754 13.1195 8.27254 12.8265 8.56554L8.92854 12.4645C8.81654 12.5773 8.6719 12.6505 8.51663 12.6752L8.39854 12.6845C8.19954 12.6845 8.00854 12.6055 7.86754 12.4645L5.97554 10.5705C5.68354 10.2775 5.68354 9.80154 5.97654 9.50954C6.26854 9.21654 6.74454 9.21654 7.03754 9.50954L8.39854 10.8725L11.7665 7.50454C12.0595 7.21154 12.5335 7.21154 12.8265 7.50454Z" fill="#FF7717"/>
</svg>
