<svg width="19" height="20" viewBox="0 0 19 20" fill="none" xmlns="http://www.w3.org/2000/svg">
<path fill-rule="evenodd" clip-rule="evenodd" d="M12.9087 0C16.0527 0 18.1647 2.153 18.1647 5.357V14.553C18.1647 17.785 16.1177 19.887 12.9497 19.907L5.25671 19.91C2.11271 19.91 -0.000289917 17.757 -0.000289917 14.553V5.357C-0.000289917 2.124 2.04671 0.023 5.21471 0.004L12.9077 0H12.9087ZM12.9087 1.5L5.21971 1.504C2.89171 1.518 1.49971 2.958 1.49971 5.357V14.553C1.49971 16.968 2.90471 18.41 5.25571 18.41L12.9447 18.407C15.2727 18.393 16.6647 16.951 16.6647 14.553V5.357C16.6647 2.942 15.2607 1.5 12.9087 1.5ZM12.7158 13.4737C13.1298 13.4737 13.4658 13.8097 13.4658 14.2237C13.4658 14.6377 13.1298 14.9737 12.7158 14.9737H5.49581C5.08181 14.9737 4.74581 14.6377 4.74581 14.2237C4.74581 13.8097 5.08181 13.4737 5.49581 13.4737H12.7158ZM12.7158 9.2872C13.1298 9.2872 13.4658 9.6232 13.4658 10.0372C13.4658 10.4512 13.1298 10.7872 12.7158 10.7872H5.49581C5.08181 10.7872 4.74581 10.4512 4.74581 10.0372C4.74581 9.6232 5.08181 9.2872 5.49581 9.2872H12.7158ZM8.25051 5.1104C8.66451 5.1104 9.00051 5.4464 9.00051 5.8604C9.00051 6.2744 8.66451 6.6104 8.25051 6.6104H5.49551C5.08151 6.6104 4.74551 6.2744 4.74551 5.8604C4.74551 5.4464 5.08151 5.1104 5.49551 5.1104H8.25051Z" fill="#B6B7B9"/>
</svg>
