<svg width="24" height="25" viewBox="0 0 24 25" fill="none" xmlns="http://www.w3.org/2000/svg">
<path d="M24 5.125V17.125C24 17.9537 23.3287 18.625 22.5 18.625H4.5C3.67126 18.625 3 17.9537 3 17.125V5.125C3 4.29626 3.67126 3.625 4.5 3.625H22.5C23.3287 3.625 24 4.29626 24 5.125Z" fill="#2668ED"/>
<path d="M22.5 6.625V18.625H3V5.125H21C21.8287 5.125 22.5 5.79626 22.5 6.625Z" fill="#1458E0"/>
<path d="M19.5 21.625H1.5C0.671265 21.625 0 20.9537 0 20.125V8.125C0 7.29626 0.671265 6.625 1.5 6.625H19.5C20.3287 6.625 21 7.29626 21 8.125V20.125C21 20.9537 20.3287 21.625 19.5 21.625Z" fill="#40A2E7"/>
<path d="M0 10.375H21V13.375H0V10.375Z" fill="#57565C"/>
<path d="M3 17.125H5.25V18.625H3V17.125Z" fill="white"/>
<path d="M6.75 17.125H9.75V18.625H6.75V17.125Z" fill="white"/>
<path d="M11.25 17.125H14.25V18.625H11.25V17.125Z" fill="white"/>
<path d="M15.75 17.125H18V18.625H15.75V17.125Z" fill="white"/>
</svg>
