<svg width="25" height="25" viewBox="0 0 25 25" fill="none" xmlns="http://www.w3.org/2000/svg">
<circle cx="12.4327" cy="12.5918" r="12" fill="#00BE63"/>
<path d="M16.9268 7.7342C17.1522 7.51963 17.4521 7.401 17.7633 7.40335C18.0745 7.40571 18.3726 7.52886 18.5947 7.74683C18.8168 7.96479 18.9456 8.26052 18.9538 8.5716C18.962 8.88269 18.8491 9.18481 18.6388 9.4142L12.2548 17.3982C12.145 17.5164 12.0125 17.6113 11.8652 17.6772C11.718 17.743 11.5589 17.7785 11.3976 17.7815C11.2363 17.7845 11.076 17.7549 10.9264 17.6946C10.7768 17.6342 10.6409 17.5443 10.5268 17.4302L6.29319 13.1966C6.17529 13.0867 6.08073 12.9543 6.01514 12.8071C5.94955 12.6599 5.91428 12.501 5.91144 12.3398C5.9086 12.1787 5.93824 12.0187 5.99859 11.8692C6.05895 11.7198 6.14878 11.5841 6.26273 11.4701C6.37668 11.3562 6.51241 11.2664 6.66183 11.206C6.81125 11.1457 6.9713 11.116 7.13242 11.1189C7.29355 11.1217 7.45245 11.157 7.59965 11.2226C7.74685 11.2881 7.87933 11.3827 7.98919 11.5006L11.3396 14.8494L16.8964 7.76941C16.9064 7.75709 16.9171 7.74533 16.9284 7.7342H16.9268Z" fill="white"/>
</svg>
