<svg width="27" height="27" viewBox="0 0 27 27" fill="none" xmlns="http://www.w3.org/2000/svg">
<path d="M3.84873 14.3925H4.93206V21.9758C4.93206 23.1707 5.90381 24.1425 7.09873 24.1425H20.0987C21.2936 24.1425 22.2654 23.1707 22.2654 21.9758V14.3925H23.3487C23.563 14.3924 23.7724 14.3289 23.9505 14.2098C24.1286 14.0908 24.2674 13.9216 24.3494 13.7237C24.4314 13.5258 24.4528 13.308 24.411 13.0979C24.3692 12.8877 24.2661 12.6947 24.1146 12.5432L14.3646 2.79322C14.2641 2.69253 14.1447 2.61265 14.0133 2.55814C13.8819 2.50364 13.741 2.47559 13.5987 2.47559C13.4565 2.47559 13.3156 2.50364 13.1841 2.55814C13.0527 2.61265 12.9333 2.69253 12.8328 2.79322L3.08281 12.5432C2.93135 12.6947 2.82821 12.8877 2.78643 13.0979C2.74465 13.308 2.7661 13.5258 2.84808 13.7237C2.93005 13.9216 3.06887 14.0908 3.24698 14.2098C3.42509 14.3289 3.6345 14.3924 3.84873 14.3925ZM13.5987 5.09097L20.0987 11.591V16.5591L20.0998 21.9758H7.09873V11.591L13.5987 5.09097Z" fill="#FF7717"/>
<path d="M13.5986 19.809C17.6102 19.809 18.908 15.9751 18.9611 15.8126L16.9028 15.1398C16.8941 15.1647 16.0567 17.6423 13.5986 17.6423C11.1741 17.6423 10.3269 15.2362 10.2933 15.1333L8.23608 15.8126C8.28917 15.9751 9.587 19.809 13.5986 19.809Z" fill="#FF7717"/>
</svg>
