<svg width="53" height="53" viewBox="0 0 53 53" fill="none" xmlns="http://www.w3.org/2000/svg">
<path d="M48.7099 40.6332C51.8439 35.8336 53.3097 30.0785 52.846 24.3215C52.3514 18.1804 49.6765 12.3963 45.314 8.03382C35.1739 -2.10633 18.675 -2.10633 8.53528 8.03382C3.62348 12.9456 0.918213 19.4764 0.918213 26.4232C0.918213 33.3699 3.62348 39.9007 8.53528 44.8126C12.8978 49.175 18.6823 51.8499 24.823 52.3445C25.5209 52.4006 26.2184 52.4287 26.9145 52.4287C31.9607 52.4287 36.9176 50.9624 41.1347 48.2084L48.8594 50.6841C49.5196 50.8957 50.2424 50.7204 50.7324 50.2304C51.2224 49.74 51.3972 49.0172 51.186 48.3575L48.7099 40.6332Z" fill="#F2F6FC"/>
<path d="M51.1855 48.3573L48.7098 40.633C51.8439 35.8335 53.3097 30.0784 52.8459 24.3214C52.3514 18.1803 49.6765 12.3961 45.314 8.03366C45.314 8.0332 45.314 8.0332 45.3135 8.0332L8.53479 44.8119L8.53525 44.8124C12.8973 49.1749 18.6818 51.8498 24.823 52.3444C25.5209 52.4005 26.2179 52.4285 26.914 52.4285C31.9606 52.4285 36.9171 50.9623 41.1346 48.2082L48.8589 50.6839C49.5191 50.8956 50.2419 50.7203 50.7319 50.2303C51.2219 49.7403 51.3971 49.0171 51.1855 48.3573Z" fill="#F2F6FC"/>
<path d="M16.0401 39.1579C15.5597 39.1579 15.0863 38.9707 14.7316 38.616C14.1795 38.0639 14.0337 37.2256 14.3658 36.5194L21.008 22.4129C21.2647 21.8681 21.7708 21.4821 22.3638 21.3786C22.9569 21.2751 23.5642 21.467 23.9902 21.893L31.4546 29.3573C31.8806 29.7829 32.0724 30.3897 31.9689 30.9832C31.8654 31.5767 31.4794 32.0824 30.9342 32.3391L16.8277 38.9817C16.5756 39.1 16.3069 39.1579 16.0401 39.1579Z" fill="#FFE733"/>
<path d="M31.4542 29.3572L27.7225 25.625L14.7312 38.6158C15.0864 38.9705 15.5598 39.1578 16.0401 39.1578C16.3065 39.1578 16.5757 39.0998 16.8278 38.9816L30.9343 32.3389C31.479 32.0822 31.865 31.5766 31.9685 30.9831C32.072 30.3896 31.8802 29.7827 31.4542 29.3572Z" fill="#FFC247"/>
<path d="M34.787 20.4102C34.3136 20.4102 33.8401 20.2298 33.479 19.8682C32.7562 19.1459 32.7562 17.9745 33.479 17.2522L35.9961 14.7346C36.7184 14.0123 37.8898 14.0123 38.6125 14.7346C39.3349 15.4574 39.3349 16.6288 38.6125 17.3511L36.0954 19.8682C35.7338 20.2298 35.2604 20.4102 34.787 20.4102Z" fill="#FF468C"/>
<path d="M34.7869 20.4099C35.2603 20.4099 35.7337 20.2296 36.0954 19.8679L38.6124 17.3508C39.3348 16.6285 39.3348 15.4572 38.6124 14.7344L33.4789 19.8679C33.84 20.2296 34.3135 20.4099 34.7869 20.4099Z" fill="#D72878"/>
<path d="M37.8087 26.6956C37.3353 26.6956 36.8619 26.5148 36.5007 26.1536C36.0742 25.7271 35.5074 25.4925 34.9042 25.4925C34.3011 25.4925 33.7342 25.7271 33.3077 26.1536C32.5854 26.8759 31.4136 26.8759 30.6913 26.1536C29.969 25.4313 29.969 24.2599 30.6913 23.5371C33.0142 21.2142 36.7942 21.2142 39.1172 23.5371C39.8395 24.2595 39.8395 25.4313 39.1172 26.1536C38.756 26.5148 38.2826 26.6956 37.8087 26.6956Z" fill="#1CADB5"/>
<path d="M26.6514 15.5382C26.6514 16.0116 26.8322 16.485 27.1933 16.8462C27.6198 17.2727 27.8549 17.84 27.8549 18.4427C27.8549 19.0458 27.6198 19.6131 27.1933 20.0396C26.471 20.7619 26.471 21.9333 27.1933 22.6556C27.9157 23.3784 29.0875 23.3784 29.8098 22.6556C32.1328 20.3327 32.1328 16.5531 29.8098 14.2297C29.0875 13.5074 27.9161 13.5074 27.1933 14.2297C26.8322 14.5914 26.6514 15.0648 26.6514 15.5382Z" fill="#06CCAB"/>
</svg>
