<svg width="119" height="119" viewBox="0 0 119 119" fill="none" xmlns="http://www.w3.org/2000/svg">
<g clip-path="url(#clip0_1970:64)">
<path d="M87.1891 39.7042C87.4941 45.7272 95.2176 55.0794 94.3197 67.0119C93.5162 77.687 88.4846 90.6518 78.1845 97.2095C78.2254 97.7987 78.2481 98.3453 78.2481 98.841C78.2481 105.337 74.8326 109.149 67.8962 111.19C67.9026 111.189 104.739 103.168 104.748 63.8488C104.756 23.7406 86.7887 31.79 87.1891 39.7042Z" fill="#FFDCA7"/>
<path d="M83.8734 92.434C82.1938 94.2461 80.2999 95.8613 78.1845 97.2086C78.2254 97.7978 78.2481 98.3453 78.2481 98.841C78.2481 105.337 74.8326 109.149 67.8962 111.19C67.8962 111.19 75.3101 109.576 83.4867 104.248C84.1785 102.696 84.5235 100.904 84.5235 98.841C84.5235 97.1895 84.282 94.9852 83.8734 92.434Z" fill="#FFCF86"/>
<path d="M56.7073 13.7038C56.7073 13.7038 61.5827 1.2093 65.7609 2.07362C69.9971 2.94974 69.1746 17.0449 69.1746 17.0449C69.1746 17.0449 77.9258 30.4763 77.6425 38.2025C77.3593 45.9278 72.3921 51.082 67.4777 52.0216C67.4777 52.0216 78.2481 87.7765 78.2481 98.841C78.2481 109.906 68.3456 113.186 47.9987 113.186C27.6527 113.186 17.7503 109.906 17.7503 98.841C17.7503 87.7765 28.5207 52.0216 28.5207 52.0216C23.6062 51.082 18.6391 45.9278 18.3559 38.2025C18.0717 30.4754 26.8238 17.0449 26.8238 17.0449C26.8238 17.0449 26.0013 2.94974 30.2366 2.07362C34.4148 1.2093 39.2911 13.7038 39.2911 13.7038H56.7073Z" fill="#FFE9C8"/>
<path d="M47.9987 106.911C29.4758 106.911 19.6097 104.191 17.99 95.3546C17.8356 96.682 17.7503 97.8604 17.7503 98.8409C17.7503 109.906 27.6527 113.187 47.9987 113.187C68.3456 113.187 78.2481 109.905 78.2481 98.8409C78.2481 97.8604 78.1618 96.682 78.0075 95.3546C76.3878 104.191 66.5217 106.911 47.9987 106.911Z" fill="#FFDCA7"/>
<path d="M30.2366 2.07362C26.0013 2.94974 26.8239 17.0449 26.8239 17.0449C26.8239 17.0449 18.0717 30.4763 18.3559 38.2025C18.5057 42.2881 19.9656 45.6527 22.0338 48.0568C46.6378 42.555 44.4725 13.7038 44.4725 13.7038H39.2911C39.2911 13.7038 34.4148 1.2093 30.2366 2.07362Z" fill="#FFAE8B"/>
<path d="M65.7609 2.07362C69.9972 2.94974 69.1746 17.0449 69.1746 17.0449C69.1746 17.0449 77.9258 30.4763 77.6426 38.2025C77.4928 42.2881 76.0329 45.6527 73.9647 48.0568C49.3597 42.555 51.5251 13.7038 51.5251 13.7038H56.7073C56.7073 13.7038 61.5828 1.2093 65.7609 2.07362Z" fill="#FFAE8B"/>
<path d="M29.6411 71.8838C29.6411 71.8838 31.3397 116.974 37.8294 116.974C44.3181 116.974 44.4725 76.3243 44.4725 76.3243" fill="#FFE9C8"/>
<path d="M66.3574 71.8838C66.3574 71.8838 64.6578 116.974 58.169 116.974C51.6803 116.974 51.525 76.3243 51.525 76.3243" fill="#FFE9C8"/>
<path d="M36.8016 31.6575C36.8016 29.1816 35.2401 27.2415 33.2463 27.2415C31.2535 27.2415 29.6919 29.1807 29.6919 31.6575C29.6919 34.1333 31.2535 36.0726 33.2463 36.0726C35.2401 36.0726 36.8016 34.1333 36.8016 31.6575Z" fill="black"/>
<path d="M66.1967 31.6575C66.1967 29.1816 64.6351 27.2415 62.6422 27.2415C60.6485 27.2415 59.0869 29.1807 59.0869 31.6575C59.0869 34.1333 60.6485 36.0726 62.6422 36.0726C64.6351 36.0726 66.1967 34.1333 66.1967 31.6575Z" fill="black"/>
<path d="M47.9443 45.1426C48.9121 45.1426 49.6956 44.359 49.6956 43.3912V39.4646C51.7411 38.8781 53.3254 37.3292 53.3254 35.6641C53.3254 35.054 53.0902 33.5787 50.914 33.0639C50.2004 32.895 49.3125 32.8224 47.9443 32.8224C46.577 32.8224 45.6891 32.895 44.9745 33.0639C42.7983 33.5787 42.5632 35.054 42.5632 35.6641C42.5632 37.3292 44.1475 38.8781 46.1929 39.4646V43.3912C46.1929 44.359 46.9774 45.1426 47.9443 45.1426Z" fill="black"/>
<path d="M88.4184 48.6324C90.5783 53.663 93.2665 59.923 92.7409 66.9165C92.3278 72.4048 90.7816 78.1164 88.3866 82.999C87.9608 83.8679 88.3194 84.9165 89.1883 85.3423C89.4361 85.464 89.6994 85.5221 89.9582 85.5221C90.6055 85.5221 91.2274 85.1617 91.5325 84.5416C94.1182 79.2676 95.7878 73.102 96.2336 67.1789C96.8246 59.3292 93.9484 52.6317 91.6369 47.2497C90.315 44.171 89.1728 41.5117 89.0721 39.5207C88.9649 37.4017 90.778 35.2436 92.9533 34.9022C94.2153 34.7034 98.5451 34.8441 101.252 44.9781C101.502 45.9123 102.462 46.467 103.397 46.2183C104.331 45.9686 104.887 45.0081 104.637 44.0738C103.407 39.4726 101.643 36.0471 99.3921 33.8927C97.3394 31.9271 94.8572 31.0573 92.4086 31.4413C88.4411 32.0651 85.3742 35.7684 85.5739 39.6978C85.7065 42.317 86.963 45.2441 88.4184 48.6324Z" fill="black"/>
<path d="M106.717 63.8698C106.718 59.1886 106.475 54.9224 105.993 51.1892C105.871 50.2295 104.991 49.5531 104.033 49.6757C103.074 49.7992 102.396 50.6771 102.519 51.6358C102.981 55.222 103.214 59.3375 103.213 63.8689C103.212 72.5465 101.352 80.3427 97.6871 87.042C94.7573 92.3986 90.6636 97.087 85.5204 100.976C83.2697 102.679 81.0081 104.079 78.8854 105.222C79.6917 103.431 80.0893 101.376 80.0893 99.0299C80.0893 98.7966 80.0839 98.5497 80.0748 98.2963C82.8738 96.3716 85.4023 93.9212 87.6004 90.9941C88.1814 90.2206 88.0253 89.1229 87.2517 88.5419C86.4782 87.9608 85.3805 88.117 84.7995 88.8905C83.2624 90.9369 81.5519 92.7182 79.6935 94.2153C78.0293 81.9124 71.5841 59.57 69.6993 53.182C72.7708 52.029 75.7187 49.4977 77.5635 45.8453L80.0575 47.2008C80.8973 47.6556 81.9777 47.336 82.4326 46.4971C82.8947 45.6474 82.5797 44.5842 81.7299 44.1221L78.8237 42.5432C79.1696 41.2704 79.3911 39.904 79.4647 38.4504L82.3454 37.9584C83.2996 37.7958 83.9406 36.8916 83.7781 35.9374C83.6147 34.9841 82.7104 34.344 81.7562 34.5056L79.2159 34.9387C77.924 27.6919 72.3903 18.5793 70.9967 16.3667C71.0421 15.191 71.1057 12.3956 70.8469 9.49394C70.3312 3.70882 68.7933 0.630136 66.1458 0.0826739C63.5465 -0.453894 60.9318 1.62428 58.1518 6.43977C56.9824 8.46439 56.0482 10.5126 55.5243 11.7328H40.3642C39.8404 10.5126 38.9062 8.46439 37.7368 6.43977C34.9568 1.62428 32.3421 -0.454802 29.7427 0.0826739C27.0953 0.630136 25.5573 3.70882 25.0416 9.49394C24.7829 12.3947 24.8465 15.191 24.8928 16.3667C23.4982 18.5793 17.9655 27.6919 16.6726 34.9387L14.1323 34.5056C13.1791 34.3431 12.2739 34.9841 12.1114 35.9374C11.9489 36.8916 12.5898 37.7958 13.5431 37.9584L16.4239 38.4504C16.4974 39.904 16.7199 41.2704 17.0649 42.5432L14.1587 44.1221C13.3089 44.5842 12.9948 45.6474 13.456 46.4971C13.9117 47.336 14.9912 47.6565 15.831 47.2008L18.325 45.8453C20.1708 49.4987 23.1187 52.0299 26.191 53.182C25.6917 54.8779 24.8637 57.7251 23.8941 61.1906C23.6335 62.1221 24.1773 63.089 25.1088 63.3495C26.0403 63.611 27.0072 63.0663 27.2678 62.1348C28.8403 56.5113 30.0378 52.531 30.0496 52.4911C30.3456 51.5106 29.7064 50.4583 28.7014 50.2658C24.526 49.4678 20.1653 45.01 19.9093 38.0364C19.804 35.1602 21.1695 30.7805 23.8587 25.3722C25.9523 21.1632 28.114 17.8303 28.1358 17.7976C28.34 17.4834 28.4381 17.113 28.4163 16.739C28.4145 16.7054 28.2211 13.2871 28.5307 9.80535C28.9701 4.8791 30.0669 3.59261 30.4527 3.51362C30.8359 3.43191 32.3439 4.11465 34.6862 8.16206C36.3531 11.0419 37.5516 14.0906 37.5634 14.1215C37.8249 14.7933 38.4731 15.2355 39.1949 15.2355H56.6946C57.4164 15.2355 58.0637 14.7933 58.3261 14.1215C58.3379 14.0906 59.5218 11.0728 61.1851 8.19202C63.5374 4.11919 65.0527 3.43373 65.4368 3.51362C65.8208 3.59261 66.9139 4.87274 67.3551 9.77267C67.6684 13.2554 67.475 16.7054 67.4723 16.7399C67.4514 17.113 67.5494 17.4844 67.7537 17.7976C67.7755 17.8303 69.9372 21.1632 72.0308 25.3731C74.72 30.7805 76.0855 35.1602 75.9793 38.0364C75.7241 45.01 71.3626 49.4678 67.1872 50.2658C66.1821 50.4583 65.5439 51.5115 65.839 52.492C65.947 52.8488 76.5866 88.294 76.5866 99.0299C76.5866 102.622 75.4699 105.175 73.0731 107.065C71.0349 108.672 68.017 109.831 63.9006 110.586C64.872 106.751 65.7336 101.435 66.4627 94.7873C67.6974 83.5285 68.1359 72.1235 68.1405 72.01C68.1768 71.0431 67.4232 70.2296 66.4563 70.1933C65.4967 70.1524 64.6768 70.9105 64.6396 71.8774C64.636 71.9827 64.2293 82.5416 63.0998 93.2956C62.4398 99.5729 61.6681 104.679 60.8056 108.471C59.5581 113.952 58.4568 115.2 58.1418 115.456C57.6661 115.103 55.3718 112.549 54.0472 95.7161C53.2845 86.0234 53.2391 76.4941 53.2391 76.3988C53.2355 75.4337 52.452 74.6538 51.4878 74.6538C51.486 74.6538 51.4833 74.6538 51.4805 74.6538C50.5136 74.6574 49.7328 75.4446 49.7365 76.4115C49.7365 76.515 49.7846 86.8105 50.6353 96.9726C51.1383 102.991 51.8219 107.805 52.6672 111.281C52.6944 111.394 52.7235 111.507 52.7516 111.622C51.249 111.669 49.6602 111.692 47.9443 111.692C46.2284 111.692 44.6404 111.669 43.137 111.622C43.166 111.507 43.1942 111.393 43.2214 111.281C44.0667 107.805 44.7512 102.991 45.2542 96.9726C46.104 86.8105 46.1521 76.515 46.153 76.4115C46.1566 75.4446 45.3749 74.6574 44.408 74.6538C44.4053 74.6538 44.4035 74.6538 44.4008 74.6538C43.4366 74.6538 42.6531 75.4337 42.6494 76.3988C42.6494 76.4941 42.6049 86.0061 41.8432 95.6989C40.5186 112.549 38.2225 115.103 37.7468 115.456C37.528 115.278 36.9315 114.622 36.1707 112.411C36.1407 112.257 36.0917 112.11 36.0245 111.973C35.7285 111.058 35.4108 109.912 35.083 108.471C34.2205 104.679 33.4488 99.5729 32.7887 93.2956C31.6593 82.5416 31.2526 71.9827 31.2489 71.8774C31.2117 70.9105 30.3982 70.1515 29.4322 70.1933C28.4653 70.2296 27.7118 71.0431 27.7481 72.01C27.7526 72.1235 28.1921 83.5285 29.4259 94.7873C30.1549 101.436 31.0174 106.751 31.9889 110.586C27.8806 109.833 24.8673 108.678 22.83 107.077C20.4232 105.185 19.3019 102.628 19.3019 99.0299C19.3019 94.2952 21.421 83.8617 25.4284 68.8578C25.6781 67.9226 25.1234 66.963 24.1882 66.7133C23.2549 66.4645 22.2944 67.0184 22.0438 67.9535C17.9001 83.4658 15.7992 93.9221 15.7992 99.0299C15.7992 103.724 17.3908 107.256 20.6647 109.83C23.4556 112.024 27.5429 113.498 33.1356 114.325C34.1279 116.902 35.5424 119 37.7259 119C39.7814 119 41.1151 117.229 42.0212 115.089C43.856 115.16 45.8053 115.195 47.9443 115.195C50.0833 115.195 52.0326 115.16 53.8674 115.089C54.7735 117.229 56.1072 119 58.1627 119C60.3471 119 61.7607 116.902 62.7539 114.325C64.7931 114.023 66.6297 113.633 68.2785 113.156C69.0502 112.995 106.708 104.414 106.717 63.8698Z" fill="black"/>
</g>
<defs>
<clipPath id="clip0_1970:64">
<rect width="119" height="119" fill="white"/>
</clipPath>
</defs>
</svg>
