<svg width="119" height="119" viewBox="0 0 119 119" fill="none" xmlns="http://www.w3.org/2000/svg">
<g clip-path="url(#clip0_1970:78)">
<path d="M92.1697 117.28C88.9317 101.054 85.3124 92.9361 79.213 77.7573L76.3151 70.9556H42.5298L39.787 77.7573C33.6873 92.9359 30.068 101.054 26.8303 117.28H92.1697Z" fill="#FCD1B3"/>
<path d="M79.213 77.7573L76.3151 70.9556H69.3411L72.239 77.7573C78.3387 92.9359 81.958 101.054 85.1958 117.28H92.1697C88.9317 101.054 85.3125 92.9361 79.213 77.7573Z" fill="#FCC29A"/>
<path d="M59.6185 94.9635C75.2083 94.9635 81.8589 86.1954 81.8589 86.1954L82.3922 85.6409C81.4103 83.1942 80.3551 80.5997 79.213 77.7575L76.3151 70.9558H42.5299L39.787 77.7575C38.6424 80.6062 37.5851 83.2058 36.6011 85.6574L37.1104 86.1956C37.1104 86.1954 44.0286 94.9635 59.6185 94.9635Z" fill="#FC7743"/>
<path d="M79.213 77.7573L76.3151 70.9556H42.5299L40.318 76.4406H71.8041L74.702 83.2423C75.6758 85.6658 76.5859 87.9081 77.4419 90.0333C80.4567 88.0379 81.859 86.1953 81.859 86.1953L82.3922 85.6409C81.4103 83.1942 80.3551 80.5996 79.213 77.7573Z" fill="#FC5D1E"/>
<path d="M67.1574 83.7119C67.1574 86.455 64.9296 88.6788 62.1817 88.6788H56.8187C54.0707 88.6788 51.843 86.455 51.843 83.7119V76.8702H67.1576V83.7119H67.1574Z" fill="#E09A6C"/>
<path d="M59.4999 73.374V78.1972C59.4999 81.2711 61.9963 83.7629 65.0756 83.7629C69.426 83.7629 73.5982 82.0378 76.6745 78.9671L76.9802 78.6619C80.0564 75.5913 81.7845 71.4264 81.7845 67.0837C81.7845 65.9695 81.6613 64.8693 81.4233 63.8004L81.4626 63.7915L88.8678 18.0562C88.8678 18.3886 72.7179 8.43349 72.7179 8.43349C70.6004 7.23117 68.2845 6.30177 65.8083 5.70108C61.6628 4.69567 57.3363 4.69567 53.1908 5.70108C50.7145 6.30177 48.3989 7.23117 46.2812 8.43349L29.9763 16.6614C30.0304 17.2809 37.5365 63.7915 37.5365 63.7915L37.5516 63.8336C37.3292 64.8941 37.2145 65.9825 37.2145 67.0835C37.2145 71.4262 38.9427 75.591 42.0189 78.6617L42.3246 78.9669C45.4008 82.0376 49.5731 83.7627 53.9235 83.7627C57.003 83.7627 59.4992 81.2709 59.4992 78.197V73.374" fill="#FCD1B3"/>
<path d="M81.463 63.7915L88.8682 18.0561C88.8682 18.3885 72.7184 8.43343 72.7184 8.43343C70.6008 7.23111 68.285 6.30172 65.809 5.70102C62.5961 4.9218 59.2751 4.74931 56.0134 5.17797C56.9602 5.30234 57.9024 5.47483 58.835 5.70102C61.3113 6.30148 63.6269 7.23111 65.7444 8.43343C65.7444 8.43343 81.8943 18.3883 81.8943 18.0561L74.4891 63.7915L74.4498 63.8003C74.6878 64.869 74.811 65.9692 74.811 67.0837C74.811 71.4264 73.0829 75.5912 70.0067 78.6619L69.701 78.9671C67.6936 80.9709 65.2181 82.3971 62.5322 83.1494C63.2951 83.5406 64.1592 83.7629 65.0758 83.7629C69.4262 83.7629 73.5985 82.0377 76.6747 78.9671L76.9804 78.6619C80.0566 75.5912 81.7848 71.4264 81.7848 67.0837C81.7848 65.9694 81.6616 64.8692 81.4235 63.8003L81.463 63.7915Z" fill="#FCC29A"/>
<path d="M66.9357 5.87859L73.2381 2.18796C74.0669 1.70281 75.0688 1.61098 75.9721 1.9376L97.1296 9.58735C98.7691 10.1801 99.6414 11.9655 99.0995 13.6199L92.0383 35.1839C91.5425 36.6982 89.6551 37.2087 88.4616 36.151C84.1812 32.3567 75.7831 23.2873 72.7162 8.43781L66.9357 5.87859Z" fill="#B55C22"/>
<path d="M97.1294 9.58735L75.972 1.9376C75.0686 1.61098 74.0667 1.70281 73.238 2.18796L71.8839 2.98091L90.1554 9.58712C91.795 10.1799 92.6672 11.9652 92.1254 13.6199L85.6431 33.4156C86.6875 34.5193 87.6488 35.4306 88.4612 36.1508C89.6547 37.2087 91.5421 36.6982 92.038 35.1839L99.0991 13.6199C99.6412 11.9655 98.7692 10.1801 97.1294 9.58735Z" fill="#A84C0F"/>
<path d="M52.0642 5.87859L45.7619 2.18796C44.9331 1.70281 43.9312 1.61098 43.0278 1.9376L21.8706 9.58735C20.2311 10.1801 19.3588 11.9655 19.9007 13.6199L26.9619 35.1839C27.4577 36.6982 29.3451 37.2087 30.5386 36.151C34.819 32.3567 43.2171 23.2873 46.284 8.43781L52.0642 5.87859Z" fill="#B55C22"/>
<path d="M59.5 113.277C63.1914 113.277 66.1838 110.289 66.1838 106.604C66.1838 102.919 63.1914 99.9314 59.5 99.9314C55.8086 99.9314 52.8161 102.919 52.8161 106.604C52.8161 110.289 55.8086 113.277 59.5 113.277Z" fill="#FDE86F"/>
<path d="M59.4999 99.9314C58.2221 99.9314 57.0281 100.29 56.0129 100.911C57.9303 102.084 59.2098 104.195 59.2098 106.604C59.2098 109.014 57.9303 111.124 56.0129 112.297C57.0281 112.918 58.2221 113.277 59.4999 113.277C63.1913 113.277 66.1838 110.289 66.1838 106.604C66.1838 102.919 63.1915 99.9314 59.4999 99.9314Z" fill="#FDDF33"/>
<path d="M61.8713 72.0072C60.8173 73.8293 58.1825 73.8293 57.1288 72.0072L55.1244 68.5416L52.2102 63.5031C51.4189 62.1351 51.9508 60.3841 53.3702 59.6854C57.2345 57.7826 61.7655 57.7826 65.6298 59.6854C67.049 60.3841 67.5811 62.1351 66.7898 63.5031L63.8756 68.5416L61.8713 72.0072Z" fill="#B55C22"/>
<path d="M70.1942 33.7775C74.7643 32.0535 77.8833 34.945 78.0137 35.0689C79.5959 36.5713 77.2673 39.1682 75.6128 37.5976C75.5968 37.5823 73.9321 36.0945 71.4249 37.0402C69.5956 37.7304 68.7213 40.0757 68.699 40.1362C67.9642 42.2184 64.6653 41.1172 65.4085 38.9827C65.464 38.8225 66.8098 35.0542 70.1942 33.7775Z" fill="black"/>
<path d="M97.7222 7.94778L76.5647 0.298023C75.17 -0.206196 73.6364 -0.0655539 72.3569 0.683451L66.5392 4.09024C66.4325 4.06304 66.3267 4.03282 66.2195 4.00678C61.8236 2.94046 57.1762 2.94046 52.78 4.00678C52.6728 4.03282 52.5671 4.06304 52.4604 4.09024L46.6429 0.683451C45.3634 -0.0657864 43.8298 -0.206196 42.435 0.29779L34.6149 3.12527C32.5631 3.8673 33.655 7.17901 35.8007 6.40444L43.6208 3.57695C44.0386 3.42608 44.4982 3.46793 44.881 3.69226L48.1016 5.57825C47.185 5.97717 46.29 6.42373 45.4211 6.91702C44.944 7.18785 44.6444 7.64976 44.5619 8.15165C42.09 20.0411 36.1452 28.0633 31.6942 32.6357C31.6565 32.6705 31.6207 32.707 31.5865 32.7452C30.7934 33.5546 30.0483 34.2552 29.3823 34.8457C29.0538 35.0514 28.7993 34.9831 28.6189 34.6409L21.5575 13.0774C21.3076 12.3137 21.7053 11.5008 22.4634 11.2269L27.2585 9.49321C29.3102 8.75118 28.2183 5.43854 26.0727 6.21405L21.2776 7.94778C18.7361 8.86672 17.4033 11.5966 18.2437 14.1628L25.3048 35.7265C26.1568 38.3292 29.509 39.2949 31.6172 37.5186L35.7805 63.8461C34.9415 68.2922 35.8746 73.0175 38.3157 76.8237C38.3157 76.8237 33.029 89.6679 30.9452 95.553C28.4724 102.536 26.5699 109.676 25.1205 116.939C24.7007 119.043 28.073 119.962 28.5401 117.622C30.9356 105.617 33.4869 98.2366 37.2169 88.8196C39.9634 91.3719 46.6108 96.2102 57.8749 96.6702V98.3468C54.0032 99.1053 51.0728 102.519 51.0728 106.604C51.0728 111.245 54.8534 115.021 59.5001 115.021C64.1469 115.021 67.9275 111.245 67.9275 106.604C67.9275 102.603 65.1156 99.2469 61.3619 98.3977V96.6702C72.5852 96.2107 79.0921 91.3937 81.7862 88.8266C83.1356 92.235 84.3231 95.3591 85.4238 98.5872C86.1382 100.682 89.455 99.6051 88.7241 97.4618C86.5003 90.9402 80.684 76.8239 80.684 76.8239C83.1138 73.0354 84.0727 68.3036 83.2147 63.8765L87.3828 37.5188C89.4731 39.2802 92.8399 38.3385 93.6952 35.7268L100.756 14.1628C101.596 11.5966 100.264 8.86672 97.7222 7.94778ZM64.4403 106.604C64.4403 109.322 62.2239 111.533 59.4999 111.533C56.7758 111.533 54.5595 109.322 54.5595 106.604C54.5595 104.455 55.9478 102.627 57.8747 101.955V103.049C57.8747 105.231 61.3617 105.33 61.3617 103.049V102.041C63.1652 102.777 64.4403 104.544 64.4403 106.604ZM59.6184 93.2198C46.1726 93.2198 39.6924 86.5075 38.6279 85.2904C38.9987 84.37 39.379 83.4283 39.7724 82.4547C40.1066 81.6276 40.4498 80.7782 40.8006 79.9083L41.0935 80.201C43.6383 82.7411 46.8063 84.4319 50.2529 85.1353C50.9084 88.1539 53.6027 90.4223 56.8184 90.4223H62.1814C65.3973 90.4223 68.0914 88.1539 68.7469 85.1353C72.1932 84.4319 75.3615 82.7411 77.9063 80.2007L78.1992 79.9083C78.55 80.7784 78.8934 81.6281 79.2276 82.4557C79.6196 83.4253 79.9971 84.36 80.3642 85.2715C79.4583 86.3604 73.2075 93.2198 59.6184 93.2198ZM59.4999 82.9245C60.8017 84.4532 62.7202 85.441 64.868 85.5012C64.2875 86.365 63.3002 86.9353 62.1814 86.9353H56.8184C55.6995 86.9353 54.7122 86.365 54.1318 85.5012C56.2798 85.441 58.1983 84.4532 59.4999 82.9245ZM60.3621 71.1343C59.982 71.7913 59.018 71.7913 58.6379 71.1343L53.7194 62.6305C53.4597 62.0486 53.5999 61.5884 54.1404 61.2497C55.8183 60.4232 57.6592 60.0101 59.4999 60.0101C61.3406 60.0101 63.1814 60.4232 64.8596 61.2497C65.3999 61.5886 65.5403 62.0489 65.2806 62.6305L60.3621 71.1343ZM80.6631 57.6864C79.1533 55.4399 77.039 53.7659 75.014 52.0135C73.3642 50.5857 71.0072 53.1577 72.7323 54.6504C76.6531 58.0433 80.0413 61.4531 80.0413 67.0834C80.0413 75.1448 73.1294 82.0193 65.0758 82.0193C62.9627 82.0193 61.2436 80.3047 61.2436 78.1971V74.771C62.1274 74.4016 62.8776 73.75 63.3807 72.8802L68.2992 64.3763C69.5657 62.1865 68.6749 59.2416 66.4004 58.1214C62.0796 55.9938 56.9207 55.9938 52.6003 58.1214C50.3317 59.2386 49.4313 62.1805 50.7013 64.3763L55.6198 72.8802C56.1229 73.7498 56.873 74.4014 57.7569 74.771V78.1971C57.7569 80.3047 56.0375 82.0193 53.9247 82.0193C45.8725 82.0193 38.9592 75.1465 38.9592 67.0834C38.9592 61.6813 42.0603 58.0579 45.773 54.6093C47.3714 53.1245 45.0714 50.5021 43.3998 52.0545C41.5637 53.7598 39.6868 55.3936 38.3108 57.519C38.3108 57.519 34.7362 34.8636 34.6979 34.5412C39.3139 29.6547 45.1863 21.4527 47.818 9.58178C49.6408 8.62053 51.5826 7.88525 53.6027 7.39521C57.4614 6.45953 61.54 6.45953 65.3985 7.39521C67.4186 7.88525 69.3604 8.62053 71.1832 9.58178C73.8149 21.4524 79.687 29.6547 84.3033 34.5412C84.2643 34.8638 80.6631 57.6864 80.6631 57.6864ZM97.4425 13.0774L90.3814 34.6414C90.201 34.9836 89.9464 35.0517 89.6179 34.8462C88.9519 34.2557 88.2071 33.5551 87.4137 32.7456C87.3793 32.7075 87.3435 32.6708 87.3056 32.6359C82.8548 28.0635 76.9097 20.0414 74.4381 8.15189C74.3556 7.64976 74.056 7.18785 73.579 6.91726C72.7098 6.42396 71.815 5.9774 70.8984 5.57849L74.1192 3.69226C74.5023 3.46793 74.9619 3.42608 75.3792 3.57695L96.5366 11.2267C97.2944 11.501 97.6924 12.314 97.4425 13.0774Z" fill="black"/>
<path d="M48.813 33.7775C44.2429 32.0535 41.1239 34.945 40.9935 35.0689C39.4113 36.5713 41.74 39.1682 43.3944 37.5976C43.4105 37.5823 45.0751 36.0945 47.5823 37.0402C49.4116 37.7304 50.2859 40.0757 50.3082 40.1362C51.043 42.2184 54.3419 41.1172 53.5987 38.9827C53.5429 38.8225 52.1972 35.0542 48.813 33.7775Z" fill="black"/>
<path d="M91.377 106.15C90.8091 104.043 87.4165 104.856 88.0105 107.058C88.8943 110.336 89.6956 113.792 90.46 117.622C90.8954 119.803 94.3212 119.153 93.8795 116.939C93.1001 113.033 92.2816 109.503 91.377 106.15Z" fill="black"/>
</g>
<defs>
<clipPath id="clip0_1970:78">
<rect width="119" height="119" fill="white"/>
</clipPath>
</defs>
</svg>
