<svg width="23" height="20" viewBox="0 0 23 20" fill="none" xmlns="http://www.w3.org/2000/svg">
<path fill-rule="evenodd" clip-rule="evenodd" d="M16.4361 0C19.7661 0 22.2771 2.717 22.2771 6.32V13.188C22.2771 15.032 21.6251 16.698 20.4401 17.88C19.3771 18.939 17.9981 19.5 16.4521 19.5H6.5991C5.0561 19.5 3.6781 18.94 2.6141 17.88C1.4291 16.698 0.7771 15.032 0.7771 13.188V6.32C0.7771 2.717 3.2881 0 6.6181 0H16.4361ZM16.4361 1.5H6.6181C4.1031 1.5 2.2771 3.527 2.2771 6.32V13.188C2.2771 14.631 2.7731 15.92 3.6731 16.817C4.4491 17.592 5.4621 18 6.6021 18H16.4361C16.4381 17.998 16.4461 18 16.4521 18C17.5931 18 18.6051 17.592 19.3811 16.817C20.2821 15.92 20.7771 14.631 20.7771 13.188V6.32C20.7771 3.527 18.9511 1.5 16.4361 1.5ZM18.0121 6.1288C18.2731 6.4498 18.2241 6.9218 17.9031 7.1838L13.4591 10.7958C12.8971 11.2418 12.2251 11.4648 11.5541 11.4648C10.8851 11.4648 10.2181 11.2438 9.6601 10.8018L5.1751 7.1858C4.8521 6.9258 4.8021 6.4528 5.0611 6.1308C5.3221 5.8098 5.7941 5.7588 6.1161 6.0178L10.5971 9.6298C11.1601 10.0758 11.9531 10.0758 12.5201 9.6258L16.9561 6.0198C17.2781 5.7568 17.7501 5.8068 18.0121 6.1288Z" fill="#FF7717"/>
</svg>
