<svg width="22" height="21" viewBox="0 0 22 21" fill="none" xmlns="http://www.w3.org/2000/svg">
<path fill-rule="evenodd" clip-rule="evenodd" d="M3.13676 3.06081C3.13876 3.06081 3.08876 3.11281 3.02576 3.17481C2.78376 3.40981 2.28276 3.89881 2.27771 4.92181C2.26976 6.35281 3.21076 9.00981 7.74176 13.5398C12.2518 18.0478 14.9048 18.9998 16.3388 18.9998H16.3598C17.3828 18.9948 17.8708 18.4928 18.1068 18.2518C18.1788 18.1778 18.2368 18.1238 18.2778 18.0898C19.2738 17.0878 19.7838 16.3418 19.7788 15.8638C19.7718 15.3758 19.1648 14.7988 18.3258 14.0008C18.0588 13.7468 17.7688 13.4708 17.4628 13.1648C16.6698 12.3738 16.2768 12.5088 15.4128 12.8128C14.2178 13.2318 12.5778 13.8018 10.0298 11.2528C7.47776 8.70281 8.04876 7.06481 8.46676 5.86981C8.76876 5.00581 8.90676 4.61181 8.11276 3.81781C7.80176 3.50781 7.52276 3.21381 7.26576 2.94381C6.47276 2.10981 5.90076 1.50681 5.41576 1.49981H5.40776C4.92876 1.49981 4.18476 2.01181 3.13176 3.06481C3.13476 3.06181 3.13576 3.06081 3.13676 3.06081ZM16.3398 20.4998C13.8478 20.4998 10.5988 18.5158 6.68176 14.6008C2.74976 10.6698 0.762756 7.41081 0.777671 4.91381C0.786756 3.26381 1.65176 2.41881 1.97676 2.10181C1.99376 2.08081 2.05176 2.02381 2.07176 2.00381C3.50576 0.568814 4.47276 -0.0111858 5.43476 -0.000339144C6.55176 0.0148142 7.34676 0.850814 8.35276 1.90981C8.60176 2.17181 8.87176 2.45681 9.17276 2.75681C10.6328 4.21681 10.2168 5.40781 9.88276 6.36381C9.51876 7.40681 9.20376 8.30682 11.0898 10.1928C12.9778 12.0788 13.8778 11.7638 14.9168 11.3968C15.8738 11.0628 17.0618 10.6448 18.5238 12.1048C18.8198 12.4008 19.1008 12.6678 19.3598 12.9148C20.4238 13.9258 21.2638 14.7248 21.2779 15.8448C21.2898 16.7998 20.7098 17.7728 19.2778 19.2058L18.6438 18.7758L19.1798 19.2998C18.8628 19.6248 18.0188 20.4908 16.3678 20.4998H16.3398Z" fill="#FF7717"/>
</svg>
