<svg width="207" height="155" viewBox="0 0 207 155" fill="none" xmlns="http://www.w3.org/2000/svg">
<path opacity="0.1" d="M35.8345 146.834C35.8345 146.834 10.1631 128.633 2.77474 97.6468C-4.61366 66.6605 6.66165 29.0942 28.056 10.1308C49.4504 -8.83257 87.9575 3.93447 105.07 19.8137L122.188 35.6929C122.188 35.6929 138.525 44.5849 159.915 43.8268C181.304 43.0686 200.367 72.1033 205.425 94.9558C210.482 117.808 198.422 148.013 198.422 148.013L35.8345 146.834Z" fill="#FF7717"/>
<g style="mix-blend-mode:multiply" opacity="0.1">
<path d="M61.5245 146.445C60.4153 145.285 44.0875 112.749 62.2671 82.9282C80.4467 53.1072 126.084 56.5892 144.259 68.2096C162.434 79.83 171.345 94.9371 173.201 110.798C175.058 126.658 162.81 151.462 162.81 151.462L61.5245 146.445Z" fill="#FF7717"/>
</g>
<path d="M189.524 76.5684H168.553C167.255 76.5684 166.203 77.616 166.203 78.9084V89.3354C166.203 90.6277 167.255 91.6754 168.553 91.6754H189.524C190.822 91.6754 191.874 90.6277 191.874 89.3354V78.9084C191.874 77.616 190.822 76.5684 189.524 76.5684Z" fill="#FF7717"/>
<path d="M179.039 97.581L182.362 89.7373H175.716L179.039 97.581Z" fill="#60A8FF"/>
<path d="M178.959 81.5287H184.965V82.4039L187.908 80.7144L184.965 79.0249V79.9001H178.959V81.5287Z" fill="#232C63"/>
<path d="M187.908 84.9642H181.906V84.0938L178.959 85.7832L181.906 87.4727V86.5976H187.908V84.9642Z" fill="white"/>
<path d="M175.274 86.5034L174.992 86.6064C174.443 85.9681 173.987 85.256 173.638 84.491C173.346 83.7068 173.187 82.8796 173.168 82.0434L173.375 81.9544L172.106 78.9312C171.859 79.1215 171.65 79.3564 171.49 79.6238C170.771 80.8359 170.842 82.6892 171.566 84.5004C172.289 86.3115 173.06 87.9308 174.47 88.9464C174.76 89.1853 175.096 89.3632 175.457 89.4694C175.818 89.5755 176.197 89.6078 176.571 89.5641L175.274 86.5034Z" fill="#232C63"/>
<path d="M176.186 86.1483L175.791 86.2887L177.093 89.3868C177.228 89.3427 177.358 89.2863 177.483 89.2183C177.645 89.1306 177.769 88.9872 177.832 88.8149C177.895 88.6426 177.893 88.4532 177.826 88.2823L177.149 86.5835C177.078 86.4 176.937 86.2517 176.757 86.1703C176.577 86.089 176.372 86.0811 176.186 86.1483Z" fill="#232C63"/>
<path d="M173.089 78.384C172.913 78.4489 172.743 78.5288 172.581 78.6227L173.878 81.7115L174.315 81.5336C174.496 81.456 174.64 81.3121 174.717 81.1317C174.794 80.9513 174.798 80.7484 174.729 80.5649L174.047 78.852C173.981 78.6644 173.844 78.5102 173.664 78.4226C173.485 78.3351 173.278 78.3212 173.089 78.384Z" fill="#232C63"/>
<path d="M55.4617 141.217V106.361C55.4617 106.361 55.0716 96.9679 60.0348 94.2582C64.998 91.5485 85.8848 92.9993 85.8848 92.9993V141.203L55.4617 141.217Z" fill="#232C63"/>
<path d="M92.4318 60.3657C92.4318 60.3657 91.1675 70.9238 90.6787 71.7943L90.2087 72.6648L87.7882 74.3121C87.7882 74.3121 92.4553 80.8969 98.1893 81.9592C103.923 83.0216 103.444 79.6192 103.444 79.6192L102.565 77.7753L103.735 67.7086C103.735 67.7086 93.306 62.9818 92.4318 60.3657Z" fill="#FF9D8C"/>
<path d="M84.7473 75.1825L88.5402 73.5352C88.5402 73.5352 90.9701 77.5038 96.6101 79.8298C102.25 82.1557 102.349 80.7985 102.64 79.8298C102.8 79.1554 102.766 78.4499 102.542 77.794L102.96 74.4056L105.216 75.1544L113.046 138.217L92.9159 139.186L84.7473 75.1825Z" fill="white"/>
<path d="M103.322 74.4712C103.322 74.4712 104.685 77.6021 105.949 84.9638C107.213 92.3254 108.379 104.713 108.67 113.236C108.962 121.758 109.14 141.217 109.14 141.217H134.52C134.812 141.217 136.565 131.633 136.565 131.633C136.565 131.633 125.492 122.174 124.918 120.625C124.528 119.596 124.725 100.455 123.071 91.6421C121.417 82.8297 119.278 81.056 114.794 78.8517C110.174 76.5912 103.322 74.4712 103.322 74.4712Z" fill="#FF7717"/>
<path d="M116.548 130.126C116.485 130.126 116.425 130.101 116.381 130.057C116.337 130.013 116.313 129.954 116.313 129.892C116.313 129.199 116.186 119.362 116.068 109.847C115.951 100.333 115.824 90.5002 115.824 89.8028C115.824 89.7408 115.848 89.6813 115.893 89.6374C115.937 89.5935 115.996 89.5688 116.059 89.5688C116.121 89.5688 116.181 89.5935 116.225 89.6374C116.269 89.6813 116.294 89.7408 116.294 89.8028C116.294 90.4955 116.421 100.333 116.538 109.843C116.656 119.352 116.783 129.194 116.783 129.892C116.781 129.953 116.756 130.012 116.712 130.056C116.669 130.099 116.609 130.125 116.548 130.126Z" fill="#C75200"/>
<path d="M65.9802 127.758L65.7875 141.218H95.3458C95.3458 141.218 96.6101 129.794 96.126 128.727C95.6419 127.66 65.9802 127.758 65.9802 127.758Z" fill="#232C63"/>
<g style="mix-blend-mode:multiply">
<g style="mix-blend-mode:multiply">
<path d="M98.8802 71.5043C100.138 72.4457 101.533 73.1906 103.016 73.7133L103.712 67.7275C103.712 67.7275 95.8957 64.1614 93.2449 61.5078C93.7995 64.5217 95.1625 68.5138 98.8802 71.5043Z" fill="#8E9BBB"/>
</g>
</g>
<path d="M112.853 40.7097C114.162 43.111 114.987 45.7436 115.283 48.4598C115.673 52.7186 115.283 63.6604 111.782 68.3076C108.28 72.9549 100.972 71.5836 97.6817 68.7756C94.6456 66.2016 91.6517 63.3562 90.8762 57.7402C90.1007 52.1242 92.5259 41.4725 99.4301 39.2448C106.334 37.0171 112.853 40.7097 112.853 40.7097Z" fill="#FF9D8C"/>
<path d="M121.628 135.134C121.628 135.134 121.285 135.134 120.763 135.134H120.364L118.634 135.087H118.221C117.61 135.087 117.088 135.148 116.599 135.12C116.496 135.12 116.345 135.12 116.223 135.12C116.172 135.124 116.12 135.124 116.068 135.12C115.842 135.069 115.625 134.983 115.424 134.867C112.126 134.031 108.741 133.582 105.338 133.528C100.995 133.528 97.0989 133.842 96.4644 133.313C95.8299 132.784 95.4398 127.342 99.1481 126.986L103.707 128.708C103.707 128.708 114.118 127.477 117.934 130.281C121.75 133.084 121.628 135.134 121.628 135.134Z" fill="#FF9D8C"/>
<path d="M116.58 135.087C116.477 135.087 116.327 135.087 116.204 135.087C116.085 134.899 115.951 134.721 115.805 134.553C114.63 133.36 111.791 132.587 110.762 132.339C110.717 132.328 110.678 132.3 110.653 132.261C110.628 132.221 110.62 132.174 110.63 132.129C110.636 132.106 110.646 132.085 110.66 132.066C110.673 132.047 110.691 132.031 110.711 132.019C110.731 132.006 110.753 131.998 110.777 131.995C110.8 131.991 110.824 131.992 110.846 131.998C112.346 132.358 115.546 133.28 116.43 134.806C116.458 134.848 116.533 135.012 116.58 135.087Z" fill="#232C63"/>
<path d="M118.63 135.064C118.493 135.064 118.352 135.064 118.216 135.064C116.933 132.724 114.837 132.068 112.242 131.235L112.087 131.184C112.065 131.176 112.045 131.165 112.028 131.15C112.01 131.135 111.996 131.116 111.986 131.095C111.976 131.075 111.969 131.052 111.968 131.029C111.966 131.006 111.969 130.983 111.977 130.962C111.984 130.94 111.996 130.92 112.011 130.902C112.026 130.885 112.045 130.871 112.066 130.86C112.086 130.85 112.109 130.844 112.132 130.843C112.155 130.841 112.178 130.844 112.2 130.852L112.35 130.903C115.091 131.764 117.3 132.466 118.63 135.064Z" fill="#232C63"/>
<path d="M120.759 135.115H120.359C119.652 133.854 118.683 132.758 117.518 131.898C116.353 131.038 115.018 130.434 113.601 130.126C113.577 130.123 113.555 130.115 113.534 130.102C113.514 130.09 113.497 130.074 113.483 130.054C113.47 130.035 113.46 130.013 113.455 129.99C113.45 129.967 113.45 129.943 113.455 129.92C113.465 129.876 113.491 129.837 113.529 129.811C113.566 129.785 113.612 129.774 113.657 129.78C117.168 130.435 120.002 133.285 120.759 135.115Z" fill="#232C63"/>
<path d="M93.2073 52.9622C94.7831 52.0604 96.0529 50.7113 96.8545 49.0871C97.753 47.4215 98.2046 45.5533 98.1658 43.663C98.1658 43.663 100.892 43.2278 104.976 44.4399C109.06 45.652 113.906 47.2947 118.005 44.9734C122.103 42.6521 122.089 38.9222 120.096 37.3731C117.864 35.6368 113.436 36.6945 113.436 36.6945C113.436 36.6945 115.138 35.0471 114.212 34.0784C113.286 33.1096 109.935 34.3685 109.935 34.3685C109.935 34.3685 105.85 31.1253 98.1188 31.5137C90.3873 31.9022 86.6931 37.2748 86.256 43.2839C85.8189 49.2931 88.0044 55.2881 88.0044 55.2881L93.2073 52.9622Z" fill="#232C63"/>
<g style="mix-blend-mode:multiply">
<g style="mix-blend-mode:multiply">
<path d="M108.891 54.4173C108.454 55.4891 108.463 56.7574 108.355 57.8806C108.271 58.7698 108.106 59.804 108.924 60.4031C109.314 60.6886 111.157 61.4608 110.207 62.0879C109.772 62.268 109.294 62.3216 108.83 62.2423C108.543 62.2423 108.257 62.2423 107.975 62.1955C107.693 62.1487 107.368 62.0832 107.068 62.0785C107.03 62.08 106.993 62.0935 106.963 62.117C106.933 62.1406 106.912 62.1731 106.902 62.2096C106.892 62.2462 106.894 62.285 106.908 62.3203C106.921 62.3557 106.946 62.3857 106.978 62.4061C107.528 62.6905 108.14 62.8352 108.76 62.8273C109.266 62.8843 109.778 62.795 110.235 62.5699C110.402 62.5102 110.551 62.41 110.67 62.2785C110.788 62.1469 110.871 61.9881 110.912 61.8164C110.913 61.6085 110.86 61.4038 110.758 61.2225C110.656 61.0411 110.508 60.8894 110.329 60.7822C109.963 60.5107 109.512 60.3844 109.14 60.1176C108.623 59.7526 108.67 59.1348 108.703 58.5592C108.788 57.1832 109.107 55.8307 109.23 54.4595C109.23 54.2536 108.957 54.2535 108.891 54.4173Z" fill="#8E9BBB"/>
</g>
</g>
<path d="M112.867 57.6329C112.722 58.4519 112.125 59.0369 111.537 58.9246C110.95 58.8123 110.597 58.0729 110.729 57.2585C110.861 56.4442 111.472 55.8545 112.059 55.9669C112.647 56.0792 113.013 56.8186 112.867 57.6329Z" fill="#232C63"/>
<path d="M105.427 56.9872C105.296 57.867 104.671 58.5082 104.017 58.3912C103.364 58.2742 102.969 57.5067 103.101 56.6268C103.232 55.747 103.857 55.1105 104.511 55.2228C105.164 55.3351 105.559 56.1073 105.427 56.9872Z" fill="#232C63"/>
<path d="M111.133 54.2728C111.603 54.3477 112.05 54.2728 112.505 54.3009L112.834 54.3337H112.797H112.867L113.041 54.3664C113.135 54.3898 113.229 54.4273 113.328 54.4507C113.419 54.4723 113.512 54.4848 113.605 54.4881L113.756 54.4647H113.662C113.724 54.4684 113.787 54.4684 113.85 54.4647C113.976 54.4266 114.082 54.3416 114.147 54.2275C114.212 54.1133 114.23 53.9787 114.197 53.8516C114.178 53.7802 114.144 53.7134 114.099 53.6551C114.099 53.627 114.056 53.6036 114.038 53.5802L114.094 53.641L114.033 53.5615C114.007 53.5194 113.972 53.4841 113.93 53.4585L113.817 53.3743C113.688 53.2944 113.547 53.2374 113.398 53.2058C113.125 53.1375 112.844 53.1014 112.562 53.0981C112.285 53.1012 112.009 53.1231 111.735 53.1637C111.48 53.1928 111.237 53.2827 111.025 53.4257C110.946 53.4735 110.883 53.5434 110.844 53.6266C110.804 53.7098 110.791 53.8027 110.804 53.8937C110.816 53.9823 110.854 54.0655 110.912 54.1336C110.97 54.2016 111.047 54.2515 111.133 54.2775V54.2728Z" fill="#232C63"/>
<path d="M105.949 52.9761C105.887 52.9388 105.823 52.9059 105.756 52.8778C105.705 52.8544 105.554 52.7749 105.667 52.8357L105.54 52.7702C105.353 52.6786 105.156 52.6079 104.953 52.5596C104.507 52.449 104.046 52.4173 103.59 52.466C103.114 52.503 102.653 52.647 102.241 52.8872C102.178 52.9207 102.12 52.9616 102.067 53.0089L101.973 53.1352V53.0931C101.909 53.137 101.858 53.1959 101.822 53.2645C101.787 53.333 101.769 53.4092 101.771 53.4862C101.771 53.5583 101.79 53.6291 101.828 53.6909C101.865 53.7527 101.918 53.8033 101.982 53.8372C102.057 53.8684 102.137 53.8844 102.217 53.8844C102.298 53.8844 102.378 53.8684 102.452 53.8372H102.208C102.329 53.863 102.454 53.863 102.574 53.8372C102.574 53.8372 102.706 53.8045 102.621 53.8372C102.537 53.87 102.753 53.8372 102.777 53.8372C102.8 53.8372 102.95 53.8372 102.777 53.8372H102.861L103.082 53.8138C103.402 53.8138 103.721 53.7764 104.046 53.767C104.37 53.7577 104.647 53.767 104.948 53.767H105.329C105.399 53.767 105.371 53.767 105.329 53.767H105.409L105.568 53.8185C105.673 53.8426 105.783 53.8301 105.88 53.7833C105.976 53.7364 106.054 53.658 106.099 53.5611C106.138 53.4608 106.141 53.3502 106.108 53.2479C106.075 53.1456 106.007 53.0579 105.916 52.9995L105.949 52.9761Z" fill="#232C63"/>
<path d="M108.257 66.4361C108.739 65.5474 109.514 64.8515 110.452 64.4658C109.639 64.3815 105.794 64.0305 104.812 64.5781C103.726 65.1912 105.014 67.6622 107.26 67.7839C107.48 67.7958 107.701 67.7832 107.918 67.7465C107.937 67.2908 108.053 66.8443 108.257 66.4361Z" fill="#232C63"/>
<path d="M90.4861 61.241C90.4861 61.241 90.8762 62.7386 93.1134 64.4842C94.8122 65.7066 96.654 66.7186 98.5983 67.4981L98.8568 66.3703C98.8568 66.3703 95.501 64.9195 93.9453 63.3189C92.3896 61.7183 92.1969 60.8525 92.1969 60.8525L90.4861 61.241Z" fill="#DEE1EB"/>
<path d="M99.2375 65.5375C99.9154 65.4981 100.585 65.7037 101.123 66.1164C101.661 66.529 102.031 67.1211 102.166 67.7839C102.292 68.7199 101.428 69.7308 99.4067 68.8275C96.8922 67.7043 97.4374 65.617 99.2375 65.5375Z" fill="#232C63"/>
<path d="M91.896 50.1541C91.896 50.1541 92.6714 44.5896 96.4174 40.7941C103.566 33.5822 109.643 34.0175 109.643 34.0175C109.643 34.0175 109.591 33.0019 107.293 32.225C105.15 31.4996 104.182 31.8881 104.182 31.8881C104.182 31.8881 98.2973 32.3561 93.3388 37.841C88.3803 43.326 87.8586 50.3039 87.8586 50.3039L91.896 50.1541Z" fill="#DEE1EB"/>
<path d="M91.3601 49.4758C86.6601 48.6849 84.0657 52.3306 83.873 56.0278C83.6803 59.725 86.3781 62.4721 89.9501 62.2054C98.02 61.5783 97.0988 50.4445 91.3601 49.4758Z" fill="white"/>
<path d="M89.029 58.6298C88.4382 58.6389 87.8564 58.4844 87.3485 58.1836C86.8407 57.8828 86.4267 57.4476 86.1526 56.9263C85.8384 56.3618 85.685 55.7225 85.709 55.0775C85.733 54.4325 85.9335 53.8063 86.2889 53.2665C86.3019 53.2475 86.3185 53.2312 86.3378 53.2185C86.3571 53.2058 86.3787 53.1971 86.4014 53.1927C86.4241 53.1884 86.4474 53.1885 86.47 53.1932C86.4927 53.1978 86.5142 53.2068 86.5333 53.2197C86.5524 53.2326 86.5688 53.2492 86.5815 53.2684C86.5943 53.2876 86.6031 53.3091 86.6074 53.3317C86.6118 53.3543 86.6116 53.3776 86.607 53.4001C86.6023 53.4226 86.5933 53.444 86.5803 53.4631C86.2645 53.9473 86.0868 54.5079 86.0661 55.0849C86.0454 55.6619 86.1825 56.2337 86.4628 56.7391C86.7112 57.2205 87.0939 57.6201 87.565 57.89C88.0362 58.1598 88.5755 58.2883 89.1183 58.2601C89.6242 58.2583 90.1218 58.1322 90.567 57.893C91.0122 57.6538 91.3912 57.3089 91.6704 56.8889C91.9983 56.3846 92.2039 55.8113 92.2708 55.2142C92.3377 54.6172 92.2641 54.0129 92.0558 53.4491C91.8625 52.9198 91.5029 52.4668 91.0304 52.1574C90.5579 51.848 89.9978 51.6986 89.4332 51.7315C89.4103 51.7348 89.387 51.7335 89.3647 51.7277C89.3423 51.7219 89.3213 51.7118 89.3029 51.6978C89.2846 51.6839 89.2692 51.6665 89.2576 51.6465C89.2461 51.6266 89.2387 51.6046 89.2358 51.5817C89.2304 51.5359 89.2431 51.4899 89.2711 51.4532C89.2992 51.4165 89.3404 51.3921 89.3862 51.3852C90.0315 51.3356 90.6753 51.4989 91.2181 51.8499C91.7609 52.2009 92.1726 52.7202 92.3895 53.3274C92.6128 53.9418 92.6909 54.5993 92.6175 55.2486C92.5441 55.898 92.3214 56.5217 91.9665 57.0714C91.6561 57.5345 91.2371 57.9154 90.7458 58.1812C90.2545 58.447 89.7056 58.5897 89.1465 58.5971L89.029 58.6298Z" fill="#818FB3"/>
<path d="M85.6214 73.8252C85.6214 73.8252 71.4274 77.3118 66.4689 82.9278C61.5104 88.5438 59.1745 116.235 59.0758 121.369C58.9771 126.503 62.5773 128.633 64.7158 130.083C66.8543 131.534 76.2872 134.15 83.873 134.539C91.4588 134.927 98.6545 134.539 98.6545 134.539C98.7426 133.118 99.1319 131.732 99.7966 130.472C100.878 128.226 102.25 127.758 102.25 127.758L95.7358 125.418C95.7358 125.418 94.5937 105.06 92.8171 95.2315C90.7773 83.8966 85.6214 73.8252 85.6214 73.8252Z" fill="#FF7717"/>
<path d="M109.154 122.184C109.123 122.19 109.092 122.19 109.06 122.184C109.004 122.158 108.96 122.111 108.938 122.053C108.916 121.995 108.918 121.931 108.943 121.875C110.273 118.884 111.65 113.02 112.426 108.902L112.491 108.57C112.726 107.357 113.018 105.85 112.435 104.826C112.134 104.297 111.462 103.145 110.818 102.041C110.174 100.936 109.516 99.8086 109.338 99.4857C108.995 98.8539 110.076 97.1456 111.636 94.8478C112.054 94.2206 112.421 93.6825 112.632 93.3174C113.192 92.3814 112.82 91.4782 112.393 90.4626L112.228 90.0835C111.843 89.1475 111.401 88.1835 110.973 87.2755L110.452 86.143C110.221 85.6422 109.982 85.1368 109.761 84.6173C108.416 81.4422 106.886 78.3481 105.178 75.3509C105.147 75.2967 105.139 75.2326 105.154 75.1723C105.17 75.1119 105.209 75.0601 105.263 75.028C105.289 75.0121 105.319 75.0017 105.349 74.9974C105.38 74.9931 105.411 74.9949 105.441 75.0028C105.47 75.0106 105.498 75.0243 105.523 75.0431C105.547 75.062 105.567 75.0854 105.582 75.1122C107.309 78.1193 108.858 81.2243 110.221 84.4114L110.912 85.9324L111.434 87.0603C111.862 87.9963 112.303 88.9322 112.698 89.901L112.844 90.2473C113.281 91.2863 113.732 92.358 113.06 93.5233C112.839 93.9024 112.473 94.4593 112.045 95.0818C111.232 96.2892 109.535 98.8024 109.77 99.2329C109.944 99.5512 110.574 100.637 111.241 101.779C111.909 102.921 112.567 104.039 112.863 104.587C113.53 105.776 113.22 107.371 112.971 108.658L112.905 108.986C112.623 110.488 111.124 118.164 109.389 122.062C109.367 122.103 109.333 122.137 109.291 122.159C109.249 122.181 109.201 122.189 109.154 122.184Z" fill="#C75200"/>
<path d="M95.3083 123.008C95.2774 123.008 95.2469 123.002 95.2186 122.99C95.1902 122.978 95.1647 122.96 95.1438 122.938C94.0346 121.828 88.7095 112.642 88.31 110.915C88.0938 109.979 88.639 107.568 89.1654 105.247C89.5743 103.45 89.9973 101.592 89.8798 101.091C89.6965 100.338 88.3335 99.2194 87.0175 98.157C85.4242 96.8606 83.7792 95.5222 83.4596 94.3147C83.0977 92.9435 83.4079 84.365 83.6147 78.6882C83.6852 76.643 83.7463 75.0331 83.7463 74.4762C83.7463 74.4141 83.771 74.3546 83.8151 74.3107C83.8592 74.2668 83.9189 74.2422 83.9813 74.2422C84.0436 74.2422 84.1034 74.2668 84.1474 74.3107C84.1915 74.3546 84.2163 74.4141 84.2163 74.4762C84.2163 75.0565 84.1552 76.6758 84.0847 78.721C83.892 84.0281 83.5724 92.9107 83.9155 94.2164C84.1975 95.2741 85.8519 96.622 87.3136 97.8154C88.7753 99.0088 90.1336 100.095 90.3357 100.998C90.4814 101.606 90.0819 103.338 89.626 105.369C89.156 107.536 88.5779 109.983 88.7706 110.83C89.1607 112.52 94.4106 121.538 95.4775 122.629C95.4993 122.65 95.5167 122.676 95.5286 122.704C95.5405 122.732 95.5466 122.762 95.5466 122.793C95.5466 122.823 95.5405 122.853 95.5286 122.881C95.5167 122.91 95.4993 122.935 95.4775 122.956C95.4543 122.976 95.4274 122.991 95.3983 123C95.3692 123.009 95.3385 123.011 95.3083 123.008Z" fill="#C75200"/>
<path d="M76.1934 118.988H76.1605C76.1295 118.984 76.0996 118.974 76.0726 118.958C76.0456 118.942 76.022 118.921 76.0032 118.897C75.9844 118.872 75.9707 118.843 75.963 118.813C75.9554 118.783 75.9538 118.752 75.9584 118.721C76.1323 117.504 78.8301 93.2617 78.9523 91.4037C78.9567 91.3417 78.9856 91.2839 79.0328 91.2431C79.0799 91.2023 79.1414 91.1818 79.2038 91.1861C79.2661 91.1905 79.3241 91.2193 79.3651 91.2662C79.4061 91.3132 79.4267 91.3744 79.4223 91.4365C79.2954 93.3085 76.6023 117.57 76.4237 118.786C76.4158 118.842 76.3883 118.893 76.346 118.93C76.3038 118.966 76.2496 118.987 76.1934 118.988Z" fill="#C75200"/>
<path d="M95.5433 125.572C95.5139 125.579 95.4833 125.579 95.4539 125.572C94.857 125.334 92.2157 124.445 88.874 123.321C82.1248 121.056 72.894 117.953 71.1221 117.045C71.0672 117.016 71.0262 116.966 71.0077 116.906C70.9893 116.847 70.9949 116.783 71.0234 116.727C71.0523 116.673 71.1016 116.632 71.1606 116.614C71.2195 116.595 71.2833 116.601 71.3383 116.629C73.0632 117.523 82.67 120.747 89.0196 122.881C92.3707 124.005 95.0216 124.894 95.6326 125.142C95.6897 125.166 95.7351 125.211 95.7589 125.268C95.7826 125.325 95.7828 125.389 95.7595 125.446C95.7386 125.485 95.7074 125.517 95.6693 125.54C95.6311 125.562 95.5875 125.573 95.5433 125.572Z" fill="#C75200"/>
<path d="M92.2956 135.227C86.3595 135.227 74.8445 134.16 66.0978 131.081C66.0669 131.07 66.0384 131.054 66.0137 131.033C65.9891 131.012 65.9689 130.986 65.9543 130.957C65.9397 130.928 65.9309 130.897 65.9285 130.865C65.9261 130.832 65.9301 130.8 65.9403 130.769C65.9505 130.739 65.9667 130.71 65.9879 130.686C66.0091 130.661 66.035 130.641 66.064 130.626C66.093 130.612 66.1246 130.603 66.157 130.601C66.1895 130.598 66.222 130.602 66.2529 130.613C77.3026 134.506 92.7609 135.171 95.6373 134.53C95.6681 134.523 95.7 134.522 95.7311 134.528C95.7623 134.533 95.792 134.545 95.8186 134.562C95.8452 134.579 95.8682 134.601 95.8863 134.627C95.9044 134.652 95.9172 134.681 95.924 134.712C95.9308 134.743 95.9314 134.775 95.9259 134.806C95.9203 134.837 95.9087 134.866 95.8917 134.893C95.8747 134.919 95.8526 134.942 95.8267 134.96C95.8008 134.978 95.7715 134.991 95.7407 134.998C94.6019 135.18 93.4486 135.257 92.2956 135.227Z" fill="#C75200"/>
<path d="M24.3382 77.092C26.1806 78.7066 28.5165 79.7409 30.1333 81.6082C30.7725 82.343 31.3412 83.1245 31.9334 83.8967C32.3658 84.4583 33.5126 85.385 33.7006 86.0916C33.7805 86.4005 33.7617 85.9793 33.7006 85.6704V85.633C33.5408 84.2056 33.4233 82.7735 33.3716 81.3368C33.3199 79.9 33.4139 78.4679 33.3246 77.0358C33.193 75.0234 32.5632 73.0672 30.9088 71.8036C30.1004 71.1905 29.057 70.8114 28.3144 70.1282C27.5718 69.4449 27.8914 68.7242 28.3144 68.0081C28.7632 67.3566 29.1044 66.6377 29.3249 65.8787C29.4351 64.9795 29.2165 64.0708 28.7092 63.3188C27.7457 61.7088 25.6072 59.9117 23.5862 60.1551C21.8989 60.3563 21.7062 62.2938 21.7344 63.6417C21.7626 64.9895 21.8848 66.2625 21.8989 67.5776C21.913 68.8926 21.6827 70.2452 21.6639 71.5883C21.5746 73.8722 22.6321 75.6131 24.3382 77.092Z" fill="#FF7717"/>
<path d="M41.4509 98.0398C41.9523 96.8313 42.5626 95.6706 43.2745 94.5719C44.2709 93.0509 45.3707 91.5673 46.0381 89.8685C46.7055 88.1696 46.6209 86.2649 46.6867 84.435C46.7384 83.0918 47.1567 81.7487 47.0298 80.3962C46.9781 79.7503 46.6021 78.7067 45.7654 78.8096C45.1075 78.8939 44.7221 79.7035 44.4683 80.2136C44.0557 81.1272 43.6994 82.0649 43.4014 83.0216C43.2745 83.3914 43.1523 83.7658 42.9925 84.1214C42.8985 84.3274 42.5977 84.8328 42.3204 84.7673C41.8504 84.6456 42.2734 82.7034 42.3204 82.3618C42.6776 80.6348 43.2181 79.0296 43.2886 77.2512C43.3967 74.6725 43.1993 71.6024 40.666 70.1937C40.0033 69.824 39.1667 69.6041 38.5369 70.1563C37.9071 70.7085 37.7379 71.6445 37.6486 72.4168C37.3666 74.7989 37.9259 77.0546 38.6967 79.2917C39.3265 81.1637 40.0785 83.0357 40.1349 85.0294C40.1866 86.9341 39.1949 88.6189 38.7249 90.4207C38.2489 92.1494 38.049 93.942 38.1327 95.7325C38.1327 96.8932 38.1703 98.0444 38.2549 99.2051C38.3348 100.272 38.4288 101.334 38.5604 102.397C38.5604 102.612 38.6074 102.837 38.6403 103.061C38.2267 102.074 38.0809 100.946 37.7425 99.9539C37.1363 98.1942 36.436 96.4673 35.8626 94.6982C35.4189 93.2238 34.8965 91.7741 34.2975 90.3552C33.7006 89.0401 32.9862 87.6455 31.877 86.6767C31.2284 86.0816 30.3807 85.748 29.4988 85.7407C28.9409 85.7857 28.3911 85.9021 27.8632 86.087C27.5672 86.1889 27.2501 86.214 26.9417 86.16C26.6333 86.106 26.3439 85.9745 26.1007 85.7782C24.2865 84.3742 23.7507 81.8984 22.3924 80.1622C21.4054 78.8518 19.0272 76.6194 17.2882 78.0468C16.3482 78.805 16.1038 80.2745 16.1555 81.3977C16.2817 82.7903 16.7674 84.1268 17.5655 85.2774C18.3504 86.5316 19.3609 87.6548 20.0847 88.9418C20.4675 89.6587 20.6154 90.477 20.5077 91.2818C20.3841 92.0737 20.4322 92.8828 20.6487 93.6546C21.4806 95.9946 24.0797 95.6717 26.1007 95.7325C27.5514 95.7631 28.9902 96.001 30.373 96.4392C31.1 96.6617 31.7627 97.0551 32.3051 97.5861C32.8474 98.1172 33.2535 98.7704 33.4891 99.4906C33.8886 100.595 34.1048 101.831 34.8615 102.79C35.2213 103.224 35.6807 103.566 36.201 103.787C36.9906 104.133 39.3923 104.283 39.4111 104.068C39.5393 103.314 39.7489 102.577 40.0362 101.868C40.4404 100.576 40.9198 99.308 41.4509 98.0398Z" fill="#FF7717"/>
<path d="M52.604 97.6093C52.3972 96.2661 52.4348 94.8013 51.7956 93.5611C51.784 93.5408 51.7684 93.523 51.7497 93.5087C51.7311 93.4944 51.7098 93.4839 51.6871 93.4778C51.6644 93.4717 51.6407 93.4701 51.6174 93.4732C51.5941 93.4762 51.5716 93.4839 51.5512 93.4956C51.0812 93.7483 51.0813 94.4831 51.0343 94.9323C50.9732 95.6811 51.0343 96.4299 50.9262 97.1741C50.7686 98.5029 50.4531 99.8084 49.9862 101.063C49.748 101.704 49.3571 102.277 48.847 102.733C48.3369 103.19 47.7229 103.516 47.058 103.684C46.1422 103.894 45.2746 104.275 44.5013 104.807C43.8413 105.365 43.3255 106.073 42.9972 106.871C42.0572 108.982 41.5873 111.336 41.169 113.592C40.8729 115.108 40.6332 116.633 40.2619 118.136C39.8564 119.626 39.5301 121.137 39.2843 122.661C39.2467 122.741 39.2091 122.816 39.1762 122.895C39.0775 123.125 39.4394 123.246 39.5616 123.059C41.0233 120.817 42.8045 118.81 45.2297 117.579C46.3248 117.022 47.7819 116.905 48.6983 116.03C49.394 115.365 49.4879 114.35 49.3845 113.442C49.2482 112.253 48.6748 111.275 48.0779 110.264C47.7489 109.707 47.3636 109.108 47.4952 108.434C47.5841 108.126 47.7355 107.84 47.94 107.593C48.1446 107.346 48.3979 107.143 48.6843 106.997C49.6901 106.375 50.8698 106.094 51.697 105.196C52.453 104.369 52.9039 103.311 52.9753 102.196C53.0231 100.658 52.8986 99.1196 52.604 97.6093Z" fill="#FF7717"/>
<path d="M32.6901 105.336C31.3982 103.694 29.8475 102.272 28.0982 101.124C27.1582 100.506 24.9633 99.2894 24.5168 101.124C24.2583 102.191 25.3064 103.239 25.9973 103.909C27.036 104.915 28.2345 105.781 29.1087 106.941C28.0277 107.288 26.895 107.353 25.9503 108.102C24.8364 108.986 24.3335 110.69 25.4427 111.776C26.0168 112.266 26.6657 112.663 27.365 112.95C28.2392 113.367 29.1275 113.751 30.0205 114.12C31.9522 114.925 33.9074 115.74 35.5524 117.055C37.1974 118.37 38.8095 120.663 38.9411 122.849C38.9411 123.059 38.8753 122.849 38.9975 122.774C39.068 122.835 39.2983 122.722 39.2983 122.601C39.3019 119.396 38.636 116.226 37.3431 113.292C36.1158 110.465 34.5537 107.794 32.6901 105.336Z" fill="#FF7717"/>
<path d="M28.2391 75.1081C28.9535 76.5776 29.6961 78.0097 30.4857 79.4417C31.2736 80.7985 31.9707 82.2056 32.5725 83.6537C33.2728 85.4649 33.9825 87.248 34.7439 89.0451C35.5225 90.9083 36.1925 92.8147 36.7508 94.7547C37.8463 98.5517 38.6059 102.437 39.0209 106.366C39.2299 108.36 39.31 110.366 39.2606 112.37C39.2183 113.933 39.0397 115.482 38.894 117.05C38.7045 118.672 38.6605 120.307 38.7624 121.936C38.8799 123.293 39.0961 124.908 40.1724 125.877C40.2149 125.914 40.269 125.935 40.3255 125.937C40.382 125.939 40.4375 125.921 40.4824 125.887C40.5273 125.853 40.5589 125.804 40.5718 125.749C40.5847 125.695 40.5781 125.637 40.5531 125.587C39.2935 123.017 39.364 120.214 39.6131 117.425C39.7494 115.89 39.9327 114.359 39.9844 112.815C40.0456 110.849 39.9797 108.88 39.787 106.923C39.3942 103.076 38.6804 99.2693 37.6532 95.5409C37.1366 93.6342 36.5089 91.759 35.7732 89.9249C35.0447 88.081 34.1987 86.2839 33.489 84.4306C32.2059 81.0751 30.246 78.1033 28.5164 74.977C28.4271 74.8132 28.1921 74.977 28.2673 75.1221L28.2391 75.1081Z" fill="white"/>
<path d="M39.0821 102.552C39.2842 100.109 39.5004 97.7592 40.3276 95.4286C40.713 94.3428 41.183 93.2852 41.5543 92.1947C41.8598 91.2915 42.3204 90.056 42.0854 89.0966C42.0802 89.0724 42.0669 89.0508 42.0477 89.0352C42.0284 89.0197 42.0044 89.0112 41.9796 89.0112C41.9549 89.0112 41.9308 89.0197 41.9116 89.0352C41.8923 89.0508 41.879 89.0724 41.8739 89.0966C41.7141 89.6441 41.7329 90.2431 41.6154 90.8047C41.5038 91.3506 41.361 91.8897 41.1877 92.4193C40.8258 93.5472 40.3511 94.6283 39.9375 95.7421C39.1163 97.9144 38.7656 100.235 38.9082 102.552C38.9082 102.574 38.9171 102.595 38.933 102.611C38.9488 102.627 38.9703 102.636 38.9928 102.636C39.0152 102.636 39.0367 102.627 39.0526 102.611C39.0685 102.595 39.0774 102.574 39.0774 102.552H39.0821Z" fill="white"/>
<path d="M24.8645 88.5163C25.8374 90.8563 28.7655 90.992 30.8993 91.5161C31.6272 91.7133 32.308 92.0539 32.9014 92.5178C33.4948 92.9816 33.9887 93.5592 34.3538 94.2165C35.2061 95.704 35.8677 97.2919 36.3231 98.9433C36.3231 98.9433 36.356 98.9433 36.3513 98.9433C35.7544 96.1353 34.9037 92.7563 31.9944 91.4553C29.6444 90.407 26.5988 90.9311 25.1089 88.4273C25.0337 88.3057 24.8081 88.3852 24.8645 88.5303V88.5163Z" fill="white"/>
<path d="M37.5404 102.182C37.6579 102.336 37.7613 102.5 37.8835 102.65C37.939 102.726 38.0037 102.795 38.0762 102.855C38.1494 102.93 38.2454 102.977 38.3488 102.991C38.359 102.992 38.3691 102.99 38.378 102.985C38.387 102.98 38.3946 102.973 38.3999 102.964C38.4052 102.956 38.408 102.946 38.4081 102.936C38.4082 102.926 38.4056 102.916 38.4005 102.907C38.3409 102.835 38.2712 102.772 38.1937 102.72L37.9869 102.537C37.8506 102.406 37.7284 102.266 37.5921 102.135C37.5921 102.111 37.5169 102.135 37.5404 102.177V102.182Z" fill="white"/>
<path d="M31.454 109.614C33.1553 110.992 34.6563 112.598 35.9143 114.387C36.5023 115.245 37.0436 116.134 37.5358 117.05C38.0332 118.052 38.4726 119.082 38.8518 120.134C38.88 120.214 39.0257 120.214 39.0163 120.134C38.7813 117.93 37.3807 116.044 36.2574 114.209C35.6608 113.295 34.9606 112.452 34.1706 111.696C33.3876 110.866 32.5285 110.111 31.6044 109.44C31.4916 109.361 31.3412 109.543 31.454 109.637V109.614Z" fill="white"/>
<path d="M44.8255 107.016C44.0171 107.484 43.9936 108.748 43.9748 109.557C43.9466 111.12 44.332 112.585 43.6458 114.073C43.0254 115.417 42.0337 116.54 41.2488 117.785C40.5203 118.955 39.8012 120.448 39.8388 121.852C39.8388 121.936 39.9657 121.978 40.0033 121.898C40.2488 121.235 40.4529 120.556 40.6143 119.867C40.8478 119.126 41.1831 118.42 41.6107 117.771C42.3627 116.61 43.2839 115.557 43.8949 114.307C44.5059 113.058 44.4401 111.696 44.3978 110.273C44.3696 109.365 44.2803 107.905 45.0135 107.231C45.131 107.124 44.9853 106.946 44.849 107.016H44.8255Z" fill="white"/>
<path d="M39.4158 121.997C36.1587 121.955 29.9781 121.908 29.9781 121.908L31.5104 133.261C31.6777 134.497 32.2897 135.63 33.2328 136.451C34.1759 137.271 35.3859 137.722 36.638 137.721H42.2452C43.4965 137.721 44.7054 137.269 45.6475 136.449C46.5896 135.629 47.2009 134.496 47.3682 133.261L48.8816 121.908C48.8816 121.908 42.6682 121.955 39.4158 121.997Z" fill="white"/>
<path d="M196.918 101.133L178.329 137.796L124.129 138.185L140.856 100.614L196.918 101.133Z" fill="#F6F7FA"/>
<path d="M88.1643 137.956V135.021H123.245L139.39 99.7764H195.508L196.918 101.134H142.106L125.332 137.928C125.332 137.928 88.1643 137.858 88.1643 137.956Z" fill="#D9DEE8"/>
<path d="M168.774 121.365C168.163 123.195 164.84 124.603 161.353 124.519C157.865 124.435 155.534 122.881 156.145 121.051C156.756 119.221 160.084 117.808 163.571 117.897C167.058 117.986 169.385 119.535 168.774 121.365Z" fill="#D9DEE8"/>
<path d="M125.332 138.162C125.298 138.16 125.264 138.153 125.233 138.138C125.177 138.113 125.132 138.066 125.11 138.008C125.088 137.95 125.09 137.886 125.116 137.829L141.951 100.899H196.941C197.003 100.899 197.063 100.924 197.107 100.968C197.151 101.012 197.176 101.071 197.176 101.133C197.175 101.195 197.15 101.254 197.106 101.298C197.062 101.341 197.003 101.366 196.941 101.367H142.257L125.543 138.026C125.525 138.066 125.495 138.101 125.458 138.125C125.42 138.149 125.377 138.162 125.332 138.162Z" fill="white"/>
<path d="M85.7202 140.735H21.2502V154.967H85.7202V140.735Z" fill="#232C63"/>
<path d="M201.35 140.735H85.3536V154.967H201.35V140.735Z" fill="#232C63"/>
<g style="mix-blend-mode:multiply">
<path d="M85.7202 140.735H85.3536H21.2502V143.347H85.3536H85.7202H201.35V140.735H85.7202Z" fill="#BDC4D7"/>
</g>
<path d="M88.5402 137.927H18.1389V141.414H88.5402V137.927Z" fill="#232C63"/>
<path d="M204.17 137.927H88.1737V141.414H204.17V137.927Z" fill="#9CA6C3"/>
<path d="M69.444 46.855H46.6866C45.2771 46.855 44.1345 47.9927 44.1345 49.3962V60.7078C44.1345 62.1113 45.2771 63.249 46.6866 63.249H69.444C70.8535 63.249 71.9961 62.1113 71.9961 60.7078V49.3962C71.9961 47.9927 70.8535 46.855 69.444 46.855Z" fill="white"/>
<path d="M78.4775 55.049L69.9329 51.4595V58.6433L78.4775 55.049Z" fill="white"/>
<path d="M52.6651 56.6171C53.5346 56.6171 54.2396 55.9151 54.2396 55.0492C54.2396 54.1834 53.5346 53.4814 52.6651 53.4814C51.7955 53.4814 51.0906 54.1834 51.0906 55.0492C51.0906 55.9151 51.7955 56.6171 52.6651 56.6171Z" fill="#232C63"/>
<path d="M58.0653 56.6171C58.9349 56.6171 59.6399 55.9151 59.6399 55.0492C59.6399 54.1834 58.9349 53.4814 58.0653 53.4814C57.1958 53.4814 56.4908 54.1834 56.4908 55.0492C56.4908 55.9151 57.1958 56.6171 58.0653 56.6171Z" fill="#232C63"/>
<path d="M63.461 56.6171C64.3306 56.6171 65.0355 55.9151 65.0355 55.0492C65.0355 54.1834 64.3306 53.4814 63.461 53.4814C62.5914 53.4814 61.8865 54.1834 61.8865 55.0492C61.8865 55.9151 62.5914 56.6171 63.461 56.6171Z" fill="#232C63"/>
<path d="M185.313 12.0498H132.767C131.147 12.0498 129.593 12.6908 128.447 13.8318C127.301 14.9727 126.657 16.5202 126.657 18.1338V42.9378C126.657 44.5514 127.301 46.0989 128.447 47.2399C129.593 48.3808 131.147 49.0218 132.767 49.0218H137.467C137.599 51.2682 137.275 54.6378 135.385 58.8966C140.068 56.781 144.028 53.3487 146.778 49.0218H185.318C186.938 49.0218 188.493 48.3808 189.638 47.2399C190.784 46.0989 191.428 44.5514 191.428 42.9378V18.1338C191.428 17.3345 191.27 16.5429 190.962 15.8045C190.655 15.066 190.205 14.3951 189.637 13.8301C189.069 13.2651 188.395 12.8171 187.653 12.5116C186.911 12.2061 186.116 12.0492 185.313 12.0498Z" fill="#FF7717"/>
<path d="M162.899 23.8807H136.837C136.494 23.8795 136.164 23.743 135.921 23.501C135.678 23.2591 135.541 22.9312 135.54 22.589C135.541 22.2468 135.678 21.919 135.921 21.6771C136.164 21.4351 136.494 21.2986 136.837 21.2974H162.899C163.243 21.2986 163.572 21.4351 163.815 21.6771C164.058 21.919 164.195 22.2468 164.196 22.589C164.195 22.9312 164.058 23.2591 163.815 23.501C163.572 23.743 163.243 23.8795 162.899 23.8807Z" fill="white"/>
<path d="M181.586 31.4012H136.334C136.124 31.4012 135.922 31.3179 135.773 31.1695C135.624 31.0212 135.54 30.82 135.54 30.6103C135.54 30.4005 135.624 30.1993 135.773 30.051C135.922 29.9027 136.124 29.8193 136.334 29.8193H181.586C181.797 29.8193 181.999 29.9027 182.148 30.051C182.297 30.1993 182.38 30.4005 182.38 30.6103C182.38 30.7141 182.36 30.817 182.32 30.9129C182.28 31.0089 182.221 31.0961 182.148 31.1695C182.074 31.243 181.986 31.3012 181.89 31.341C181.794 31.3807 181.69 31.4012 181.586 31.4012Z" fill="white"/>
<path d="M181.586 35.7962H136.334C136.124 35.7962 135.922 35.7129 135.773 35.5645C135.624 35.4162 135.54 35.215 135.54 35.0053C135.54 34.7955 135.624 34.5943 135.773 34.446C135.922 34.2977 136.124 34.2144 136.334 34.2144H181.586C181.797 34.2144 181.999 34.2977 182.148 34.446C182.297 34.5943 182.38 34.7955 182.38 35.0053C182.38 35.1091 182.36 35.212 182.32 35.308C182.28 35.4039 182.221 35.4911 182.148 35.5645C182.074 35.638 181.986 35.6962 181.89 35.736C181.794 35.7757 181.69 35.7962 181.586 35.7962Z" fill="white"/>
<path d="M171.716 40.4759H136.334C136.124 40.4759 135.922 40.3926 135.773 40.2442C135.624 40.0959 135.54 39.8947 135.54 39.685C135.54 39.4752 135.624 39.274 135.773 39.1257C135.922 38.9774 136.124 38.894 136.334 38.894H171.716C171.927 38.894 172.129 38.9774 172.278 39.1257C172.427 39.274 172.51 39.4752 172.51 39.685C172.51 39.8947 172.427 40.0959 172.278 40.2442C172.129 40.3926 171.927 40.4759 171.716 40.4759Z" fill="white"/>
<path d="M181.229 23.8807H168.797C168.454 23.8795 168.125 23.743 167.882 23.501C167.639 23.2591 167.501 22.9312 167.5 22.589C167.501 22.2468 167.639 21.919 167.882 21.6771C168.125 21.4351 168.454 21.2986 168.797 21.2974H181.229C181.573 21.2986 181.902 21.4351 182.145 21.6771C182.388 21.919 182.525 22.2468 182.526 22.589C182.525 22.9312 182.388 23.2591 182.145 23.501C181.902 23.743 181.573 23.8795 181.229 23.8807Z" fill="white"/>
<path d="M149.894 69.4873H135.78C135.261 69.4873 134.84 69.9064 134.84 70.4233V80.0267C134.84 80.5436 135.261 80.9627 135.78 80.9627H149.894C150.413 80.9627 150.834 80.5436 150.834 80.0267V70.4233C150.834 69.9064 150.413 69.4873 149.894 69.4873Z" fill="white"/>
<path d="M142.933 76.9375C142.853 76.9359 142.775 76.9079 142.712 76.858L135.028 70.54C134.992 70.5093 134.963 70.4718 134.942 70.4298C134.92 70.3877 134.908 70.3419 134.904 70.295C134.901 70.2481 134.906 70.2009 134.921 70.1562C134.936 70.1115 134.96 70.0702 134.99 70.0345C135.021 69.9989 135.059 69.9697 135.101 69.9485C135.143 69.9273 135.189 69.9146 135.236 69.9111C135.284 69.9077 135.331 69.9135 135.376 69.9282C135.421 69.943 135.462 69.9664 135.498 69.9971L142.947 76.1279L150.209 69.8333C150.244 69.8026 150.284 69.779 150.329 69.7639C150.373 69.7488 150.419 69.7425 150.466 69.7453C150.512 69.7481 150.558 69.76 150.599 69.7803C150.641 69.8007 150.679 69.829 150.71 69.8637C150.74 69.8984 150.764 69.9389 150.779 69.9827C150.794 70.0266 150.801 70.0729 150.798 70.1192C150.795 70.1655 150.783 70.2108 150.763 70.2525C150.742 70.2941 150.714 70.3314 150.679 70.3621L143.192 76.8486C143.157 76.8803 143.116 76.9045 143.072 76.9198C143.027 76.9351 142.98 76.9412 142.933 76.9375Z" fill="#6F7FA9"/>
<path d="M135.258 80.696C135.189 80.6973 135.121 80.678 135.063 80.6406C135.005 80.6033 134.959 80.5495 134.932 80.4862C134.905 80.4229 134.897 80.353 134.91 80.2853C134.923 80.2176 134.956 80.1553 135.004 80.1063L140.377 74.4903C140.443 74.4246 140.532 74.3877 140.626 74.3877C140.719 74.3877 140.809 74.4246 140.875 74.4903C140.941 74.5562 140.978 74.6454 140.978 74.7384C140.978 74.8314 140.941 74.9206 140.875 74.9864L135.503 80.6024C135.471 80.6339 135.432 80.6584 135.39 80.6745C135.348 80.6906 135.303 80.6979 135.258 80.696Z" fill="#6F7FA9"/>
<path d="M150.425 80.4898C150.378 80.4904 150.331 80.4816 150.288 80.4639C150.244 80.4462 150.205 80.42 150.171 80.3869L144.823 75.047C144.757 74.9812 144.72 74.892 144.72 74.799C144.72 74.7059 144.757 74.6167 144.823 74.5509C144.855 74.5178 144.894 74.4915 144.937 74.4735C144.979 74.4555 145.025 74.4463 145.072 74.4463C145.118 74.4463 145.164 74.4555 145.207 74.4735C145.25 74.4915 145.288 74.5178 145.321 74.5509L150.674 79.8908C150.74 79.9574 150.778 80.0474 150.778 80.1412C150.778 80.235 150.74 80.3249 150.674 80.3915C150.641 80.4237 150.602 80.449 150.56 80.4659C150.517 80.4828 150.471 80.4909 150.425 80.4898Z" fill="#6F7FA9"/>
<path d="M151.567 73.8256C154.171 73.8256 156.281 71.724 156.281 69.1315C156.281 66.5391 154.171 64.4375 151.567 64.4375C148.964 64.4375 146.853 66.5391 146.853 69.1315C146.853 71.724 148.964 73.8256 151.567 73.8256Z" fill="#FF5F42"/>
<path d="M150.441 68.63C150.601 68.7254 150.725 68.8446 150.814 68.9877C150.906 69.1274 150.952 69.2738 150.952 69.4271C150.952 69.6213 150.897 69.8002 150.788 69.9637C150.683 70.1272 150.538 70.2567 150.354 70.352C150.173 70.4474 149.974 70.4951 149.756 70.4951C149.538 70.4951 149.337 70.4474 149.153 70.352C148.972 70.2567 148.828 70.1272 148.719 69.9637C148.613 69.8002 148.56 69.6213 148.56 69.4271C148.56 69.1001 148.725 68.8344 149.056 68.63C148.937 68.5619 148.838 68.4699 148.76 68.354C148.685 68.2382 148.647 68.102 148.647 67.9453C148.647 67.7579 148.697 67.5859 148.795 67.4291C148.894 67.2724 149.027 67.1481 149.194 67.0561C149.364 66.9641 149.552 66.9182 149.756 66.9182C149.96 66.9182 150.146 66.9641 150.313 67.0561C150.483 67.1481 150.616 67.2724 150.712 67.4291C150.81 67.5859 150.86 67.7579 150.86 67.9453C150.86 68.1156 150.819 68.257 150.737 68.3694C150.659 68.4784 150.56 68.5653 150.441 68.63ZM149.756 67.4802C149.613 67.4802 149.494 67.5262 149.398 67.6182C149.306 67.7068 149.26 67.8192 149.26 67.9555C149.26 68.0951 149.306 68.211 149.398 68.3029C149.494 68.3915 149.613 68.4358 149.756 68.4358C149.896 68.4358 150.011 68.3898 150.103 68.2978C150.199 68.2059 150.247 68.0917 150.247 67.9555C150.247 67.8192 150.199 67.7068 150.103 67.6182C150.011 67.5262 149.896 67.4802 149.756 67.4802ZM149.756 69.933C149.92 69.933 150.057 69.8836 150.17 69.7848C150.282 69.6826 150.339 69.56 150.339 69.4169C150.339 69.2704 150.282 69.1478 150.17 69.049C150.057 68.9468 149.92 68.8957 149.756 68.8957C149.592 68.8957 149.454 68.9468 149.342 69.049C149.23 69.1478 149.173 69.2704 149.173 69.4169C149.173 69.56 149.23 69.6826 149.342 69.7848C149.454 69.8836 149.592 69.933 149.756 69.933ZM152.663 68.0934C152.888 68.0934 153.091 68.1462 153.271 68.2519C153.455 68.354 153.598 68.4954 153.7 68.676C153.806 68.8565 153.859 69.0575 153.859 69.2789C153.859 69.5072 153.794 69.7184 153.665 69.9126C153.535 70.1068 153.363 70.2618 153.148 70.3776C152.934 70.49 152.702 70.5462 152.453 70.5462C152.321 70.5462 152.183 70.5258 152.04 70.4849C151.9 70.444 151.786 70.3878 151.697 70.3163C151.656 70.2822 151.622 70.2345 151.595 70.1732C151.568 70.1119 151.554 70.054 151.554 69.9995C151.554 69.9381 151.58 69.8836 151.631 69.8359C151.685 69.7848 151.755 69.7593 151.84 69.7593C151.902 69.7593 151.978 69.7916 152.07 69.8564C152.213 69.9449 152.339 69.9892 152.448 69.9892C152.588 69.9892 152.719 69.9569 152.842 69.8921C152.964 69.8274 153.062 69.7405 153.133 69.6315C153.208 69.5225 153.246 69.405 153.246 69.2789C153.246 69.095 153.182 68.9451 153.056 68.8293C152.93 68.7134 152.781 68.6555 152.607 68.6555C152.528 68.6555 152.459 68.6658 152.397 68.6862C152.336 68.7066 152.263 68.7373 152.178 68.7782C152.116 68.8088 152.067 68.831 152.029 68.8446C151.995 68.8582 151.96 68.865 151.922 68.865C151.789 68.865 151.694 68.8293 151.636 68.7577C151.581 68.6862 151.554 68.601 151.554 68.5022C151.554 68.4682 151.556 68.4443 151.559 68.4307L151.718 67.1634C151.731 67.0919 151.765 67.034 151.82 66.9897C151.878 66.942 151.946 66.9182 152.024 66.9182H153.501C153.583 66.9182 153.651 66.9454 153.705 66.9999C153.76 67.0544 153.787 67.1226 153.787 67.2043C153.787 67.2827 153.76 67.3491 153.705 67.4036C153.651 67.4547 153.583 67.4802 153.501 67.4802H152.234L152.137 68.2212C152.201 68.1837 152.283 68.1531 152.382 68.1292C152.481 68.1054 152.574 68.0934 152.663 68.0934Z" fill="white"/>
</svg>
