<svg width="19" height="19" viewBox="0 0 19 19" fill="none" xmlns="http://www.w3.org/2000/svg">
<path fill-rule="evenodd" clip-rule="evenodd" d="M16.1802 2.63303C15.3486 1.79591 14.3591 1.13214 13.2691 0.680178C12.1791 0.22821 11.0102 -0.00297023 9.83022 2.88091e-05C4.88222 2.88091e-05 0.854222 4.02703 0.852222 8.97703C0.852222 10.559 1.26522 12.103 2.05022 13.465L0.777222 18.116L5.53622 16.867C6.85262 17.5836 8.32742 17.9594 9.82622 17.96H9.83022C14.7772 17.96 18.8052 13.933 18.8072 8.98303C18.8106 7.80351 18.5802 6.63502 18.1293 5.54509C17.6784 4.45516 17.0159 3.4654 16.1802 2.63303ZM9.83022 16.445H9.82722C8.49074 16.4452 7.17885 16.0856 6.02922 15.404L5.75722 15.242L2.93322 15.983L3.68622 13.23L3.50922 12.948C2.76201 11.7585 2.36645 10.3818 2.36822 8.97703C2.37022 4.86303 5.71722 1.51603 9.83322 1.51603C10.8135 1.51385 11.7844 1.70611 12.6899 2.08168C13.5953 2.45725 14.4173 3.00867 15.1082 3.70403C15.8028 4.39607 16.3534 5.21892 16.7281 6.12503C17.1028 7.03113 17.2942 8.00251 17.2912 8.98303C17.2892 13.097 13.9422 16.445 9.83022 16.445ZM13.9232 10.856C13.6982 10.743 12.5962 10.201 12.3902 10.126C12.1852 10.051 12.0362 10.014 11.8862 10.238C11.7362 10.462 11.3062 10.967 11.1752 11.117C11.0442 11.267 10.9132 11.285 10.6892 11.173C10.4652 11.061 9.74222 10.824 8.88522 10.06C8.21822 9.46503 7.76822 8.73103 7.63722 8.50603C7.50622 8.28103 7.62322 8.16003 7.73622 8.04803C7.83722 7.94803 7.96022 7.78603 8.07222 7.65503C8.18422 7.52403 8.22122 7.43103 8.29622 7.28103C8.37122 7.13103 8.33422 7.00003 8.27722 6.88803C8.22122 6.77503 7.77222 5.67103 7.58522 5.22203C7.40422 4.78703 7.21922 4.84503 7.08122 4.83903C6.9383 4.83318 6.79526 4.83052 6.65222 4.83103C6.53848 4.83393 6.42656 4.86029 6.32348 4.90848C6.22041 4.95666 6.1284 5.02562 6.05322 5.11103C5.84722 5.33603 5.26822 5.87803 5.26822 6.98203C5.26822 8.08603 6.07222 9.15303 6.18422 9.30303C6.29622 9.45303 7.76622 11.718 10.0162 12.69C10.5522 12.921 10.9702 13.059 11.2952 13.163C11.8322 13.334 12.3212 13.309 12.7082 13.252C13.1392 13.188 14.0352 12.71 14.2222 12.186C14.4092 11.662 14.4092 11.213 14.3532 11.119C14.2972 11.025 14.1462 10.968 13.9232 10.856Z" fill="#FF7717"/>
</svg>
