<svg width="64" height="70" viewBox="0 0 64 70" fill="none" xmlns="http://www.w3.org/2000/svg">
<path d="M50.8857 0.358887C52.3073 0.358887 52.9977 9.04741 52.3885 11.259C51.698 10.3507 50.9669 9.40285 50.0328 8.41552C48.6519 6.91477 47.0679 6.12491 45.7275 5.72997C45.7275 5.72997 49.4642 0.358887 50.8857 0.358887Z" fill="#DB7F2C"/>
<path d="M55.9221 16.0769C54.9067 15.0501 53.8913 13.2729 52.3885 11.2587C51.6981 10.3504 50.967 9.40256 50.0328 8.41523C48.6519 6.91448 47.0679 6.12462 45.7276 5.72969C44.0623 5.21628 42.7626 5.25577 42.7626 5.25577L42.6002 5.37425C42.0722 4.93983 41.138 4.70286 39.6758 4.90033C36.5078 5.33475 33.5835 8.37573 33.5835 8.37573C33.5835 8.37573 27.7755 3.00466 26.5164 3.95249C25.2573 4.86084 26.029 13.0754 28.1004 16.2349C28.1004 16.2349 26.8413 21.448 25.0949 24.0545C23.8358 25.9502 23.7139 26.9375 25.5416 27.4509C25.9478 27.5694 26.4352 27.5694 26.8819 27.4904C26.7195 28.1618 26.8413 28.7937 27.5318 29.1886C29.5219 30.255 32.3244 28.2408 32.3244 28.2408C32.3244 28.2408 32.4057 28.2803 32.5681 28.3593C33.8678 28.9912 39.8789 31.8347 43.6156 31.1633C47.0273 30.5314 51.2107 27.1745 52.6728 25.9107C52.9978 25.6343 53.2008 25.4368 53.2008 25.4368C53.2008 25.4368 56.3688 25.6738 57.1812 23.8176C57.5061 23.0672 57.3842 22.3958 57.0187 21.8824C57.7904 21.6849 58.5621 21.211 59.1307 20.1447C59.6181 19.1969 58.3184 18.5255 55.9221 16.0769Z" fill="#EF973F"/>
<path d="M54.7036 35.5867C54.7443 34.7574 54.1756 34.2835 53.5258 34.1255C54.4193 32.5458 52.023 29.2678 52.023 29.2678C50.8452 30.4921 47.8396 32.7037 43.3313 33.4146C38.5386 34.165 32.69 31.282 32.2432 30.5711C32.2432 30.5711 24.6075 34.6389 20.6272 46.8028C18.4746 53.3982 17.8247 57.6634 18.109 60.5464H18.0278C18.0278 60.5464 7.26467 61.8497 7.1022 57.466C6.93974 53.0822 14.8192 46.5658 14.2099 40.8393C13.6007 34.9153 1.94403 30.6106 0.238174 34.4019C-1.42706 38.0353 10.3108 39.1411 8.76744 42.7745C7.18343 46.4079 -1.14275 53.4377 1.98464 59.3221C5.11204 65.2461 15.1847 65.4436 18.7995 63.153C19.2463 64.1008 19.8555 64.7722 20.6272 65.3251C23.5109 67.4182 29.2783 66.9048 30.9842 67.9317C32.69 68.9585 34.3552 69.8273 35.0051 69.3929C35.0863 69.3534 35.1269 69.2744 35.2082 69.2349C35.2082 69.2349 35.9799 69.4324 36.4266 68.8795C36.4266 68.8795 37.5639 68.7215 37.5639 67.2603V67.2208H37.6857C37.7263 67.6157 37.8076 67.9317 38.0106 68.2081C38.3356 68.6031 39.3916 68.3661 39.3916 68.3661C40.1227 68.9585 41.7067 68.2081 41.7067 68.2081C42.8845 68.761 45.4027 67.6157 45.6464 66.5889C45.6058 67.3788 47.271 67.3788 48.1645 67.5762C48.8144 67.7342 50.0329 68.1291 50.4796 67.5367L50.6827 67.5762C50.6827 67.5762 52.6729 67.7737 53.0384 66.8653L53.079 66.9048C55.5159 66.115 52.5104 63.232 51.8605 62.2841C51.2107 61.3363 52.1042 42.3401 52.1042 42.3401C52.1042 42.3401 52.6729 41.6292 53.3633 40.3654C54.0132 39.1016 52.551 38.1933 52.551 38.1933C52.551 38.1933 54.663 37.5219 54.7036 35.5867Z" fill="#EF973F"/>
<path d="M52.6322 25.9114C52.6322 25.9114 52.754 27.886 52.6322 28.4784C52.5916 28.5969 52.4291 28.8734 52.0636 29.2288C50.8857 30.4531 47.8802 32.6647 43.3718 33.3756C38.5792 34.126 32.7305 31.243 32.2838 30.5321C31.837 29.8212 32.4868 28.3994 32.4868 28.3994L32.5275 28.3205C33.8272 28.9523 39.7977 31.3219 43.5749 30.6506C46.9866 30.0582 51.17 27.1752 52.6322 25.9114Z" fill="#BB233E"/>
<path d="M44.8747 16.7484C44.834 16.1954 44.9153 15.6425 45.1183 15.1291C45.2402 14.8527 45.4027 14.6157 45.5651 14.3788C45.7682 14.1418 46.0119 13.9443 46.2962 13.8259C46.8648 13.5494 47.4741 13.5099 48.0427 13.6284C48.6113 13.7469 49.1393 13.9444 49.5861 14.2603C49.6673 14.3393 49.7079 14.4578 49.6267 14.5367C49.5861 14.6157 49.5048 14.6157 49.4236 14.6157C48.9362 14.4578 48.4488 14.3788 48.0021 14.3393C47.5147 14.2998 47.0679 14.3788 46.7024 14.5367C46.3368 14.7342 46.0119 15.0502 45.8088 15.4451C45.6057 15.84 45.4027 16.3139 45.2808 16.7878C45.2402 16.9063 45.159 16.9458 45.0371 16.9458C44.9559 16.9063 44.9153 16.8273 44.8747 16.7484Z" fill="black"/>
<path d="M48.4083 15.5238C48.5301 16.4717 48.0427 17.301 47.3117 17.4195C46.5806 17.4985 45.8901 16.8271 45.7276 15.8793C45.6058 14.9314 46.0932 14.1021 46.8243 13.9836C47.5554 13.9046 48.2864 14.576 48.4083 15.5238Z" fill="black"/>
<path d="M38.62 17.9731C38.3357 17.5782 38.0108 17.1833 37.6858 16.8673C37.3203 16.5514 36.9548 16.3539 36.5486 16.3144C36.1424 16.2749 35.6957 16.3539 35.2489 16.5514C34.8021 16.7489 34.396 16.9858 33.9898 17.3018C33.9086 17.3807 33.7867 17.3413 33.7055 17.2623C33.6649 17.1833 33.6649 17.1043 33.7055 17.0253C34.0304 16.5909 34.4366 16.1959 34.924 15.9195C35.4114 15.643 36.0206 15.4851 36.6705 15.5246C36.9954 15.5641 37.2797 15.6825 37.564 15.801C37.8077 15.959 38.0514 16.1565 38.2545 16.3539C38.62 16.7883 38.9043 17.2623 39.0262 17.8152C39.0668 17.9337 38.9855 18.0126 38.9043 18.0521C38.7825 18.0916 38.7012 18.0521 38.62 17.9731Z" fill="black"/>
<path d="M35.5333 17.7359C35.6957 18.6837 36.3862 19.3551 37.1173 19.2366C37.8483 19.1181 38.3357 18.2888 38.1733 17.341C38.0108 16.3931 37.3203 15.7217 36.5893 15.8402C35.8582 15.9587 35.3708 16.788 35.5333 17.7359Z" fill="black"/>
<path d="M42.9252 22.3962C42.8033 22.3962 42.7221 22.3172 42.7221 22.1988L42.519 19.3947C42.519 19.2763 42.6003 19.1973 42.7221 19.1973C42.844 19.1973 42.9252 19.2763 42.9252 19.3947L43.1283 22.1988C43.1283 22.2777 43.047 22.3962 42.9252 22.3962Z" fill="#542B00"/>
<path d="M39.7164 21.0533C40.2038 21.3693 40.8131 21.6062 41.4223 21.7247C42.0315 21.8432 42.6408 21.8827 43.25 21.8037C43.8592 21.7247 44.4278 21.5273 44.9152 21.2113C45.4026 20.8954 45.89 20.4609 46.2149 19.9475C46.2555 19.8686 46.3774 19.8291 46.4992 19.908C46.5805 19.9475 46.6211 20.066 46.5805 20.145C46.3368 20.8164 45.9306 21.3693 45.362 21.8037C44.7934 22.2381 44.1029 22.5146 43.3718 22.5936C43.0063 22.6331 42.6814 22.6331 42.3158 22.6331C41.9503 22.5936 41.6254 22.5541 41.2598 22.4356C40.5694 22.2381 39.9601 21.8827 39.4727 21.3298C39.3915 21.2508 39.4321 21.1323 39.5134 21.0533C39.554 20.9744 39.6352 20.9744 39.7164 21.0533Z" fill="#542B00"/>
<path d="M43.697 30.5712C43.9813 30.7686 44.1437 31.0056 44.225 31.2426C44.3468 31.519 44.3874 31.7955 44.3874 32.0719C44.3874 32.3484 44.3468 32.6248 44.2656 32.8618C44.1843 33.0987 44.0625 33.3752 43.9407 33.5727C43.8594 33.6516 43.7376 33.6911 43.6563 33.6122C43.6157 33.5727 43.5751 33.5332 43.5751 33.4542C43.5751 33.2172 43.5751 32.9803 43.5751 32.7433C43.5751 32.5063 43.5751 32.3089 43.5751 32.0719C43.5751 31.8745 43.5751 31.6375 43.5345 31.44C43.4939 31.2426 43.4533 31.0056 43.4127 30.8081V30.7291C43.372 30.6107 43.4533 30.5317 43.5345 30.4922C43.6157 30.5317 43.6563 30.5317 43.697 30.5712Z" fill="#EEF5E9"/>
<path d="M46.215 35.2708C46.0525 34.086 44.9153 33.2567 43.6968 33.4542C42.4784 33.6121 41.6254 34.7179 41.8285 35.9027C41.991 37.0875 43.1282 37.9169 44.3467 37.7194C45.5245 37.522 46.3775 36.4556 46.215 35.2708Z" fill="#FBE36C"/>
<path d="M44.631 35.3892C44.5904 35.0338 44.2655 34.7968 43.8999 34.8363C43.5344 34.8758 43.2907 35.1918 43.3313 35.5472C43.3719 35.9026 43.6969 36.1396 44.0624 36.1001C44.4685 36.0606 44.7122 35.7052 44.631 35.3892Z" fill="#2B1209"/>
<path d="M44.0217 35.3498L44.5497 35.2708C44.7121 35.2313 44.9152 35.1919 45.0777 35.1524C45.2401 35.1129 45.4026 35.0734 45.5651 35.0339C45.7275 34.9944 45.89 34.9154 46.0524 34.8364C46.0931 34.8364 46.1743 34.8364 46.1743 34.8759C46.1743 34.9154 46.1743 34.9549 46.1743 34.9944C45.89 35.2708 45.5244 35.4683 45.1589 35.5473C44.9558 35.5868 44.7934 35.6263 44.5903 35.6263C44.3872 35.6263 44.2247 35.6263 44.0217 35.5473C43.981 35.5473 43.9404 35.4683 43.9404 35.4288C43.981 35.3893 44.0217 35.3893 44.0217 35.3498Z" fill="#2B1209"/>
<path d="M33.5429 8.2969C34.8832 6.95413 36.4266 5.76933 38.2543 5.05846C39.1885 4.70302 40.1633 4.58454 41.1786 4.66353C41.666 4.70302 42.194 4.86099 42.6002 5.13744C43.047 5.4139 43.3719 5.88781 43.3719 6.44072C43.3719 6.71717 43.3313 6.99362 43.1688 7.23058C43.0063 7.46754 42.8033 7.62551 42.6002 7.78348C42.194 8.05994 41.7066 8.25741 41.1786 8.33639C41.0568 8.33639 40.8943 8.33639 40.7725 8.33639C40.6913 8.33639 40.61 8.29689 40.5694 8.2574C40.4882 8.21791 40.4069 8.17842 40.3663 8.09943C40.3257 8.05994 40.3257 8.02044 40.2851 7.98095C40.2851 7.94146 40.2445 7.90196 40.2445 7.86247C40.2039 7.78348 40.2039 7.665 40.2445 7.58602C40.2851 7.42805 40.3663 7.30957 40.4882 7.19109C40.8943 6.83565 41.3817 6.67768 41.8691 6.5592C42.3565 6.48021 42.8845 6.48021 43.3719 6.67767C43.6156 6.75666 43.8187 6.91464 44.0217 7.1516C44.1842 7.34906 44.2654 7.58602 44.3467 7.82298C44.3873 8.05994 44.4279 8.33639 44.3467 8.57335C44.2654 8.81031 44.1436 9.04727 43.9811 9.24473C43.6562 9.63966 43.25 9.91612 42.8033 10.1136C42.7626 10.1531 42.6814 10.1136 42.6814 10.0741C42.6408 10.0346 42.6814 9.95561 42.722 9.95561C43.1282 9.75814 43.5343 9.48169 43.778 9.12626C44.0623 8.77082 44.1436 8.33639 44.0217 7.90197C43.8999 7.46754 43.6156 7.15159 43.2094 6.99362C42.8033 6.83565 42.3159 6.83565 41.9097 6.91464C41.463 6.99362 41.0162 7.19109 40.7319 7.46754C40.6506 7.54652 40.61 7.62551 40.61 7.665C40.61 7.7045 40.61 7.7045 40.61 7.74399V7.78348C40.61 7.78348 40.61 7.82298 40.6506 7.82298C40.7319 7.90197 40.9349 7.94146 41.138 7.90197C41.5848 7.86247 41.991 7.66501 42.3565 7.42805C42.722 7.19109 42.9657 6.83565 42.9657 6.44072C42.9657 6.04579 42.722 5.65085 42.3565 5.41389C41.991 5.17693 41.5442 5.05846 41.0974 5.01896C40.6506 4.97947 40.1633 5.01896 39.7165 5.05846C39.2697 5.13744 38.8229 5.21643 38.3762 5.3744C37.4826 5.69035 36.6703 6.12477 35.858 6.63818C35.0863 7.1516 34.3146 7.74399 33.6648 8.37588C33.6241 8.41538 33.5835 8.41538 33.5429 8.37588C33.5023 8.37588 33.5023 8.2969 33.5429 8.2969Z" fill="#C96D2F"/>
<path d="M32.3652 28.32C31.756 28.7544 31.1062 29.1099 30.4157 29.3468C29.7252 29.5838 28.9535 29.7418 28.1818 29.5838L27.8975 29.5048C27.8163 29.4653 27.7351 29.4258 27.6132 29.3863C27.4508 29.3073 27.2477 29.2284 27.0852 29.0704C26.9228 28.9124 26.8009 28.7544 26.7197 28.557C26.6384 28.3595 26.5978 28.162 26.5978 27.9646C26.5978 27.1747 26.9634 26.4638 27.4914 25.9109C27.7351 25.6345 28.0194 25.358 28.4661 25.2395C28.6692 25.1605 28.9535 25.1605 29.1566 25.358C29.3597 25.516 29.4409 25.7924 29.4003 25.9899C29.3597 26.2269 29.2378 26.3848 29.116 26.5428C28.9941 26.7008 28.8317 26.8193 28.6692 26.9377C28.3443 27.1747 28.0194 27.3327 27.6538 27.4512C26.9227 27.6881 26.1511 27.7671 25.3794 27.5301C25.0138 27.4117 24.6483 27.2537 24.364 26.9772C24.0797 26.7008 23.9984 26.2664 24.0797 25.9109C24.0797 25.8714 24.1609 25.8319 24.2015 25.8319C24.2421 25.8319 24.2827 25.8714 24.2827 25.9504C24.2421 26.2664 24.3234 26.6218 24.567 26.8193C24.8107 27.0562 25.1357 27.1747 25.5012 27.2537C26.1511 27.4512 26.8821 27.3722 27.532 27.1352C27.8569 27.0167 28.1818 26.8588 28.4661 26.6613C28.7504 26.4638 28.9941 26.2269 29.0348 25.9504C29.0754 25.8319 28.9941 25.7135 28.9129 25.6345C28.8317 25.5555 28.7098 25.5555 28.588 25.595C28.3037 25.674 28.0194 25.9109 27.8163 26.1874C27.3695 26.7008 27.004 27.3327 27.004 27.9646C27.004 28.2805 27.1258 28.5965 27.3695 28.7939C27.4914 28.9124 27.6132 28.9914 27.7757 29.0309C27.8569 29.0704 27.9381 29.1099 28.0194 29.1494L28.2631 29.2284C28.9129 29.3863 29.644 29.2679 30.3345 29.0704C31.0249 28.8729 31.6748 28.557 32.284 28.162C32.3246 28.1225 32.4059 28.162 32.4059 28.2015C32.4059 28.241 32.4059 28.2805 32.3652 28.32Z" fill="#C96D2F"/>
<path d="M59.2527 19.4338C59.3339 19.5918 59.3339 19.7893 59.2933 19.9868C59.2527 20.1842 59.1715 20.3027 59.0902 20.4607C58.9278 20.7766 58.7247 21.0531 58.481 21.29C57.9936 21.7639 57.3031 22.1194 56.572 22.1589C56.2065 22.1984 55.841 22.1589 55.516 22.0799C55.1505 22.0009 54.8256 21.8824 54.5006 21.6455C54.4194 21.5665 54.3382 21.527 54.2976 21.4085C54.257 21.3295 54.1757 21.1716 54.2163 21.0136C54.2976 20.8556 54.4194 20.7766 54.5006 20.7371C54.5819 20.6976 54.7037 20.6581 54.785 20.6581C55.1911 20.6186 55.5567 20.6976 55.8816 20.8161C56.2065 20.9346 56.5314 21.1321 56.8157 21.369C57.1001 21.606 57.3031 21.9219 57.425 22.2379C57.5468 22.5933 57.5874 22.9487 57.5062 23.3042C57.5062 23.5017 57.3844 23.6596 57.3437 23.8176C57.2625 23.9756 57.1813 24.1335 57.0594 24.2915C56.6127 24.8839 55.9222 25.1604 55.2317 25.3578C54.5413 25.5158 53.8508 25.5553 53.1603 25.4763C53.1197 25.4763 53.0791 25.4368 53.0791 25.3578C53.0791 25.3183 53.1197 25.2788 53.1603 25.2788C53.8102 25.3183 54.5006 25.2394 55.1505 25.0419C55.8003 24.8839 56.4096 24.568 56.7751 24.0546C56.897 23.9361 56.9376 23.7781 57.0188 23.6596C57.0594 23.5017 57.1407 23.3832 57.1407 23.2252C57.2219 22.9093 57.1813 22.6328 57.0594 22.3564C56.8564 21.8034 56.2877 21.369 55.7191 21.1321C55.4348 21.0136 55.1099 20.9346 54.8256 20.9741C54.46 21.0531 54.5006 21.0136 54.7443 21.2505C55.2317 21.606 55.9222 21.764 56.5314 21.7245C57.1813 21.685 57.7905 21.4085 58.2779 20.9741C58.5216 20.7766 58.7247 20.5002 58.8871 20.2237C58.9684 20.0657 59.0496 19.9473 59.0902 19.8288C59.1308 19.6708 59.1308 19.5523 59.0902 19.3944C59.0902 19.3549 59.0902 19.2759 59.1715 19.2759C59.1715 19.3549 59.2527 19.3944 59.2527 19.4338Z" fill="#C96D2F"/>
<path d="M19.3681 63.7849C19.8149 64.4167 20.4241 64.9697 21.0739 65.3646C21.7644 65.7595 22.4955 66.036 23.2672 66.2729C24.8106 66.6679 26.4352 66.8258 28.0598 67.0233C28.8721 67.1418 29.6845 67.2208 30.4968 67.4577C30.578 67.4972 30.6998 67.5367 30.7811 67.5762L31.0654 67.7342C31.2685 67.8132 31.4309 67.9316 31.5934 68.0501C31.9589 68.2476 32.2839 68.445 32.6494 68.6425C33.0149 68.84 33.3805 68.998 33.746 69.1559C34.1116 69.2744 34.5177 69.4324 34.8426 69.3534C35.1676 69.3139 35.3706 68.919 35.33 68.5635C35.2894 68.2081 35.0457 67.8527 34.6802 67.7737C34.6396 67.7737 34.5989 67.6947 34.5989 67.6552C34.5989 67.6157 34.6802 67.5762 34.7208 67.5762C35.1676 67.6947 35.4519 68.0896 35.5331 68.524C35.6143 68.9585 35.3706 69.4719 34.8832 69.5904C34.6396 69.6299 34.4365 69.6299 34.1928 69.5904C33.9897 69.5509 33.7866 69.4719 33.5836 69.4324C33.1774 69.2744 32.8119 69.1164 32.4463 68.919C32.0808 68.7215 31.7152 68.524 31.3903 68.3266C31.2278 68.2476 31.0248 68.1291 30.8623 68.0106L30.6186 67.8921C30.5374 67.8527 30.4155 67.8132 30.3343 67.8132C29.6032 67.5762 28.7909 67.4972 27.9786 67.4182C26.354 67.2208 24.7294 67.0628 23.1453 66.5889C22.3736 66.3519 21.5613 66.036 20.8709 65.6015C20.1804 65.1671 19.5712 64.5747 19.165 63.8638C19.1244 63.8244 19.165 63.7454 19.2056 63.7454C19.2869 63.7059 19.3275 63.7454 19.3681 63.7849Z" fill="#C96D2F"/>
<path d="M35.2895 69.0772C35.6144 69.1167 35.98 69.0377 36.183 68.8402C36.3049 68.7218 36.3861 68.6428 36.4267 68.4848C36.4673 68.3268 36.5486 68.2083 36.508 68.0504C36.508 67.7739 36.3455 67.4975 36.1018 67.221C35.8581 66.9841 35.6144 66.7471 35.2895 66.5891C35.2489 66.5496 35.2489 66.5101 35.2489 66.4706C35.2895 66.4311 35.3301 66.4312 35.3707 66.4312C35.7363 66.5496 36.0612 66.7471 36.3455 67.0236C36.6298 67.2605 36.8735 67.6159 36.8735 68.0504C36.8735 68.2873 36.7923 68.4848 36.711 68.6428C36.6298 68.8402 36.4673 68.9982 36.3049 69.1167C35.9393 69.3536 35.4926 69.3931 35.127 69.2747C35.0864 69.2747 35.0458 69.1957 35.0864 69.1562C35.2083 69.1167 35.2489 69.0772 35.2895 69.0772Z" fill="#C96D2F"/>
<path d="M36.4673 68.7216C36.8735 68.6426 37.1984 68.3266 37.3608 67.9712C37.4421 67.7737 37.4827 67.5763 37.4827 67.3788C37.4827 67.1813 37.4827 66.9839 37.3608 66.7864C37.1984 66.431 36.8735 66.115 36.5485 65.8781C36.2236 65.6411 35.8175 65.4436 35.4113 65.4436C35.3301 65.4436 35.2488 65.3647 35.2488 65.2462V65.2067C35.5331 63.9824 35.655 62.6791 35.6144 61.4153C35.6144 60.7834 35.5331 60.1516 35.4519 59.5197C35.3707 59.2037 35.3301 58.8878 35.2488 58.6113C35.2082 58.4533 35.1676 58.2954 35.127 58.1769L34.9645 57.7425C34.8427 57.4265 34.6802 57.1896 34.5584 56.9131C34.3959 56.6367 34.2334 56.3602 34.0304 56.1232C33.6648 55.6098 33.2181 55.1359 32.7713 54.662C31.8371 53.7931 30.7405 53.0033 29.522 52.5689C29.4814 52.5689 29.4408 52.4899 29.4814 52.4504C29.4814 52.4109 29.5627 52.3714 29.6033 52.4109C30.903 52.8453 32.0402 53.5562 33.015 54.4645C33.5024 54.899 33.9491 55.4124 34.3553 55.9258C34.5584 56.2022 34.7208 56.4787 34.9239 56.7551C35.0864 57.0711 35.2488 57.3475 35.3707 57.6635C35.8987 58.8878 36.1018 60.191 36.1424 61.4943C36.1424 62.7976 36.0205 64.1009 35.6956 65.3647L35.5331 65.1277C36.0611 65.1672 36.4673 65.4041 36.8735 65.6806C37.239 65.957 37.5639 66.3125 37.767 66.7469C37.8482 66.9444 37.8888 67.2208 37.8482 67.4578C37.8076 67.6947 37.767 67.9317 37.6858 68.1292C37.4827 68.5636 37.0765 68.8796 36.5891 68.998C36.5485 68.998 36.4673 68.9585 36.4673 68.919C36.3861 68.8006 36.4267 68.7611 36.4673 68.7216Z" fill="#C96D2F"/>
<path d="M33.6649 40.6816C34.2335 43.0907 34.8021 45.4603 35.3708 47.8694L36.9954 55.0966C37.5234 57.5057 38.0514 59.9148 38.4982 62.3634L38.6606 63.2717C38.7012 63.4297 38.7012 63.5876 38.7418 63.7456C38.7418 63.7851 38.7418 63.8246 38.7418 63.8641C38.7418 63.9036 38.7418 63.9826 38.7418 64.0221L38.6606 64.259C38.4169 64.8119 38.2138 65.4043 38.092 65.9967C37.9702 66.5891 37.8483 67.1815 38.0514 67.7344C38.1732 68.3663 38.9449 68.3268 39.5135 68.2478C39.5542 68.2478 39.6354 68.2873 39.6354 68.3268C39.6354 68.3663 39.5948 68.4058 39.5542 68.4453C39.2292 68.5243 38.9043 68.5243 38.5794 68.4848C38.4169 68.4453 38.2138 68.4058 38.092 68.2873C37.9702 68.1294 37.8889 68.0109 37.8077 67.8529C37.564 67.221 37.6452 66.5496 37.7671 65.9572C37.8889 65.3253 38.1326 64.733 38.3357 64.18L38.4169 63.9826C38.4169 63.9431 38.4169 63.9431 38.4169 63.9036C38.4169 63.9036 38.4169 63.8246 38.4169 63.7851C38.4169 63.6271 38.3763 63.4692 38.3357 63.3507L38.1732 62.4423C37.6858 60.0333 37.1578 57.6242 36.6298 55.2151L35.0458 47.9878L33.5024 40.7606C33.5024 40.7211 33.5431 40.6421 33.5837 40.6421C33.6243 40.6026 33.6649 40.6421 33.6649 40.6816Z" fill="#C96D2F"/>
<path d="M40.082 65.9177C39.7977 66.1942 39.5134 66.5496 39.3509 66.9051C39.2697 67.1025 39.2291 67.2605 39.2697 67.458C39.3103 67.6554 39.3509 67.8134 39.4728 67.9714C39.6758 68.2478 40.082 68.3268 40.4882 68.3268C40.8943 68.2873 41.3411 68.1688 41.7472 68.0504C41.7879 68.0504 41.8691 68.0504 41.8691 68.0899C41.8691 68.1293 41.8691 68.1688 41.8285 68.2083C41.4223 68.4453 40.9755 68.6033 40.5288 68.6823C40.2851 68.7217 40.0414 68.7217 39.7977 68.6428C39.554 68.5638 39.3103 68.4058 39.1478 68.2083C38.9854 68.0109 38.9041 67.7739 38.8635 67.4975C38.8635 67.2605 38.9041 66.9841 39.026 66.7866C39.2291 66.3522 39.554 66.0362 39.9601 65.7598C40.0008 65.7203 40.082 65.7598 40.082 65.7993C40.1226 65.8388 40.1226 65.8782 40.082 65.9177Z" fill="#C96D2F"/>
<path d="M41.7473 65.9178C41.5848 66.1942 41.4629 66.4707 41.4223 66.7471C41.3411 67.0236 41.3411 67.3395 41.4223 67.5765C41.5036 67.8134 41.7473 68.0109 42.0316 68.0899C42.3159 68.1689 42.6002 68.1689 42.9251 68.1294C43.5343 68.0504 44.103 67.8134 44.631 67.4975C44.8747 67.3395 45.1183 67.1421 45.3214 66.9446C45.4027 66.8261 45.4839 66.7076 45.5245 66.5891L45.5651 66.5102V66.3917V66.1942C45.5245 63.7456 45.362 61.2576 45.1996 58.809L44.2654 43.999C44.2654 43.9595 44.2654 43.92 44.306 43.8806C44.9965 43.0907 45.6464 42.3403 46.2962 41.511C46.6211 41.116 46.9461 40.7211 47.2304 40.2867C47.5553 39.8917 47.8396 39.4573 48.0833 39.0229C48.1239 38.9834 48.1645 38.9439 48.2051 38.9834C48.2458 39.0229 48.2864 39.0624 48.2457 39.1019C48.0021 39.5758 47.7177 39.9707 47.3928 40.4051C47.1085 40.8396 46.7836 41.2345 46.4587 41.6294C45.8088 42.4588 45.159 43.2487 44.5091 44.0385L44.5497 43.9201L45.0777 51.3448C45.2402 53.8328 45.4027 56.2814 45.5245 58.7695C45.6464 61.2576 45.8088 63.7061 45.8088 66.1942V66.4312V66.5497L45.7682 66.6681C45.687 66.8261 45.6057 66.9841 45.4839 67.1026C45.2808 67.3395 44.9965 67.5765 44.7122 67.7344C44.1436 68.0504 43.5343 68.2874 42.8845 68.4058C42.5596 68.4453 42.2346 68.4453 41.8691 68.3663C41.5442 68.2874 41.2193 68.0504 41.0974 67.695C40.9756 67.379 41.0162 67.0236 41.0974 66.7076C41.1786 66.3917 41.3005 66.1152 41.4629 65.8388C41.5036 65.7993 41.5442 65.7598 41.5848 65.7993C41.7879 65.7993 41.7879 65.8388 41.7473 65.9178Z" fill="#C96D2F"/>
<path d="M52.1448 29.1888C52.5104 29.7417 52.8759 30.2946 53.1602 30.8475C53.4445 31.4399 53.7288 32.0323 53.8101 32.7037C53.8101 32.8616 53.8507 33.0196 53.8507 33.2171V33.454L53.8101 33.691C53.8101 33.77 53.7694 33.849 53.7288 33.928C53.6882 34.0069 53.6476 34.0859 53.607 34.1649C53.5257 34.3229 53.4445 34.4414 53.3227 34.5993C53.1196 34.8758 52.8759 35.1128 52.4697 35.2312C52.2667 35.2707 52.0636 35.2707 51.8605 35.1917C51.6574 35.1128 51.5356 34.9153 51.495 34.7573C51.4543 34.6783 51.4543 34.5598 51.4543 34.4809C51.4543 34.3624 51.5356 34.2439 51.6168 34.1649C51.7793 34.0069 51.9417 33.9674 52.1448 33.928C52.5104 33.849 52.8353 33.849 53.2008 33.8885C53.5257 33.9279 53.8913 34.0464 54.1756 34.2439C54.4599 34.4414 54.7036 34.7573 54.7848 35.1127C54.8661 35.4682 54.8254 35.8236 54.7442 36.1396C54.663 36.4555 54.5411 36.811 54.3381 37.0874C53.9319 37.6403 53.3633 38.0352 52.6728 38.2722L52.7134 37.9563C53.079 38.1932 53.4039 38.5092 53.607 38.9436C53.6882 39.1411 53.7694 39.378 53.7694 39.615C53.7694 39.8519 53.7288 40.0889 53.6476 40.2864C53.4851 40.6813 53.282 41.0367 53.0384 41.3922C52.8353 41.7476 52.5916 42.103 52.3479 42.419L52.3885 42.3005C52.226 46.5658 52.023 50.8705 51.9011 55.1358C51.8605 56.2021 51.8605 57.2684 51.8605 58.3348C51.8605 59.4011 51.8605 60.4674 51.9417 61.5337C51.9823 61.7707 51.9823 62.0866 52.1042 62.2446C52.2667 62.442 52.4291 62.679 52.5916 62.8765C52.9165 63.3109 53.282 63.7453 53.5664 64.1797C53.8507 64.6537 54.135 65.1276 54.1756 65.72C54.2162 65.9964 54.0944 66.3124 53.8913 66.5493C53.6882 66.7863 53.4039 66.9048 53.1602 66.9838C53.1196 66.9838 53.0384 66.9838 53.0384 66.9443C53.0384 66.9048 53.0384 66.8258 53.079 66.8258C53.3227 66.7468 53.5664 66.6283 53.7288 66.4309C53.8913 66.2334 53.9725 65.9964 53.9319 65.7595C53.8913 65.2461 53.607 64.7721 53.3227 64.3377C53.0384 63.9033 52.6728 63.4689 52.3479 63.0739C52.1854 62.8765 51.9823 62.679 51.8199 62.442C51.7793 62.4026 51.7387 62.3236 51.698 62.2446C51.6574 62.1656 51.6574 62.0866 51.6574 62.0471C51.6168 61.8891 51.6168 61.7707 51.6168 61.6522C51.5356 60.5859 51.5356 59.5195 51.495 58.4137C51.495 57.3474 51.495 56.2811 51.5356 55.2148C51.6168 50.9495 51.7387 46.6448 51.9823 42.3795C51.9823 42.34 51.9823 42.3005 52.023 42.261C52.2667 41.9451 52.5103 41.6291 52.7134 41.2737C52.9165 40.9183 53.1196 40.5628 53.282 40.2469C53.4445 39.9309 53.4039 39.536 53.2414 39.22C53.079 38.9041 52.7947 38.5882 52.5103 38.3907C52.4291 38.3512 52.3885 38.2327 52.4697 38.1537C52.5104 38.1142 52.5104 38.1142 52.551 38.0747C53.1196 37.8773 53.6882 37.5218 54.0131 37.0479C54.1756 36.811 54.2974 36.5345 54.3787 36.2186C54.4599 35.9421 54.4599 35.6262 54.4193 35.3497C54.2974 34.7968 53.6882 34.4414 53.079 34.3624C52.754 34.3229 52.4697 34.3229 52.1448 34.4019C51.9823 34.4414 51.8605 34.4809 51.7793 34.5598C51.7387 34.5993 51.698 34.6388 51.7387 34.6783C51.7387 34.7573 51.7387 34.7968 51.7793 34.8758C51.8605 35.1127 52.1042 35.2707 52.3885 35.1917C52.6728 35.1128 52.8759 34.9153 53.079 34.6783C53.1602 34.5598 53.2414 34.4414 53.3633 34.2834C53.4039 34.2044 53.4039 34.1649 53.4445 34.0859C53.4851 34.0069 53.5257 33.9674 53.5257 33.8885L53.5664 33.6515V33.4145C53.5664 33.2566 53.5257 33.0986 53.5257 32.9406C53.4445 32.3087 53.2008 31.7163 52.9165 31.1634C52.6322 30.571 52.3073 30.0181 51.9417 29.5047C51.9011 29.4652 51.9417 29.3862 51.9823 29.3862C52.0636 29.1493 52.1042 29.1493 52.1448 29.1888Z" fill="#C96D2F"/>
<path d="M51.1295 64.2589C51.6169 64.4564 52.0637 64.7328 52.4699 65.0488C52.6729 65.2067 52.876 65.4042 53.0385 65.6017C53.2009 65.7991 53.3634 66.0756 53.404 66.352C53.4446 66.6285 53.3228 66.9444 53.1197 67.1814C52.9166 67.3789 52.6323 67.4973 52.3886 67.5763C51.8606 67.6948 51.3326 67.6948 50.8046 67.6158C50.764 67.6158 50.7234 67.5763 50.7234 67.4973C50.7234 67.4578 50.764 67.4184 50.8046 67.4184C51.292 67.4184 51.82 67.3789 52.2668 67.2604C52.4699 67.1814 52.7136 67.1024 52.8354 66.9444C52.9572 66.7865 53.0385 66.6285 52.9979 66.3915C52.9573 65.9966 52.5917 65.6412 52.2668 65.3252C51.9012 65.0093 51.4951 64.7328 51.0889 64.4564C51.0483 64.4169 51.0483 64.3774 51.0483 64.3379C51.0483 64.2589 51.0889 64.2194 51.1295 64.2589Z" fill="#C96D2F"/>
<path d="M49.4237 65.0885C49.7486 65.207 50.0736 65.4044 50.3579 65.6414C50.6422 65.8784 50.8859 66.1943 50.9671 66.5892C51.0077 66.7867 51.0077 66.9842 50.9671 67.1816C50.9265 67.3791 50.8453 67.5766 50.6828 67.7345C50.3579 68.0505 49.9111 68.0505 49.5456 68.011C49.18 67.9715 48.8145 67.8925 48.4895 67.8135C48.1646 67.7345 47.8397 67.695 47.4742 67.6161C47.1492 67.5371 46.7837 67.4976 46.4182 67.3791C46.2557 67.3001 46.0526 67.2211 45.9308 67.1026C45.7683 66.9842 45.6465 66.7867 45.6871 66.5892C45.6871 66.5497 45.7277 66.5102 45.8089 66.5102C45.8495 66.5102 45.8901 66.5497 45.8901 66.5892C45.8901 66.8657 46.2151 67.0237 46.54 67.1026C46.8649 67.1816 47.1898 67.2211 47.5554 67.2606C47.8803 67.3001 48.2459 67.3396 48.6114 67.4186C48.9363 67.4976 49.3019 67.5766 49.6268 67.6161C49.9517 67.6556 50.2766 67.6161 50.4797 67.4581C50.6828 67.3001 50.7234 66.9447 50.6828 66.6682C50.6422 66.3918 50.4391 66.1153 50.236 65.8784C49.9923 65.6414 49.7486 65.4439 49.4237 65.286C49.3831 65.2465 49.3425 65.207 49.3831 65.1675C49.3019 65.0885 49.3831 65.049 49.4237 65.0885Z" fill="#C96D2F"/>
<path d="M40.9755 18.0123C40.7318 18.6047 42.0721 19.829 42.8032 19.6315C43.3718 19.4735 44.0623 18.2492 43.8186 17.6963C43.5749 17.1829 41.1786 17.4593 40.9755 18.0123Z" fill="#F9CFC7"/>
<path d="M45.7276 18.7628C47.1491 18.5258 48.6113 18.3678 50.0734 18.2493C51.5356 18.1309 52.9977 18.1309 54.4599 18.1703C55.9221 18.2098 57.3842 18.3283 58.8464 18.5653C60.3085 18.8022 61.7301 19.1577 63.111 19.6316C63.1516 19.6316 63.1516 19.6711 63.1516 19.7106C63.1516 19.7501 63.111 19.7501 63.0704 19.7501C61.6895 19.3157 60.2679 19.0392 58.8464 18.8022C57.4248 18.6048 55.9627 18.4863 54.5005 18.4468C53.0384 18.4073 51.5762 18.4468 50.1547 18.5258C48.6925 18.6048 47.271 18.7233 45.8088 18.9207C45.7682 18.9207 45.7276 18.9207 45.7276 18.8812C45.6463 18.8022 45.6869 18.7628 45.7276 18.7628Z" fill="black"/>
<path d="M45.7277 19.3552C47.1493 19.3552 48.5708 19.4342 49.9924 19.5527C51.4139 19.6712 52.8354 19.8291 54.257 20.0266C55.6785 20.2636 57.0595 20.5005 58.4404 20.856L59.4558 21.1324C59.7807 21.2114 60.1462 21.3299 60.4712 21.4484C60.7961 21.5668 61.1616 21.6853 61.4866 21.8038L61.9739 22.0013C62.1364 22.0802 62.2989 22.0802 62.502 22.1592C62.5426 22.1592 62.5426 22.1987 62.5426 22.2382C62.5426 22.2777 62.502 22.2777 62.4613 22.2777C62.3395 22.2382 62.1364 22.2382 61.9333 22.1592L61.4459 22.0013C61.121 21.8828 60.7961 21.7643 60.4306 21.6853C60.1056 21.6063 59.7401 21.4878 59.4152 21.4089L58.3998 21.1719C57.0188 20.856 55.6379 20.5795 54.2164 20.382C52.7948 20.1846 51.4139 19.9871 49.9924 19.8686C48.5708 19.7107 47.1493 19.6317 45.7277 19.5527C45.6871 19.5527 45.6465 19.5132 45.6465 19.4737C45.6871 19.3552 45.6871 19.3552 45.7277 19.3552Z" fill="black"/>
<path d="M40.2446 19.7104C39.4729 19.8684 38.7418 20.0264 38.0108 20.2633C37.2797 20.4608 36.508 20.6977 35.7769 20.9347C34.3147 21.4086 32.8932 22.001 31.4717 22.5934C30.0501 23.2253 28.6692 23.8572 27.3289 24.6076C25.9886 25.3579 24.6482 26.1478 23.3485 26.9377C23.3079 26.9772 23.2673 26.9377 23.2673 26.8982C23.2267 26.8587 23.2673 26.8192 23.3079 26.8192C23.9578 26.3848 24.567 25.9503 25.2575 25.5554C25.9073 25.1605 26.5572 24.7655 27.2476 24.3706C28.5879 23.6202 30.0095 22.9488 31.3904 22.2775C32.812 21.6456 34.2741 21.1322 35.7363 20.6188C37.1984 20.1448 38.7012 19.7499 40.2852 19.5129C40.3258 19.5129 40.3665 19.5524 40.3665 19.5524C40.3258 19.6709 40.2852 19.7104 40.2446 19.7104Z" fill="black"/>
<path d="M40.0415 20.3033C38.7012 20.9747 37.3608 21.6461 36.0205 22.3964C34.7208 23.1073 33.3805 23.8972 32.1214 24.687C30.8624 25.4769 29.6033 26.3457 28.3848 27.2146C27.207 28.1229 26.0291 29.0708 24.9731 30.1371C24.9325 30.1766 24.8919 30.1766 24.8513 30.1371C24.8106 30.0976 24.8106 30.0581 24.8513 30.0186C25.9073 28.9128 27.0445 27.9255 28.2224 27.0171C29.4408 26.1088 30.6593 25.2399 31.959 24.4106C33.2587 23.6207 34.5584 22.8704 35.8987 22.1595C37.239 21.4486 38.5793 20.7772 40.0009 20.1848C40.0415 20.1848 40.0821 20.1848 40.0821 20.2243C40.1227 20.2638 40.0821 20.3033 40.0415 20.3033Z" fill="black"/>
<path d="M26.1509 40.9973C25.9884 41.2738 25.8259 41.5502 25.6229 41.8662C25.4604 42.1426 25.2979 42.4586 25.1761 42.7745C25.1355 42.8535 25.2167 42.972 25.2979 43.0115C25.3792 43.051 25.501 43.0115 25.5416 42.9325C25.7447 42.6561 25.8666 42.3796 26.029 42.0636L26.4758 41.1948C26.557 40.9973 26.2727 40.7999 26.1509 40.9973Z" fill="#C96D2F"/>
<path d="M26.5165 42.2612C26.4353 42.2217 26.354 42.2612 26.3134 42.3007C26.1916 42.4982 26.0697 42.6957 25.9885 42.8931C25.9479 42.9721 25.8667 43.0906 25.826 43.1696C25.7854 43.2091 25.7854 43.288 25.7448 43.367C25.7042 43.446 25.7042 43.4855 25.7448 43.5645C25.7448 43.683 25.8667 43.762 25.9885 43.683C26.0697 43.6435 26.1104 43.604 26.151 43.525C26.1916 43.4855 26.1916 43.446 26.2322 43.367C26.2728 43.2485 26.3134 43.1301 26.354 43.0116C26.4353 42.8141 26.5165 42.5772 26.5977 42.3797C26.5977 42.3797 26.5571 42.3007 26.5165 42.2612Z" fill="#C96D2F"/>
<path d="M27.1257 42.4978C27.0039 42.4583 26.882 42.5373 26.882 42.6558C26.8414 42.8138 26.8008 42.9323 26.7602 43.0902C26.7602 43.1692 26.7196 43.2087 26.7196 43.2877C26.679 43.3667 26.679 43.4457 26.679 43.5247C26.679 43.6036 26.7196 43.6826 26.8008 43.6826C26.882 43.6826 26.9633 43.6826 27.0039 43.6036C27.0445 43.5247 27.0851 43.4457 27.0851 43.3667C27.0851 43.2877 27.1257 43.2087 27.1257 43.1692C27.1663 43.0112 27.2069 42.8928 27.2476 42.7348C27.3288 42.6163 27.2476 42.4978 27.1257 42.4978Z" fill="#C96D2F"/>
<path d="M32.9743 60.6253C32.893 60.1514 32.7712 59.638 32.6493 59.1641C32.6087 59.0456 32.4056 59.0851 32.4463 59.2036C32.5275 59.6775 32.6087 60.1909 32.6493 60.6648C32.6899 61.1387 32.69 61.6521 32.7712 62.1261C32.8118 62.3235 33.0961 62.2445 33.0961 62.0866C33.1773 61.5732 33.0961 61.0992 32.9743 60.6253Z" fill="#C96D2F"/>
<path d="M32.284 61.6522C32.284 61.5733 32.284 61.4548 32.2433 61.3758C32.2433 61.1783 32.2027 61.0204 32.2027 60.8229C32.2027 60.7044 32.0809 60.5859 31.959 60.5859C31.8372 60.5859 31.7153 60.7044 31.7153 60.8229C31.7153 61.0204 31.7153 61.2178 31.7153 61.3758C31.7153 61.4548 31.7153 61.5733 31.7153 61.6522C31.7153 61.7707 31.756 61.8892 31.756 61.9682C31.7966 62.0867 31.9184 62.1656 32.0403 62.1656C32.1621 62.1656 32.2433 62.0472 32.284 61.9287C32.284 61.8892 32.284 61.8497 32.284 61.7707C32.284 61.7707 32.284 61.6917 32.284 61.6522Z" fill="#C96D2F"/>
<path d="M31.0247 61.0995C30.9841 61.06 30.9435 61.0205 30.8623 61.0205C30.7404 61.0205 30.6592 61.0995 30.6592 61.218V61.4549V61.4944C30.6592 61.5339 30.6592 61.5734 30.6998 61.6129C30.6998 61.6524 30.7404 61.6919 30.7404 61.7314C30.781 61.8104 30.8216 61.8499 30.9029 61.8499C30.9841 61.8499 31.0247 61.8104 31.0653 61.7314C31.0653 61.6919 31.1059 61.6524 31.1059 61.6129C31.1059 61.5734 31.1059 61.5339 31.1466 61.4944C31.1466 61.4549 31.1466 61.4549 31.1466 61.4154V61.1785C31.0653 61.1785 31.0653 61.139 31.0247 61.0995Z" fill="#C96D2F"/>
<path d="M37.9294 54.2275C37.9294 54.0695 37.9294 53.9115 37.8888 53.7536C37.8888 53.6351 37.767 53.5166 37.6451 53.5166C37.4827 53.5166 37.4015 53.6351 37.4015 53.7536C37.4015 53.9115 37.4015 54.0695 37.3608 54.2275C37.3608 54.3065 37.3608 54.3855 37.3608 54.4644C37.3608 54.5039 37.3608 54.5829 37.3608 54.6224C37.3608 54.6619 37.4015 54.7014 37.4015 54.7409C37.4421 54.8199 37.5233 54.8989 37.6045 54.8989C37.7264 54.8989 37.767 54.8199 37.8076 54.7409C37.8076 54.7014 37.8482 54.6619 37.8482 54.6224C37.8482 54.5829 37.8482 54.5039 37.8482 54.4249C37.9701 54.3854 37.9701 54.3065 37.9294 54.2275Z" fill="#C96D2F"/>
<path d="M38.9043 55.9653C38.9043 55.8863 38.8637 55.8073 38.8637 55.7283C38.8637 55.7283 38.8637 55.7283 38.8637 55.6889C38.8637 55.6889 38.8637 55.6888 38.8637 55.6494C38.8637 55.6099 38.8637 55.5704 38.8637 55.4914C38.8231 55.1754 38.7419 54.899 38.7012 54.583C38.7012 54.4646 38.5388 54.3856 38.4169 54.4251C38.2951 54.4251 38.2139 54.5435 38.2139 54.662C38.2139 54.978 38.1732 55.2939 38.2139 55.5704C38.2139 55.7283 38.2545 55.8468 38.2545 56.0048C38.2545 56.0838 38.2951 56.2023 38.3357 56.2812C38.3763 56.3602 38.4576 56.4392 38.4982 56.5182C38.62 56.6762 38.8231 56.5577 38.8637 56.4392C38.9043 56.3602 38.9449 56.2813 38.9449 56.1628C38.9449 56.1233 38.9449 56.0443 38.9043 55.9653Z" fill="#C96D2F"/>
<path d="M51.7795 45.7366C51.7388 45.4206 51.6982 45.1047 51.6576 44.8283C51.617 44.5913 51.2515 44.6703 51.2515 44.8678C51.2515 45.1442 51.2921 45.4601 51.2515 45.7366C51.2515 45.8946 51.2515 46.013 51.2515 46.171C51.2515 46.25 51.2515 46.2895 51.2515 46.3685C51.2515 46.4475 51.2921 46.5265 51.2921 46.6449C51.3327 46.7239 51.4139 46.8029 51.4952 46.8029C51.617 46.8029 51.6576 46.7239 51.6982 46.6449C51.7389 46.5659 51.7795 46.487 51.7795 46.3685C51.7795 46.2895 51.7795 46.25 51.7795 46.171C51.8201 46.0525 51.7795 45.8946 51.7795 45.7366Z" fill="#C96D2F"/>
<path d="M51.0888 46.9215C51.0888 46.8425 51.0888 46.7635 51.0888 46.645C51.0888 46.487 51.0481 46.2896 51.0481 46.1316C51.0481 46.0526 50.9669 45.9736 50.8857 45.9736C50.8045 45.9736 50.7232 46.0526 50.7232 46.1316C50.7232 46.2896 50.6826 46.487 50.6826 46.645C50.6826 46.724 50.6826 46.803 50.6826 46.9215C50.6826 46.961 50.6826 47.0005 50.6826 47.0399C50.6826 47.0794 50.6826 47.1584 50.7232 47.1979C50.7232 47.2769 50.8451 47.3559 50.9263 47.3559C51.0075 47.3559 51.0888 47.3164 51.1294 47.1979C51.1294 47.1584 51.17 47.0794 51.17 47.0399C51.0888 47.0005 51.0888 46.961 51.0888 46.9215Z" fill="#C96D2F"/>
<path d="M50.236 47.79C50.236 47.6715 50.236 47.5926 50.236 47.4741C50.236 47.3556 50.1548 47.2766 50.0329 47.2766C49.9111 47.2766 49.8298 47.3556 49.8298 47.4741C49.8298 47.5926 49.8298 47.6715 49.8298 47.79C49.8298 47.8295 49.8298 47.9085 49.8298 47.948C49.8298 47.9875 49.8298 48.027 49.8298 48.0665C49.8298 48.106 49.8704 48.1454 49.9111 48.1849C49.9923 48.3034 50.1548 48.3034 50.236 48.1849C50.2766 48.1454 50.2766 48.106 50.3172 48.0665C50.3172 48.027 50.3172 47.9875 50.3172 47.948C50.236 47.869 50.236 47.8295 50.236 47.79Z" fill="#C96D2F"/>
<path d="M11.8137 39.0621C11.8137 39.0226 11.7731 38.9831 11.7731 38.9436C11.7325 38.8251 11.6512 38.7461 11.6106 38.6276C11.4888 38.4697 11.3669 38.3117 11.2451 38.1537C11.1638 38.0747 11.0826 38.0747 11.0014 38.1537C10.9201 38.1932 10.9201 38.3117 10.9608 38.3907C11.0014 38.4697 11.042 38.5486 11.0826 38.6276C11.1232 38.6671 11.1232 38.7066 11.1232 38.7461C11.1232 38.7461 11.1232 38.7856 11.1638 38.7856V38.8251C11.2045 38.9041 11.2451 39.0226 11.2857 39.1411C11.2857 39.1806 11.2857 39.1805 11.3263 39.22V39.2595C11.3669 39.299 11.3669 39.3385 11.4075 39.378L11.4482 39.4175C11.4888 39.4965 11.6106 39.4965 11.6919 39.457C11.7731 39.4175 11.8137 39.3385 11.8137 39.2595C11.8543 39.1805 11.8543 39.1016 11.8137 39.0621Z" fill="#C96D2F"/>
<path d="M11.1638 39.2993C11.1638 39.2598 11.1231 39.2203 11.0825 39.1808C11.0419 39.1018 11.0013 39.0623 10.9607 39.0228C10.9201 38.9439 10.8388 38.9044 10.7982 38.8254C10.7576 38.7464 10.6764 38.7069 10.6358 38.6279C10.5951 38.5884 10.5545 38.5489 10.5139 38.5489C10.4733 38.5094 10.3921 38.4699 10.3108 38.4304C10.2296 38.3909 10.0671 38.4699 10.0671 38.5884C10.0671 38.6674 10.0671 38.7464 10.0671 38.7859C10.0671 38.8254 10.1078 38.8649 10.1078 38.9044C10.1484 39.0228 10.189 39.1018 10.2296 39.2203C10.2702 39.2993 10.3108 39.3783 10.3514 39.4573C10.3921 39.5363 10.4327 39.5757 10.4733 39.6547L10.5139 39.6942C10.5545 39.7337 10.5951 39.7337 10.6358 39.7732C10.7576 39.8522 10.8795 39.8522 11.0013 39.7732C11.0825 39.7337 11.2044 39.5757 11.1638 39.4968C11.1638 39.4178 11.1638 39.3388 11.1638 39.2993Z" fill="#C96D2F"/>
<path d="M9.7828 39.2994C9.7828 39.2994 9.7828 39.2599 9.74218 39.2599C9.70157 39.181 9.62033 39.1415 9.57972 39.0625C9.49849 38.9835 9.41725 38.865 9.29541 38.786C9.25479 38.7465 9.17356 38.707 9.09233 38.707C9.0111 38.707 8.97048 38.7465 8.92986 38.7465C8.88925 38.786 8.84863 38.8255 8.84863 38.865C8.84863 38.944 8.84863 39.023 8.88925 39.0625C8.97048 39.181 9.05171 39.26 9.13294 39.3784C9.13294 39.4179 9.17356 39.4179 9.17356 39.4574L9.21418 39.4969C9.25479 39.5364 9.25479 39.5759 9.29541 39.5759L9.33602 39.6154C9.37664 39.6154 9.37664 39.6549 9.41725 39.6549C9.45787 39.6944 9.49849 39.6944 9.57972 39.6944C9.62033 39.6944 9.62033 39.6944 9.66095 39.6944C9.74218 39.6944 9.82341 39.6549 9.86403 39.5364V39.4969C9.86403 39.4179 9.82341 39.3784 9.7828 39.2994Z" fill="#C96D2F"/>
<path d="M10.1484 48.0666C10.1078 48.0272 10.0671 47.9877 10.0265 47.9482C9.90468 47.9087 9.74222 47.9482 9.66099 48.0666C9.53914 48.2641 9.45791 48.4221 9.33606 48.6195L9.1736 48.896C9.13299 48.975 9.09237 49.0145 9.09237 49.0935C9.05176 49.1724 9.05176 49.2514 9.05176 49.3304C9.05176 49.3699 9.05176 49.4489 9.09237 49.4884C9.13299 49.5279 9.1736 49.5674 9.25483 49.6069C9.37668 49.6464 9.49853 49.6464 9.57976 49.5279C9.62037 49.4884 9.7016 49.4094 9.74222 49.3699C9.78283 49.2909 9.82345 49.2514 9.86406 49.1724C9.90468 49.0935 9.94529 48.975 9.98591 48.896C10.0671 48.6985 10.1484 48.5011 10.2296 48.3036C10.2296 48.2246 10.189 48.1456 10.1484 48.0666Z" fill="#C96D2F"/>
<path d="M8.80816 47.9485C8.68631 47.9485 8.56447 47.988 8.52385 48.146C8.52385 48.1854 8.48324 48.2249 8.48324 48.2644C8.44262 48.3434 8.40201 48.4224 8.36139 48.4619C8.32077 48.5014 8.28016 48.5409 8.23954 48.5804C8.19893 48.6199 8.1177 48.6988 8.07708 48.7383C8.03647 48.7778 7.99585 48.8963 7.99585 48.9753C7.99585 49.0543 8.03647 49.0938 8.07708 49.1728C8.15831 49.2912 8.36139 49.3307 8.48324 49.2518C8.52385 49.2123 8.56447 49.2123 8.60508 49.1728C8.6457 49.1333 8.68631 49.1333 8.72693 49.0938C8.76754 49.0543 8.76754 49.0148 8.80816 48.9753C8.84877 48.8963 8.88939 48.8568 8.93001 48.7778C9.01124 48.5804 9.05185 48.3829 9.09247 48.1854C9.01124 48.067 8.93001 47.988 8.80816 47.9485Z" fill="#C96D2F"/>
<path d="M7.46776 47.5532C7.42715 47.4742 7.34591 47.4348 7.26468 47.3953C7.18345 47.3953 7.10222 47.3953 7.02099 47.4348C6.98037 47.4348 6.98037 47.4743 6.93976 47.4743C6.89914 47.5137 6.85852 47.5532 6.85852 47.5927V47.5532C6.81791 47.6717 6.77729 47.7507 6.69606 47.8297C6.61483 47.9482 6.49298 48.0271 6.37114 48.1061C6.33052 48.1456 6.2899 48.1851 6.24929 48.2246C6.24929 48.2641 6.20867 48.2641 6.20867 48.3036C6.08682 48.5011 6.24929 48.7775 6.49298 48.7775C6.57421 48.7775 6.69606 48.7775 6.77729 48.6985C6.81791 48.659 6.89914 48.6195 6.93976 48.58C7.02099 48.5011 7.10222 48.4221 7.18345 48.3036C7.3053 48.1456 7.38653 47.9482 7.42715 47.7507C7.54899 47.7112 7.50838 47.6322 7.46776 47.5532Z" fill="#C96D2F"/>
<path d="M6.93981 61.7707C6.85858 61.7312 6.81797 61.6917 6.73673 61.6917C6.69612 61.6522 6.61489 61.6128 6.57427 61.6128C6.53366 61.5733 6.49304 61.5338 6.45243 61.4943C6.45243 61.4943 6.45243 61.4548 6.41181 61.4548C6.41181 61.4548 6.41181 61.4153 6.37119 61.4153C6.37119 61.4153 6.37119 61.4153 6.41181 61.4548C6.41181 61.4153 6.37119 61.4153 6.37119 61.3758C6.37119 61.3363 6.33058 61.3363 6.33058 61.2968C6.33058 61.2968 6.33058 61.2573 6.28996 61.2573C6.24935 61.1783 6.24935 61.1388 6.24935 61.0598C6.20873 60.9414 6.08689 60.8624 5.96504 60.9019C5.84319 60.9019 5.76196 61.0203 5.76196 61.1388C5.76196 61.4153 5.88381 61.6917 6.04627 61.8892C6.1275 62.0077 6.20873 62.0867 6.33058 62.2052C6.41181 62.2446 6.45243 62.2841 6.53366 62.3236C6.61489 62.3631 6.69612 62.4026 6.77735 62.4026C6.93981 62.4421 7.14289 62.3631 7.1835 62.1657C7.22412 62.0077 7.10227 61.8497 6.93981 61.7707Z" fill="#C96D2F"/>
<path d="M7.71139 61.06C7.67077 61.0205 7.63016 60.981 7.58954 60.9415C7.54892 60.9415 7.54892 60.902 7.50831 60.902C7.46769 60.8625 7.42708 60.8625 7.34585 60.823C7.26462 60.7835 7.14277 60.7045 7.06154 60.665C7.02092 60.6256 6.98031 60.6256 6.98031 60.5861C6.93969 60.5466 6.85846 60.5071 6.77723 60.5071C6.696 60.5071 6.61477 60.5466 6.57415 60.5861C6.53354 60.6256 6.49292 60.7045 6.49292 60.7835C6.49292 60.823 6.49292 60.823 6.49292 60.8625C6.49292 60.902 6.53354 60.9415 6.57415 60.981C6.65538 61.0995 6.77723 61.218 6.89908 61.2969C6.98031 61.3364 7.06154 61.4154 7.14277 61.4549C7.18338 61.4944 7.26462 61.4944 7.30523 61.5339C7.34585 61.5734 7.42708 61.5734 7.46769 61.5734C7.50831 61.5734 7.54892 61.5734 7.58954 61.5339C7.63016 61.4944 7.67077 61.4549 7.71139 61.4154C7.79262 61.2574 7.752 61.139 7.71139 61.06Z" fill="#C96D2F"/>
<path d="M8.68613 60.3095L8.64552 60.27C8.6049 60.2306 8.56429 60.2306 8.52367 60.1911C8.48306 60.1516 8.44244 60.1516 8.36121 60.1121C8.27998 60.0726 8.15813 60.0331 8.0769 59.9936C7.99567 59.9541 7.91444 59.9541 7.8332 59.9541C7.75197 59.9541 7.67074 60.0331 7.67074 60.0726C7.63013 60.1516 7.63013 60.2306 7.63013 60.3095C7.67074 60.3885 7.71136 60.4675 7.75197 60.4675C7.83321 60.507 7.95505 60.5465 8.03628 60.6255C8.0769 60.665 8.11751 60.665 8.15813 60.7045C8.19875 60.7045 8.23936 60.744 8.27998 60.744C8.32059 60.744 8.36121 60.7834 8.40182 60.7834H8.48305C8.52367 60.7834 8.56429 60.7834 8.6049 60.744C8.64552 60.7045 8.72675 60.665 8.72675 60.6255C8.80798 60.507 8.76736 60.3885 8.68613 60.3095Z" fill="#C96D2F"/>
<path d="M28.3036 19.9873C28.2224 19.9873 28.1412 20.0268 28.1412 20.1058C28.1005 20.2638 28.0599 20.4217 28.0193 20.5797V20.6192V20.6587C28.0193 20.6982 27.9787 20.7377 27.9787 20.7772C27.9381 20.8167 27.9381 20.8562 27.8975 20.9351C27.8975 20.9746 27.8975 21.0141 27.8975 21.0931C27.8975 21.2116 28.0193 21.2511 28.1005 21.2116C28.1818 21.1721 28.2224 21.1721 28.263 21.0931C28.3036 21.0536 28.3036 21.0141 28.3442 20.9351C28.3848 20.8562 28.3848 20.7772 28.4255 20.6982C28.4661 20.5402 28.4661 20.3427 28.4661 20.1848C28.4661 20.0268 28.3849 19.9873 28.3036 19.9873Z" fill="#C96D2F"/>
<path d="M29.0753 20.5795C28.994 20.54 28.8722 20.5795 28.8316 20.6584C28.791 20.7374 28.7504 20.8559 28.7097 20.9349C28.6691 20.9744 28.6691 21.0534 28.6285 21.1324C28.6285 21.1719 28.6285 21.1719 28.5879 21.2113C28.5879 21.2508 28.5879 21.3298 28.5879 21.3693C28.6285 21.4878 28.7504 21.5668 28.8722 21.4878C28.9128 21.4878 28.9128 21.4483 28.9534 21.4483C28.994 21.4088 28.994 21.3693 29.0347 21.3693C29.0347 21.3298 29.0347 21.3298 29.0753 21.2903C29.1159 21.2508 29.1159 21.2113 29.1159 21.1324C29.1565 21.0139 29.1565 20.9349 29.1971 20.8164C29.1971 20.6979 29.1565 20.619 29.0753 20.5795Z" fill="#C96D2F"/>
<path d="M30.2938 8.02061C29.7658 7.30973 29.1159 6.71733 28.3443 6.20392C28.1818 6.08544 28.0193 6.3224 28.1412 6.44088C28.7504 6.99379 29.2784 7.66517 29.7252 8.33656C30.1719 9.04744 30.4156 9.8373 30.8218 10.5482C30.9436 10.7851 31.3498 10.6667 31.3498 10.4297C31.3092 9.56084 30.8218 8.73149 30.2938 8.02061Z" fill="#C96D2F"/>
<path d="M50.2766 2.96578C49.5049 3.9531 49.0175 5.17739 48.9363 6.40168C48.8957 6.75712 49.5049 6.8361 49.5455 6.48066C49.7892 5.33536 50.1547 4.26905 50.7234 3.24223C50.9265 2.92628 50.4797 2.68932 50.2766 2.96578Z" fill="#C96D2F"/>
<path d="M53.7696 15.0897C53.7696 15.0502 53.729 15.0107 53.729 14.9317C53.729 14.8922 53.6884 14.8528 53.6477 14.8133C53.6477 14.7738 53.6071 14.7738 53.6071 14.7343C53.5259 14.6553 53.4853 14.5763 53.404 14.4578C53.3634 14.4183 53.3228 14.3788 53.2822 14.3394C53.2416 14.3394 53.1604 14.3394 53.1197 14.3394C52.9979 14.3788 52.9573 14.4973 52.9979 14.6158C53.0385 14.6948 53.0791 14.8133 53.0791 14.8922C53.1197 14.9712 53.1197 15.0502 53.1604 15.0897C53.201 15.1292 53.201 15.1687 53.2416 15.2082C53.3228 15.3267 53.4853 15.3662 53.6071 15.3267C53.6477 15.2872 53.729 15.2477 53.729 15.2082C53.7696 15.2477 53.8102 15.1292 53.7696 15.0897Z" fill="#C96D2F"/>
</svg>
