<svg width="65" height="71" viewBox="0 0 65 71" fill="none" xmlns="http://www.w3.org/2000/svg">
<path d="M31.9623 27.5551C31.0565 28.7746 27.677 32.7383 22.9038 33.924C19.2456 34.8387 16.1797 34.1273 14.8557 33.5175C14.4377 33.3481 14.1938 33.1787 14.1589 33.0432C13.915 32.5351 14.1589 30.0959 14.1589 30.0959C15.2738 30.2314 16.3887 30.2991 17.4339 30.1975C23.531 29.791 27.677 25.4885 27.677 25.4885C28.6525 26.3693 30.1855 27.0469 31.9623 27.5551Z" fill="#2CB3DD"/>
<path d="M9.90847 2.85798C13.1486 -0.224873 16.0752 1.16411 16.0752 1.16411C10.7098 4.4841 10.222 12.3098 9.17682 15.1555C7.36513 20.271 5.30955 21.2535 5.44891 23.8282C5.51859 24.9461 5.97152 25.9625 6.70316 26.7755C4.40371 26.8094 1.23324 25.0139 0.571274 22.3037C-0.0558512 19.5596 2.97525 16.2735 4.50823 14.5119C6.11088 12.7502 7.50449 5.16165 9.90847 2.85798Z" fill="#C48D3D"/>
<path d="M41.0208 18.137C41.5434 20.881 44.6093 25.1157 41.6479 27.2161C39.8362 28.5035 36.1083 28.5035 32.7985 27.7582C32.5197 27.6904 32.2062 27.6227 31.9275 27.5549C30.1506 27.0806 28.5828 26.3692 27.6421 25.5223C25.482 23.6251 27.0847 16.3076 28.1299 13.2247C30.0809 7.49942 28.4086 1.60473 28.4086 1.60473C28.4086 1.60473 30.499 0.656161 34.3663 2.48555C39 4.68759 40.0104 12.7843 41.0208 18.137Z" fill="#C48D3D"/>
<path d="M6.77291 26.7757C6.04126 25.9288 5.58834 24.9464 5.51866 23.8284C5.34446 21.2537 7.40003 20.2713 9.24657 15.1558C10.2569 12.31 10.7447 4.45046 16.1449 1.16434C20.5697 -1.57973 28.5133 1.63863 28.5133 1.63863C28.5133 1.63863 30.1856 7.49944 28.2345 13.2586C27.1893 16.3415 25.5867 23.659 27.7468 25.5561C27.7468 25.5561 23.5659 29.8586 17.5037 30.2651C16.4585 30.3329 15.3436 30.299 14.2287 30.1635C11.2325 29.757 8.34072 28.6051 6.77291 26.7757Z" fill="#F4C77F"/>
<path d="M59.7998 47.4411C59.9043 47.4072 61.9599 46.4925 61.716 49.3382C61.4721 52.2517 59.1378 54.2843 59.1378 54.2843C59.1378 54.2843 61.716 53.9456 60.2178 57.2656C57.9881 62.2794 52.7969 62.2794 52.7969 62.2794C52.9362 61.2292 52.9014 60.1113 52.7272 58.9594H52.7969C52.7969 58.9594 55.4796 53.3697 53.9118 48.5929C52.3439 43.8162 49.4174 36.9391 52.3091 33.077C55.0963 29.3166 57.6048 36.0921 56.5248 39.175C56.4899 39.2766 56.4551 39.3444 56.4551 39.3782C56.4899 39.3105 56.5248 39.2427 56.5248 39.175C56.8035 38.5313 57.6397 36.9052 58.7894 37.8538C60.2178 39.0056 58.2319 43.0709 58.2319 43.0709C58.2319 43.0709 60.1133 41.2076 60.5314 43.2403C60.9495 45.2391 59.8694 47.3395 59.7998 47.4411Z" fill="#EAB568"/>
<path d="M32.9727 68.4453C33.1469 67.3613 33.4953 61.4327 33.6695 55.7751H33.8088C33.6346 60.9923 37.2232 65.0576 36.8748 65.0915C33.9482 65.5658 33.112 67.7 32.9727 68.4453Z" fill="#F4C77F"/>
<path d="M33.8089 55.7747H33.6695C33.4953 61.4661 33.1121 67.3947 32.9727 68.4449C33.1121 67.6996 33.9483 65.5653 36.9097 65.091C37.2232 65.0571 33.6347 60.9918 33.8089 55.7747ZM14.2287 69.0886L14.0545 69.1902C14.0545 69.1902 12.5563 69.5967 11.6505 69.1563C11.546 69.1563 9.62974 69.3935 9.00261 68.2077C8.27097 66.8188 10.3614 65.0233 11.3369 62.7535C11.9989 61.1612 14.8558 33.5511 14.8558 33.5511C16.1797 34.1609 19.2457 34.8384 22.9039 33.9576C27.677 32.7719 31.0217 28.8082 31.9624 27.5886C32.2411 27.6564 32.5198 27.7241 32.8334 27.7919C32.8334 27.7919 41.3344 40.0217 46.2469 46.5261C49.6612 51.0319 52.1 55.2327 52.762 59.0269C52.971 60.1788 52.971 61.2629 52.8317 62.3469C52.762 62.8212 52.6575 63.2955 52.5181 63.7698C51.9607 65.5314 48.407 67.7673 45.9681 66.1751C46.9785 68.9192 46.2469 69.0886 45.4804 69.3596C42.2054 70.5453 38.5123 71.0196 37.711 70.2404L37.6762 70.2743C37.6762 70.2743 35.9342 71.0196 35.2373 70.1049C35.1328 70.1388 32.6592 70.5114 32.9379 68.5804C32.6592 70.0371 29.5584 71.1551 27.9557 70.3759C27.9557 70.3759 25.935 71.1212 25.0988 70.3759L24.9595 70.4437C24.9595 70.4437 22.0329 70.8502 22.1374 68.7837C22.2071 67.3608 23.9491 66.4122 24.5762 64.9894C22.7645 62.9567 21.1619 59.9755 19.8379 56.8588C19.8379 58.722 19.8379 66.0396 19.1063 67.4286C18.4792 68.6482 14.9951 70.1049 14.2983 69.1563C14.2635 69.1563 14.2287 69.1224 14.2287 69.0886Z" fill="#F4C77F"/>
<path d="M20.1516 16.2401C20.1516 16.8499 19.7683 17.3242 19.3154 17.3242C18.8625 17.3242 18.4792 16.8499 18.4792 16.2401C18.4792 15.6303 18.8625 15.156 19.3154 15.156C19.7683 15.156 20.1516 15.6303 20.1516 16.2401Z" fill="black"/>
<path d="M12.1731 15.6639C12.1731 16.2737 11.7898 16.748 11.3369 16.748C10.884 16.748 10.5007 16.2737 10.5007 15.6639C10.5007 15.0541 10.884 14.5798 11.3369 14.5798C11.8247 14.5798 12.1731 15.0541 12.1731 15.6639Z" fill="black"/>
<path d="M10.5009 27.4533C10.3267 27.4533 10.1524 27.3178 10.1524 27.1145C10.1176 26.1998 10.1524 24.6753 10.1524 24.6076C10.1524 24.4043 10.3267 24.2688 10.5009 24.2688C10.7099 24.2688 10.8493 24.4382 10.8493 24.6076C10.8493 24.6076 10.8144 26.1659 10.8493 27.0806C10.8493 27.2839 10.7099 27.4533 10.5009 27.4533Z" fill="#542B00"/>
<path d="M14.2287 26.6741C12.6608 29.0116 14.5422 35.6516 10.4659 34.7031C7.74836 34.0594 8.27097 28.7067 9.14198 26.7757C9.14198 26.7757 10.8143 27.3177 12.1731 27.1145C13.5318 26.9112 14.2287 26.6741 14.2287 26.6741Z" fill="#E09BAC"/>
<path d="M10.9538 26.9791C10.8841 27.2162 10.8144 27.4534 10.7447 27.6905C10.675 27.9277 10.6402 28.1648 10.6054 28.402C10.5357 28.8763 10.466 29.3505 10.4312 29.8587C10.3963 30.333 10.3615 30.8411 10.3615 31.3154C10.3615 31.7897 10.3963 32.2979 10.3963 32.8061C10.3963 32.8738 10.3266 32.9416 10.257 32.9416C10.1873 32.9416 10.1524 32.9077 10.1176 32.8399C10.0479 32.6028 10.0131 32.3318 9.94339 32.0946C9.90855 31.8575 9.87371 31.5865 9.83887 31.3493C9.80403 30.8412 9.80403 30.333 9.83887 29.8248C9.87371 29.3167 9.94339 28.8085 10.0828 28.3342C10.2221 27.826 10.3963 27.3518 10.6402 26.9114C10.675 26.8436 10.7447 26.8436 10.8144 26.8775C10.9538 26.8775 10.9886 26.9114 10.9538 26.9791Z" fill="#AB657F"/>
<path d="M19.5244 10.8196C19.176 11.531 21.7542 12.6151 22.242 11.9036C22.6949 11.1922 20.1516 9.46447 19.5244 10.8196Z" fill="#C48D3D"/>
<path d="M13.6365 10.3109C13.6016 9.70106 11.1628 9.56555 10.9886 10.6835C10.7796 11.7676 13.6713 11.4288 13.6365 10.3109Z" fill="#C48D3D"/>
<path d="M19.9425 29.8926C19.8031 30.6379 19.7334 31.3833 19.7334 32.1286C19.7334 32.5012 19.7683 32.8739 19.8379 33.2465C19.9076 33.6192 20.0121 33.958 20.1167 34.3306C20.1167 34.3645 20.1167 34.4322 20.047 34.4322C20.0121 34.4322 19.9773 34.4322 19.9425 34.3984C19.7683 34.0596 19.5941 33.6869 19.5244 33.3143C19.4198 32.9416 19.385 32.5351 19.385 32.1624C19.385 31.7559 19.4199 31.3833 19.4895 31.0106C19.5592 30.6379 19.6637 30.2653 19.8031 29.8926C19.8031 29.8588 19.8728 29.8249 19.9076 29.8588C19.9076 29.8249 19.9425 29.8588 19.9425 29.8926Z" fill="#3E6FA7"/>
<path d="M20.0121 35.9565C19.9076 35.9565 19.8379 35.8887 19.8379 35.7871V34.3642C19.8379 34.2626 19.9076 34.1948 20.0121 34.1948C20.1166 34.1948 20.1863 34.2626 20.1863 34.3642V35.7871C20.1863 35.8548 20.0818 35.9565 20.0121 35.9565Z" fill="#3E6FA7"/>
<path d="M17.9217 35.3806C17.2249 35.7871 18.0262 36.5663 18.0262 36.5663C18.0262 36.5663 17.5036 37.1761 17.8172 37.5826C18.1307 37.9891 18.7927 37.3454 18.7927 37.3454L21.998 37.2777C21.998 37.2777 22.6948 37.752 23.0084 37.3116C23.3219 36.8034 22.66 36.4985 22.66 36.4985C22.66 36.4985 23.3219 35.7532 22.9039 35.4144C22.3116 34.9401 21.5799 35.7532 21.5799 35.7532L18.9669 35.8887C18.9669 35.8548 18.4095 35.0757 17.9217 35.3806Z" fill="white"/>
<path d="M61.3677 36.4308C60.7057 34.8725 59.765 33.4835 58.4759 32.3655C58.232 32.1623 57.8836 32.4672 58.0927 32.7382C59.1727 33.89 60.0786 35.2451 60.636 36.7018C60.9147 37.4133 61.1238 38.1247 61.2283 38.87C61.3677 39.6492 61.3677 40.4623 61.4722 41.2753C61.507 41.5802 62.0296 41.7157 62.0993 41.3431C62.4477 39.7169 61.9948 37.9214 61.3677 36.4308Z" fill="black"/>
<path d="M63.2837 34.0256C62.7611 32.9415 62.0295 31.9591 61.1585 31.1122C60.8797 30.8411 60.4268 31.2477 60.7055 31.5526C61.5069 32.3656 62.1688 33.3142 62.6566 34.3305C63.1444 35.3468 63.3882 36.4648 63.7018 37.5489C63.7715 37.786 64.085 37.7183 64.1199 37.4811C64.1896 36.2954 63.7715 35.1097 63.2837 34.0256Z" fill="black"/>
<path d="M10.5705 64.4136C10.2918 64.9556 9.97823 65.4638 9.69951 65.972C9.42078 66.4801 9.14206 67.0222 9.10722 67.5303C9.10722 67.8013 9.1769 68.0385 9.31627 68.2418C9.45563 68.445 9.69951 68.6144 9.94339 68.716C10.466 68.9532 11.0583 69.0209 11.6506 69.0209C11.7202 69.0209 11.7551 69.0548 11.7551 69.1226C11.7551 69.1903 11.7202 69.2242 11.6506 69.2242C11.0234 69.3258 10.3615 69.3258 9.76919 69.0887C9.45562 68.9871 9.1769 68.7838 8.96786 68.4789C8.75882 68.2079 8.6543 67.8352 8.6543 67.4964C8.68914 66.8189 9.0027 66.243 9.3511 65.7348C9.66467 65.2266 10.0479 64.7524 10.3963 64.2442C10.4312 64.2103 10.5008 64.1764 10.5357 64.2103C10.5705 64.312 10.6054 64.3797 10.5705 64.4136Z" fill="#B78A48"/>
<path d="M12.626 66.277C12.2079 66.5819 11.7898 66.9207 11.5111 67.2933C11.2324 67.666 11.093 68.1402 11.3021 68.5129C11.4066 68.7162 11.546 68.8517 11.755 68.9533C11.964 69.0549 12.2079 69.0888 12.4518 69.1227C12.6957 69.1566 12.9744 69.1566 13.2183 69.1227C13.4622 69.1227 13.7409 69.0888 13.9848 69.0549C14.0545 69.0549 14.0893 69.0888 14.1241 69.1566C14.1241 69.2243 14.0893 69.2582 14.0545 69.2582C13.5318 69.4276 12.9744 69.5292 12.417 69.4953C12.1382 69.4953 11.8595 69.4276 11.546 69.2921C11.2672 69.1566 11.0234 68.9533 10.884 68.6484C10.7446 68.3774 10.7098 68.0386 10.7795 67.7676C10.8491 67.4627 10.9885 67.1917 11.1976 66.9884C11.5808 66.548 12.0337 66.2431 12.5215 66.006C12.5912 65.9721 12.626 66.006 12.6608 66.0399C12.6957 66.1754 12.6957 66.2431 12.626 66.277Z" fill="#B78A48"/>
<path d="M15.3435 66.4126C15.1345 66.6836 14.9603 66.9885 14.7512 67.2595C14.577 67.5644 14.4028 67.8354 14.3331 68.1403C14.2286 68.4452 14.2286 68.7163 14.4028 68.9195C14.577 69.1228 14.9254 69.2244 15.2738 69.326C15.3435 69.326 15.3784 69.3938 15.3435 69.4616C15.3435 69.4954 15.2738 69.5293 15.239 69.5293C14.8558 69.5293 14.4725 69.4954 14.1241 69.1905C13.9499 69.055 13.8454 68.8179 13.8105 68.6146C13.7757 68.4113 13.8105 68.2081 13.8802 68.0048C13.9847 67.6322 14.1938 67.3273 14.4028 67.0224C14.6119 66.7175 14.8906 66.4803 15.1693 66.2432C15.2042 66.2093 15.2738 66.2093 15.3087 66.2432C15.3784 66.3109 15.3784 66.3787 15.3435 66.4126Z" fill="#B78A48"/>
<path d="M22.5207 44.6631L23.113 48.2202L23.6356 51.7774C23.984 54.1488 24.2975 56.5202 24.5414 58.8916C24.6808 60.0774 24.7853 61.2631 24.855 62.4827C24.8898 63.0925 24.9247 63.6684 24.9247 64.312C24.9247 64.4814 24.9247 64.6169 24.8898 64.7863C24.8898 64.8541 24.855 64.9557 24.8201 65.0573C24.7853 65.159 24.7504 65.1929 24.7156 65.2945C24.5762 65.5655 24.3672 65.8365 24.193 66.0737C23.8098 66.548 23.3568 66.9884 23.0084 67.4288C22.6252 67.8692 22.3465 68.3773 22.3465 68.9194V69.1226L22.3813 69.3259C22.3813 69.3937 22.4161 69.4614 22.451 69.4953C22.4858 69.563 22.4858 69.6308 22.5555 69.6647C22.6949 69.8679 22.9388 70.0373 23.2175 70.139C23.7401 70.3422 24.3672 70.3761 24.9595 70.3422C25.0292 70.3422 25.0989 70.3761 25.0989 70.4439C25.0989 70.5116 25.064 70.5794 24.9943 70.5794C24.3672 70.6471 23.7052 70.6471 23.0781 70.4439C22.7646 70.3422 22.451 70.1728 22.242 69.8679C22.0329 69.5969 21.9284 69.2582 21.9284 68.9194C21.8935 68.5806 21.9981 68.2418 22.1374 67.9708C22.2768 67.6659 22.451 67.3949 22.66 67.1577C23.0433 66.6496 23.4614 66.2431 23.8098 65.7688C23.984 65.5316 24.1582 65.2945 24.2627 65.0573C24.2975 64.9896 24.3324 64.9218 24.3324 64.888C24.3324 64.8202 24.3672 64.7863 24.3672 64.7186C24.3672 64.5831 24.402 64.4476 24.402 64.312C24.402 63.7361 24.3672 63.1263 24.3324 62.5504C24.2279 61.3647 24.1233 60.179 23.984 58.9933C23.7401 56.6218 23.4265 54.2504 23.1478 51.879L22.242 44.7647C22.242 44.697 22.2768 44.6292 22.3465 44.6292C22.451 44.5276 22.5207 44.5953 22.5207 44.6631Z" fill="#B78A48"/>
<path d="M26.1091 66.7514C26.0394 66.8192 25.9349 66.9208 25.8304 67.0224C25.7258 67.1241 25.6562 67.2596 25.5865 67.3612C25.4123 67.5984 25.3078 67.8355 25.2032 68.1065C24.9942 68.6147 24.9245 69.1906 25.029 69.7326C25.0639 69.9698 25.2032 70.173 25.4123 70.2747C25.6213 70.4102 25.9 70.4441 26.1788 70.4441C26.7362 70.4441 27.3633 70.3424 27.9208 70.2069C27.9905 70.2069 28.0253 70.2408 28.0601 70.2747C28.0601 70.3085 28.0601 70.3763 27.9905 70.4102C27.433 70.6473 26.8059 70.8167 26.1788 70.8167C25.8652 70.8167 25.5168 70.7828 25.2032 70.6134C24.8897 70.4441 24.611 70.1391 24.5761 69.8004C24.4368 69.1567 24.5761 68.513 24.82 67.9371C24.9594 67.6661 25.1336 67.3951 25.3078 67.1579C25.4123 67.0224 25.5168 66.9208 25.6213 66.8192C25.7607 66.7175 25.8304 66.6159 26.0394 66.5143C26.0743 66.4804 26.1439 66.5143 26.1788 66.5482C26.2136 66.582 26.1788 66.6498 26.1439 66.6837L26.1091 66.7514Z" fill="#B78A48"/>
<path d="M28.792 66.819C28.3739 67.361 28.0255 67.9708 27.7816 68.6145C27.6771 68.9194 27.5726 69.2582 27.6074 69.5631C27.6423 69.868 27.8165 70.1051 28.0952 70.2068C28.6875 70.4439 29.4191 70.4439 30.0811 70.3084C30.743 70.1729 31.405 69.9019 31.9625 69.5292C32.2412 69.3259 32.4502 69.0888 32.5896 68.8517L32.6593 68.75C32.6593 68.7161 32.6941 68.6823 32.6941 68.6484C32.7289 68.5806 32.7289 68.5129 32.7289 68.4113C32.7638 68.2419 32.7638 68.0725 32.7986 67.9031C32.8683 67.2255 32.9031 66.5141 32.938 65.8366C33.0425 64.4476 33.1122 63.0586 33.1819 61.6696C33.3212 58.8917 33.4257 56.0798 33.5303 53.3019C33.5651 51.9129 33.5999 50.5239 33.5999 49.135V48.0848L33.5651 47.0346C33.5303 46.357 33.4954 45.6456 33.3561 44.968C33.3561 44.9003 33.3909 44.8325 33.4606 44.8325C33.5303 44.8325 33.5999 44.8664 33.5999 44.9341C33.7741 45.6456 33.8438 46.3231 33.8787 47.0346L33.9483 48.0848L33.9832 49.135C34.018 50.5239 34.018 51.9468 34.018 53.3358C33.9832 56.1476 33.8787 58.9255 33.7393 61.7035C33.6696 63.0925 33.5999 64.4815 33.4954 65.9043C33.4606 66.6157 33.3909 67.2933 33.3212 68.0047C33.3212 68.1741 33.2864 68.3774 33.2515 68.5468C33.2515 68.6484 33.2167 68.75 33.1819 68.8178C33.1819 68.8517 33.147 68.9194 33.147 68.9533L33.0773 69.0888C32.8683 69.4276 32.5896 69.7325 32.276 69.9357C31.6489 70.3761 30.9521 70.6133 30.2204 70.7827C29.4888 70.9182 28.6875 70.9182 27.9907 70.6133C27.8165 70.5455 27.6074 70.41 27.5029 70.2406C27.3635 70.0712 27.3287 69.868 27.2939 69.6647C27.259 69.2582 27.3635 68.9194 27.5029 68.5806C27.7816 67.9031 28.1997 67.3272 28.6178 66.7512C28.6526 66.6835 28.7571 66.6835 28.792 66.7174C28.8268 66.6835 28.8268 66.7513 28.792 66.819Z" fill="#B78A48"/>
<path d="M37.711 70.376C37.1536 70.6471 36.5264 70.8503 35.8296 70.7148C35.4812 70.6471 35.1328 70.4099 34.9586 70.105L34.8541 69.8679C34.8193 69.7662 34.7844 69.6646 34.7844 69.5969C34.7844 69.4952 34.7844 69.3936 34.7844 69.3258C34.7844 69.2242 34.8193 69.1565 34.8541 69.0548C34.9586 68.7161 35.1328 68.445 35.307 68.2079C35.5161 67.9707 35.7251 67.7336 35.969 67.5303C36.4568 67.1238 37.0142 66.785 37.6762 66.7173C37.7459 66.7173 37.8155 66.7512 37.8155 66.8189C37.8155 66.8867 37.7807 66.9544 37.711 66.9544C37.4323 67.0222 37.1884 67.1577 36.9445 67.3271C36.7006 67.4965 36.4916 67.6659 36.2826 67.8691C36.0735 68.0724 35.8993 68.2756 35.7251 68.5128C35.5857 68.7499 35.4115 68.9871 35.3767 69.2242C35.3767 69.292 35.3419 69.3258 35.3419 69.3936C35.3419 69.4614 35.3419 69.4952 35.3419 69.563C35.3419 69.5969 35.3767 69.6646 35.3767 69.6985C35.4115 69.7662 35.4464 69.8001 35.4464 69.8679C35.5509 70.0711 35.7251 70.2067 35.969 70.2744C36.2129 70.3422 36.4916 70.3422 36.7703 70.3083C37.049 70.2744 37.3278 70.2067 37.6065 70.1389C37.6762 70.105 37.7458 70.1728 37.7807 70.2405C37.8155 70.3083 37.7807 70.376 37.711 70.376Z" fill="#B78A48"/>
<path d="M35.2722 70.2066C34.9238 70.2744 34.5406 70.2744 34.1922 70.2405C33.8438 70.2066 33.4605 70.0711 33.147 69.8001C32.8334 69.5291 32.7289 69.1225 32.7637 68.7499C32.7637 68.3772 32.8683 68.0385 33.0076 67.6997C33.2863 67.056 33.7044 66.4462 34.2619 65.9719C34.8193 65.4976 35.4813 65.1927 36.1781 64.9895C36.3523 64.9217 36.5265 64.9217 36.7007 64.854L36.84 64.8201H36.9097C36.9097 64.8201 36.8052 64.854 36.8052 64.8878C36.7704 64.9217 36.7355 64.9556 36.7355 64.9895C36.7355 65.0234 36.7355 65.0234 36.7355 65.0234V65.0572C36.7355 65.0572 36.7355 65.0234 36.7007 64.9895L36.631 64.8878C36.4568 64.6168 36.2826 64.3119 36.1084 64.0409C35.76 63.465 35.4116 62.8552 35.1329 62.2454C34.5406 61.0258 34.0528 59.7046 33.8089 58.3495C33.5651 56.9944 33.5302 55.6054 33.7741 54.2503C33.9831 52.8952 34.5057 51.5401 35.3767 50.456C35.8297 49.914 36.3523 49.4058 36.9446 49.0332C37.5368 48.6266 38.2685 48.4234 38.9653 48.3556C40.3937 48.2201 41.8222 48.6605 43.0416 49.3042C43.1113 49.3381 43.1461 49.4058 43.1113 49.4736C43.0764 49.5413 43.0068 49.5752 42.9371 49.5413C41.7177 48.9315 40.3589 48.5928 39.035 48.7621C38.373 48.8638 37.7459 49.067 37.1884 49.4397C36.631 49.7785 36.1432 50.2528 35.76 50.7609C34.9935 51.8111 34.5057 53.0646 34.2967 54.3519C34.0877 55.6393 34.1225 56.9944 34.3664 58.2817C34.6103 59.5691 35.0632 60.8564 35.6206 62.0421C35.8994 62.6519 36.2129 63.2278 36.5613 63.8038C36.7355 64.1087 36.9097 64.3797 37.0839 64.6846L37.1536 64.8201C37.1884 64.854 37.1884 64.8878 37.2233 64.9895C37.2233 64.9895 37.2233 65.0233 37.2233 65.0572C37.2233 65.0911 37.2233 65.0911 37.2233 65.125C37.2233 65.1927 37.1884 65.2266 37.1536 65.2605C37.1188 65.2944 37.0142 65.3282 37.0142 65.3282H36.9446L36.8052 65.3621C36.631 65.396 36.4916 65.4299 36.3174 65.4638C35.6903 65.6331 35.0632 65.9042 34.5754 66.3107C34.0877 66.7172 33.6696 67.2593 33.4257 67.8352C33.2863 68.1401 33.1818 68.445 33.1818 68.7499C33.1818 69.0548 33.2515 69.3597 33.4605 69.5629C33.6696 69.7662 33.9831 69.8678 34.2967 69.9356C34.6103 69.9695 34.9587 69.9695 35.2722 69.9356C35.3419 69.9356 35.4116 69.9695 35.4116 70.0372C35.3767 70.1389 35.3419 70.2066 35.2722 70.2066Z" fill="#B78A48"/>
<path d="M44.888 63.3975C45.2364 64.1089 45.5848 64.7865 45.8983 65.5318C46.2119 66.2771 46.4906 66.9885 46.63 67.8015C46.6648 67.9032 46.6648 68.0048 46.6648 68.1064C46.6648 68.2081 46.6648 68.3097 46.6648 68.4452C46.6648 68.6485 46.5603 68.9195 46.3861 69.1228C46.2119 69.326 45.968 69.4277 45.7938 69.4954C45.5848 69.5632 45.4106 69.6309 45.2364 69.6987C44.4699 69.9697 43.7034 70.2068 42.9021 70.3762C42.1008 70.5456 41.2994 70.715 40.4981 70.7828C40.08 70.8166 39.6968 70.8505 39.2787 70.8505C38.8606 70.8505 38.4425 70.8166 38.0244 70.6811C37.8154 70.6134 37.5715 70.4779 37.4322 70.2407C37.3625 70.1391 37.3276 69.9697 37.3276 69.8681C37.3276 69.7664 37.3276 69.6309 37.3625 69.5293C37.4322 69.0889 37.7109 68.7162 38.0244 68.4452C38.6516 67.8693 39.4181 67.5305 40.1845 67.2934C40.2542 67.2595 40.3239 67.3273 40.3587 67.395C40.3936 67.4628 40.3587 67.5305 40.2891 67.5644C39.5574 67.8354 38.8606 68.2081 38.338 68.7501C38.0941 69.0211 37.8851 69.326 37.8154 69.6309C37.7806 69.6987 37.8154 69.8003 37.8154 69.8681C37.8154 69.9697 37.8502 69.9697 37.8502 70.0375C37.9199 70.1391 38.0593 70.2068 38.2335 70.2746C38.5819 70.3762 38.9651 70.4101 39.3484 70.4101C39.7316 70.4101 40.1149 70.3762 40.5329 70.3423C41.2994 70.2407 42.1008 70.1052 42.8672 69.9019C43.6337 69.7326 44.4002 69.4954 45.1319 69.2583C45.4803 69.1228 45.9332 69.0211 46.0725 68.8179C46.2467 68.6146 46.2467 68.242 46.2119 67.9032C46.1074 67.1579 45.8635 66.4464 45.5848 65.7011C45.3061 64.9558 44.9925 64.2444 44.7138 63.533C44.6789 63.4652 44.7138 63.3975 44.7835 63.3636C44.7835 63.2958 44.8531 63.3297 44.888 63.3975Z" fill="#B78A48"/>
<path d="M15.5526 42.9692C15.7965 43.9178 16.0753 44.9003 16.354 45.8488C16.6327 46.7974 16.9114 47.7798 17.225 48.7284C17.5385 49.677 17.8173 50.6256 18.1308 51.5741C18.4792 52.5227 18.7928 53.4713 19.1412 54.386C19.838 56.2492 20.6045 58.0786 21.5103 59.8741L21.8239 60.5517L22.1723 61.1953C22.4162 61.6358 22.6252 62.0762 22.9388 62.4827C23.2175 62.8892 23.4614 63.3296 23.7401 63.7362L24.646 64.9219C24.6808 64.9896 24.6808 65.0574 24.6111 65.0913C24.5414 65.1251 24.4718 65.1251 24.4369 65.0913C23.0433 63.6007 21.9633 61.839 21.0226 60.0774C20.0819 58.3158 19.2806 56.4525 18.5838 54.5553C17.8869 52.6921 17.2598 50.7611 16.7024 48.8639C16.1449 46.9329 15.6572 45.0019 15.2739 43.037C15.2739 42.9692 15.3088 42.9015 15.3784 42.9015C15.483 42.8676 15.5178 42.9015 15.5526 42.9692Z" fill="#B78A48"/>
<path d="M29.2099 9.26081C29.0357 10.3788 28.8266 11.4967 28.5828 12.6147C28.4434 13.1567 28.304 13.7326 28.1298 14.2747C27.9556 14.8167 27.8163 15.3588 27.6769 15.9008C27.433 16.9849 27.1891 18.1028 27.0498 19.2208C26.9104 20.3388 26.8059 21.4567 26.9104 22.5408C26.9453 23.0828 27.0149 23.6249 27.224 24.0992C27.2588 24.2008 27.3285 24.3024 27.3982 24.4379L27.6421 24.7767L27.8859 25.0816L28.1647 25.3865C28.9312 26.1657 29.9415 26.6738 31.0216 27.0804C32.1016 27.4869 33.2165 27.7241 34.3662 27.8934C35.516 28.0628 36.6657 28.1306 37.8503 28.1983C37.8851 28.1983 37.92 28.2322 37.92 28.2661C37.92 28.3 37.8851 28.3338 37.8503 28.3338C36.6657 28.4016 35.516 28.3677 34.3314 28.2661C33.1468 28.1645 31.9971 27.9612 30.8474 27.5885C29.6976 27.2159 28.6176 26.6738 27.7117 25.8269L27.3982 25.4881L27.1195 25.1494L26.8407 24.7767C26.7711 24.6412 26.6665 24.5057 26.6317 24.3363C26.3878 23.7604 26.3181 23.1506 26.2833 22.5747C26.2136 21.389 26.2833 20.2371 26.4575 19.1192C26.6317 17.9673 26.8756 16.8494 27.1891 15.7653C27.3285 15.2233 27.5375 14.6812 27.7117 14.1392C27.9208 13.5971 28.095 13.0551 28.2344 12.5131C28.5828 11.429 28.8615 10.3449 29.1402 9.22693C29.1402 9.19306 29.175 9.15918 29.2447 9.15918C29.175 9.19306 29.2099 9.22694 29.2099 9.26081Z" fill="#A76E33"/>
<path d="M6.9471 24.5735C7.15614 25.0139 7.50454 25.4204 7.88779 25.7253C8.27103 26.0641 8.72395 26.3013 9.21172 26.4706C10.1872 26.7755 11.2673 26.8772 12.3125 26.7755C13.3577 26.6739 14.3681 26.3351 15.2042 25.7592C16.0753 25.1833 16.7372 24.3702 17.225 23.4556C17.2598 23.3878 17.3643 23.3539 17.434 23.3878C17.5037 23.4217 17.5385 23.5233 17.5037 23.5911C17.3295 24.0992 17.0508 24.6074 16.7372 25.0478C16.3888 25.4882 16.0056 25.8947 15.5526 26.2335C14.6468 26.9111 13.4971 27.3176 12.3822 27.4531C11.2325 27.5547 10.0827 27.4531 9.00267 27.0127C7.92263 26.5723 7.01678 25.7592 6.63353 24.6413C6.59869 24.5735 6.66838 24.4719 6.73806 24.438C6.80774 24.4719 6.91226 24.5058 6.9471 24.5735Z" fill="#542B00"/>
<path d="M7.4349 22.1685C6.84262 23.4219 8.65432 24.8787 10.7099 24.8787C12.4867 24.8787 14.0546 23.964 14.0546 22.7783C14.0546 21.1183 8.41043 20.0342 7.4349 22.1685Z" fill="black"/>
<path d="M26.5622 54.7922C26.5622 54.6567 26.5622 54.4873 26.5273 54.3518C26.5273 54.2163 26.4228 54.0808 26.2486 54.0808C26.1093 54.0808 25.9699 54.1824 25.9699 54.3518C25.9699 54.4873 25.9699 54.6567 25.9351 54.7922C25.9351 54.86 25.9351 54.9278 25.9351 54.9955C25.9351 55.0633 25.9351 55.0971 25.9699 55.1649C25.9699 55.1988 25.9699 55.2326 26.0047 55.2665C26.0396 55.3682 26.1441 55.4698 26.2486 55.4698C26.3532 55.4698 26.4577 55.402 26.4925 55.2665C26.4925 55.2326 26.4925 55.1988 26.5273 55.1649C26.5273 55.0971 26.5622 55.0633 26.5622 54.9955C26.597 54.9616 26.5622 54.8939 26.5622 54.7922Z" fill="#DDA85B"/>
<path d="M27.3984 54.42C27.259 54.3861 27.1197 54.4539 27.0848 54.5894C27.05 54.7588 27.0151 54.9282 27.0151 55.0976C27.0151 55.1653 27.0151 55.2331 27.0151 55.3347C27.0151 55.4025 27.0151 55.4363 27.0151 55.5041C27.0151 55.538 27.05 55.5719 27.05 55.6057C27.0848 55.6735 27.1545 55.7751 27.259 55.7751C27.3635 55.7751 27.4332 55.7074 27.4681 55.6057C27.4681 55.538 27.5029 55.5041 27.5029 55.4363C27.5029 55.4025 27.5029 55.3347 27.5029 55.3008C27.5029 55.2331 27.5029 55.1314 27.5377 55.0637C27.5377 54.9621 27.5726 54.8604 27.6074 54.7588C27.6074 54.6233 27.5377 54.4539 27.3984 54.42Z" fill="#DDA85B"/>
<path d="M37.3626 57.2653C37.3626 57.1975 37.3277 57.1298 37.3277 57.062V56.9942C37.3277 56.9604 37.3277 56.9265 37.3277 56.8926C37.2929 56.5877 37.3277 56.3167 37.3974 56.0457C37.4323 55.9102 37.3626 55.7408 37.1884 55.673C37.0142 55.6391 36.8748 55.7069 36.8051 55.8763C36.7006 56.2151 36.6658 56.5538 36.6658 56.8926C36.6658 57.062 36.7006 57.2653 36.7354 57.4346C36.7354 57.5024 36.7703 57.5702 36.8051 57.6718C36.84 57.7734 36.9097 57.8751 36.9793 57.9767C37.049 58.0783 37.1884 58.0783 37.2929 58.0445C37.3974 58.0106 37.4671 57.9089 37.4671 57.8073C37.4323 57.604 37.3974 57.4346 37.3626 57.2653Z" fill="#DDA85B"/>
<path d="M38.5124 58.0784C38.5124 58.0107 38.4775 57.9429 38.4775 57.8413C38.4427 57.6719 38.4079 57.5364 38.373 57.367C38.3382 57.2315 38.1988 57.1637 38.0595 57.1976C37.9201 57.2315 37.8853 57.367 37.8853 57.5025C37.9201 57.6719 37.9549 57.8074 37.9549 57.9768C37.9549 58.0445 37.9898 58.1462 37.9898 58.2139C37.9898 58.2817 38.0246 58.3156 38.0595 58.3833C38.0943 58.4511 38.164 58.4849 38.2337 58.5188C38.3033 58.5527 38.373 58.5188 38.4079 58.4849C38.4775 58.4172 38.5124 58.3833 38.5124 58.2817C38.5124 58.18 38.5124 58.1123 38.5124 58.0784Z" fill="#DDA85B"/>
<path d="M39.3485 57.7736C39.3485 57.7397 39.3485 57.7058 39.3136 57.672C39.3136 57.6381 39.2788 57.5703 39.2788 57.5364C39.244 57.4348 39.2091 57.3671 39.1743 57.2654C39.1394 57.1977 39.0698 57.1299 38.9652 57.1638C38.8607 57.1977 38.8259 57.2654 38.8607 57.3671C38.8956 57.4687 38.8956 57.5703 38.9304 57.6381C38.9304 57.672 38.9652 57.7397 38.9652 57.7736C38.9652 57.8413 39.0001 57.8752 39.0349 57.943C39.0349 57.9768 39.0698 58.0107 39.1046 58.0107C39.1394 58.0107 39.1743 58.0446 39.2091 58.0107C39.244 58.0107 39.2788 57.9769 39.2788 57.9769C39.3136 57.943 39.3485 57.9091 39.3136 57.8413C39.3485 57.8075 39.3485 57.7736 39.3485 57.7736Z" fill="#DDA85B"/>
<path d="M13.3924 60.3148C13.3924 60.1454 13.3924 59.976 13.3924 59.8067C13.3924 59.6712 13.2879 59.5356 13.1137 59.5356C12.9743 59.5356 12.8698 59.6373 12.835 59.8067C12.835 59.976 12.835 60.1454 12.835 60.3148C12.835 60.3826 12.835 60.4842 12.835 60.552C12.835 60.6536 12.8698 60.7552 12.9395 60.8569C13.0092 60.9924 13.253 60.9924 13.2879 60.8569C13.3227 60.7552 13.3576 60.6536 13.3924 60.552C13.3924 60.4842 13.3924 60.3826 13.3924 60.3148Z" fill="#DDA85B"/>
<path d="M14.0892 60.382C14.0544 60.3481 13.9847 60.3142 13.9499 60.3142C13.915 60.3142 13.8453 60.3481 13.8105 60.382C13.7757 60.4158 13.7757 60.4497 13.7408 60.5175L13.706 60.8563C13.706 60.924 13.706 60.9579 13.6711 61.0256C13.6711 61.0595 13.6711 61.0934 13.6711 61.1273C13.6711 61.1612 13.6711 61.195 13.706 61.195C13.706 61.2628 13.7757 61.2967 13.8453 61.2967C13.915 61.2967 13.9847 61.2628 14.0195 61.2289C14.0195 61.195 14.0544 61.195 14.0544 61.1612C14.0892 61.1273 14.0892 61.0934 14.0892 61.0595V61.0256C14.0892 60.9579 14.0892 60.924 14.1241 60.8563C14.1241 60.7546 14.1589 60.653 14.1589 60.5175C14.1589 60.4836 14.1241 60.4158 14.0892 60.382Z" fill="#DDA85B"/>
<path d="M36.387 34.703C36.387 34.6691 36.3522 34.6013 36.3522 34.5674C36.3173 34.5336 36.3173 34.4997 36.2825 34.4997C36.2476 34.4658 36.2128 34.4319 36.2128 34.3981C36.1779 34.3303 36.1083 34.2626 36.0386 34.2287C35.9341 34.0932 35.7947 33.9915 35.6902 33.856C35.6205 33.7883 35.5508 33.7544 35.4463 33.7544C35.3766 33.7544 35.2721 33.7883 35.2024 33.856C35.1327 33.9238 35.0979 33.9915 35.0979 34.0932C35.0979 34.127 35.0979 34.1609 35.0979 34.1948C35.0979 34.2626 35.1327 34.2964 35.2024 34.3303C35.3069 34.4658 35.4115 34.5675 35.516 34.703C35.5508 34.7707 35.6205 34.8385 35.6902 34.8723C35.725 34.9062 35.7599 34.9401 35.7947 34.9401C35.8295 34.974 35.8644 35.0079 35.8992 35.0079C35.9341 35.0417 35.9689 35.0417 36.0386 35.0417C36.1431 35.0756 36.2476 35.0417 36.3173 34.974C36.387 34.9062 36.4567 34.8385 36.4567 34.7368C36.4218 34.7707 36.4218 34.7368 36.387 34.703Z" fill="#DDA85B"/>
<path d="M35.6206 35.1434C35.5858 35.1095 35.5509 35.0417 35.5161 35.0079C35.4813 34.974 35.4813 34.974 35.4464 34.9401L35.4116 34.9062C35.3767 34.8385 35.3419 34.7707 35.3071 34.7368C35.2722 34.7029 35.2722 34.6691 35.2374 34.6691C35.2025 34.6352 35.1677 34.6352 35.1329 34.6013C35.098 34.6013 35.0632 34.6013 35.0632 34.6013C35.0283 34.6013 34.9935 34.6013 34.9587 34.6352C34.889 34.6691 34.8541 34.703 34.8193 34.7707C34.7844 34.8385 34.7496 34.9401 34.7845 35.0079C34.8193 35.0756 34.8541 35.1434 34.889 35.2111C34.9238 35.2789 34.9586 35.3128 34.9935 35.3805C35.0283 35.4144 35.0283 35.4483 35.0632 35.4821C35.098 35.516 35.1328 35.5499 35.2025 35.5838C35.2722 35.6177 35.3419 35.6515 35.4116 35.6515C35.4464 35.6515 35.4464 35.6515 35.4813 35.6515C35.5509 35.6515 35.6206 35.6177 35.6903 35.5499C35.7251 35.516 35.7251 35.4821 35.7251 35.4821C35.7251 35.4483 35.7251 35.3805 35.7251 35.3466C35.6555 35.245 35.6555 35.1772 35.6206 35.1434Z" fill="#DDA85B"/>
<path d="M34.5057 36.2953C34.5057 36.2614 34.4709 36.2276 34.4361 36.1937C34.3664 36.0921 34.2967 36.0243 34.227 35.9227C34.1922 35.8888 34.1573 35.8888 34.1225 35.8549C34.0877 35.821 34.0528 35.821 34.018 35.821C33.9831 35.821 33.9483 35.821 33.9135 35.8549C33.8786 35.8549 33.8438 35.8888 33.8089 35.9227C33.8089 35.9565 33.7741 35.9566 33.7741 35.9904C33.7392 36.0243 33.7393 36.0921 33.7393 36.1259C33.7393 36.1598 33.7393 36.1937 33.7393 36.1937C33.7393 36.2276 33.7741 36.2953 33.8089 36.3292C33.9135 36.3969 33.9831 36.4647 34.0877 36.5325C34.1225 36.5663 34.1573 36.5663 34.1922 36.6002C34.227 36.6002 34.2619 36.6341 34.2967 36.6341C34.3315 36.6341 34.3664 36.6341 34.4012 36.6002C34.4361 36.6002 34.4709 36.5663 34.5057 36.5325C34.5057 36.4986 34.5406 36.4986 34.5406 36.4647C34.5754 36.4308 34.5754 36.3631 34.5754 36.3292C34.5057 36.3292 34.5057 36.3292 34.5057 36.2953Z" fill="#DDA85B"/>
<path d="M17.9915 40.3944C17.9915 40.3267 17.9567 40.225 17.887 40.1573C17.8173 40.0895 17.7476 40.0557 17.6431 40.0557C17.4689 40.0557 17.3296 40.1912 17.3296 40.3606C17.3296 40.4283 17.3295 40.4961 17.2947 40.5638C17.2947 40.6316 17.2599 40.6993 17.2599 40.7332C17.225 40.8348 17.225 40.9365 17.225 41.0381C17.225 41.0042 17.225 40.9704 17.225 40.9365C17.225 41.0042 17.1902 41.072 17.1902 41.1059C17.1902 41.1736 17.1902 41.2753 17.1902 41.343C17.1902 41.4785 17.2947 41.5802 17.3992 41.614C17.5386 41.6479 17.6431 41.5802 17.7476 41.4785C17.7825 41.4446 17.7825 41.4108 17.8173 41.3769C17.8522 41.3091 17.887 41.2414 17.887 41.2075C17.9218 41.1059 17.9567 41.0042 17.9567 40.8687C18.0264 40.7671 18.0264 40.5638 17.9915 40.3944Z" fill="#DDA85B"/>
<path d="M18.5837 43.0367C18.5489 43.0029 18.4443 42.969 18.3747 42.969C18.305 42.969 18.2353 43.0029 18.1656 43.0367C18.1308 43.1045 18.0959 43.1384 18.0959 43.24C18.0959 43.3078 18.0959 43.4094 18.0959 43.4772C18.0959 43.5449 18.0959 43.6127 18.0959 43.6466C18.0959 43.6804 18.1308 43.7143 18.1308 43.7482C18.1656 43.8498 18.2353 43.9176 18.3398 43.9176C18.4443 43.9176 18.514 43.8498 18.5489 43.7482C18.5489 43.7143 18.5837 43.6804 18.5837 43.6466C18.5837 43.5788 18.5837 43.511 18.5837 43.4772C18.5837 43.4094 18.5837 43.3078 18.5837 43.24C18.6882 43.1723 18.6534 43.1045 18.5837 43.0367Z" fill="#DDA85B"/>
<path d="M56.4202 41.1735C56.3854 40.9703 56.3505 40.767 56.2808 40.5637C56.246 40.4621 56.1763 40.4282 56.0718 40.4282C55.9673 40.4282 55.8976 40.5299 55.8976 40.5976C55.8976 40.8009 55.9324 41.0041 55.8976 41.1735C55.8976 41.2752 55.8628 41.3768 55.8628 41.4784C55.8628 41.6139 55.8279 41.7833 55.9673 41.8511C56.037 41.9188 56.1415 41.9188 56.246 41.8849C56.4202 41.8172 56.4202 41.6478 56.4202 41.4784C56.455 41.4107 56.4202 41.309 56.4202 41.1735Z" fill="#E2A656"/>
<path d="M57.3958 41.9192C57.3958 41.8175 57.3609 41.682 57.3609 41.5804C57.3261 41.411 57.2913 41.2077 57.2216 41.0383C57.1867 40.9367 57.0822 40.8351 56.9429 40.8689C56.8383 40.8689 56.699 40.9706 56.7338 41.1061C56.7687 41.3771 56.7687 41.6481 56.7338 41.953C56.7338 41.9192 56.7338 41.8853 56.7338 41.8514C56.7338 41.9192 56.699 41.9869 56.699 42.0547C56.699 42.0885 56.699 42.1224 56.699 42.1902C56.7338 42.2918 56.7687 42.3257 56.8732 42.3934C56.9777 42.4612 57.0822 42.4273 57.1867 42.3934C57.3609 42.2918 57.3958 42.0885 57.3958 41.9192Z" fill="#E2A656"/>
<path d="M55.5145 38.2262C55.4449 38.023 55.2706 37.8536 55.0616 37.8536C55.0268 37.5148 54.9222 37.1421 54.7829 36.8372C54.6784 36.634 54.3996 36.634 54.2603 36.7695C54.0861 36.9389 53.9467 37.176 53.877 37.4132C53.8073 37.6842 54.1906 37.8536 54.3648 37.6503C54.3996 37.8874 54.4345 38.1585 54.3996 38.3956C54.3648 38.565 54.4345 38.7344 54.6087 38.8021C54.6784 38.836 54.7829 38.836 54.8874 38.8021C54.8874 38.9038 54.8874 39.0054 54.8874 39.107C54.8874 39.3103 54.8874 39.5136 55.0964 39.6152C55.1661 39.683 55.3055 39.6491 55.3752 39.6152C55.6539 39.4458 55.5842 39.1409 55.5842 38.8699C55.5494 38.6328 55.5494 38.4295 55.5145 38.2262Z" fill="#E2A656"/>
<path d="M59.4514 44.9005C59.4166 44.765 59.2424 44.6295 59.0682 44.6972C58.894 44.7311 58.7894 44.9005 58.8591 45.0699C58.894 45.1376 58.894 45.2054 58.894 45.2731V45.307V45.3748C58.894 45.5103 58.894 45.6119 58.894 45.7474V45.7813C58.894 45.8152 58.894 45.8152 58.894 45.8491C58.894 45.9168 58.8591 45.9846 58.8243 46.0523C58.7894 46.1878 58.7546 46.2895 58.7198 46.425C58.6849 46.5266 58.7546 46.6621 58.8591 46.7299C58.9636 46.7976 59.103 46.7637 59.2075 46.696C59.2772 46.6282 59.312 46.5605 59.3469 46.4927C59.4166 46.425 59.4166 46.3233 59.4514 46.2556C59.5211 46.1201 59.5211 45.9507 59.5559 45.7813C59.5908 45.4764 59.5559 45.1715 59.4514 44.9005Z" fill="#E2A656"/>
<path d="M59.2424 51.2694C59.2075 51.2694 59.1727 51.3032 59.1378 51.3371C59.2075 51.2016 59.2424 51.0661 59.312 50.8967C59.5211 50.3547 59.5908 49.7788 59.4862 49.2028C59.4514 49.0335 59.1727 48.9318 59.0333 49.1012C58.5456 49.6771 58.0578 50.253 57.6397 50.8967C57.5004 51.1 57.8488 51.3032 57.9881 51.1C58.3017 50.6934 58.6152 50.3208 58.9636 49.9481C58.9288 50.2192 58.8591 50.5241 58.7546 50.7951C58.6501 51.0322 58.5456 51.2694 58.441 51.5065C58.3365 51.7436 58.1623 51.9808 58.0926 52.2179C58.023 52.4889 58.3365 52.5906 58.5107 52.4551C58.6152 52.3534 58.6849 52.2179 58.7894 52.0824C58.8243 52.0485 58.894 51.9808 58.9288 51.9469C58.9636 51.9469 58.9636 51.913 58.9985 51.913C58.9636 52.0485 58.9288 52.1841 58.894 52.2857C58.7894 52.5567 58.6152 52.7938 58.4759 53.0649C58.3365 53.3359 58.6849 53.6069 58.894 53.4036C59.3817 52.9294 59.5908 52.1841 59.5908 51.5065C59.5559 51.371 59.3817 51.2016 59.2424 51.2694Z" fill="#E2A656"/>
<path d="M57.6744 56.4186C57.5351 56.3509 57.3957 56.3848 57.2912 56.5203C57.2215 56.6558 57.1518 56.7574 57.0822 56.8929C57.0473 56.9607 57.0125 56.9946 56.9776 57.0623C56.9428 57.0962 56.9428 57.164 56.908 57.1978C56.908 57.2317 56.908 57.2656 56.908 57.2995C56.908 57.3333 56.908 57.4011 56.908 57.435C56.9428 57.4688 56.9428 57.5027 57.0125 57.5366C57.117 57.5705 57.1867 57.5705 57.2912 57.5027C57.326 57.4688 57.3609 57.4688 57.3609 57.435C57.3957 57.4011 57.4306 57.3333 57.4654 57.2995C57.5002 57.2317 57.5351 57.1978 57.5699 57.1301C57.6396 56.9946 57.7093 56.8929 57.779 56.7574C57.8486 56.6558 57.8138 56.4864 57.6744 56.4186Z" fill="#E2A656"/>
<path d="M29.1752 21.7616C29.1752 21.7277 29.1752 21.6939 29.1752 21.6939C29.1752 21.66 29.21 21.5922 29.21 21.5583C29.2448 21.3551 29.1403 21.1179 28.9313 21.0841C28.7222 21.0502 28.5132 21.1518 28.4435 21.3551C28.339 21.7277 28.2693 22.1004 28.2345 22.5069C28.1996 22.9134 28.1648 23.4555 28.548 23.7265C28.7222 23.862 29.001 23.862 29.1055 23.6588C29.2448 23.4216 29.2448 23.1845 29.21 22.9473C29.21 22.9134 29.21 22.8796 29.1752 22.8457C29.1752 22.9812 29.1752 22.8118 29.1752 22.7779C29.1752 22.7102 29.1752 22.6085 29.1403 22.5408C29.1403 22.3714 29.1403 22.202 29.1403 22.0326C29.1752 21.931 29.1752 21.8294 29.1752 21.7616Z" fill="#BC7F2E"/>
<path d="M30.4294 22.9814C30.3946 22.8459 30.3597 22.7443 30.29 22.6088C30.2552 22.541 30.2552 22.5072 30.2204 22.4394C30.1855 22.3378 30.1507 22.3039 30.081 22.2023C30.0462 22.1684 30.0462 22.1684 30.0113 22.1345C29.9068 22.0329 29.7326 21.999 29.5932 22.0667C29.4539 22.1345 29.3842 22.27 29.3494 22.4055C29.3494 22.4394 29.3494 22.5072 29.3494 22.541C29.3494 22.6088 29.3842 22.6765 29.3842 22.7443C29.3842 22.8459 29.419 22.9137 29.419 23.0153C29.419 22.9814 29.419 22.9476 29.419 22.8798C29.4539 23.0831 29.4887 23.2863 29.5236 23.4896C29.5236 23.4557 29.5236 23.388 29.4887 23.3541C29.5236 23.5235 29.5236 23.659 29.5932 23.7945C29.6281 23.8961 29.6978 23.9639 29.8023 24.0316C29.9765 24.201 30.2204 24.1333 30.3249 23.9639C30.4294 23.7945 30.4991 23.659 30.4991 23.4557C30.5339 23.3202 30.4643 23.1508 30.4294 22.9814Z" fill="#BC7F2E"/>
<path d="M32.0668 23.5233C32.032 23.4217 31.9972 23.3201 31.9623 23.2523L31.9972 23.3539C31.9623 23.2523 31.9275 23.1507 31.8926 23.049C31.8926 22.9474 31.8926 22.8797 31.8926 22.778C31.8926 22.6764 31.8578 22.5748 31.7881 22.507C31.7184 22.4393 31.6488 22.4054 31.5791 22.4054C31.4049 22.3715 31.1958 22.507 31.161 22.6764C31.0913 22.9474 31.0913 23.1846 31.1262 23.4556C31.161 23.5911 31.1958 23.6927 31.2307 23.8282C31.2655 23.8621 31.2655 23.9299 31.3004 23.9637C31.37 24.0654 31.4397 24.0993 31.5442 24.167C31.6139 24.2009 31.6836 24.2009 31.7184 24.2009C31.7881 24.2009 31.8926 24.167 31.9275 24.1331C31.9972 24.0654 32.032 24.0315 32.0668 23.9299C32.0668 23.9637 32.032 23.9976 32.032 23.9976C32.032 23.9637 32.0668 23.9299 32.0668 23.896C32.0668 23.8282 32.0668 23.7944 32.0668 23.7266C32.1017 23.625 32.1017 23.5572 32.0668 23.5233Z" fill="#BC7F2E"/>
<path d="M4.36879 17.7981C4.33395 17.6287 4.15975 17.5271 3.98555 17.5271C3.81135 17.5271 3.63714 17.6287 3.6023 17.7981C3.56746 17.9675 3.49778 18.1708 3.4281 18.3402C3.39326 18.374 3.39326 18.4079 3.35842 18.4757C3.35842 18.4418 3.39326 18.4079 3.39326 18.374C3.32358 18.5434 3.21906 18.7128 3.0797 18.8822C2.97518 19.0177 2.87066 19.1532 2.83582 19.3226C2.80098 19.4581 2.83582 19.6275 2.94034 19.7292C3.04486 19.8308 3.18422 19.8647 3.35842 19.8308C3.6023 19.7969 3.81134 19.5936 3.95071 19.3904C4.05523 19.2549 4.12491 19.1194 4.19459 18.9838C4.26427 18.8145 4.33395 18.6451 4.36879 18.4418C4.36879 18.3402 4.40363 18.2385 4.40363 18.1369C4.43847 18.0014 4.40363 17.8998 4.36879 17.7981Z" fill="#BC7F2E"/>
<path d="M4.43852 19.0515C4.22948 19.3903 4.05528 19.6952 3.84624 20.034C3.74172 20.2033 3.6372 20.3389 3.53268 20.5082C3.463 20.6099 3.42816 20.7115 3.39332 20.847C3.35848 20.9825 3.35848 21.0842 3.39332 21.2197C3.42816 21.3891 3.6372 21.4907 3.77656 21.4229C3.91592 21.3891 4.02044 21.3213 4.12496 21.2535C4.19464 21.1858 4.29916 21.0842 4.334 20.9825C4.43852 20.8131 4.54304 20.6099 4.61272 20.4066C4.78693 20.034 4.89144 19.6613 4.99596 19.2887C5.06564 18.9499 4.61272 18.7466 4.43852 19.0515Z" fill="#BC7F2E"/>
<path d="M10.2917 5.56872C10.1872 5.53484 10.0827 5.56872 10.013 5.6026C9.90849 5.67035 9.87365 5.73811 9.83881 5.83974C9.76913 6.04301 9.66461 6.24628 9.59493 6.44954C9.56009 6.55118 9.52525 6.65281 9.49041 6.75444C9.45557 6.82219 9.45557 6.88995 9.45557 6.99158C9.45557 7.05934 9.45557 7.09322 9.45557 7.16097C9.45557 7.2626 9.52525 7.36424 9.62977 7.43199C9.73429 7.46587 9.87365 7.46587 9.94333 7.36424C9.97817 7.33036 10.013 7.29648 10.0479 7.2626C10.1175 7.19485 10.1524 7.1271 10.1872 7.05934C10.2569 6.92383 10.2917 6.8222 10.3614 6.68668C10.4311 6.48342 10.5008 6.28015 10.6053 6.07689C10.6053 5.83974 10.4659 5.6026 10.2917 5.56872Z" fill="#BC7F2E"/>
<path d="M36.1083 11.9375C36.0734 11.8358 36.0386 11.7342 36.0038 11.6326C35.9341 11.4293 35.8644 11.226 35.7947 11.0566C35.7599 10.8872 35.5857 10.7856 35.4115 10.8195C35.2721 10.8534 35.0979 10.9889 35.0979 11.1583C35.1327 11.3615 35.1327 11.5648 35.1676 11.7681C35.1676 11.9036 35.2024 12.0391 35.2373 12.1407C35.2373 12.2085 35.2721 12.2424 35.2721 12.3101C35.2721 12.344 35.3069 12.4117 35.3418 12.4456C35.3766 12.5134 35.4463 12.5811 35.516 12.615C35.5857 12.6828 35.725 12.6828 35.8296 12.6489C35.9341 12.615 36.0037 12.5473 36.0734 12.4795C36.2128 12.3101 36.1431 12.1407 36.1083 11.9375Z" fill="#BC7F2E"/>
<path d="M37.1187 11.4293C37.049 11.226 36.9445 10.9889 36.8749 10.7856C36.7006 10.3452 36.5264 9.87091 36.2477 9.46438C36.178 9.32887 36.0038 9.29499 35.8645 9.32887C35.7251 9.39662 35.6554 9.53213 35.6903 9.66764C35.76 10.1419 35.8993 10.5823 36.0735 11.0227C36.1432 11.226 36.2129 11.4631 36.2826 11.6664C36.3871 11.9374 36.4916 12.2423 36.8052 12.3101C36.9445 12.344 37.049 12.2762 37.1187 12.1746C37.2929 11.9713 37.1884 11.6664 37.1187 11.4293Z" fill="#BC7F2E"/>
<path d="M37.9201 10.2434C37.8853 10.1757 37.8505 10.1079 37.8505 10.0402C37.8505 10.0063 37.8156 9.97241 37.8156 9.93853C37.7808 9.87077 37.7459 9.80302 37.7111 9.76914C37.6414 9.66751 37.5717 9.59975 37.5021 9.49812C37.4672 9.46424 37.4324 9.46424 37.4324 9.43036C37.3975 9.39649 37.3279 9.39648 37.293 9.39648C37.2233 9.39648 37.1188 9.39649 37.0491 9.43036C36.9795 9.46424 36.9446 9.49812 36.9098 9.56587C36.8401 9.66751 36.8401 9.76914 36.8749 9.87077C36.8749 9.93852 36.9098 10.0402 36.9446 10.1079C36.9795 10.2095 37.0143 10.3112 37.084 10.4128C37.1188 10.4806 37.1537 10.5483 37.1885 10.6161C37.2233 10.6838 37.2582 10.7177 37.3279 10.7516C37.3627 10.7855 37.3975 10.8193 37.4324 10.8193C37.4672 10.8532 37.5369 10.8871 37.5717 10.921C37.6414 10.9549 37.7111 10.921 37.7808 10.921C37.9201 10.8532 37.9898 10.7516 37.9898 10.6161C37.955 10.4467 37.955 10.3451 37.9201 10.2434Z" fill="#BC7F2E"/>
</svg>
