<svg width="40" height="41" viewBox="0 0 40 41" fill="none" xmlns="http://www.w3.org/2000/svg">
<path d="M1.25 2.00825V12.3437L8.83687 22.4982C8.84297 22.5064 8.84891 22.5145 8.85484 22.5226L9.095 22.8482C9.29734 23.1112 9.55266 23.3287 9.84438 23.4867L17.0777 27.407C17.4202 27.5926 17.8456 27.4656 18.028 27.1231C18.6084 26.0337 18.1955 24.6718 17.1058 24.0812L11.9206 21.2711C11.5552 21.0729 11.2709 20.7526 11.1177 20.3662L8.61812 14.0607L8.22016 13.2156L11.1034 17.8754C11.7516 18.9229 13.1261 19.2467 14.1737 18.5986C14.503 18.3948 14.6047 17.9628 14.4009 17.6336L11.0675 12.2464C10.8337 11.8687 10.5209 11.5462 10.1506 11.3012L6.33297 8.77622C5.73641 8.38153 5.23234 7.86215 4.85609 7.25387L2.69266 3.75747L2.67422 3.76887L1.50469 1.87903H1.45891L1.25 2.00825Z" fill="#FFAF77"/>
<path d="M37.2866 16.5901L37.2934 16.5936C35.0832 13.7753 31.1348 12.7137 29.7052 12.4106C29.541 12.3654 29.3745 12.3347 29.2063 12.3153C29.1842 12.3117 29.169 12.3093 29.169 12.3093L29.1752 12.3126C27.6113 12.1475 25.9362 13.072 25.0563 14.7406L24.6242 15.5603C24.4973 15.8008 24.229 15.9303 23.964 15.8787L20.7523 15.2542L20.752 15.254C19.7896 14.7465 18.5342 15.2368 17.9476 16.3492L16.3395 19.3989C15.7529 20.5111 16.0576 21.8242 17.0198 22.3317L20.1759 23.9961L23.4145 25.7039C23.6931 25.8508 23.7988 26.1975 23.6507 26.4783C23.6492 26.4814 23.6467 26.4837 23.6449 26.4867L31.5802 28.8231C32.9238 29.4951 34.5687 28.9664 35.2785 27.6203L38.0749 22.3175C39.0966 20.3797 38.7123 18.0798 37.2866 16.5901Z" fill="#FF7717"/>
<path d="M20.4349 17.5224L21.1525 16.1613C21.2888 15.903 21.3193 15.62 21.2686 15.3547L20.7519 15.2542L20.7516 15.2541C19.7893 14.7466 18.5338 15.2369 17.9472 16.3492L17.4302 17.3297L18.7803 18.0417C19.3771 18.3563 20.1178 18.1238 20.4349 17.5224Z" fill="#232C63"/>
<path d="M31.6974 25.5443V23.473H23.7598V23.4782H23.3273V25.7282L23.7492 32.9001L23.7598 32.8815V32.9433C22.0567 34.7452 21.6618 37.3408 22.577 39.5094H38.6554V32.558L31.6974 25.5443Z" fill="#FF7717"/>
<path d="M34.5344 28.5123C33.7126 29.1606 32.566 29.3159 31.5802 28.8228L31.4285 28.7781L30.0893 30.1512C28.4554 31.8265 28.489 34.5092 30.1643 36.1431L33.6158 39.5095H38.6557V32.5639L34.5344 28.5123Z" fill="#FFAF77"/>
<path d="M29.268 22.9476C30.5995 23.6498 32.253 23.1309 32.9608 21.7886L36.2705 15.5123C34.023 13.4959 30.9344 12.6711 29.7052 12.4106C29.541 12.3654 29.3744 12.3346 29.2063 12.3153C29.1841 12.3117 29.1689 12.3093 29.1689 12.3093L29.1752 12.3126C28.9641 12.2903 28.751 12.2895 28.5381 12.3061C28.1264 12.6064 27.7725 13.0003 27.5183 13.4823L25.2753 17.7356C24.5675 19.0779 25.0731 20.7353 26.4049 21.4375L29.268 22.9476Z" fill="#FFAF77"/>
<path d="M27.1278 17.9204C26.6803 17.6845 26.5089 17.1304 26.7448 16.6831L27.3259 15.5812C27.5619 15.1337 28.1158 14.9623 28.5633 15.1982C29.0108 15.4342 29.1822 15.9881 28.9463 16.4356L28.3652 17.5375C28.1292 17.985 27.5753 18.1564 27.1278 17.9204Z" fill="#232C63"/>
<path d="M19.345 18.4948C19.1002 18.4948 18.8575 18.4353 18.635 18.318L17.2847 17.6059C17.2114 17.5672 17.1564 17.5011 17.1319 17.4219C17.1074 17.3426 17.1153 17.257 17.1541 17.1837L17.6711 16.2034C17.9899 15.5991 18.4955 15.1373 19.095 14.9031C19.6946 14.6691 20.3177 14.6881 20.8552 14.9559L21.3286 15.048C21.4541 15.0723 21.552 15.1708 21.576 15.2962C21.643 15.6483 21.5924 15.9978 21.4292 16.3072L20.7114 17.6683C20.5194 18.0325 20.1978 18.3008 19.8063 18.4237C19.6546 18.4712 19.4992 18.4948 19.345 18.4948ZM17.8527 17.1989L18.9266 17.7651C19.1408 17.878 19.3867 17.9 19.6192 17.8272C19.8525 17.7539 20.0441 17.5939 20.1588 17.3766L20.8766 16.0155C20.9417 15.8919 20.9763 15.7567 20.9794 15.6167L20.6927 15.5611C20.6733 15.5573 20.6546 15.5517 20.6363 15.5445C20.6261 15.5405 20.6158 15.5358 20.6061 15.5306C20.2222 15.3281 19.7664 15.3122 19.3225 15.4855C18.8628 15.665 18.4727 16.0236 18.2241 16.495L17.8527 17.1989Z" fill="#232C63"/>
<path d="M38.6557 39.8221H22.5771C22.4515 39.8221 22.3381 39.7469 22.2892 39.6311C21.3165 37.3263 21.7704 34.6711 23.4415 32.8275L23.1107 25.8971L16.8738 22.6082C16.327 22.3197 15.9435 21.8064 15.7942 21.1628C15.6487 20.5358 15.7442 19.8575 16.0627 19.2532L17.6709 16.2035C17.9896 15.5993 18.4952 15.1374 19.0949 14.9033C19.6943 14.6691 20.3176 14.6882 20.8549 14.956L24.0234 15.5721C24.1521 15.5969 24.2854 15.5324 24.3474 15.4147L24.7798 14.5949C25.6857 12.8771 27.442 11.8377 29.1593 11.9972C29.1781 11.9964 29.1965 11.9975 29.2154 12.0005L29.2559 12.0069C29.4279 12.0264 29.6082 12.0607 29.7787 12.1069C31.3715 12.4455 35.2946 13.5391 37.539 16.4008C37.541 16.4033 37.5429 16.4058 37.5448 16.4083C39.0787 18.04 39.4037 20.4669 38.351 22.4632L35.5548 27.766C35.4171 28.0272 35.2459 28.2643 35.044 28.4741L38.8773 32.338C38.9354 32.3966 38.9679 32.4757 38.9679 32.5582V39.5096C38.9682 39.6821 38.8282 39.8221 38.6557 39.8221ZM22.7884 39.1971H38.3431V32.6869L34.3737 28.6858C34.312 28.6236 34.2793 28.5385 34.2834 28.4511C34.2874 28.3636 34.3281 28.2819 34.3952 28.226C34.6451 28.0175 34.8492 27.7647 35.0021 27.4747L37.7984 22.1719C38.7327 20.4 38.4363 18.2438 37.0609 16.8066C37.0435 16.7885 37.0287 16.7688 37.0167 16.748C34.889 14.071 31.1532 13.0375 29.6404 12.7167C29.6345 12.7155 29.6284 12.7139 29.6224 12.7124C29.4799 12.6733 29.3281 12.6442 29.1707 12.6261L29.1662 12.6255C29.1584 12.6253 29.1504 12.6247 29.1424 12.6239C27.6602 12.4674 26.129 13.3769 25.3327 14.8869L24.9004 15.7066C24.7079 16.0716 24.3073 16.2639 23.9043 16.186L20.6924 15.5613C20.6731 15.5575 20.6543 15.5519 20.636 15.5447C20.6259 15.5407 20.6156 15.536 20.6059 15.5308C20.2221 15.3283 19.766 15.3124 19.3223 15.4857C18.8624 15.6652 18.4724 16.0236 18.2237 16.4952L16.6157 19.5447C16.3671 20.0163 16.2915 20.5408 16.4031 21.0216C16.5107 21.4858 16.7815 21.8528 17.1654 22.0553L23.5601 25.4275C23.6579 25.4791 23.7212 25.5786 23.7263 25.6891L24.0718 32.9288C24.0759 33.0136 24.0452 33.0966 23.9868 33.1583C22.4588 34.775 21.9987 37.1246 22.7884 39.1971Z" fill="#FF7717"/>
<path d="M34.3587 20.5842L32.8639 19.7959C32.0283 19.3553 31.7081 18.3206 32.1487 17.4851L35.3573 11.4004C35.5336 11.0662 35.9475 10.9381 36.2817 11.1143L36.5662 11.2643C38.5717 12.3218 39.3401 14.8049 38.2826 16.8103L36.6697 19.869C36.2289 20.7046 35.1942 21.0248 34.3587 20.5842Z" fill="#FF7717"/>
<path d="M35.1531 21.094C34.8353 21.094 34.513 21.019 34.2128 20.8607L32.718 20.0724C32.24 19.8204 31.8888 19.3972 31.7291 18.881C31.5694 18.3647 31.6202 17.8172 31.8722 17.3393L35.0808 11.2546C35.3372 10.7685 35.9414 10.5817 36.4273 10.8378L36.7119 10.9878C38.8666 12.1241 39.695 14.8014 38.5589 16.9561L36.9459 20.0149C36.5839 20.7015 35.8802 21.094 35.1531 21.094ZM35.9631 11.348C35.8295 11.348 35.7002 11.4202 35.6338 11.5463L32.4252 17.631C32.2509 17.9613 32.2158 18.3396 32.3263 18.6963C32.4367 19.053 32.6794 19.3454 33.0099 19.5196L34.5047 20.3079C35.1864 20.6674 36.0338 20.4052 36.3933 19.7233L38.0062 16.6646C38.9817 14.8149 38.2703 12.5163 36.4206 11.5408L36.1362 11.3908C36.0808 11.3617 36.0216 11.348 35.9631 11.348Z" fill="#FFAF77"/>
<path d="M17.4116 27.8053C17.2448 27.8053 17.0797 27.7637 16.9286 27.6817L9.69531 23.7615C9.36312 23.5815 9.07781 23.3384 8.84719 23.0389L8.58625 22.685L0.999687 12.5307C0.959375 12.4768 0.9375 12.4112 0.9375 12.3437V2.00825C0.9375 1.89997 0.993437 1.7995 1.08562 1.74247L1.29453 1.61325C1.34391 1.58278 1.40078 1.56653 1.45891 1.56653H1.50469C1.61297 1.56653 1.71344 1.62247 1.77047 1.71465L2.87969 3.50715C2.91078 3.53028 2.9375 3.55934 2.95828 3.59309L5.12156 7.08934C5.47172 7.65528 5.95016 8.1484 6.50516 8.51543L10.323 11.0406C10.7283 11.3086 11.0777 11.6687 11.3331 12.082L14.6666 17.4692C14.9606 17.9445 14.8131 18.5703 14.338 18.8643C13.7603 19.2217 13.0781 19.3329 12.417 19.177C11.7559 19.0212 11.195 18.6175 10.8377 18.0398L9.98594 16.6634L11.4081 20.2509C11.5341 20.5687 11.7689 20.8334 12.0694 20.9962L17.2547 23.8064C18.493 24.4775 18.9636 26.0314 18.3036 27.27C18.1763 27.5092 17.9633 27.6837 17.7041 27.7617C17.6078 27.7909 17.5094 27.8053 17.4116 27.8053ZM1.5625 12.24L9.10844 22.3403L9.34641 22.6629C9.51937 22.8876 9.73828 23.074 9.99328 23.2122L17.2264 27.1323C17.3188 27.1823 17.4245 27.1936 17.5241 27.1634C17.6227 27.1339 17.7036 27.0673 17.752 26.9762C18.2511 26.0395 17.8944 24.864 16.9569 24.3559L11.7716 21.5457C11.3425 21.3132 11.007 20.9353 10.827 20.4814L8.33125 14.185L7.93734 13.3487C7.86672 13.1989 7.92547 13.02 8.07109 12.9409C8.21656 12.8618 8.39859 12.9103 8.48578 13.0512L11.3692 17.7111C11.9256 18.6103 13.11 18.8895 14.0092 18.3328C14.0973 18.2781 14.1591 18.1925 14.183 18.0915C14.2069 17.9906 14.1898 17.8864 14.1352 17.7981L10.8017 12.4109C10.5934 12.074 10.3086 11.7806 9.97812 11.562L6.16047 9.03684C5.53062 8.62012 4.98766 8.06043 4.59031 7.41825L2.48719 4.01934C2.45609 3.99622 2.42938 3.96715 2.40859 3.9334L1.5625 2.56622V12.24Z" fill="#FFAF77"/>
</svg>
