<svg width="40" height="41" viewBox="0 0 40 41" fill="none" xmlns="http://www.w3.org/2000/svg">
<path d="M27.5 39.3447V28.0947H29.375L31.875 24.3447L30.625 19.3447L26.875 16.8447H13.125L9.375 19.3447L8.125 24.3447L10.625 28.0947H12.5V39.3447" fill="#FF7717"/>
<path d="M26.875 16.8447C24.8199 16.8447 22.793 17.3232 20.9549 18.2422L20 18.7197L19.0451 18.2422C17.207 17.3232 15.1801 16.8447 13.125 16.8447V6.84467H26.875V16.8447Z" fill="#2B4266"/>
<path d="M8.75 6.84467L20 2.46967L31.25 6.84467L20 11.2197L8.75 6.84467Z" fill="#34507B"/>
<path d="M31.25 15.5947H30V7.46967H20V6.21967H30.625C30.7908 6.21967 30.9497 6.28551 31.0669 6.40272C31.1842 6.51993 31.25 6.67891 31.25 6.84467V15.5947Z" fill="#2B4266"/>
<path d="M20 8.09467C19.7528 8.09467 19.5111 8.02136 19.3055 7.884C19.1 7.74665 18.9398 7.55143 18.8452 7.32302C18.7505 7.09461 18.7258 6.84328 18.774 6.6008C18.8223 6.35833 18.9413 6.1356 19.1161 5.96078C19.2909 5.78597 19.5137 5.66692 19.7561 5.61868C19.9986 5.57045 20.25 5.59521 20.4784 5.68982C20.7068 5.78443 20.902 5.94464 21.0393 6.1502C21.1767 6.35577 21.25 6.59744 21.25 6.84467C21.2496 7.17607 21.1178 7.49378 20.8835 7.72812C20.6491 7.96245 20.3314 8.09427 20 8.09467Z" fill="#415E89"/>
<path d="M12.5002 28.0948C12.3345 28.0948 12.1755 28.0289 12.0583 27.9117C11.9411 27.7945 11.8752 27.6355 11.8752 27.4698V22.8483C11.8745 22.1727 12.0156 21.5044 12.2895 20.8869C12.5634 20.2693 12.964 19.7161 13.4652 19.2631C13.532 19.2035 13.6108 19.1589 13.6963 19.1324C13.7817 19.1059 13.8719 19.0981 13.9607 19.1095C14.0495 19.1209 14.1347 19.1513 14.2107 19.1986C14.2867 19.2459 14.3516 19.309 14.4011 19.3836C14.4841 19.5069 14.5202 19.656 14.5026 19.8036C14.4851 19.9513 14.4152 20.0878 14.3056 20.1883C13.9335 20.5242 13.6361 20.9346 13.4327 21.3928C13.2294 21.8511 13.1246 22.3469 13.1252 22.8483V27.4698C13.1252 27.6355 13.0594 27.7945 12.9422 27.9117C12.825 28.0289 12.666 28.0948 12.5002 28.0948Z" fill="#EA7206"/>
<path d="M27.5001 28.0945C27.3344 28.0945 27.1754 28.0287 27.0582 27.9115C26.941 27.7943 26.8751 27.6353 26.8751 27.4695V22.8481C26.8757 22.3468 26.771 21.8509 26.5676 21.3927C26.3643 20.9345 26.0669 20.5242 25.6947 20.1883C25.5852 20.0878 25.5153 19.9513 25.4977 19.8037C25.4802 19.656 25.5162 19.507 25.5993 19.3836C25.6487 19.309 25.7137 19.2459 25.7897 19.1986C25.8656 19.1514 25.9509 19.121 26.0397 19.1095C26.1285 19.0981 26.2186 19.1059 26.3041 19.1324C26.3896 19.1589 26.4684 19.2035 26.5351 19.2631C27.0364 19.7161 27.4369 20.2692 27.7108 20.8868C27.9847 21.5043 28.1259 22.1725 28.1251 22.8481V27.4695C28.1251 27.6353 28.0593 27.7943 27.9421 27.9115C27.8249 28.0287 27.6659 28.0945 27.5001 28.0945Z" fill="#EA7206"/>
<path d="M15.7879 24.3344C15.529 24.3684 15.2659 24.3204 15.0357 24.1972C14.8054 24.0741 14.6195 23.8819 14.504 23.6476C14.3886 23.4134 14.3494 23.1489 14.392 22.8913C14.4345 22.6336 14.5567 22.3958 14.7414 22.2111C14.926 22.0265 15.1639 21.9043 15.4215 21.8617C15.6791 21.8192 15.9436 21.8583 16.1779 21.9738C16.4121 22.0892 16.6043 22.2752 16.7275 22.5054C16.8506 22.7357 16.8986 22.9987 16.8646 23.2577C16.8285 23.5306 16.7035 23.7839 16.5088 23.9786C16.3142 24.1732 16.0608 24.2983 15.7879 24.3344Z" fill="#7A432A"/>
<path d="M24.5379 24.3344C24.279 24.3684 24.0159 24.3204 23.7857 24.1972C23.5554 24.0741 23.3695 23.8819 23.254 23.6476C23.1386 23.4134 23.0994 23.1489 23.142 22.8913C23.1845 22.6336 23.3067 22.3958 23.4914 22.2111C23.676 22.0265 23.9139 21.9043 24.1715 21.8617C24.4291 21.8192 24.6936 21.8583 24.9279 21.9738C25.1621 22.0892 25.3543 22.2752 25.4775 22.5054C25.6006 22.7357 25.6486 22.9987 25.6146 23.2577C25.5785 23.5306 25.4535 23.7839 25.2588 23.9786C25.0642 24.1732 24.8108 24.2983 24.5379 24.3344Z" fill="#7A432A"/>
<path d="M20.625 25.5947H19.375C18.6846 25.5947 18.125 26.1543 18.125 26.8447C18.125 27.535 18.6846 28.0947 19.375 28.0947H20.625C21.3154 28.0947 21.875 27.535 21.875 26.8447C21.875 26.1543 21.3154 25.5947 20.625 25.5947Z" fill="#7A432A"/>
<path d="M25.0323 30.397L24.9771 30.5625C24.8527 30.9358 24.6139 31.2606 24.2947 31.4907C23.9754 31.7208 23.5918 31.8447 23.1983 31.8447H22.5001C22.003 31.8441 21.5264 31.6464 21.1749 31.2949C20.8234 30.9434 20.6257 30.4668 20.6251 29.9697V28.0947H19.3751V29.9697H19.3756C19.3756 29.9724 19.3751 29.9751 19.3751 29.9775C19.3725 30.4732 19.1739 30.9478 18.8226 31.2976C18.4713 31.6475 17.9959 31.8441 17.5001 31.8447H17.1703C16.8221 31.8447 16.4807 31.7477 16.1845 31.5646C15.8883 31.3815 15.6489 31.1196 15.4932 30.8081L14.9341 29.6901L13.8162 30.2492L14.3751 31.3672C14.6347 31.8863 15.0337 32.3229 15.5273 32.628C16.021 32.9331 16.5899 33.0947 17.1702 33.0947H17.5001C17.9855 33.0947 18.4641 32.9815 18.8981 32.7642C19.3321 32.5468 19.7094 32.2313 20.0001 31.8427C20.2909 32.2313 20.6682 32.5468 21.1022 32.7642C21.5361 32.9815 22.0148 33.0947 22.5001 33.0947H23.198C23.854 33.0947 24.4933 32.8884 25.0254 32.5049C25.5575 32.1213 25.9555 31.5801 26.1629 30.9579L26.218 30.7923L25.0323 30.397Z" fill="#EA7206"/>
<path d="M12.5 36.2197H27.5V39.3447H12.5V36.2197Z" fill="#D65246"/>
<path d="M15 11.2197H16.25V14.9697H15V11.2197Z" fill="#34507B"/>
<path d="M37.5 12.4697H38.75V13.7197H37.5V12.4697Z" fill="#FFB431"/>
<path d="M33.125 12.4697H36.25V13.7197H33.125V12.4697Z" fill="#FFB431"/>
<path d="M37.1531 5.89664L38.403 5.06283L39.0968 6.10284L37.8468 6.93664L37.1531 5.89664Z" fill="#FFB431"/>
<path d="M32.7788 8.81458L35.9036 6.73011L36.5974 7.77011L33.4726 9.85458L32.7788 8.81458Z" fill="#FFB431"/>
<path d="M37.1633 20.2885L37.8571 19.2485L39.107 20.0823L38.4133 21.1222L37.1633 20.2885Z" fill="#FFB431"/>
<path d="M32.7876 17.3708L33.4813 16.3308L36.6061 18.4152L35.9124 19.4553L32.7876 17.3708Z" fill="#FFB431"/>
<path d="M1.25 12.4697H2.5V13.7197H1.25V12.4697Z" fill="#FFB431"/>
<path d="M3.75 12.4697H6.875V13.7197H3.75V12.4697Z" fill="#FFB431"/>
<path d="M0.903564 6.11606L1.59731 5.07606L2.84726 5.90986L2.15351 6.94986L0.903564 6.11606Z" fill="#FFB431"/>
<path d="M3.40454 7.78333L4.09829 6.74332L7.2231 8.82778L6.52935 9.86779L3.40454 7.78333Z" fill="#FFB431"/>
<path d="M0.908936 20.0735L2.15889 19.2397L2.85263 20.2797L1.60268 21.1135L0.908936 20.0735Z" fill="#FFB431"/>
<path d="M3.4082 18.4063L6.53301 16.3219L7.22676 17.3619L4.10195 19.4463L3.4082 18.4063Z" fill="#FFB431"/>
</svg>
