<svg width="40" height="41" viewBox="0 0 40 41" fill="none" xmlns="http://www.w3.org/2000/svg">
<g clip-path="url(#clip0)">
<path d="M8.89235 0.00848389V1.40828C8.89033 2.76303 9.07691 4.11173 9.44736 5.41504L10.2595 8.27145L16.4601 2.08297L15.4086 1.55552C13.3862 0.540635 11.1551 0.0111732 8.89235 0.00848389Z" fill="url(#paint0_linear)"/>
<path d="M27.1539 1.57132L26.0986 2.09608L32.2864 8.30103L33.109 5.44732C33.4829 4.14501 33.6738 2.79698 33.6758 1.4419V0.0420998C31.4128 0.0387381 29.1796 0.562485 27.1539 1.57132Z" fill="url(#paint1_linear)"/>
<path d="M10.5799 28.9622C9.33274 28.8082 8.22373 28.0945 7.56686 27.0232C6.91033 25.9518 6.77754 24.6397 7.20616 23.4585C7.61325 22.4318 7.53224 21.2757 6.9853 20.3163L6.8552 20.0995C3.81323 20.4888 1.51386 23.0446 1.4473 26.1105C1.3804 29.1763 3.56649 31.83 6.58828 32.3514C9.61042 32.8728 12.5593 31.1052 13.5237 28.1944C12.6769 28.8176 11.623 29.0923 10.5799 28.9622Z" fill="url(#paint2_linear)"/>
<path d="M34.3154 36.5309L35.5168 30.8621C35.9007 29.0505 35.4472 27.1626 34.2824 25.7231C33.1176 24.2837 31.3659 23.4459 29.5142 23.4432L12.991 23.4204C11.1391 23.418 9.38496 24.2507 8.21611 25.6872C7.0476 27.1236 6.58873 29.0102 6.96759 30.8228L8.15358 36.4972H7.46511C5.56409 36.4946 4.02076 38.0335 4.01807 39.9349L12.2797 39.9456L30.1799 39.9712L38.4415 39.9823C38.4442 38.0813 36.9052 36.5379 35.0038 36.5352L34.3154 36.5309Z" fill="url(#paint3_linear)"/>
<path d="M38.6286 40.0087C38.6286 38.1073 37.0876 36.5663 35.1863 36.5663H34.4978L35.6915 30.8959C36.1813 28.576 35.2898 26.1818 33.4019 24.7474C30.0725 33.4998 21.6132 37.8566 14.5393 40.0087H38.6286Z" fill="#FF7717"/>
<path d="M33.8093 15.2236H36.5632C36.5632 17.1246 35.0222 18.6659 33.1208 18.6659H30.3669C30.3669 16.7646 31.9083 15.2236 33.8093 15.2236Z" fill="#348FD9"/>
<path d="M30.3669 18.6659H33.1208C35.0222 18.6659 36.5632 20.2069 36.5632 22.1082H33.8093C31.9083 22.1082 30.3669 20.5669 30.3669 18.6659Z" fill="#3086CD"/>
<path d="M30.367 14.5352H12.4668V17.2972L13.8437 40.0086H19.3515V29.6815H23.4823V40.0086H28.99L30.367 17.2972V14.5352Z" fill="#E46C17"/>
<path d="M30.367 15.2236H12.4668V17.297C12.6292 20.103 14.1234 22.6619 16.4877 24.1817C17.4054 24.7697 18.3463 25.3207 19.3101 25.8343C19.3522 25.8562 19.3928 25.881 19.4348 25.9029L21.3762 26.9275L23.4416 25.7708L25.6613 24.5317L25.9366 24.376C28.5103 22.908 30.1747 20.2456 30.367 17.289V15.2236Z" fill="#348FD9"/>
<path d="M30.367 15.2236H12.4668V17.297C12.6292 20.103 14.1234 22.6619 16.4877 24.1817C17.4054 24.7697 18.3463 25.3207 19.3101 25.8343C19.3522 25.8562 19.3928 25.881 19.4348 25.9029L21.3762 26.9275L23.4416 25.7708L25.6613 24.5317L25.9366 24.376C28.5103 22.908 30.1747 20.2456 30.367 17.289V15.2236Z" fill="#3086CD"/>
<path d="M24.5839 20.7315H18.2498C17.6242 20.7315 17.0171 20.5187 16.5287 20.1277L11.4341 16.0497C10.7816 15.5273 10.4017 14.7366 10.4014 13.9006V8.79121C10.4014 8.06072 10.6918 7.36015 11.2082 6.8438L15.1023 2.94965C15.6187 2.43296 16.3196 2.14285 17.0501 2.14285H25.784C26.5145 2.14285 27.215 2.43296 27.7314 2.94965L31.6255 6.8438C32.1422 7.36015 32.4323 8.06072 32.4323 8.79121V13.9006C32.4323 14.7366 32.0525 15.5273 31.3996 16.0497L26.305 20.1271C25.8166 20.518 25.2095 20.7315 24.5839 20.7315Z" fill="#FF7717"/>
<path d="M27.2688 9.71588C25.1127 9.75454 23.2063 11.1261 22.4842 13.1582H20.3499C19.6278 11.1261 17.7214 9.75454 15.5649 9.71588C13.4453 9.75151 11.5621 11.078 10.8145 13.0617C10.3687 14.1882 10.7113 15.4737 11.6586 16.2288L16.5287 20.1276C17.0171 20.5186 17.6242 20.7314 18.2498 20.7314H24.5839C25.2095 20.7314 25.8166 20.5186 26.305 20.1276L31.1781 16.2294C32.1254 15.4744 32.468 14.1889 32.0222 13.0624C31.2742 11.0774 29.3897 9.75051 27.2688 9.71588Z" fill="#FFAF77"/>
<path d="M20.7285 10.4044H22.1054C22.8658 10.4044 23.4824 11.0209 23.4824 11.7813C23.4824 12.5417 22.8658 13.1582 22.1054 13.1582H20.7285C19.9681 13.1582 19.3516 12.5417 19.3516 11.7813C19.3516 11.0209 19.9681 10.4044 20.7285 10.4044Z" fill="#2E3E51"/>
<path d="M23.4824 15.912C23.4824 17.0526 22.5576 17.9774 21.417 17.9774C20.2764 17.9774 19.3516 17.0526 19.3516 15.912L21.417 15.2236L23.4824 15.912Z" fill="#E94F4F"/>
<path d="M17.9746 8.33897C17.9746 9.09938 17.3581 9.71591 16.5976 9.71591C15.8372 9.71591 15.2207 9.09938 15.2207 8.33897C15.2207 7.57857 15.8372 6.96204 16.5976 6.96204C17.3581 6.96204 17.9746 7.57857 17.9746 8.33897Z" fill="#2E3E51"/>
<path d="M27.6132 8.33897C27.6132 9.09938 26.9967 9.71591 26.2363 9.71591C25.4759 9.71591 24.8594 9.09938 24.8594 8.33897C24.8594 7.57857 25.4759 6.96204 26.2363 6.96204C26.9967 6.96204 27.6132 7.57857 27.6132 8.33897Z" fill="#2E3E51"/>
<path d="M15.9092 4.20819H17.2861V5.58513H15.9092V4.20819Z" fill="#FFAF77"/>
<path d="M25.5479 4.20819H26.9248V5.58513H25.5479V4.20819Z" fill="#FFAF77"/>
<path d="M25.6634 13.4645L24.7988 14.7631C24.6432 14.9943 24.3642 15.11 24.0905 15.0562L22.1055 14.6588V13.1582H20.7285V14.6588L18.7438 15.0562C18.4702 15.111 18.1908 14.995 18.0358 14.7631L17.1706 13.4645L16.0249 14.2286L16.8905 15.5265C17.3538 16.224 18.1932 16.5716 19.0144 16.4062L21.417 15.9245L23.8199 16.4062C24.6408 16.5737 25.4816 16.2254 25.9438 15.5265L26.8091 14.2286L25.6634 13.4645Z" fill="#2E3E51"/>
</g>
<defs>
<linearGradient id="paint0_linear" x1="15.5123" y1="7.25205" x2="8.00329" y2="5.28941" gradientUnits="userSpaceOnUse">
<stop stop-color="#FF7717"/>
<stop offset="1" stop-color="#FF8F40"/>
</linearGradient>
<linearGradient id="paint1_linear" x1="32.7268" y1="7.28213" x2="25.2101" y2="5.31408" gradientUnits="userSpaceOnUse">
<stop stop-color="#FF7717"/>
<stop offset="1" stop-color="#FF8F40"/>
</linearGradient>
<linearGradient id="paint2_linear" x1="12.011" y1="30.9195" x2="0.134419" y2="27.6029" gradientUnits="userSpaceOnUse">
<stop stop-color="#FF7717"/>
<stop offset="1" stop-color="#FF8F40"/>
</linearGradient>
<linearGradient id="paint3_linear" x1="34.13" y1="37.939" x2="7.13764" y2="21.9283" gradientUnits="userSpaceOnUse">
<stop stop-color="#FF7717"/>
<stop offset="1" stop-color="#FF8F40"/>
</linearGradient>
<clipPath id="clip0">
<rect width="40" height="40" fill="white" transform="translate(0 0.00848389)"/>
</clipPath>
</defs>
</svg>
