<svg width="43" height="44" viewBox="0 0 43 44" fill="none" xmlns="http://www.w3.org/2000/svg">
<path d="M25.5312 11.4073C26.6444 11.4073 27.5469 10.5048 27.5469 9.39163C27.5469 8.27843 26.6444 7.37601 25.5312 7.37601C24.4181 7.37601 23.5156 8.27843 23.5156 9.39163C23.5156 10.5048 24.4181 11.4073 25.5312 11.4073Z" fill="#1A202E"/>
<path d="M30.9062 38.2824H28.3481C28.0664 38.2824 27.7875 38.2269 27.5273 38.1191C27.267 38.0114 27.0306 37.8534 26.8314 37.6542C26.6322 37.455 26.4742 37.2186 26.3664 36.9583C26.2586 36.6981 26.2031 36.4192 26.2031 36.1375C26.2031 35.7671 26.299 35.403 26.4815 35.0807C26.664 34.7584 26.9269 34.4888 27.2445 34.2983L30.2344 32.5005L32.25 35.5949L30.9062 38.2824Z" fill="#232C63"/>
<path d="M2.01562 29.548L4.37559 29.0761C5.03358 28.9445 5.65375 28.6672 6.19057 28.2646L8.0625 26.8605L8.68701 26.4536L9.40625 28.8761L7.91712 29.9931C7.13923 30.5765 6.19313 30.8918 5.2208 30.8918C4.63066 30.8918 4.0463 30.7755 3.50108 30.5497C2.95586 30.3239 2.46047 29.9929 2.04317 29.5756L2.01562 29.548Z" fill="#D18D28"/>
<path d="M9.4274 23.9139C9.85722 23.1976 10.422 22.5716 11.0903 22.0705C12.1969 21.2405 13.1319 20.2037 13.8436 19.0176L14.231 18.3719C14.5912 17.7713 14.7814 17.0842 14.7812 16.3839V13.423L16.7968 11.4074L19.1484 11.9953L20.8281 11.4074L22.1718 13.423L19.6523 15.4387L20.1562 18.798L20.3181 19.176C20.7002 20.0671 20.7331 21.0693 20.4105 21.9836L20.4084 21.9895L23.0074 23.2538C23.1683 23.3321 23.3119 23.4417 23.4299 23.5762C23.5478 23.7108 23.6377 23.8675 23.6943 24.0372L24.8593 27.5324L22.8437 28.2043L21.5 25.5168L18.8125 24.8449L14.7812 26.8605L13.4375 28.8762L14.4325 30.8666C14.5384 31.0785 14.5864 31.3146 14.5717 31.551C14.5569 31.7875 14.48 32.0158 14.3485 32.2129L13.4375 33.5793L12.7656 38.2824H10.75V32.2355L9.6859 31.1715C9.06704 30.5526 8.65701 29.7559 8.51315 28.8925L8.49862 28.8052C8.21723 27.1162 8.54649 25.3822 9.4274 23.9139Z" fill="#FF7717"/>
<path d="M16.261 16.0369C16.1405 16.1981 15.9847 16.3295 15.8054 16.4209C15.6262 16.5123 15.4284 16.5614 15.2272 16.5643L14.8165 16.571L14.7854 13.4191L15.5707 12.6339L16.4248 14.7385C16.5123 14.9506 16.5433 15.1817 16.5145 15.4094C16.4858 15.637 16.3985 15.8532 16.261 16.0369Z" fill="#EA9D2D"/>
<path d="M24.8594 11.4074L26.875 10.7355L28.8906 17.4543L32.9219 20.1418L30.9062 22.1574L26.2031 18.798L25.5312 14.0949L24.8594 13.423V11.4074Z" fill="#FDC9A6"/>
<path d="M40.8164 31.5637L39.9541 25.3817C39.7457 24.1317 39.4032 22.9078 38.9326 21.7311L38.9304 21.7256C38.7434 21.2581 38.4206 20.8573 38.0036 20.575C37.5866 20.2927 37.0946 20.1418 36.5911 20.1418H32.9219L30.9062 22.1574L32.9219 23.5012V28.2043L40.8164 31.5637Z" fill="url(#paint0_linear)"/>
<path d="M29.6176 31.9644L31.1303 35.5948H35.6094L34.9375 34.516L36.4601 35.1272C37.2201 35.4323 38.0527 35.5085 38.8555 35.3464C39.3675 35.243 39.8377 34.9909 40.2071 34.6215C40.2347 34.5939 40.2616 34.5657 40.2879 34.5369C40.548 34.2459 40.7406 33.901 40.8518 33.5269C40.9631 33.1528 40.9903 32.7587 40.9315 32.3728L40.8164 31.5635L33.3344 28.285C32.8159 28.0627 32.2428 28.0009 31.6889 28.1076C31.135 28.2143 30.6258 28.4845 30.2269 28.8834C29.8315 29.2788 29.5625 29.7828 29.454 30.3313C29.3455 30.8799 29.4024 31.4483 29.6176 31.9644Z" fill="#026CA2"/>
<path d="M38.2969 24.173V21.4855C38.2969 21.1291 38.1553 20.7874 37.9033 20.5354C37.6513 20.2834 37.3095 20.1418 36.9531 20.1418C36.5967 20.1418 36.255 20.2834 36.0029 20.5354C35.7509 20.7874 35.6094 21.1291 35.6094 21.4855V24.173H38.2969Z" fill="url(#paint1_linear)"/>
<path d="M35.6094 24.173V27.5324H29.0586C28.6577 27.5324 28.2731 27.6917 27.9896 27.9752C27.7061 28.2587 27.5469 28.6432 27.5469 29.0441V30.2199H36.2812C36.8158 30.2199 37.3285 30.0075 37.7065 29.6295C38.0845 29.2515 38.2969 28.7389 38.2969 28.2043V24.173H35.6094Z" fill="#FDC9A6"/>
<path d="M32.9219 14.3877H35.6094L36.9531 16.4033V16.797C36.9531 17.4053 36.7114 17.9888 36.2812 18.4189V20.1417H33.5938V18.4189C33.1636 17.9888 32.9219 17.4053 32.9219 16.797V14.3877Z" fill="#FDC9A6"/>
<path d="M32.9218 14.3877L32.5082 13.147C32.4306 12.9142 32.4194 12.6644 32.4758 12.4256C32.5321 12.1868 32.6539 11.9684 32.8274 11.7948C33.0434 11.5788 33.3277 11.4443 33.6317 11.4142C33.9358 11.3841 34.2409 11.4602 34.4951 11.6297L35.6093 12.372H36.3592C36.7278 12.3721 37.087 12.4881 37.386 12.7036C37.685 12.9192 37.9086 13.2233 38.0252 13.573C38.1097 13.8267 38.1353 14.0964 38.0998 14.3615C38.0643 14.6266 37.9687 14.88 37.8203 15.1025L36.953 16.4033L35.6093 14.3877H32.9218Z" fill="#55300B"/>
<path d="M17.8047 14.0109C18.1294 14.0109 18.3926 13.7477 18.3926 13.423C18.3926 13.0984 18.1294 12.8351 17.8047 12.8351C17.48 12.8351 17.2168 13.0984 17.2168 13.423C17.2168 13.7477 17.48 14.0109 17.8047 14.0109Z" fill="#C38325"/>
<path d="M16.261 16.0369C16.1405 16.1981 15.9847 16.3295 15.8054 16.4209C15.6262 16.5123 15.4284 16.5614 15.2272 16.5643L14.8165 16.571L14.7854 13.4191L15.5707 12.6339L16.4248 14.7385C16.5123 14.9506 16.5433 15.1817 16.5145 15.4094C16.4858 15.637 16.3985 15.8532 16.261 16.0369Z" fill="#C38325"/>
<path d="M3.88381 34.4195C3.43188 34.4195 2.98242 34.353 2.54989 34.222C2.46421 34.1975 2.38426 34.1562 2.31469 34.1005C2.24513 34.0448 2.18734 33.9758 2.14469 33.8976C2.10204 33.8193 2.07538 33.7334 2.06627 33.6447C2.05715 33.5561 2.06576 33.4665 2.0916 33.3812C2.11743 33.2959 2.15998 33.2167 2.21675 33.148C2.27352 33.0793 2.3434 33.0226 2.4223 32.9811C2.5012 32.9397 2.58755 32.9144 2.67633 32.9067C2.7651 32.8989 2.85453 32.9089 2.9394 32.9361C3.37416 33.0674 3.83147 33.1068 4.28226 33.0517C4.73306 32.9967 5.16747 32.8485 5.55787 32.6165L6.0391 32.33C6.11494 32.2841 6.19911 32.2536 6.28678 32.2404C6.37444 32.2271 6.46386 32.2314 6.54988 32.2528C6.6359 32.2743 6.71682 32.3126 6.78797 32.3655C6.85912 32.4184 6.9191 32.4848 6.96445 32.561C7.00981 32.6372 7.03963 32.7216 7.05221 32.8094C7.06479 32.8971 7.05987 32.9865 7.03774 33.0724C7.01562 33.1582 6.97672 33.2389 6.92329 33.3096C6.86986 33.3804 6.80295 33.4398 6.72643 33.4846L6.24528 33.7711C5.53078 34.1957 4.71496 34.4197 3.88381 34.4195Z" fill="#B6B7B9"/>
<path d="M12.5779 13.843C12.3997 13.843 12.2288 13.7722 12.1028 13.6462C11.9768 13.5202 11.906 13.3493 11.906 13.1711C11.9053 12.0932 12.3043 11.0532 13.0259 10.2523L13.6249 9.58677C13.6834 9.51928 13.7547 9.46412 13.8348 9.42452C13.9148 9.38492 14.0019 9.36167 14.091 9.35612C14.1802 9.35058 14.2695 9.36286 14.3538 9.39224C14.4381 9.42162 14.5158 9.46752 14.5821 9.52724C14.6485 9.58697 14.7023 9.65933 14.7404 9.74009C14.7785 9.82085 14.8001 9.9084 14.804 9.99761C14.8079 10.0868 14.7939 10.1759 14.7629 10.2597C14.732 10.3434 14.6846 10.4202 14.6237 10.4854L14.0253 11.1512C13.5259 11.7054 13.2497 12.4251 13.2502 13.1711C13.2502 13.2594 13.2328 13.3468 13.199 13.4284C13.1652 13.5099 13.1157 13.584 13.0532 13.6464C12.9908 13.7088 12.9167 13.7583 12.8351 13.792C12.7536 13.8257 12.6662 13.8431 12.5779 13.843Z" fill="#B6B7B9"/>
<path d="M30.235 7.55758C30.1239 7.55772 30.0145 7.53029 29.9167 7.47776C29.8188 7.42522 29.7355 7.34923 29.6742 7.25658L29.6203 7.1752C29.442 6.90502 29.1995 6.68336 28.9143 6.53013C28.6292 6.3769 28.3105 6.2969 27.9868 6.29731C27.8086 6.29731 27.6377 6.22652 27.5117 6.10052C27.3857 5.97452 27.3149 5.80362 27.3149 5.62543C27.3149 5.44724 27.3857 5.27634 27.5117 5.15034C27.6377 5.02434 27.8086 4.95356 27.9868 4.95356C28.5325 4.95284 29.0699 5.08769 29.5506 5.346C30.0313 5.6043 30.4403 5.97798 30.7408 6.43345L30.7946 6.51466C30.8616 6.61586 30.9 6.73334 30.9056 6.85461C30.9112 6.97587 30.8839 7.09639 30.8265 7.20336C30.7691 7.31033 30.6838 7.39976 30.5796 7.46212C30.4755 7.52449 30.3564 7.55748 30.235 7.55758Z" fill="#B6B7B9"/>
<path d="M31.1302 35.5949L30.2344 36.9387V38.2824H35.6094V35.5949H31.1302Z" fill="url(#paint2_linear)"/>
<path d="M34.9375 34.5162L35.6094 35.5954H34.7847L32.3752 32.2192C32.3239 32.1474 32.2872 32.0662 32.2673 31.9803C32.2474 31.8943 32.2446 31.8053 32.2591 31.7182C32.2736 31.6312 32.3052 31.5479 32.3519 31.473C32.3986 31.3982 32.4596 31.3332 32.5314 31.2819C32.6032 31.2307 32.6844 31.194 32.7703 31.1741C32.8563 31.1542 32.9453 31.1514 33.0323 31.1659C33.2081 31.1952 33.3651 31.2932 33.4686 31.4382L35.9571 34.9252L34.9375 34.5162Z" fill="#232C63"/>
<path d="M27.5469 9.3922C27.5469 9.40396 27.5469 9.41572 27.546 9.42747C27.54 9.43008 27.5338 9.43233 27.5276 9.43419C26.2778 9.85191 24.9686 10.0646 23.6508 10.0641H23.6307C23.4773 9.62929 23.4773 9.15511 23.6307 8.72032H23.6508C24.8244 8.72043 25.9903 8.53099 27.1034 8.15931C27.1092 8.15724 27.1151 8.15556 27.1211 8.15427C27.3978 8.50748 27.5478 8.94348 27.5469 9.3922Z" fill="#232C63"/>
<path d="M32.9219 20.1418V23.5012L30.9062 22.1574L32.9219 20.1418Z" fill="url(#paint3_linear)"/>
<defs>
<linearGradient id="paint0_linear" x1="39.5752" y1="30.1545" x2="29.6771" y2="27.7037" gradientUnits="userSpaceOnUse">
<stop stop-color="#FF7717"/>
<stop offset="1" stop-color="#FF8F40"/>
</linearGradient>
<linearGradient id="paint1_linear" x1="37.9603" y1="23.6757" x2="35.211" y2="23.1526" gradientUnits="userSpaceOnUse">
<stop stop-color="#FF7717"/>
<stop offset="1" stop-color="#FF8F40"/>
</linearGradient>
<linearGradient id="paint2_linear" x1="34.9362" y1="37.9509" x2="30.6386" y2="35.498" gradientUnits="userSpaceOnUse">
<stop stop-color="#FF7717"/>
<stop offset="1" stop-color="#FF8F40"/>
</linearGradient>
<linearGradient id="paint3_linear" x1="32.6694" y1="23.0867" x2="30.5937" y2="22.7313" gradientUnits="userSpaceOnUse">
<stop stop-color="#FF7717"/>
<stop offset="1" stop-color="#FF8F40"/>
</linearGradient>
</defs>
</svg>
