<svg width="13" height="17" viewBox="0 0 13 17" fill="none" xmlns="http://www.w3.org/2000/svg">
<path d="M6.49984 0.278198C3.27484 0.278198 0.666504 2.88653 0.666504 6.11153C0.666504 10.4865 6.49984 16.9449 6.49984 16.9449C6.49984 16.9449 12.3332 10.4865 12.3332 6.11153C12.3332 2.88653 9.72484 0.278198 6.49984 0.278198ZM6.49984 8.19487C5.9473 8.19487 5.4174 7.97537 5.0267 7.58467C4.636 7.19397 4.4165 6.66407 4.4165 6.11153C4.4165 5.559 4.636 5.02909 5.0267 4.63839C5.4174 4.24769 5.9473 4.0282 6.49984 4.0282C7.05237 4.0282 7.58228 4.24769 7.97298 4.63839C8.36368 5.02909 8.58317 5.559 8.58317 6.11153C8.58317 6.66407 8.36368 7.19397 7.97298 7.58467C7.58228 7.97537 7.05237 8.19487 6.49984 8.19487Z" fill="#FF7717"/>
</svg>
