<svg width="23" height="21" viewBox="0 0 23 21" fill="none" xmlns="http://www.w3.org/2000/svg">
<path d="M19.2852 3.8528H15.6328V2.92135C15.6328 2.15925 15.3678 1.51711 14.8379 0.994936C14.3079 0.472759 13.6562 0.21167 12.8828 0.21167H9.1875C8.41406 0.21167 7.76237 0.472759 7.23242 0.994936C6.70247 1.51711 6.4375 2.15925 6.4375 2.92135V3.8528H2.78516C2.01172 3.8528 1.36003 4.10683 0.830078 4.6149C0.30013 5.12296 0.0351562 5.77215 0.0351562 6.56248V10.1613C0.0351562 10.754 0.335938 11.0504 0.9375 11.0504V18.2903C0.9375 18.7701 1.1237 19.1935 1.49609 19.5605C1.86849 19.9274 2.29818 20.1109 2.78516 20.1109H19.2852C19.7721 20.1109 20.2018 19.9274 20.5742 19.5605C20.9466 19.1935 21.1328 18.7701 21.1328 18.2903V11.0504C21.7344 11.0504 22.0352 10.754 22.0352 10.1613V6.56248C22.0352 5.77215 21.7702 5.12296 21.2402 4.6149C20.7103 4.10683 20.0586 3.8528 19.2852 3.8528ZM8.28516 2.92135C8.28516 2.66732 8.37109 2.45562 8.54297 2.28627C8.71484 2.11691 8.92969 2.03223 9.1875 2.03223H12.8828C13.1406 2.03223 13.3555 2.11691 13.5273 2.28627C13.6992 2.45562 13.7852 2.66732 13.7852 2.92135V3.8528H8.28516V2.92135ZM2.78516 18.2903V11.0504H8.28516V13.7601C8.28516 14.2681 8.46419 14.6986 8.82227 15.0514C9.18034 15.4042 9.61719 15.5806 10.1328 15.5806H11.9375C12.4531 15.5806 12.89 15.4042 13.248 15.0514C13.6061 14.6986 13.7852 14.2681 13.7852 13.7601V11.0504H19.2852V18.2903H2.78516ZM10.1328 13.7601V11.0504H11.9375V13.7601H10.1328ZM20.1875 9.27215H1.88281V6.56248C1.88281 5.94151 2.18359 5.63103 2.78516 5.63103H19.2852C19.8867 5.63103 20.1875 5.94151 20.1875 6.56248V9.27215Z" fill="#FF7717"/>
</svg>
