<svg width="37" height="36" viewBox="0 0 37 36" fill="none" xmlns="http://www.w3.org/2000/svg">
<path d="M35.2918 14.23L35.2915 14.2289C35.1787 13.8799 34.87 13.6328 34.5038 13.5998L34.5032 13.5998L24.0983 12.655L23.5037 12.601L23.2692 12.052L19.1557 2.42397C19.1556 2.4237 19.1554 2.42344 19.1553 2.42317C19.0089 2.08337 18.6784 1.86646 18.3125 1.86646C17.9469 1.86646 17.6166 2.08295 17.4699 2.42406C17.4698 2.42432 17.4697 2.42458 17.4696 2.42484L13.3558 12.052L13.1212 12.601L12.5266 12.655L2.12176 13.5996C2.12159 13.5996 2.12142 13.5997 2.12125 13.5997C1.75503 13.6337 1.44685 13.8802 1.33292 14.2306C1.21885 14.5814 1.32467 14.9632 1.59966 15.2031L1.60155 15.2048L9.46638 22.1023L9.91402 22.4949L9.7822 23.0755L7.46328 33.2904C7.46325 33.2905 7.46321 33.2907 7.46318 33.2908C7.38147 33.6533 7.52196 34.023 7.81859 34.2375L35.2918 14.23ZM35.2918 14.23C35.4056 14.5806 35.3003 14.9625 35.0226 15.2054L35.0218 15.2061L27.157 22.1022L26.7093 22.4948L26.8411 23.0755L29.1601 33.2909L35.2918 14.23ZM8.82383 34.2819L8.82428 34.2816L17.7994 28.9175L18.3126 28.6108L18.8256 28.9175L27.7975 34.2817L27.7998 34.2831C28.1117 34.4707 28.5053 34.4546 28.8034 34.2385L28.8035 34.2384C29.102 34.0221 29.2415 33.6515 29.1602 33.2914L8.82383 34.2819ZM8.82383 34.2819C8.67528 34.3708 8.51465 34.4134 8.35512 34.4134C8.16917 34.4134 7.98244 34.3559 7.81878 34.2377L8.82383 34.2819Z" stroke="#FFC107" stroke-width="2"/>
</svg>
