<svg width="37" height="36" viewBox="0 0 37 36" fill="none" xmlns="http://www.w3.org/2000/svg">
<path d="M35.2459 14.23L35.2456 14.2289C35.1328 13.8799 34.8241 13.6328 34.4579 13.5998L34.4573 13.5998L24.0524 12.655L23.4578 12.601L23.2233 12.052L19.1098 2.42397C19.1097 2.4237 19.1095 2.42344 19.1094 2.42317C18.963 2.08337 18.6325 1.86646 18.2666 1.86646C17.901 1.86646 17.5707 2.08295 17.424 2.42406C17.4239 2.42432 17.4238 2.42458 17.4237 2.42484L13.3099 12.052L13.0753 12.601L12.4807 12.655L2.07586 13.5996C2.07569 13.5996 2.07552 13.5997 2.07535 13.5997C1.70913 13.6337 1.40096 13.8802 1.28702 14.2306C1.17295 14.5814 1.27877 14.9632 1.55376 15.2031L1.55566 15.2048L9.42048 22.1023L9.86812 22.4949L9.73631 23.0755L7.41738 33.2904C7.41735 33.2905 7.41731 33.2907 7.41728 33.2908C7.33557 33.6533 7.47607 34.023 7.77269 34.2375L35.2459 14.23ZM35.2459 14.23C35.3597 14.5806 35.2544 14.9625 34.9767 15.2054L34.9759 15.2061L27.1111 22.1022L26.6634 22.4948L26.7952 23.0755L29.1142 33.2909L35.2459 14.23ZM8.77793 34.2819L8.77838 34.2816L17.7535 28.9175L18.2667 28.6108L18.7797 28.9175L27.7516 34.2817L27.7539 34.2831C28.0658 34.4707 28.4594 34.4546 28.7575 34.2385L28.7576 34.2384C29.0561 34.0221 29.1956 33.6515 29.1143 33.2914L8.77793 34.2819ZM8.77793 34.2819C8.62938 34.3708 8.46875 34.4134 8.30923 34.4134C8.12327 34.4134 7.93654 34.3559 7.77288 34.2377L8.77793 34.2819Z" fill="#FFC107" stroke="#FFC107" stroke-width="2"/>
</svg>
