<svg width="13" height="17" viewBox="0 0 13 17" fill="none" xmlns="http://www.w3.org/2000/svg">
<path d="M6.27734 0.607178C2.96734 0.607178 0.277344 3.29718 0.277344 6.60718C0.277344 8.62718 1.44734 10.3172 2.80734 11.4972C3.23734 11.8672 3.98734 12.4572 4.65734 13.3272C5.39734 14.2972 6.06734 15.3372 6.27734 16.0372C6.48734 15.3372 7.15734 14.2972 7.89734 13.3272C8.56734 12.4572 9.31734 11.8672 9.74734 11.4972C11.1073 10.3172 12.2773 8.62718 12.2773 6.60718C12.2773 3.29718 9.58734 0.607178 6.27734 0.607178ZM6.27734 3.16718C6.72909 3.16718 7.17641 3.25616 7.59377 3.42903C8.01113 3.60191 8.39036 3.8553 8.70979 4.17473C9.02922 4.49416 9.28261 4.87339 9.45549 5.29075C9.62837 5.70811 9.71734 6.15543 9.71734 6.60718C9.71734 7.05893 9.62837 7.50625 9.45549 7.92361C9.28261 8.34097 9.02922 8.72019 8.70979 9.03963C8.39036 9.35906 8.01113 9.61245 7.59377 9.78532C7.17641 9.9582 6.72909 10.0472 6.27734 10.0472C5.365 10.0472 4.49002 9.68475 3.8449 9.03963C3.19977 8.3945 2.83734 7.51952 2.83734 6.60718C2.83734 5.69483 3.19977 4.81986 3.8449 4.17473C4.49002 3.52961 5.365 3.16718 6.27734 3.16718Z" fill="#FF7717"/>
</svg>
