<svg width="15" height="15" viewBox="0 0 15 15" fill="none" xmlns="http://www.w3.org/2000/svg">
<path d="M6.57321 7.67505C6.57321 7.87396 6.65223 8.06473 6.79288 8.20538C6.93353 8.34603 7.1243 8.42505 7.32321 8.42505C7.52212 8.42505 7.71289 8.34603 7.85354 8.20538C7.99419 8.06473 8.07321 7.87396 8.07321 7.67505C8.07321 7.47614 7.99419 7.28537 7.85354 7.14472C7.71289 7.00407 7.52212 6.92505 7.32321 6.92505C7.1243 6.92505 6.93353 7.00407 6.79288 7.14472C6.65223 7.28537 6.57321 7.47614 6.57321 7.67505ZM9.69821 7.67505C9.69821 7.87396 9.77723 8.06473 9.91788 8.20538C10.0585 8.34603 10.2493 8.42505 10.4482 8.42505C10.6471 8.42505 10.8379 8.34603 10.9785 8.20538C11.1192 8.06473 11.1982 7.87396 11.1982 7.67505C11.1982 7.47614 11.1192 7.28537 10.9785 7.14472C10.8379 7.00407 10.6471 6.92505 10.4482 6.92505C10.2493 6.92505 10.0585 7.00407 9.91788 7.14472C9.77723 7.28537 9.69821 7.47614 9.69821 7.67505ZM3.44821 7.67505C3.44821 7.87396 3.52723 8.06473 3.66788 8.20538C3.80853 8.34603 3.9993 8.42505 4.19821 8.42505C4.39712 8.42505 4.58789 8.34603 4.72854 8.20538C4.86919 8.06473 4.94821 7.87396 4.94821 7.67505C4.94821 7.47614 4.86919 7.28537 4.72854 7.14472C4.58789 7.00407 4.39712 6.92505 4.19821 6.92505C3.9993 6.92505 3.80853 7.00407 3.66788 7.14472C3.52723 7.28537 3.44821 7.47614 3.44821 7.67505ZM13.7795 4.96255C13.4263 4.12349 12.9201 3.37036 12.2748 2.72349C11.634 2.08036 10.8733 1.56915 10.0357 1.2188C9.17633 0.857861 8.26383 0.675049 7.32321 0.675049H7.29196C6.34508 0.679736 5.4279 0.867236 4.5654 1.23599C3.73502 1.58993 2.98143 2.10204 2.34665 2.7438C1.70758 3.38911 1.20602 4.13911 0.859146 4.97505C0.499771 5.84067 0.318521 6.76099 0.323209 7.70786C0.328511 8.79297 0.585227 9.86209 1.07321 10.8313V13.2063C1.07321 13.3969 1.14893 13.5797 1.28373 13.7145C1.41852 13.8493 1.60133 13.925 1.79196 13.925H4.16852C5.13773 14.413 6.20685 14.6697 7.29196 14.675H7.32477C8.26071 14.675 9.16852 14.4938 10.0232 14.1391C10.8565 13.7929 11.6144 13.2877 12.2545 12.6516C12.8998 12.0125 13.4076 11.2657 13.7623 10.4329C14.131 9.57036 14.3185 8.65317 14.3232 7.7063C14.3279 6.75474 14.1435 5.8313 13.7795 4.96255ZM11.4185 11.8063C10.3232 12.8907 8.87008 13.4875 7.32321 13.4875H7.29665C6.35446 13.4829 5.41852 13.2485 4.59196 12.8079L4.46071 12.7375H2.26071V10.5375L2.1904 10.4063C1.74977 9.57974 1.5154 8.6438 1.51071 7.70161C1.50446 6.1438 2.09977 4.6813 3.19196 3.57974C4.28258 2.47817 5.7404 1.8688 7.29821 1.86255H7.32477C8.10602 1.86255 8.86383 2.01411 9.5779 2.31411C10.2748 2.6063 10.8998 3.02661 11.4373 3.56411C11.9732 4.10005 12.3951 4.72661 12.6873 5.42349C12.9904 6.14536 13.142 6.91099 13.1388 7.70161C13.1295 9.25786 12.5185 10.7157 11.4185 11.8063Z" fill="#FF7717"/>
</svg>
