<svg width="285" height="49" viewBox="0 0 285 49" fill="none" xmlns="http://www.w3.org/2000/svg">
<rect x="27.1387" y="22.0297" width="236.366" height="4" fill="#FF7717"/>
<circle cx="260.667" cy="24.0297" r="22" fill="white" stroke="#FF7717" stroke-width="4"/>
<g clip-path="url(#clip0)">
<path d="M260.667 18.5922C262.479 18.5922 263.949 17.1232 263.949 15.311C263.949 13.4988 262.479 12.0297 260.667 12.0297C258.855 12.0297 257.386 13.4988 257.386 15.311C257.386 17.1232 258.855 18.5922 260.667 18.5922Z" fill="#FF7717"/>
<path d="M271.261 23.5141H268.875L266.529 20.2883C265.914 19.4435 265.037 18.8371 264.054 18.5482C263.2 19.4413 261.998 19.9985 260.667 19.9985C259.337 19.9985 258.134 19.4413 257.28 18.5482C256.298 18.8371 255.42 19.4435 254.806 20.2882L252.46 23.5141H250.074C249.297 23.5141 248.667 24.1437 248.667 24.9203C248.667 25.697 249.297 26.3266 250.074 26.3266H253.609C254.365 26.3266 255.076 25.961 255.516 25.3451L256.449 24.0393V29.137C256.475 29.1428 260.667 30.0952 260.667 30.0952C260.667 30.0952 264.86 29.1428 264.886 29.137V24.0393L265.819 25.3451C266.259 25.961 266.969 26.3266 267.726 26.3266H271.261C272.038 26.3266 272.667 25.697 272.667 24.9203C272.667 24.1437 272.038 23.5141 271.261 23.5141Z" fill="#FF7717"/>
<path d="M264.129 32.3241L256.215 30.5255C255.178 30.2898 254.113 30.1703 253.05 30.1703C251.435 30.1703 250.12 31.4846 250.12 33.1C250.12 34.7155 251.435 36.0297 253.05 36.0297H263.713C264.748 36.0297 265.589 35.1881 265.589 34.1536C265.589 33.2718 264.989 32.5194 264.129 32.3241Z" fill="#FF7717"/>
<path d="M268.284 30.1703C267.221 30.1703 266.156 30.2898 265.12 30.5255L263.84 30.8163L264.44 30.9528C265.945 31.2946 266.995 32.6108 266.995 34.1536C266.995 34.8509 266.776 35.4976 266.404 36.0297H268.284C269.9 36.0297 271.214 34.7155 271.214 33.1C271.214 31.4846 269.9 30.1703 268.284 30.1703Z" fill="#FF7717"/>
</g>
<circle cx="24.4421" cy="24.0297" r="22" fill="white" stroke="#FF7717" stroke-width="4"/>
<g clip-path="url(#clip1)">
<path d="M26.5312 28.1368C24.7813 29.3809 22.6279 29.9223 20.4977 29.6535C18.3675 29.3847 16.416 28.3255 15.0299 26.6857C13.6439 25.0459 12.9245 22.9452 13.0143 20.8C13.1041 18.6548 13.9966 16.6216 15.5148 15.1034C17.033 13.5852 19.0662 12.6928 21.2114 12.603C23.3566 12.5132 25.4573 13.2326 27.0971 14.6186C28.7368 16.0046 29.7961 17.9561 30.0649 20.0863C30.3336 22.2165 29.7923 24.3699 28.5482 26.1198L35.4231 32.9928C35.5633 33.1235 35.6757 33.281 35.7537 33.4561C35.8317 33.6311 35.8737 33.8201 35.8771 34.0117C35.8804 34.2033 35.8452 34.3937 35.7734 34.5714C35.7016 34.7491 35.5948 34.9105 35.4593 35.046C35.3238 35.1815 35.1623 35.2884 34.9846 35.3601C34.8069 35.4319 34.6166 35.4672 34.425 35.4638C34.2334 35.4604 34.0444 35.4185 33.8693 35.3405C33.6943 35.2625 33.5367 35.15 33.4061 35.0098L26.5312 28.1368ZM27.279 21.1573C27.279 19.6433 26.6776 18.1913 25.607 17.1208C24.5365 16.0502 23.0845 15.4488 21.5705 15.4488C20.0565 15.4488 18.6046 16.0502 17.534 17.1208C16.4635 18.1913 15.8621 19.6433 15.8621 21.1573C15.8621 22.6712 16.4635 24.1232 17.534 25.1938C18.6046 26.2643 20.0565 26.8657 21.5705 26.8657C23.0845 26.8657 24.5365 26.2643 25.607 25.1938C26.6776 24.1232 27.279 22.6712 27.279 21.1573Z" fill="#FF7717"/>
</g>
<circle cx="142.5" cy="24.0297" r="22" fill="white" stroke="#FF7717" stroke-width="4"/>
<path d="M146.691 14.0297C149.78 14.0297 151.5 15.8097 151.5 18.8597V29.1897C151.5 32.2897 149.78 34.0297 146.691 34.0297H138.31C135.27 34.0297 133.5 32.2897 133.5 29.1897V18.8597C133.5 15.8097 135.27 14.0297 138.31 14.0297H146.691ZM138.58 27.7697C138.28 27.7397 137.99 27.8797 137.83 28.1397C137.67 28.3897 137.67 28.7197 137.83 28.9797C137.99 29.2297 138.28 29.3797 138.58 29.3397H146.42C146.819 29.2997 147.12 28.9587 147.12 28.5597C147.12 28.1497 146.819 27.8097 146.42 27.7697H138.58ZM146.42 23.2087H138.58C138.149 23.2087 137.8 23.5597 137.8 23.9897C137.8 24.4197 138.149 24.7697 138.58 24.7697H146.42C146.85 24.7697 147.2 24.4197 147.2 23.9897C147.2 23.5597 146.85 23.2087 146.42 23.2087ZM141.569 18.6797H138.58V18.6897C138.149 18.6897 137.8 19.0397 137.8 19.4697C137.8 19.8997 138.149 20.2497 138.58 20.2497H141.569C142 20.2497 142.35 19.8997 142.35 19.4587C142.35 19.0297 142 18.6797 141.569 18.6797Z" fill="#FF7717"/>
<defs>
<clipPath id="clip0">
<rect width="24" height="24" fill="white" transform="translate(248.667 12.0297)"/>
</clipPath>
<clipPath id="clip1">
<rect width="24" height="24" fill="white" transform="translate(12.4421 12.0297)"/>
</clipPath>
</defs>
</svg>
