<svg width="56" height="56" viewBox="0 0 56 56" fill="none" xmlns="http://www.w3.org/2000/svg">
<circle cx="28" cy="28" r="28" fill="#FF7717" fill-opacity="0.07"/>
<g clip-path="url(#clip0)">
<path d="M33.5932 23.6779H35.6271C36.1888 23.6779 36.6441 24.1333 36.6441 24.6949V26.2203H32.5763V24.6949C32.5763 24.1333 33.0316 23.6779 33.5932 23.6779Z" fill="#E26A16"/>
<path d="M20.3729 36.3899H23.4238V41.4746H20.3729V36.3899Z" fill="#FF7717"/>
<path d="M21.8984 20.1186C21.6175 20.1186 21.3899 19.891 21.3899 19.6102V13.5085C21.3899 13.2277 21.6175 13 21.8984 13C22.1792 13 22.4068 13.2277 22.4068 13.5085V19.6102C22.4068 19.891 22.1792 20.1186 21.8984 20.1186Z" fill="#95A5A5"/>
<path d="M20.3729 19.6101H23.4238C23.9854 19.6101 24.4407 20.0654 24.4407 20.6271V22.1525H19.356V20.6271C19.356 20.0654 19.8113 19.6101 20.3729 19.6101Z" fill="#FF7717"/>
<path d="M25.9661 22.6611V35.8814H17.8305V22.6611C17.8322 22.1001 18.2865 21.6458 18.8475 21.6441H24.9491C25.5101 21.6458 25.9644 22.1001 25.9661 22.6611Z" fill="#C5C9F7"/>
<path d="M23.4237 22.6611V35.8814H17.8305V22.6611C17.8322 22.1001 18.2865 21.6458 18.8475 21.6441H22.4068C22.9677 21.6458 23.4221 22.1001 23.4237 22.6611Z" fill="#C5C9F7"/>
<path d="M16.3051 34.8644H27.4916V35.3729C27.4916 36.2153 26.8086 36.8983 25.9661 36.8983H17.8305C16.9881 36.8983 16.3051 36.2153 16.3051 35.3729V34.8644Z" fill="#FF7717"/>
<path d="M18.8475 40.9662H24.9491C25.5108 40.9662 25.9661 41.4215 25.9661 41.9831V43.0001H17.8305V41.9831C17.8305 41.4215 18.2858 40.9662 18.8475 40.9662Z" fill="#FF7717"/>
<path d="M19.8644 32.8304C19.8644 33.1113 19.6367 33.3389 19.3559 33.3389H17.8305V32.322H19.3559C19.6367 32.322 19.8644 32.5496 19.8644 32.8304Z" fill="#285680"/>
<path d="M19.8644 28.2541C19.8644 28.535 19.6367 28.7626 19.3559 28.7626H17.8305V27.7457H19.3559C19.6367 27.7457 19.8644 27.9733 19.8644 28.2541Z" fill="#285680"/>
<path d="M19.8644 25.7118C19.8644 25.9926 19.6367 26.2203 19.3559 26.2203H17.8305V25.2033H19.3559C19.6367 25.2033 19.8644 25.431 19.8644 25.7118Z" fill="#285680"/>
<path d="M39.695 32.6576V41.9831C39.6933 42.544 39.239 42.9983 38.678 43H30.5424C29.9815 42.9983 29.5271 42.544 29.5255 41.9831V32.6576C29.525 32.1181 29.739 31.6004 30.1204 31.2187L31.4729 29.8661C31.8542 29.4844 32.0683 28.9667 32.0678 28.4271V27.2373H37.1526V28.4271C37.1522 28.9667 37.3662 29.4844 37.7475 29.8661L39.1 31.2187C39.4814 31.6004 39.6954 32.1181 39.695 32.6576Z" fill="#C5C9F7"/>
<path d="M37.1526 32.6576V41.9831C37.1509 42.544 36.6966 42.9983 36.1356 43H30.5424C29.9815 42.9983 29.5271 42.544 29.5255 41.9831V32.6576C29.525 32.1181 29.739 31.6004 30.1204 31.2187L31.4729 29.8661C31.8542 29.4844 32.0683 28.9667 32.0678 28.4271V27.2373H34.6102V28.4271C34.6098 28.9667 34.8238 29.4844 35.2051 29.8661L36.5577 31.2187C36.939 31.6004 37.153 32.1181 37.1526 32.6576Z" fill="#C5C9F7"/>
<path d="M37.6611 25.7118H31.5594C31.2786 25.7118 31.0509 25.9395 31.0509 26.2203V27.2372C31.0509 27.518 31.2786 27.7457 31.5594 27.7457H37.6611C37.9419 27.7457 38.1696 27.518 38.1696 27.2372V26.2203C38.1696 25.9395 37.9419 25.7118 37.6611 25.7118Z" fill="#FF7717"/>
<path d="M29.5255 33.8474H39.6949V39.9491H29.5255V33.8474Z" fill="#FF7717"/>
<path d="M35.6271 36.3898H35.1187V35.8813C35.1187 35.6005 34.891 35.3728 34.6102 35.3728C34.3294 35.3728 34.1017 35.6005 34.1017 35.8813V36.3898H33.5932C33.3124 36.3898 33.0848 36.6174 33.0848 36.8982C33.0848 37.1791 33.3124 37.4067 33.5932 37.4067H34.1017V37.9152C34.1017 38.196 34.3294 38.4237 34.6102 38.4237C34.891 38.4237 35.1187 38.196 35.1187 37.9152V37.4067H35.6271C35.908 37.4067 36.1356 37.1791 36.1356 36.8982C36.1356 36.6174 35.908 36.3898 35.6271 36.3898Z" fill="#ECF0F1"/>
</g>
<defs>
<clipPath id="clip0">
<rect width="30" height="30" fill="white" transform="translate(13 13)"/>
</clipPath>
</defs>
</svg>
