<svg width="56" height="56" viewBox="0 0 56 56" fill="none" xmlns="http://www.w3.org/2000/svg">
<circle opacity="0.05" cx="28" cy="28" r="28" fill="#232C63"/>
<path d="M30.6367 16.5156C30.0617 16.5156 29.5149 16.6976 29.0557 17.0409L29.0549 17.0418L27.2707 18.3802C27.6632 17.2642 28 16.157 28 15.6367C28 14.1828 26.8172 13 25.3633 13C23.9093 13 22.7266 14.1828 22.7266 15.6367C22.7266 16.157 23.0634 17.2642 23.4558 18.3802L21.6717 17.0418L21.6708 17.0409C21.2117 16.6976 20.6649 16.5156 20.0898 16.5156C18.6359 16.5156 17.4531 17.6984 17.4531 19.1523C17.4531 20.6063 18.6359 21.7891 20.0898 21.7891V20.0312C19.6049 20.0312 19.2109 19.6373 19.2109 19.1523C19.2101 18.4751 20.077 18.0417 20.6168 18.4485L20.617 18.4484L24.6416 21.4677H25.3633H26.0849L30.1096 18.4484L30.1097 18.4485C30.6479 18.0434 31.5156 18.4751 31.5156 19.1523C31.5156 19.6373 31.1216 20.0312 30.6367 20.0312V21.7891C32.0907 21.7891 33.2734 20.6063 33.2734 19.1523C33.2734 17.6984 32.0907 16.5156 30.6367 16.5156ZM25.3633 18.4837C24.8714 17.1525 24.4887 15.9732 24.4844 15.6367C24.4844 15.1518 24.8784 14.7578 25.3633 14.7578C25.8482 14.7578 26.2422 15.1518 26.2422 15.6358C26.2379 15.9723 25.8551 17.1525 25.3633 18.4837Z" fill="#FF9827"/>
<path d="M30.1096 18.4484L30.1097 18.4485C30.6479 18.0434 31.5156 18.4751 31.5156 19.1523C31.5156 19.6373 31.1216 20.0312 30.6367 20.0312V21.7891C32.0907 21.7891 33.2734 20.6063 33.2734 19.1523C33.2734 17.6984 32.0907 16.5156 30.6367 16.5156C30.0617 16.5156 29.5149 16.6976 29.0557 17.0409L29.0549 17.0418L27.2707 18.3802C27.6632 17.2642 28 16.157 28 15.6367C28 14.1828 26.8172 13 25.3633 13V14.7578C25.8482 14.7578 26.2422 15.1518 26.2422 15.6358C26.2379 15.9723 25.8551 17.1525 25.3633 18.4837V21.4677H26.0849L30.1096 18.4484Z" fill="#FF641A"/>
<path d="M25.3633 21.7891H15.6953V43H22.7266L24.4844 41.2422H25.3633H35.0312V21.7891H25.3633Z" fill="#5ECEF4"/>
<path d="M25.3633 21.7891H35.0312V41.2422H25.3633V21.7891Z" fill="#4895FF"/>
<path d="M28 20.0312L26.2422 21.7891H25.3633H24.4844L22.7266 20.0312H13.9375V23.5469H25.3633H36.7891V20.0312H28Z" fill="#99E6FF"/>
<path d="M36.7891 20.0312H28L26.2422 21.7891H25.3633V23.5469H36.7891V20.0312Z" fill="#5ECEF4"/>
<path d="M25.3633 20.0312H22.7266V28.8789L24.7342 30.6367H25.3633H28V20.0312H25.3633Z" fill="#FFC550"/>
<path d="M25.3633 20.0312H28V30.6367H25.3633V20.0312Z" fill="#FF9827"/>
<path d="M42.0625 28.8789H33.2734L32.3945 30.5657L32.3575 30.6367L31.5156 28.8789H22.7266V35.9102L24.4844 36.8261L22.7266 37.668V43H31.5156L32.3945 41.4247L32.4964 41.2422L33.2734 43H42.0625V37.668L40.3047 36.7427L42.0625 35.9102V28.8789Z" fill="#FF435B"/>
<path d="M33.2734 43H42.0625V37.668L40.3047 36.7427L42.0625 35.9102V28.8789H33.2734L32.3945 30.5657V41.4247L32.4964 41.2422L33.2734 43Z" fill="#D0004F"/>
<path d="M35.9102 35.9102H42.0625V37.668H35.9102V35.9102Z" fill="#FF9827"/>
<path d="M22.7266 35.9102H28.8789V37.668H22.7266V35.9102Z" fill="#FFC550"/>
<path d="M32.3945 28.8789H31.5156V43H32.3945H33.2734V28.8789H32.3945Z" fill="#FFC550"/>
<path d="M32.3945 28.8789H33.2734V43H32.3945V28.8789Z" fill="#FF9827"/>
<path d="M35.9102 32.3945C35.0845 32.3945 34.2957 32.7885 33.7996 33.4494V33.4503L32.3945 35.3245L32.3944 35.3246L30.9889 33.4507L30.9895 33.4503C30.4942 32.7893 29.7054 32.3945 28.8789 32.3945C27.425 32.3945 26.2422 33.5773 26.2422 35.0312C26.2422 36.4852 27.425 37.668 28.8789 37.668H30.2728L29.1364 38.8044L30.3792 40.0472L32.3945 38.0319L34.4099 40.0472L35.6527 38.8044L34.5163 37.668H35.9102C37.3641 37.668 38.5469 36.4852 38.5469 35.0312C38.5469 33.5773 37.3641 32.3945 35.9102 32.3945ZM28.8789 35.9102C28.394 35.9102 28 35.5162 28 35.0312C28 34.2665 29.1235 33.8914 29.5819 34.5043H29.5827L30.6371 35.9102H28.8789ZM35.9102 35.9102H34.1515L35.205 34.5048L35.2054 34.5051C35.3737 34.2811 35.6304 34.1523 35.9102 34.1523C36.3951 34.1523 36.7891 34.5463 36.7891 35.0312C36.7891 35.5162 36.3951 35.9102 35.9102 35.9102Z" fill="#FFC550"/>
<path d="M35.6526 38.8044L34.5163 37.668H35.9102C37.3641 37.668 38.5469 36.4852 38.5469 35.0312C38.5469 33.5773 37.3641 32.3945 35.9102 32.3945C35.0845 32.3945 34.2957 32.7885 33.7996 33.4494V33.4503L32.3945 35.3245V38.0319L34.4099 40.0472L35.6526 38.8044ZM35.205 34.5048L35.2054 34.5051C35.3737 34.2811 35.6304 34.1523 35.9102 34.1523C36.3951 34.1523 36.7891 34.5463 36.7891 35.0312C36.7891 35.5162 36.3951 35.9102 35.9102 35.9102H34.1515L35.205 34.5048Z" fill="#FF9827"/>
</svg>
