<svg width="20" height="21" viewBox="0 0 20 21" fill="none" xmlns="http://www.w3.org/2000/svg">
<path d="M0.999982 12.9504H2.99998V19.9504C2.99998 20.2156 3.10534 20.47 3.29288 20.6575C3.48041 20.845 3.73477 20.9504 3.99998 20.9504H16C16.2652 20.9504 16.5196 20.845 16.7071 20.6575C16.8946 20.47 17 20.2156 17 19.9504V12.9504H19C19.1932 12.9506 19.3824 12.8946 19.5445 12.7893C19.7065 12.6841 19.8346 12.534 19.913 12.3574C19.9919 12.1809 20.0179 11.9852 19.9877 11.7942C19.9576 11.6031 19.8725 11.425 19.743 11.2814L10.743 1.28139C10.364 0.859393 9.63598 0.859393 9.25698 1.28139L0.256982 11.2814C0.127673 11.4251 0.0427701 11.6031 0.012546 11.794C-0.0176781 11.9849 0.00807238 12.1805 0.0866816 12.3571C0.165291 12.5337 0.29339 12.6837 0.455477 12.789C0.617565 12.8943 0.806696 12.9503 0.999982 12.9504ZM6.65298 10.5914C7.06921 10.1805 7.63058 9.95004 8.21548 9.95004C8.80039 9.95004 9.36175 10.1805 9.77798 10.5914L10.002 10.8114L10.225 10.5914C10.6414 10.1804 11.2029 9.94995 11.788 9.94995C12.3731 9.94995 12.9346 10.1804 13.351 10.5914C13.5576 10.7901 13.7219 11.0285 13.8342 11.2923C13.9464 11.556 14.0043 11.8397 14.0043 12.1264C14.0043 12.413 13.9464 12.6968 13.8342 12.9605C13.7219 13.2243 13.5576 13.4627 13.351 13.6614L10.002 16.9504L6.65298 13.6614C6.4464 13.4627 6.28206 13.2243 6.16981 12.9605C6.05755 12.6968 5.99969 12.413 5.99969 12.1264C5.99969 11.8397 6.05755 11.556 6.16981 11.2923C6.28206 11.0285 6.4464 10.7901 6.65298 10.5914Z" fill="#FF7717"/>
</svg>
