<svg width="22" height="19" viewBox="0 0 22 19" fill="none" xmlns="http://www.w3.org/2000/svg">
<path d="M21.4766 7.01813L20.9212 6.00739C20.8962 5.96283 20.8553 5.93038 20.8074 5.91711C20.7596 5.90385 20.7086 5.91085 20.6657 5.93659L19.4774 6.65925L17.6423 1.38092C17.5454 1.06597 17.3549 0.791238 17.0983 0.596398C16.8418 0.401558 16.5324 0.296692 16.2149 0.29694H6.05944C5.24616 0.29694 4.52428 0.843815 4.2735 1.65192L2.52506 6.66169L1.33444 5.93903C1.29151 5.91329 1.24055 5.90629 1.19269 5.91955C1.14482 5.93282 1.10394 5.96527 1.07897 6.00983L0.523503 7.01813C0.47194 7.11091 0.502409 7.22809 0.591471 7.28181L2.0071 8.14118L1.66725 9.11774C1.63913 9.19587 1.62507 9.27888 1.62507 9.36188V17.8629C1.62507 18.2462 1.90163 18.5562 2.24147 18.5562H3.82585C4.11413 18.5562 4.36491 18.3292 4.42585 18.0118L4.60631 17.0914H17.3938L17.5743 18.0118C17.6376 18.3292 17.886 18.5562 18.1743 18.5562H19.7587C20.0985 18.5562 20.3751 18.2462 20.3751 17.8629V9.36188C20.3751 9.27888 20.361 9.19587 20.3329 9.11774L19.993 8.14118L21.4063 7.28181C21.4489 7.25621 21.4801 7.21425 21.4932 7.16494C21.5064 7.11563 21.5004 7.06292 21.4766 7.01813ZM5.18756 12.0865C4.6696 12.0865 4.25006 11.6495 4.25006 11.1099C4.25006 10.5704 4.6696 10.1334 5.18756 10.1334C5.70553 10.1334 6.12506 10.5704 6.12506 11.1099C6.12506 11.6495 5.70553 12.0865 5.18756 12.0865ZM14.2813 13.9175C14.2813 14.025 14.1969 14.1129 14.0938 14.1129H7.90632C7.80319 14.1129 7.71882 14.025 7.71882 13.9175V11.8668C7.71882 11.7593 7.80319 11.6715 7.90632 11.6715H8.84381C8.94694 11.6715 9.03131 11.7593 9.03131 11.8668V12.7457H12.9688V11.8668C12.9688 11.7593 13.0532 11.6715 13.1563 11.6715H14.0938C14.1969 11.6715 14.2813 11.7593 14.2813 11.8668V13.9175ZM16.8126 12.0865C16.2946 12.0865 15.8751 11.6495 15.8751 11.1099C15.8751 10.5704 16.2946 10.1334 16.8126 10.1334C17.3305 10.1334 17.7501 10.5704 17.7501 11.1099C17.7501 11.6495 17.3305 12.0865 16.8126 12.0865ZM4.15631 7.13044L5.86022 2.25007L5.87194 2.21833L5.88132 2.18659C5.9071 2.10602 5.97741 2.05231 6.05944 2.05231H16.0813L17.8485 7.13044H4.15631Z" fill="#FF7717"/>
</svg>
