<svg width="24" height="25" viewBox="0 0 24 25" fill="none" xmlns="http://www.w3.org/2000/svg">
<path d="M21 20.7603V6.76025C21 5.65725 20.103 4.76025 19 4.76025H17V2.76025H15V4.76025H9V2.76025H7V4.76025H5C3.897 4.76025 3 5.65725 3 6.76025V20.7603C3 21.8633 3.897 22.7603 5 22.7603H19C20.103 22.7603 21 21.8633 21 20.7603ZM9 18.7603H7V16.7603H9V18.7603ZM9 14.7603H7V12.7603H9V14.7603ZM13 18.7603H11V16.7603H13V18.7603ZM13 14.7603H11V12.7603H13V14.7603ZM17 18.7603H15V16.7603H17V18.7603ZM17 14.7603H15V12.7603H17V14.7603ZM19 9.76025H5V7.76025H19V9.76025Z" fill="#FF7717"/>
</svg>
