<svg width="18" height="15" viewBox="0 0 18 15" fill="none" xmlns="http://www.w3.org/2000/svg">
<path d="M15.158 0.678384C15.4668 0.38436 15.8778 0.221812 16.3042 0.225038C16.7306 0.228264 17.1391 0.397014 17.4434 0.695678C17.7478 0.994341 17.9242 1.39956 17.9355 1.82583C17.9467 2.25209 17.792 2.66607 17.5038 2.9804L8.75617 13.9204C8.60575 14.0825 8.42421 14.2125 8.22239 14.3027C8.02058 14.393 7.80263 14.4416 7.5816 14.4457C7.36056 14.4498 7.14097 14.4093 6.93595 14.3265C6.73093 14.2438 6.5447 14.1206 6.38838 13.9643L0.587308 8.16322C0.425757 8.01268 0.296182 7.83115 0.206311 7.62945C0.116441 7.42776 0.0681162 7.21002 0.0642207 6.98924C0.0603253 6.76846 0.100939 6.54916 0.183638 6.34441C0.266338 6.13967 0.389429 5.95368 0.545568 5.79754C0.701708 5.6414 0.887697 5.51831 1.09244 5.43561C1.29718 5.35291 1.51649 5.3123 1.73727 5.31619C1.95805 5.32009 2.17578 5.36841 2.37748 5.45828C2.57918 5.54815 2.76071 5.67773 2.91125 5.83928L7.50212 10.428L15.1163 0.726618C15.13 0.709738 15.1447 0.693635 15.1602 0.678384H15.158Z" fill="#FF7717"/>
</svg>
