<svg width="18" height="21" viewBox="0 0 18 21" fill="none" xmlns="http://www.w3.org/2000/svg">
<path d="M12.8628 0.194214C16.0588 0.194214 17.9698 2.11421 17.9998 5.32621V14.9852C17.9998 18.2422 16.0838 20.1942 12.8628 20.1942H5.13779C4.72579 20.1942 4.33479 20.1622 3.96679 20.0992L3.74879 20.0582C1.37779 19.5652 -0.000205994 17.7492 -0.000205994 14.9852V5.40321C-0.000205994 5.06921 0.019794 4.74921 0.059794 4.44321C0.408794 1.75821 2.25379 0.194214 5.13779 0.194214H12.8628ZM12.8538 1.65121H5.13779C2.68179 1.65121 1.43679 2.91421 1.43679 5.40321V14.9852C1.43679 17.4742 2.68179 18.7372 5.13779 18.7372H12.8538C15.3088 18.7372 16.5458 17.4742 16.5458 14.9852V5.40321C16.5458 2.91421 15.3088 1.65121 12.8538 1.65121ZM12.5928 13.7042C12.9868 13.7042 13.3058 14.0282 13.3058 14.4282C13.3058 14.8282 12.9868 15.1522 12.5928 15.1522H5.38179C4.98779 15.1522 4.66779 14.8282 4.66779 14.4282C4.66779 14.0282 4.98779 13.7042 5.38179 13.7042H12.5928ZM12.5928 9.46521C12.8678 9.43521 13.1368 9.56721 13.2838 9.80421C13.4308 10.0432 13.4308 10.3452 13.2838 10.5842C13.1368 10.8212 12.8678 10.9532 12.5928 10.9232H5.38179C5.01579 10.8812 4.73879 10.5682 4.73879 10.1942C4.73879 9.82021 5.01579 9.50621 5.38179 9.46521H12.5928ZM8.13379 5.23621C8.49979 5.27721 8.77679 5.59121 8.77679 5.96521C8.77679 6.33821 8.49979 6.65221 8.13379 6.69321H5.39079C5.02379 6.65221 4.74679 6.33821 4.74679 5.96521C4.74679 5.59121 5.02379 5.27721 5.39079 5.23621H8.13379Z" fill="#B6B7B9"/>
</svg>
