<svg width="20" height="21" viewBox="0 0 20 21" fill="none" xmlns="http://www.w3.org/2000/svg">
<path d="M7.13487 18.9676V15.9098C7.13487 15.1293 7.77226 14.4965 8.55853 14.4965H11.4327C11.8103 14.4965 12.1724 14.6454 12.4394 14.9105C12.7064 15.1755 12.8564 15.535 12.8564 15.9098V18.9676C12.854 19.2921 12.9822 19.6041 13.2125 19.8344C13.4428 20.0647 13.7561 20.1942 14.083 20.1942H16.0439C16.9597 20.1966 17.8388 19.8371 18.4873 19.195C19.1357 18.553 19.5001 17.6812 19.5001 16.772V8.06107C19.5001 7.32667 19.1722 6.63006 18.6047 6.15888L11.9341 0.870083C10.7738 -0.0572245 9.1112 -0.027284 7.98548 0.941193L1.4671 6.15888C0.872832 6.61617 0.517644 7.31485 0.500092 8.06107V16.7631C0.500092 18.6581 2.04747 20.1942 3.95626 20.1942H5.87238C6.55132 20.1942 7.10309 19.6504 7.10801 18.9764L7.13487 18.9676Z" fill="#FF7717"/>
</svg>
