<svg width="20" height="20" viewBox="0 0 20 20" fill="none" xmlns="http://www.w3.org/2000/svg">
<path d="M7.8775 12.6504L8.20165 12.6518C13.0179 12.6935 15.7545 13.6817 15.7545 16.3304C15.7545 18.9167 13.1485 19.903 8.52099 19.9839L7.8775 19.9894C2.86012 19.9894 0.000495911 19.0169 0.000495911 16.3094C0.000495911 13.6049 2.84749 12.6504 7.8775 12.6504ZM7.8775 14.1504L7.54078 14.152C3.55386 14.1902 1.5005 14.9163 1.5005 16.3094C1.5005 17.7496 3.67603 18.4894 7.8775 18.4894C12.0843 18.4894 14.2545 17.7616 14.2545 16.3304C14.2545 14.8902 12.079 14.1504 7.8775 14.1504ZM17.2042 6.11329C17.5839 6.11329 17.8977 6.39545 17.9473 6.76152L17.9542 6.86329L17.9535 8.11809L19.2501 8.11819C19.6643 8.11819 20.0001 8.45398 20.0001 8.86819C20.0001 9.24789 19.7179 9.56168 19.3519 9.61135L19.2501 9.61819L17.9535 9.61809L17.9542 10.8733C17.9542 11.2875 17.6184 11.6233 17.2042 11.6233C16.8245 11.6233 16.5107 11.3411 16.461 10.9751L16.4542 10.8733L16.4535 9.61809L15.1601 9.61819C14.7459 9.61819 14.4101 9.2824 14.4101 8.86819C14.4101 8.4885 14.6923 8.1747 15.0583 8.12504L15.1601 8.11819L16.4535 8.11809L16.4542 6.86329C16.4542 6.44908 16.79 6.11329 17.2042 6.11329ZM7.8775 0.194092C10.8277 0.194092 13.1955 2.56188 13.1955 5.51209C13.1955 8.46163 10.8274 10.8301 7.8775 10.8301C4.92828 10.8301 2.5595 8.46131 2.5595 5.51209C2.5595 2.5622 4.92796 0.194092 7.8775 0.194092ZM7.8775 1.69409C5.75634 1.69409 4.0595 3.39068 4.0595 5.51209C4.0595 7.63288 5.75671 9.33009 7.8775 9.33009C9.99891 9.33009 11.6955 7.63325 11.6955 5.51209C11.6955 3.39031 9.99928 1.69409 7.8775 1.69409Z" fill="#B6B7B9"/>
</svg>
