<svg width="16" height="21" viewBox="0 0 16 21" fill="none" xmlns="http://www.w3.org/2000/svg">
<path d="M5.83016 13.0151C7.27393 12.8877 8.72604 12.8877 10.1698 13.0151L10.6308 13.0541C11.2613 13.1163 11.8874 13.2136 12.5035 13.3451C14.0738 13.6686 15.2141 14.2425 15.7189 15.307C16.0939 16.0989 16.0939 17.0183 15.7187 17.8106C15.2127 18.8778 14.0577 19.4565 12.5152 19.7608L12.0478 19.8578C11.4232 19.9777 10.7933 20.0595 10.1676 20.1023C8.99353 20.2023 7.81396 20.2205 6.67612 20.1579C6.55069 20.1579 6.4665 20.1575 6.39233 20.1558L6.24807 20.1504C6.07269 20.1414 5.912 20.123 5.84458 20.1033C5.05295 20.0495 4.2666 19.9349 3.51224 19.7647L3.25635 19.7113C1.82791 19.3939 0.770054 18.8213 0.280729 17.8095C0.0954103 17.4169 -0.000444993 16.9877 0.00011135 16.5569C-0.00149898 16.123 0.0951388 15.6944 0.28735 15.2941C0.796964 14.2705 1.99429 13.6546 3.49091 13.3463C4.26632 13.1801 5.05244 13.0691 5.83016 13.0151ZM10.0437 14.4572C8.68383 14.3373 7.31614 14.3373 5.94305 14.4583C5.21973 14.5086 4.50084 14.6101 3.78617 14.7633C2.67931 14.9913 1.83304 15.4266 1.58129 15.9321C1.48859 16.1252 1.44084 16.337 1.44163 16.5552C1.44136 16.7745 1.48975 16.9912 1.58035 17.1832C1.83926 17.7185 2.63782 18.1186 3.80786 18.3479L4.16038 18.4226C4.75077 18.5396 5.35884 18.6203 6.03458 18.6713C6.11993 18.6884 6.21201 18.699 6.32128 18.7045L6.71488 18.7113C7.82506 18.7713 8.93805 18.7541 10.0577 18.6589C10.7793 18.6095 11.4961 18.5054 12.2196 18.344L12.4446 18.2963C13.4721 18.0633 14.183 17.6821 14.417 17.1886C14.6058 16.79 14.6058 16.3272 14.4172 15.929C14.1668 15.4009 13.3752 15.0025 12.2088 14.7622C11.4992 14.6107 10.78 14.5092 10.0564 14.4582L10.0437 14.4572ZM8.00439 0.194214C10.9384 0.194214 13.3169 2.58285 13.3169 5.52939C13.3169 8.47592 10.9384 10.8646 8.00439 10.8646C5.07036 10.8646 2.69186 8.47592 2.69186 5.52939C2.69186 2.58285 5.07036 0.194214 8.00439 0.194214ZM8.00439 1.64188C5.86649 1.64188 4.13339 3.38238 4.13339 5.52939C4.13339 7.6764 5.86649 9.41689 8.00439 9.41689C10.1423 9.41689 11.8754 7.6764 11.8754 5.52939C11.8754 3.38238 10.1423 1.64188 8.00439 1.64188Z" fill="#0C0F15"/>
</svg>
