<svg width="22" height="22" viewBox="0 0 22 22" fill="none" xmlns="http://www.w3.org/2000/svg">
<path fill-rule="evenodd" clip-rule="evenodd" d="M10.7485 0.194458C13.6215 0.194458 16.3215 1.31146 18.3495 3.34046C22.5415 7.53246 22.5415 14.3525 18.3495 18.5445C16.2945 20.6005 13.5275 21.6885 10.7245 21.6885C9.19649 21.6885 7.65849 21.3655 6.21949 20.6995C5.79549 20.5295 5.39849 20.3695 5.11349 20.3695C4.78549 20.3715 4.34449 20.5235 3.91849 20.6705C3.04449 20.9705 1.95649 21.3445 1.15149 20.5425C0.349491 19.7395 0.719491 18.6545 1.01749 17.7815C1.16449 17.3515 1.31549 16.9075 1.31549 16.5715C1.31549 16.2955 1.18249 15.9435 0.978491 15.4365C-0.89451 11.3915 -0.0285094 6.51646 3.14849 3.34146C5.17649 1.31246 7.87549 0.194458 10.7485 0.194458ZM10.7495 1.69446C8.27649 1.69446 5.95349 2.65646 4.20849 4.40246C1.47449 7.13446 0.730491 11.3295 2.35549 14.8425C2.58949 15.4215 2.81549 15.9855 2.81549 16.5715C2.81549 17.1565 2.61449 17.7455 2.43749 18.2655C2.29149 18.6935 2.07049 19.3395 2.21249 19.4815C2.35149 19.6255 3.00149 19.3985 3.43049 19.2515C3.94549 19.0755 4.52949 18.8735 5.10849 18.8695C5.68849 18.8695 6.23549 19.0895 6.81449 19.3225C10.3615 20.9625 14.5565 20.2165 17.2895 17.4845C20.8955 13.8765 20.8955 8.00746 17.2895 4.40146C15.5435 2.65546 13.2215 1.69446 10.7495 1.69446ZM14.6964 10.3572C15.2484 10.3572 15.6964 10.8042 15.6964 11.3572C15.6964 11.9102 15.2484 12.3572 14.6964 12.3572C14.1444 12.3572 13.6924 11.9102 13.6924 11.3572C13.6924 10.8042 14.1354 10.3572 14.6874 10.3572H14.6964ZM10.6876 10.3572C11.2396 10.3572 11.6876 10.8042 11.6876 11.3572C11.6876 11.9102 11.2396 12.3572 10.6876 12.3572C10.1356 12.3572 9.68359 11.9102 9.68359 11.3572C9.68359 10.8042 10.1256 10.3572 10.6786 10.3572H10.6876ZM6.67839 10.3572C7.23039 10.3572 7.67839 10.8042 7.67839 11.3572C7.67839 11.9102 7.23039 12.3572 6.67839 12.3572C6.12639 12.3572 5.67439 11.9102 5.67439 11.3572C5.67439 10.8042 6.11739 10.3572 6.66939 10.3572H6.67839Z" fill="#0C0F15"/>
</svg>
