<svg width="56" height="56" viewBox="0 0 56 56" fill="none" xmlns="http://www.w3.org/2000/svg">
<circle cx="28" cy="28" r="28" fill="#FF7717" fill-opacity="0.07"/>
<path d="M26.2906 18.4526C24.9956 17.1575 23.2737 16.4443 21.4422 16.4443C19.6107 16.4443 17.8889 17.1576 16.5938 18.4526C13.9203 21.126 13.9203 25.476 16.5938 28.1494L28 39.5556L29.2455 30.1987L28 20.1619L26.2906 18.4526Z" fill="#FF7717"/>
<path d="M39.4062 18.4525C36.7327 15.7791 32.3828 15.7791 29.7094 18.4525L28 20.1619V39.5556L39.4062 28.1494C42.0797 25.476 42.0797 21.126 39.4062 18.4525Z" fill="#FF7717"/>
<path d="M14.5887 32.3007C14.5887 35.5012 17.1924 38.1049 20.3928 38.1049L21.2808 32.3381L20.3928 26.4965C17.1924 26.4965 14.5887 29.1003 14.5887 32.3007Z" fill="#C5C9F7"/>
<path d="M20.3928 26.4965V38.1049C23.5933 38.1049 26.197 35.5011 26.197 32.3007C26.197 29.1003 23.5933 26.4965 20.3928 26.4965Z" fill="#C5C9F7"/>
<path d="M19.7517 32.5262L18.8062 31.5807L17.6949 32.692L19.7517 34.7489L20.3929 34.1077L20.708 32.675L20.3929 31.8851L19.7517 32.5262Z" fill="white"/>
<path d="M22.0032 30.2747L20.3929 31.885V34.1077L23.1145 31.386L22.0032 30.2747Z" fill="white"/>
</svg>
