<svg width="58" height="56" viewBox="0 0 58 56" fill="none" xmlns="http://www.w3.org/2000/svg">
<rect width="58" height="56" rx="12" fill="#FF7717" fill-opacity="0.07"/>
<path d="M14 43V41.4371C14 38.759 15.4902 36.3035 17.8657 35.0669L20.1569 33.8743C20.9529 33.46 21.4523 32.6372 21.4523 31.7398V29.6067H24.4515V31.7398C24.4515 32.6372 24.9508 33.46 25.7468 33.8743L28.0381 35.0669C28.5553 35.3361 28.8566 35.5157 29.2836 35.8902L30.6297 36.833L26.5654 43H14Z" fill="#FCD1B3"/>
<path d="M29.2836 35.8901C28.8566 35.5157 28.5552 35.3361 28.0381 35.0669L25.7468 33.8743C24.9508 33.46 24.4515 32.6372 24.4515 31.7398V29.6067H22.037V31.7398C22.037 32.6371 22.5363 33.46 23.3323 33.8743L25.6236 35.0669C26.1408 35.3361 26.4422 35.5157 26.8691 35.8901L28.2152 36.833L24.1509 43H26.5654L30.6297 36.8329L29.2836 35.8901Z" fill="#FCC29A"/>
<path d="M29.4527 35.9729C29.0257 35.5984 28.5553 35.3362 28.0381 35.0669L26.3312 34.1785L23.1033 37.4065L19.7718 34.0749L17.8657 35.067C15.4902 36.3035 14 38.759 14 41.4371V43H24.171L30.6298 36.833L29.4527 35.9729Z" fill="#FF7717"/>
<path d="M29.1206 37.2555L26.3418 40.9271L30.6296 36.833L29.4526 35.9728C29.0256 35.5983 28.5551 35.3361 28.038 35.0669L26.3311 34.1784L25.5045 35.0049C25.5045 35.005 28.1694 36.3033 29.1206 37.2555Z" fill="#FF7717"/>
<path d="M16.2782 23.8468V19.5899C16.2782 15.9504 19.2285 13 22.8678 13C26.5072 13 29.4575 15.9504 29.4575 19.5898V23.7848L16.2782 23.8468Z" fill="#232C63"/>
<path d="M22.8678 13C22.5606 13 22.2584 13.0215 21.9624 13.0622C25.1732 13.5035 27.043 16.2576 27.043 19.5899V23.7848L16.2782 23.8383V23.8468L29.4575 23.7848V19.5899C29.4575 15.9503 26.5072 13 22.8678 13V13Z" fill="#232C63"/>
<path d="M18.6985 24.9559H16.6039C16.1139 24.9559 15.7166 24.5586 15.7166 24.0685C15.7166 23.5784 16.1139 23.1811 16.6039 23.1811H18.6985V24.9559Z" fill="#FCC29A"/>
<path d="M26.9624 23.1812H29.057C29.5471 23.1812 29.9444 23.5785 29.9444 24.0686C29.9444 24.5587 29.5471 24.956 29.057 24.956H26.9624V23.1812Z" fill="#FCC29A"/>
<path d="M17.4913 21.978V27.6058C17.4913 28.7319 18.1702 29.7469 19.211 30.1768C21.5265 31.1332 24.1265 31.134 26.4425 30.1788L26.4486 30.1763C27.4901 29.7467 28.1697 28.7313 28.1697 27.6046V19.5473C28.1697 18.6353 27.4304 17.8959 26.5184 17.8959H26.3396C25.876 17.8959 25.4562 18.0838 25.1524 18.3876C24.0639 19.4762 22.8211 20.3985 21.416 21.0276L21.1012 21.1686C19.9644 21.6776 18.7367 21.9529 17.4913 21.978Z" fill="#FCD1B3"/>
<path d="M26.5184 17.8959H26.3397C25.9077 17.8959 25.514 18.0591 25.2165 18.3271C25.5475 18.6291 25.7553 19.0639 25.7553 19.5473V27.6047C25.7553 28.7314 25.0757 29.7467 24.0341 30.1763L24.028 30.1789C23.2508 30.4994 22.4415 30.7118 21.6218 30.817C23.243 31.0252 24.9054 30.8128 26.4425 30.1789L26.4486 30.1763C27.4902 29.7468 28.1697 28.7314 28.1697 27.6047V19.5473C28.1697 18.6352 27.4304 17.8959 26.5184 17.8959Z" fill="#FCC29A"/>
<path d="M33.7339 43L35.6398 38.1585C35.7815 37.7987 36.1288 37.5621 36.5155 37.5621H40.5912C42.0366 37.5621 43.3094 36.6103 43.718 35.2239L43.9713 34.3644C44.1022 33.9202 43.7693 33.475 43.3062 33.475H41.3937C41.0961 33.475 40.816 33.3342 40.6385 33.0954L39.0995 31.0254C38.5589 30.2983 37.7061 29.8696 36.7999 29.8696L33.6145 30.5352L24.0757 43H33.7339Z" fill="#FCD1B3"/>
<path d="M43.306 33.475H41.8117C41.8117 33.475 41.6875 33.9202 41.5566 34.3644L41.3033 35.2239C40.8946 36.6103 39.6219 37.5621 38.1765 37.5621H40.591C42.0364 37.5621 43.3092 36.6103 43.7177 35.2239L43.9711 34.3644C44.102 33.9202 43.7691 33.475 43.306 33.475Z" fill="#FCC29A"/>
<path d="M33.2252 38.1585L31.3193 43H33.7338L35.6397 38.1585C35.7814 37.7986 36.1287 37.5621 36.5154 37.5621H34.1009C33.7142 37.5621 33.3669 37.7986 33.2252 38.1585Z" fill="#FCC29A"/>
<path d="M31.8977 30.7824L33.7904 34.3758C34.1172 34.9961 35.0265 34.9282 35.2575 34.2663L36.7368 30.0273C36.9404 29.4438 36.4355 28.8589 35.8286 28.9752L32.4565 29.6208C31.9275 29.722 31.6466 30.3057 31.8977 30.7824Z" fill="#232C63"/>
<path d="M43.9712 34.3642C44.1022 33.9201 43.7692 33.4749 43.3062 33.4749H42.2512C42.2512 34.2233 42.7338 35.3399 43.5797 35.467H43.6355C43.6659 35.3875 43.6935 35.3065 43.7179 35.2238L43.9712 34.3642Z" fill="#232C63"/>
</svg>
