<svg width="30" height="31" viewBox="0 0 30 31" fill="none" xmlns="http://www.w3.org/2000/svg">
<path d="M26.7188 25.863C26.719 26.1003 26.6457 26.3319 26.5088 26.5259C26.372 26.7198 26.1784 26.8665 25.9547 26.9458L18.75 29.4864H11.7188L6.09375 27.6114H4.21875V21.5177L6.5625 20.5802H9.375L16.4062 21.9864L17.3438 22.9239V24.3302H10.7812L15 26.6739H18.75L25.2469 24.7614C25.3518 24.7301 25.4608 24.7144 25.5703 24.7146C25.8747 24.7151 26.1666 24.8362 26.3818 25.0515C26.5971 25.2667 26.7183 25.5586 26.7188 25.863Z" fill="#FFDAAA"/>
<path d="M22.0313 4.17393V9.79893C22.0708 12.1721 21.3479 14.4954 19.9688 16.4271C18.6984 18.1239 16.9406 19.1739 15 19.1739C11.1188 19.1739 7.96875 14.9786 7.96875 9.79893V4.17393L15 2.29893L22.0313 4.17393Z" fill="#FF7717"/>
<path d="M4.21875 20.1114V28.5489L1.40625 29.0177V19.6427L4.21875 20.1114Z" fill="#C5C9F7"/>
<g clip-path="url(#clip0)">
<path d="M13.7313 13.5723L11.1584 10.9994C11.0038 10.8448 11.0038 10.5942 11.1584 10.4396L11.7182 9.87979C11.8728 9.7252 12.1234 9.7252 12.278 9.87979L14.0112 11.613L17.7236 7.90062C17.8782 7.74605 18.1289 7.74605 18.2834 7.90062L18.8432 8.46042C18.9978 8.61499 18.9978 8.86562 18.8432 9.02021L14.2911 13.5723C14.1365 13.7269 13.8859 13.7269 13.7313 13.5723Z" fill="white"/>
</g>
<defs>
<clipPath id="clip0">
<rect width="7.91667" height="7.91667" fill="white" transform="translate(11.0425 6.77811)"/>
</clipPath>
</defs>
</svg>
