<svg width="58" height="56" viewBox="0 0 58 56" fill="none" xmlns="http://www.w3.org/2000/svg">
<rect width="58" height="56" rx="12" fill="#FF7717" fill-opacity="0.07"/>
<path d="M28.2208 33.3789L25.6895 36.1738L23.668 31.7442L17.8848 19.0703C17.2169 17.7167 17.4805 16.1348 18.4649 15.0976C18.6583 14.8867 18.9571 14.7812 19.2559 14.834C19.5372 14.8691 19.7832 15.0625 19.9063 15.3261L23.668 23.5L28.2208 33.3789Z" fill="#C5C9F7"/>
<path d="M28.2208 33.379L25.6895 36.1738L23.668 31.7442V23.5001L28.2208 33.379Z" fill="#A8AFF1"/>
<path d="M29.4511 19.0703L23.668 31.7442L21.6464 36.1738L19.1152 33.3789L23.668 23.5L27.4297 15.3261C27.5527 15.0625 27.7988 14.8691 28.0801 14.834C28.3788 14.7812 28.6777 14.8867 28.8711 15.0976C29.8555 16.1348 30.1191 17.7168 29.4511 19.0703Z" fill="#E1E4FB"/>
<path d="M39.6055 16.5742H36.0898C35.604 16.5742 35.2109 16.1811 35.2109 15.6953C35.2109 15.2095 35.604 14.8164 36.0898 14.8164H39.6055C40.0913 14.8164 40.4844 15.2095 40.4844 15.6953C40.4844 16.1811 40.0913 16.5742 39.6055 16.5742Z" fill="#FFA768"/>
<path d="M39.6055 20.0898H36.0898C35.604 20.0898 35.2109 19.6967 35.2109 19.2109C35.2109 18.7251 35.604 18.332 36.0898 18.332H39.6055C40.0913 18.332 40.4844 18.7251 40.4844 19.2109C40.4844 19.6967 40.0913 20.0898 39.6055 20.0898Z" fill="#FFA768"/>
<path d="M39.6055 23.6055H36.0898C35.604 23.6055 35.2109 23.2124 35.2109 22.7266C35.2109 22.2408 35.604 21.8477 36.0898 21.8477H39.6055C40.0913 21.8477 40.4844 22.2408 40.4844 22.7266C40.4844 23.2124 40.0913 23.6055 39.6055 23.6055Z" fill="#FFA768"/>
<path d="M39.6055 27.1211H36.0898C35.604 27.1211 35.2109 26.728 35.2109 26.2422C35.2109 25.7564 35.604 25.3633 36.0898 25.3633H39.6055C40.0913 25.3633 40.4844 25.7564 40.4844 26.2422C40.4844 26.728 40.0913 27.1211 39.6055 27.1211Z" fill="#FFA768"/>
<path d="M39.6055 30.6367H36.0898C35.604 30.6367 35.2109 30.2436 35.2109 29.7578C35.2109 29.272 35.604 28.8789 36.0898 28.8789H39.6055C40.0913 28.8789 40.4844 29.272 40.4844 29.7578C40.4844 30.2436 40.0913 30.6367 39.6055 30.6367Z" fill="#FFA768"/>
<path d="M39.6055 34.1522H36.0898C35.604 34.1522 35.2109 33.7591 35.2109 33.2733C35.2109 32.7875 35.604 32.3944 36.0898 32.3944H39.6055C40.0913 32.3944 40.4844 32.7875 40.4844 33.2733C40.4844 33.7591 40.0913 34.1522 39.6055 34.1522Z" fill="#FFA768"/>
<path d="M39.6055 37.6678H36.0898C35.604 37.6678 35.2109 37.2747 35.2109 36.7889C35.2109 36.3031 35.604 35.91 36.0898 35.91H39.6055C40.0913 35.91 40.4844 36.3031 40.4844 36.7889C40.4844 37.2747 40.0913 37.6678 39.6055 37.6678Z" fill="#FFA768"/>
<path d="M39.6055 41.1835H36.0898C35.604 41.1835 35.2109 40.7904 35.2109 40.3046C35.2109 39.8188 35.604 39.4257 36.0898 39.4257H39.6055C40.0913 39.4257 40.4844 39.8188 40.4844 40.3046C40.4844 40.7904 40.0913 41.1835 39.6055 41.1835Z" fill="#FFA768"/>
<path d="M29.4511 19.0703L23.668 31.7442V23.5L27.4297 15.3261C27.5527 15.0625 27.7988 14.8691 28.0801 14.834C28.3789 14.7812 28.6777 14.8867 28.8711 15.0976C29.8555 16.1348 30.1191 17.7168 29.4511 19.0703Z" fill="#C5C9F7"/>
<path d="M41.3633 41.1836H38.7266V14.8164H41.3633C42.8195 14.8164 44 15.9969 44 17.4531V38.5469C44 40.0031 42.8195 41.1836 41.3633 41.1836Z" fill="#FF7717"/>
<path d="M18.3945 41.1835C15.9715 41.1835 14 39.212 14 36.7889C14 34.3659 15.9715 32.3944 18.3945 32.3944C20.8176 32.3944 22.7891 34.3659 22.7891 36.7889C22.7891 39.212 20.8176 41.1835 18.3945 41.1835ZM18.3945 34.1522C16.9406 34.1522 15.7578 35.335 15.7578 36.7889C15.7578 38.2429 16.9406 39.4257 18.3945 39.4257C19.8485 39.4257 21.0312 38.2429 21.0312 36.7889C21.0312 35.335 19.8485 34.1522 18.3945 34.1522Z" fill="#232C63"/>
<path d="M28.9414 41.1835C26.5184 41.1835 24.5469 39.212 24.5469 36.7889C24.5469 34.3659 26.5184 32.3944 28.9414 32.3944C31.3644 32.3944 33.3945 34.3659 33.3945 36.7889C33.3945 39.212 31.3644 41.1835 28.9414 41.1835ZM28.9414 34.1522C27.4875 34.1522 26.3047 35.335 26.3047 36.7889C26.3047 38.2429 27.4875 39.4257 28.9414 39.4257C30.3954 39.4257 31.5781 38.2429 31.5781 36.7889C31.5781 35.335 30.3954 34.1522 28.9414 34.1522Z" fill="#232C63"/>
</svg>
