<svg width="56" height="56" viewBox="0 0 56 56" fill="none" xmlns="http://www.w3.org/2000/svg">
<circle cx="28" cy="28" r="28" fill="#FF7717" fill-opacity="0.07"/>
<g clip-path="url(#clip0)">
<path d="M26.392 14.8808H29.6079V19.1175H26.392V14.8808Z" fill="#CC5D0E"/>
<path d="M36.3241 29.889C36.3241 25.3197 32.6369 21.6111 28.0739 21.5729C23.5364 21.5348 19.7696 25.2905 19.6806 29.8246C19.6089 33.479 20.3617 37.3403 20.8797 41.0384C21.0373 42.1636 22.0011 43 23.1379 43H32.8629C34.0049 43 34.9691 42.1557 35.1231 41.0248C35.6246 37.3404 36.3241 33.5446 36.3241 29.889Z" fill="#E0E3FF"/>
<path d="M28.0739 21.5729C27.7485 21.5702 27.4273 21.5876 27.1108 21.6228C31.2742 22.0799 34.5133 25.6064 34.5133 29.8891C34.5133 33.5446 33.8138 37.3404 33.3122 41.0249C33.1583 42.1558 32.1941 43 31.0521 43H32.8629C34.0049 43 34.9692 42.1558 35.1231 41.0249C35.6246 37.3405 36.3242 33.5447 36.3242 29.8891C36.3242 25.3198 32.6369 21.6111 28.0739 21.5729Z" fill="#E0E3FF"/>
<path d="M30.6999 22.4655H25.2999C24.7171 22.4655 24.2447 21.993 24.2447 21.4102V19.6762C24.2447 19.0934 24.7171 18.6209 25.2999 18.6209H30.6999C31.2827 18.6209 31.7551 19.0934 31.7551 19.6762V21.4102C31.7551 21.9931 31.2827 22.4655 30.6999 22.4655Z" fill="#FF7717"/>
<path d="M30.8534 15.3257H23.0846C23.0846 14.6234 23.5969 14.0259 24.2914 13.9184L30.112 13.0171C30.9757 12.8834 31.7551 13.551 31.7551 14.4244C31.7551 14.9222 31.3514 15.3257 30.8534 15.3257Z" fill="#FF7717"/>
<path d="M21.0167 25.4556C20.1999 26.7277 19.7119 28.2277 19.6805 29.8246C19.6088 33.479 20.3617 37.3403 20.8796 41.0384C21.0372 42.1636 22.0011 43 23.1379 43H32.8629C34.0049 43 34.9691 42.1557 35.123 41.0249C35.6246 37.3405 36.3241 33.5447 36.3241 29.8891C36.3241 28.2592 35.8547 26.739 35.0439 25.4556H21.0167Z" fill="#C5C9F7"/>
<path d="M35.044 25.4556H33.2331C34.0438 26.739 34.5133 28.2592 34.5133 29.8891C34.5133 33.5446 33.8138 37.3405 33.3122 41.0249C33.1583 42.1557 32.194 43 31.0521 43H32.8629C34.0049 43 34.9691 42.1557 35.1231 41.0249C35.6246 37.3405 36.3241 33.5447 36.3241 29.8891C36.3241 28.2592 35.8547 26.739 35.044 25.4556Z" fill="#C5C9F7"/>
<path d="M27.9999 39.1066C30.9836 39.1066 33.4024 36.6879 33.4024 33.7042C33.4024 30.7205 30.9836 28.3018 27.9999 28.3018C25.0163 28.3018 22.5975 30.7205 22.5975 33.7042C22.5975 36.6879 25.0163 39.1066 27.9999 39.1066Z" fill="#FF7717"/>
<path d="M27.9999 28.3018C27.6913 28.3018 27.3889 28.3281 27.0945 28.3777C29.647 28.8085 31.5915 31.0291 31.5915 33.7042C31.5915 36.3793 29.647 38.5999 27.0945 39.0307C27.3889 39.0804 27.6913 39.1066 27.9999 39.1066C30.9836 39.1066 33.4023 36.6879 33.4023 33.7042C33.4023 30.7206 30.9836 28.3018 27.9999 28.3018Z" fill="#FF7717"/>
<path d="M30.7957 32.7366H28.9705V30.9166H27.0295V32.7366H25.2042V34.6719H27.0295V36.4919H28.9705V34.6719H30.7957V32.7366Z" fill="#FFF6DB"/>
</g>
<defs>
<clipPath id="clip0">
<rect width="30" height="30" fill="white" transform="translate(13 13)"/>
</clipPath>
</defs>
</svg>
