<svg width="56" height="56" viewBox="0 0 56 56" fill="none" xmlns="http://www.w3.org/2000/svg">
<circle cx="28" cy="28" r="28" fill="#FF7717" fill-opacity="0.07"/>
<g clip-path="url(#clip0)">
<path d="M27.7266 22.7161C27.7266 22.7161 27.735 26.0192 28.0666 27.9568C28.1559 28.4785 27.7562 28.9552 27.2268 28.9552H24.216C24.2161 28.9551 25.6736 24.5237 27.7266 22.7161Z" fill="#FF7717"/>
<path d="M27.2268 28.9554H26.0788C26.6081 28.9554 27.0083 28.4786 26.919 27.9565C26.7204 26.7982 26.6377 25.1523 26.6033 24.0158C26.951 23.5179 27.3276 23.0676 27.7266 22.7163C27.7266 22.7163 27.735 26.019 28.067 27.9565C28.1562 28.4786 27.7561 28.9554 27.2268 28.9554Z" fill="#FF7717"/>
<path d="M31.5233 13.587V21.3964L31.3957 21.4167C28.1705 22.0829 26.424 25.3896 26.424 25.3896C24.1347 28.8589 24.1606 36.7881 24.3315 40.7125C24.3469 41.0654 24.3635 41.3858 24.3796 41.6679C24.4212 42.3908 23.8467 43 23.1225 43H18.8687C18.3562 43 17.8974 42.6883 17.7018 42.2147C17.4959 41.7164 17.3272 41.2141 17.1906 40.7125C15.8078 35.6394 17.706 30.64 17.706 30.64C18.886 27.248 19.1286 25.2966 19.1286 25.2966C19.224 24.5114 18.8564 23.836 18.475 23.3634C17.971 22.7399 17.6964 21.9607 17.709 21.1592C17.7591 18.1057 18.4194 15.5544 18.8776 14.1378C19.1076 13.4274 19.7884 12.9621 20.5344 13.0025L31.5233 13.587Z" fill="#C5C9F7"/>
<path d="M31.3957 13.5873V21.4168C28.1708 22.0831 26.424 25.3895 26.424 25.3895C24.1347 28.8589 24.1606 36.788 24.3314 40.7124C24.3471 41.0655 24.3634 41.386 24.3797 41.6679C24.4214 42.391 23.8467 42.9999 23.1225 42.9999H22.6951C23.006 42.7555 23.1973 42.3674 23.1726 41.9389C23.1563 41.657 23.14 41.3365 23.1243 40.9834C23.0923 40.2501 23.0645 38.5613 23.047 37.8273C22.9885 35.4269 23.0169 33.0108 23.318 30.6261C23.6042 28.3621 24.1866 26.2677 25.4209 24.3429C26.3919 22.8298 27.7674 21.3427 29.5007 20.7271C29.9131 20.5807 30.1885 20.1906 30.1885 19.753V13.5221L31.3957 13.5873Z" fill="#C5C9F7"/>
<path d="M31.3957 13.587L32.733 13.6551C33.1813 13.678 33.5331 14.0481 33.5331 14.4969V20.3582C33.5331 20.7885 33.209 21.1497 32.7813 21.1963L31.3957 21.4167V13.587Z" fill="#FF7717"/>
<path d="M33.5329 14.4969V20.3582C33.5329 20.7886 33.2094 21.1495 32.7814 21.1965L31.9479 21.3287C32.2551 21.1863 32.4646 20.8754 32.4646 20.52V14.3267C32.4646 14.0418 32.3306 13.7871 32.1211 13.6241L32.7331 13.6549C33.1816 13.6778 33.5329 14.0478 33.5329 14.4969Z" fill="#FF7717"/>
<path d="M28.8138 15.1105H21.3136C21.0456 15.1105 20.8087 15.2836 20.728 15.5392C20.4634 16.3769 19.9222 18.3071 19.9111 20.1088C19.9088 20.4753 20.2233 20.7636 20.588 20.7264L28.8762 19.8801C29.1896 19.8481 29.428 19.5841 29.428 19.269V15.7247C29.428 15.3855 29.153 15.1105 28.8138 15.1105Z" fill="white"/>
<path d="M29.428 15.7245V19.2693C29.428 19.5844 29.1896 19.8482 28.8764 19.8801L27.9468 19.9749C28.1134 19.8542 28.2209 19.658 28.2209 19.4389V15.628C28.2209 15.4186 28.1237 15.2321 27.9716 15.1107H28.8136C29.1528 15.1107 29.428 15.3853 29.428 15.7245Z" fill="white"/>
<path d="M23.1143 18.589C23.6609 18.589 24.1039 18.1459 24.1039 17.5994C24.1039 17.0528 23.6609 16.6098 23.1143 16.6098C22.5678 16.6098 22.1248 17.0528 22.1248 17.5994C22.1248 18.1459 22.5678 18.589 23.1143 18.589Z" fill="#FF7717"/>
<path d="M26.7722 18.589C27.3188 18.589 27.7618 18.1459 27.7618 17.5994C27.7618 17.0528 27.3188 16.6098 26.7722 16.6098C26.2257 16.6098 25.7827 17.0528 25.7827 17.5994C25.7827 18.1459 26.2257 18.589 26.7722 18.589Z" fill="#FF7717"/>
<path d="M24.1039 17.5993C24.1039 18.1461 23.6609 18.5891 23.1147 18.5891C22.7007 18.5891 22.3463 18.335 22.199 17.9747C22.2521 17.9838 22.3071 17.9886 22.3632 17.9886C22.9101 17.9886 23.3531 17.5456 23.3531 16.9987C23.3531 16.866 23.3271 16.7392 23.2794 16.6239C23.7472 16.7023 24.1039 17.1091 24.1039 17.5993Z" fill="#FF7717"/>
<path d="M27.7616 17.5993C27.7616 18.1461 27.3185 18.5891 26.7723 18.5891C26.3583 18.5891 26.004 18.335 25.8567 17.9747C25.9098 17.9838 25.9647 17.9886 26.0209 17.9886C26.5677 17.9886 27.0108 17.5456 27.0108 16.9987C27.0108 16.866 26.9848 16.7392 26.9371 16.6239C27.4049 16.7023 27.7616 17.1091 27.7616 17.5993Z" fill="#FF7717"/>
<path d="M23.1225 43H18.8687C18.3562 43 17.8974 42.6883 17.7018 42.2146C17.4959 41.7164 17.3273 41.2141 17.1906 40.7125H24.3315C24.3469 41.0654 24.3635 41.3858 24.3797 41.6678C24.4211 42.3908 23.8466 43 23.1225 43Z" fill="#FF7717"/>
<path d="M23.1225 43H22.6951C23.006 42.7555 23.1973 42.3674 23.1726 41.9389C23.1563 41.6571 23.14 41.3365 23.1243 40.9835C23.1206 40.9038 23.1176 40.8127 23.114 40.7125H24.3314C24.3471 41.0655 24.3634 41.3861 24.3797 41.6679C24.4214 42.3909 23.8467 43 23.1225 43Z" fill="#FF7717"/>
<path d="M37.515 20.8526C37.3901 20.8526 37.266 20.7997 37.1791 20.6968C37.0225 20.5114 37.0459 20.2341 37.2313 20.0775C37.9963 19.4313 38.435 18.4869 38.435 17.4866C38.435 16.4654 37.981 15.5083 37.1894 14.861C37.0015 14.7074 36.9738 14.4305 37.1274 14.2427C37.2811 14.0548 37.558 14.027 37.7458 14.1806C38.7424 14.9956 39.3139 16.2006 39.3139 17.4866C39.3139 18.7462 38.7616 19.9353 37.7985 20.7489C37.7159 20.8186 37.6152 20.8526 37.515 20.8526Z" fill="#FF7717"/>
<path d="M36.542 18.9758C36.417 18.9758 36.2929 18.9229 36.206 18.82C36.0494 18.6345 36.0727 18.3573 36.2581 18.2007C36.4728 18.0194 36.5958 17.7546 36.5958 17.4741C36.5958 17.1878 36.4685 16.9194 36.2464 16.7379C36.0585 16.5842 36.0308 16.3074 36.1844 16.1195C36.3381 15.9317 36.6149 15.9038 36.8028 16.0575C37.2298 16.4066 37.4747 16.923 37.4747 17.4741C37.4747 18.0139 37.238 18.5235 36.8254 18.8721C36.7428 18.9418 36.6422 18.9758 36.542 18.9758Z" fill="#FF7717"/>
</g>
<defs>
<clipPath id="clip0">
<rect width="30" height="30" fill="white" transform="translate(13 13)"/>
</clipPath>
</defs>
</svg>
