<svg width="58" height="56" viewBox="0 0 58 56" fill="none" xmlns="http://www.w3.org/2000/svg">
<rect width="58" height="56" rx="12" fill="#FF7717" fill-opacity="0.07"/>
<path opacity="0.82" d="M28.9998 43C25.0675 43 21.1352 42.4697 17.2303 41.409C15.3283 40.8923 14 39.1497 14 37.1712V32.7487C14 31.9409 14.6571 31.2838 15.4648 31.2838H21.3828C22.1905 31.2838 22.8477 31.9409 22.8477 32.7487V34.9558C22.8477 35.3542 23.1165 35.7055 23.5014 35.81C27.15 36.8009 30.85 36.8009 34.4987 35.81C34.8835 35.7055 35.1523 35.3542 35.1523 34.9558V32.7487C35.1523 31.9409 35.8095 31.2838 36.6172 31.2838H42.5352C43.3429 31.2838 44 31.9409 44 32.7487V37.1711C44 39.1497 42.6716 40.8923 40.7696 41.4089C36.8647 42.4697 32.9322 43 28.9998 43Z" fill="#FF7717"/>
<path d="M42.5352 31.2838H36.6172C35.8095 31.2838 35.1523 31.9409 35.1523 32.7487V34.9558C35.1523 35.3542 34.8835 35.7055 34.4987 35.81C32.6744 36.3055 30.8372 36.5532 29 36.5532V43C32.9323 43 36.8648 42.4696 40.7696 41.4089C42.6716 40.8923 44 39.1496 44 37.1711V32.7487C44 31.9409 43.3429 31.2838 42.5352 31.2838Z" fill="#FF7717"/>
<path d="M29 34.6797C28.708 34.6797 28.435 34.5347 28.2716 34.2927L26.2754 31.337C22.3428 30.1445 19.625 26.5066 19.625 22.375C19.625 17.2056 23.8306 13 29 13C34.1694 13 38.375 17.2056 38.375 22.375C38.375 26.5066 35.6572 30.1445 31.7246 31.337L29.7284 34.2927C29.565 34.5347 29.292 34.6797 29 34.6797Z" fill="#E1E4FB"/>
<path d="M29.7284 34.2927L31.7246 31.337C35.6572 30.1445 38.375 26.5066 38.375 22.375C38.375 17.2056 34.1694 13 29 13V34.6797C29.292 34.6797 29.565 34.5347 29.7284 34.2927Z" fill="#E1E4FB"/>
<path d="M29 27.9414C27.8621 27.9414 27.046 27.7871 26.4317 27.4556C25.8299 27.1309 25.1124 26.4571 25.1124 25.0906C25.1125 22.9471 26.8564 21.2031 29 21.2031C31.1435 21.2031 32.8874 22.9471 32.8874 25.0906C32.8874 26.4571 32.17 27.1309 31.5682 27.4556C30.9539 27.7871 30.1378 27.9414 29 27.9414Z" fill="#232C63"/>
<path d="M24.8984 22.6852C23.7421 22.6852 22.8012 21.7442 22.8012 20.5879C22.8012 19.4316 23.7421 18.4906 24.8984 18.4906C26.0548 18.4906 26.9957 19.4316 26.9957 20.5879C26.9957 21.7442 26.0548 22.6852 24.8984 22.6852Z" fill="#232C63" stroke="#E1E4FB" stroke-width="0.2"/>
<path d="M29 21.1031C27.8437 21.1031 26.9027 20.1622 26.9027 19.0059C26.9027 17.8495 27.8437 16.9086 29 16.9086C30.1563 16.9086 31.0973 17.8495 31.0973 19.0059C31.0973 20.1622 30.1563 21.1031 29 21.1031Z" fill="#232C63" stroke="#E1E4FB" stroke-width="0.2"/>
<path d="M31.0043 20.5879C31.0043 19.4316 31.9452 18.4906 33.1016 18.4906C34.2579 18.4906 35.1988 19.4316 35.1988 20.5879C35.1988 21.7442 34.2579 22.6852 33.1016 22.6852C31.9452 22.6852 31.0043 21.7442 31.0043 20.5879Z" fill="#232C63" stroke="#E1E4FB" stroke-width="0.2"/>
<path d="M31.5683 27.4556C32.1701 27.1309 32.8875 26.4571 32.8875 25.0906C32.8875 22.9471 31.1435 21.2031 29 21.2031V27.9414C30.1378 27.9414 30.9539 27.7871 31.5683 27.4556Z" fill="#232C63"/>
</svg>
