<svg width="79" height="71" viewBox="0 0 79 71" fill="none" xmlns="http://www.w3.org/2000/svg">
<path d="M35.0425 0.748657H5.47409C2.7485 0.748657 0.539062 2.98658 0.539062 5.74695V30.6012C0.539062 33.34 2.71423 35.5631 5.4101 35.5978V35.5994L6.78516 36.3875H14.6309L16.4716 35.5995H35.042C37.7676 35.5995 39.9771 33.3618 39.9771 30.6012V5.74695C39.9771 2.98673 37.7678 0.748966 35.0425 0.748657Z" fill="#232C63"/>
<path d="M44.4995 0.748657H34.604C37.3296 0.748657 39.539 2.98642 39.539 5.74695V30.6012C39.539 33.3618 37.3296 35.5995 34.604 35.5995H44.4995C47.2251 35.5995 49.4345 33.3618 49.4345 30.6012V5.74695C49.4345 2.98658 47.2251 0.748657 44.4995 0.748657Z" fill="#232C63"/>
<path d="M5.41016 47.2102C5.41016 47.9385 6.31767 48.2577 6.76343 47.6862L15.5968 36.3599C15.9712 35.8797 16.5422 35.5995 17.1464 35.5995H5.41016V47.2102Z" fill="#232C63"/>
<path d="M61.2419 56.8267L63.0146 59.0998C63.3188 59.0884 63.5656 58.854 63.6055 58.5484C63.7836 57.1827 64.643 56.0077 65.9009 55.4084C67.8262 54.4911 69.159 52.5093 69.159 50.2115V21.6608C69.159 18.4898 66.621 15.9191 63.49 15.9191H28.0401C24.9091 15.9191 22.3711 18.4897 22.3711 21.6608V50.2115C22.3711 53.3827 24.9091 55.9532 28.0401 55.9532H59.4615C60.1558 55.9532 60.8117 56.2751 61.2419 56.8267Z" fill="#FF7717"/>
<path d="M72.8703 15.9191H62.9414C66.0722 15.9191 68.6104 18.4897 68.6104 21.6608V50.2115C68.6104 52.5093 67.2776 54.4911 65.3522 55.4084C63.9339 56.0841 63.015 57.5124 63.015 59.0997L71.3893 69.8375C71.9013 70.494 72.9438 70.1273 72.9438 69.2907V55.9512C76.0407 55.9113 78.5394 53.3575 78.5394 50.2114V21.6608C78.5393 18.4897 76.0012 15.9191 72.8703 15.9191Z" fill="#FF7717"/>
<path d="M69.1311 27.5374H31.7791C31.129 27.5374 30.6021 27.0037 30.6021 26.3453C30.6021 25.6869 31.129 25.1532 31.7791 25.1532H69.1311C69.7812 25.1532 70.3081 25.6869 70.3081 26.3453C70.3081 27.0037 69.7812 27.5374 69.1311 27.5374Z" fill="#F0F7FF"/>
<path d="M69.1311 36.6508H31.7791C31.129 36.6508 30.6021 36.1171 30.6021 35.4587C30.6021 34.8003 31.129 34.2666 31.7791 34.2666H69.1311C69.7812 34.2666 70.3081 34.8003 70.3081 35.4587C70.3081 36.1169 69.7812 36.6508 69.1311 36.6508Z" fill="#F0F7FF"/>
<path d="M69.1311 45.764H31.7791C31.129 45.764 30.6021 45.2302 30.6021 44.5719C30.6021 43.9135 31.129 43.3798 31.7791 43.3798H69.1311C69.7812 43.3798 70.3081 43.9135 70.3081 44.5719C70.3081 45.2302 69.7812 45.764 69.1311 45.764Z" fill="#F0F7FF"/>
</svg>
