<svg width="20" height="19" viewBox="0 0 20 19" fill="none" xmlns="http://www.w3.org/2000/svg">
<mask id="mask0_1901:140" style="mask-type:alpha" maskUnits="userSpaceOnUse" x="0" y="0" width="20" height="19">
<path d="M0 0.564453H20V18.7305H0V0.564453Z" fill="white"/>
</mask>
<g mask="url(#mask0_1901:140)">
<path fill-rule="evenodd" clip-rule="evenodd" d="M1.5 12.5435V14.5885C1.5 15.2945 1.774 15.9575 2.273 16.4565C2.772 16.9555 3.436 17.2305 4.141 17.2305H15.857C17.313 17.2305 18.499 16.0465 18.5 14.5905V12.5425C17.214 12.2095 16.261 11.0385 16.26 9.64945C16.26 8.26045 17.213 7.08945 18.499 6.75545L18.5 4.71045C18.501 3.25245 17.318 2.06545 15.861 2.06445H4.144C2.687 2.06445 1.501 3.24945 1.5 4.70645V6.82345C1.986 6.93945 2.437 7.17845 2.812 7.52845C3.381 8.05945 3.709 8.77945 3.737 9.55745C3.74 11.0235 2.787 12.2075 1.5 12.5435ZM15.857 18.7305H4.142C3.035 18.7305 1.995 18.3005 1.212 17.5175C0.43 16.7345 0 15.6945 0 14.5885V11.8885C0 11.4745 0.336 11.1385 0.75 11.1385C1.574 11.1375 2.24 10.4695 2.239 9.64945C2.225 9.23145 2.065 8.88345 1.789 8.62545C1.514 8.36745 1.158 8.22645 0.776 8.24745C0.569 8.24945 0.375 8.17845 0.229 8.03745C0.083 7.89645 0 7.70045 0 7.49745V4.70745C0.001 2.42245 1.86 0.564453 4.144 0.564453H15.856C18.146 0.565453 20.002 2.42745 20 4.71145V7.41045C20 7.82445 19.664 8.16045 19.25 8.16045C18.429 8.16045 17.76 8.82845 17.76 9.64845C17.761 10.4705 18.429 11.1385 19.25 11.1385C19.664 11.1385 20 11.4745 20 11.8885V14.5885C19.999 16.8725 18.14 18.7305 15.857 18.7305Z" fill="#FF7717"/>
</g>
<path fill-rule="evenodd" clip-rule="evenodd" d="M8.10383 8.94549L8.61283 9.44148C8.88883 9.71248 9.01383 10.0985 8.94783 10.4755L8.82783 11.1735L9.45683 10.8425C9.79583 10.6615 10.2028 10.6625 10.5448 10.8445L11.1698 11.1725L11.0498 10.4735C10.9868 10.0905 11.1128 9.70748 11.3858 9.44148L11.8948 8.94549L11.1898 8.84348C10.8118 8.78848 10.4838 8.55049 10.3148 8.20549L9.99983 7.56849L9.68483 8.20648C9.51583 8.55048 9.18783 8.78848 8.80783 8.84348L8.10383 8.94549ZM11.6178 12.9515C11.4318 12.9515 11.2458 12.9065 11.0738 12.8155L9.99983 12.2525L8.92483 12.8165C8.52883 13.0235 8.05783 12.9905 7.69783 12.7285C7.33683 12.4655 7.15983 12.0295 7.23483 11.5895L7.43983 10.3935L6.57083 9.54648C6.25183 9.23548 6.13783 8.77848 6.27483 8.35448C6.41283 7.92948 6.77283 7.62448 7.21383 7.56048L8.41783 7.38448L8.95483 6.29548C9.15183 5.89548 9.55183 5.64648 9.99983 5.64648C10.4458 5.64648 10.8468 5.89548 11.0438 6.29648L11.5818 7.38448L12.7838 7.56048C13.2258 7.62448 13.5868 7.92948 13.7238 8.35448C13.8608 8.77848 13.7478 9.23548 13.4278 9.54748L12.5578 10.3945L12.7638 11.5895C12.8388 12.0305 12.6608 12.4675 12.2988 12.7295C12.0948 12.8765 11.8568 12.9515 11.6178 12.9515Z" fill="#FF7717"/>
</svg>
