<svg width="20" height="19" viewBox="0 0 20 19" fill="none" xmlns="http://www.w3.org/2000/svg">
    <mask id="mask0"  maskUnits="userSpaceOnUse" x="0" y="0" width="20" height="19">
        <path d="M0 0.564453H20V18.7305H0V0.564453Z" fill="white"/>
    </mask>
    <g mask="url(#mask0)">
        <path fill-rule="evenodd" clip-rule="evenodd" d="M1.5 12.5435V14.5885C1.5 15.2945 1.774 15.9575 2.273 16.4565C2.772 16.9555 3.436 17.2305 4.141 17.2305H15.857C17.313 17.2305 18.499 16.0465 18.5 14.5905V12.5425C17.214 12.2095 16.261 11.0385 16.26 9.64945C16.26 8.26045 17.213 7.08945 18.499 6.75545L18.5 4.71045C18.501 3.25245 17.318 2.06545 15.861 2.06445H4.144C2.687 2.06445 1.501 3.24945 1.5 4.70645V6.82345C1.986 6.93945 2.437 7.17845 2.812 7.52845C3.381 8.05945 3.709 8.77945 3.737 9.55745C3.74 11.0235 2.787 12.2075 1.5 12.5435ZM15.857 18.7305H4.142C3.035 18.7305 1.995 18.3005 1.212 17.5175C0.43 16.7345 0 15.6945 0 14.5885V11.8885C0 11.4745 0.336 11.1385 0.75 11.1385C1.574 11.1375 2.24 10.4695 2.239 9.64945C2.225 9.23145 2.065 8.88345 1.789 8.62545C1.514 8.36745 1.158 8.22645 0.776 8.24745C0.569 8.24945 0.375 8.17845 0.229 8.03745C0.083 7.89645 0 7.70045 0 7.49745V4.70745C0.001 2.42245 1.86 0.564453 4.144 0.564453H15.856C18.146 0.565453 20.002 2.42745 20 4.71145V7.41045C20 7.82445 19.664 8.16045 19.25 8.16045C18.429 8.16045 17.76 8.82845 17.76 9.64845C17.761 10.4705 18.429 11.1385 19.25 11.1385C19.664 11.1385 20 11.4745 20 11.8885V14.5885C19.999 16.8725 18.14 18.7305 15.857 18.7305Z" fill="#FF7717"/>
    </g>
</svg>
