<svg width="19" height="18" viewBox="0 0 19 18" fill="none" xmlns="http://www.w3.org/2000/svg">
<path d="M17.4898 15.9533C18.0469 15.9533 18.5 16.4123 18.5 16.9766C18.5 17.5421 18.0469 18 17.4898 18H11.7797C11.2226 18 10.7695 17.5421 10.7695 16.9766C10.7695 16.4123 11.2226 15.9533 11.7797 15.9533H17.4898ZM13.5299 0.699064L15.0049 1.87078C15.6097 2.34377 16.013 2.96726 16.1509 3.62299C16.3101 4.3443 16.1403 5.0527 15.6628 5.66544L6.8764 17.0279C6.47316 17.5439 5.87891 17.8341 5.24222 17.8449L1.74039 17.8879C1.54939 17.8879 1.39021 17.7589 1.34777 17.5761L0.551898 14.1255C0.413948 13.4912 0.551898 12.8355 0.955138 12.3303L7.18413 4.26797C7.29025 4.13898 7.48126 4.11855 7.6086 4.21422L10.2297 6.29967C10.3994 6.43942 10.6329 6.51467 10.877 6.48242C11.3969 6.41792 11.7471 5.94493 11.6941 5.43969C11.6622 5.1817 11.5349 4.96671 11.3651 4.80546C11.312 4.76246 8.81832 2.76301 8.81832 2.76301C8.65914 2.63401 8.62731 2.39752 8.75465 2.23735L9.74152 0.957057C10.6541 -0.214663 12.2459 -0.322161 13.5299 0.699064Z" fill="#FF7717"/>
</svg>
