<svg width="47" height="47" viewBox="0 0 47 47" fill="none" xmlns="http://www.w3.org/2000/svg">
<circle opacity="0.12" cx="23.7695" cy="23.4587" r="23" fill="#FF7717"/>
<circle cx="23.7695" cy="23.4587" r="12" fill="#FF7717"/>
<path d="M27.207 19.7087V18.4587H20.332V19.7087H22.5195C23.3333 19.7087 24.0202 20.2325 24.2789 20.9587H20.332V22.2087H24.2789C24.1506 22.5733 23.9126 22.8891 23.5976 23.1129C23.2826 23.3368 22.906 23.4576 22.5195 23.4587H20.332V24.9675L23.8233 28.4587H25.5908L21.8408 24.7087H22.5195C23.2395 24.7078 23.9371 24.4586 24.4948 24.0032C25.0524 23.5478 25.436 22.914 25.5808 22.2087H27.207V20.9587H25.5808C25.485 20.5039 25.2876 20.0765 25.0033 19.7087H27.207Z" fill="white"/>
</svg>
