<svg width="47" height="47" viewBox="0 0 47 47" fill="none" xmlns="http://www.w3.org/2000/svg">
<circle opacity="0.12" cx="23.6143" cy="23.9646" r="23" fill="#FF7717"/>
<g clip-path="url(#clip0)">
<path d="M31.2433 19.8777H15.9846L11.6172 22.1802V23.5025L23.6139 31.5303L35.6107 23.5025V22.1802L31.2433 19.8777Z" fill="#D85B03"/>
<path d="M35.6104 22.1802L31.243 19.8777H23.6143V31.5299L35.6104 23.5025V22.1802Z" fill="#D85B03"/>
<path d="M15.4551 14.4431V28.0269L23.6136 33.4862L31.7721 28.0269V14.4431H15.4551Z" fill="#232C63"/>
<path d="M31.7722 14.4431H23.6143V33.4858L31.7722 28.0269V14.4431Z" fill="#232C63"/>
<path d="M28.1391 20.3854L25.0154 19.9279L23.6149 17.0984L22.2145 19.9279L19.0908 20.3854L21.349 22.5916L20.8189 25.7038L23.6149 24.2379L26.411 25.7038L25.8809 22.5916L28.1391 20.3854Z" fill="#FFC107"/>
<path d="M27.7112 27.2473L23.6139 29.8379L19.517 27.2475L11.6172 33.9996V35.9644H35.6107V33.9996L27.7112 27.2473Z" fill="#FF7717"/>
<path d="M35.6104 34.0002L27.7109 27.2478L23.6143 29.838V35.9649H35.6104V34.0002Z" fill="#FF7717"/>
<path d="M11.6172 22.1804V35.9648L20.8372 28.0826L11.6172 22.1804Z" fill="#FF7717"/>
<path d="M26.3896 28.0833L35.6108 35.9648V22.1804L26.3896 28.0833Z" fill="#FFD567"/>
<path d="M26.3896 28.0833L35.6108 35.9648V22.1804L26.3896 28.0833Z" fill="#FF7717"/>
</g>
<defs>
<clipPath id="clip0">
<rect width="24" height="24" fill="white" transform="translate(11.6143 11.9646)"/>
</clipPath>
</defs>
</svg>
