<svg width="31" height="31" viewBox="0 0 31 31" fill="none" xmlns="http://www.w3.org/2000/svg">
<circle cx="15.8652" cy="15.0847" r="15" fill="#232C63"/>
<path d="M17.0235 13.9457C16.4091 13.2975 15.5761 12.9333 14.7075 12.9333C13.8388 12.9333 13.0058 13.2975 12.3915 13.9457L10.0747 16.3903C9.46037 17.0388 9.11523 17.9183 9.11523 18.8354C9.11523 19.7525 9.46037 20.632 10.0747 21.2805C10.689 21.9289 11.5223 22.2932 12.3911 22.2932C13.2599 22.2932 14.0931 21.9289 14.7075 21.2805L15.8655 20.0581" stroke="white" stroke-width="1.5" stroke-linecap="round" stroke-linejoin="round"/>
<path d="M14.708 16.3903C15.3223 17.0385 16.1554 17.4026 17.024 17.4026C17.8926 17.4026 18.7257 17.0385 19.34 16.3903L21.6568 13.9456C22.2711 13.2972 22.6162 12.4176 22.6162 11.5006C22.6162 10.5835 22.2711 9.70397 21.6568 9.0555C21.0424 8.40703 20.2092 8.04272 19.3404 8.04272C18.4716 8.04272 17.6383 8.40703 17.024 9.0555L15.866 10.2778" stroke="white" stroke-width="1.5" stroke-linecap="round" stroke-linejoin="round"/>
</svg>
