<svg width="47" height="47" viewBox="0 0 47 47" fill="none" xmlns="http://www.w3.org/2000/svg">
<circle opacity="0.12" cx="23.7695" cy="23.2117" r="23" fill="#FF7717"/>
<g clip-path="url(#clip0)">
<path d="M29.3923 23.4017C29.3923 22.4842 30.0867 21.7406 30.9431 21.7406H30.9776C31.8326 21.7406 32.5264 22.4811 32.5284 23.3971C32.5356 26.3936 32.531 26.6877 32.5268 31.1633C32.5244 33.6764 30.622 35.7117 28.2761 35.7117H23.2396C21.6984 35.7117 20.2775 34.8176 19.5266 33.3757L15.0361 24.7484L15.5052 24.3593C16.4767 23.4664 17.9379 23.5763 18.783 24.6051L20.0398 26.135L20.047 15.61C20.0476 14.6928 20.742 13.9497 21.598 13.9497H21.5984C22.455 13.9497 23.1494 14.6938 23.1494 15.6114V21.9812C23.1698 21.0831 23.856 20.363 24.6992 20.363H24.7355C25.5921 20.363 26.2865 21.1067 26.2865 22.0243V22.5591C26.2865 21.6414 26.9807 20.8979 27.8379 20.8979H27.8415C28.6979 20.8979 29.3923 21.6414 29.3923 22.5591V23.4017Z" fill="#FF7717"/>
<path d="M21.5931 11.7117C19.5692 11.7139 17.9292 13.3541 17.9268 15.378C17.9268 15.6047 18.1106 15.7885 18.3373 15.7885C18.564 15.7885 18.7479 15.6047 18.7479 15.378C18.7479 13.8065 20.0218 12.5328 21.5931 12.5328C23.1643 12.5328 24.4383 13.8065 24.4383 15.378C24.4383 15.6047 24.6221 15.7885 24.8489 15.7885C25.0756 15.7885 25.2594 15.6047 25.2594 15.378C25.257 13.3541 23.617 11.7139 21.5931 11.7117Z" fill="#232C63"/>
</g>
<defs>
<clipPath id="clip0">
<rect width="24" height="24" fill="white" transform="translate(11.7695 11.7117)"/>
</clipPath>
</defs>
</svg>
