<svg width="42" height="46" viewBox="0 0 42 46" fill="none" xmlns="http://www.w3.org/2000/svg">
<path d="M20.7427 17.8357C20.1683 18.6091 18.0253 21.1225 14.9987 21.8743C12.679 22.4543 10.7349 22.0032 9.89534 21.6165C9.63024 21.5091 9.47559 21.4017 9.4535 21.3158C9.29885 20.9936 9.4535 19.4469 9.4535 19.4469C10.1605 19.5328 10.8674 19.5758 11.5302 19.5113C15.3963 19.2535 18.0253 16.5253 18.0253 16.5253C18.6439 17.0839 19.616 17.5135 20.7427 17.8357Z" fill="#2CB3DD"/>
<path d="M6.75833 2.17533C8.81292 0.220485 10.6687 1.10124 10.6687 1.10124C7.26645 3.20646 6.95716 8.16878 6.29439 9.97325C5.14559 13.217 3.84214 13.84 3.93051 15.4726C3.97469 16.1815 4.2619 16.826 4.72583 17.3415C3.26774 17.363 1.25733 16.2245 0.83758 14.5059C0.439917 12.7659 2.36195 10.6822 3.33402 9.5651C4.35026 8.44804 5.23396 3.6361 6.75833 2.17533Z" fill="#C48D3D"/>
<path d="M26.4867 11.8637C26.8181 13.6037 28.7622 16.289 26.8843 17.6208C25.7355 18.4372 23.3716 18.4372 21.2729 17.9646C21.0961 17.9216 20.8973 17.8786 20.7206 17.8357C19.5939 17.5349 18.5997 17.0838 18.0032 16.5468C16.6335 15.3438 17.6497 10.7037 18.3125 8.74883C19.5497 5.1184 18.4892 1.38055 18.4892 1.38055C18.4892 1.38055 19.8148 0.779062 22.267 1.93908C25.2053 3.3354 25.846 8.46957 26.4867 11.8637Z" fill="#C48D3D"/>
<path d="M4.77016 17.3416C4.30622 16.8046 4.01901 16.1816 3.97483 15.4727C3.86437 13.8401 5.16782 13.2171 6.33871 9.97334C6.97939 8.16887 7.28868 3.18508 10.713 1.10134C13.5187 -0.63869 18.5558 1.40209 18.5558 1.40209C18.5558 1.40209 19.6162 5.11845 18.379 8.77036C17.7163 10.7252 16.7 15.3653 18.0698 16.5683C18.0698 16.5683 15.4187 19.2965 11.5746 19.5543C10.9118 19.5972 10.2049 19.5757 9.49792 19.4898C7.59798 19.232 5.76431 18.5016 4.77016 17.3416Z" fill="#F4C77F"/>
<path d="M38.3946 30.4456C38.4609 30.4241 39.7643 29.8441 39.6097 31.6485C39.455 33.496 37.9748 34.7849 37.9748 34.7849C37.9748 34.7849 39.6097 34.5701 38.6597 36.6753C37.2458 39.8546 33.954 39.8546 33.954 39.8546C34.0424 39.1887 34.0203 38.4798 33.9099 37.7494H33.954C33.954 37.7494 35.6552 34.2049 34.661 31.176C33.6668 28.147 31.8111 23.7862 33.6447 21.3373C35.4121 18.9528 37.0028 23.2491 36.3179 25.204C36.2958 25.2684 36.2737 25.3114 36.2737 25.3329C36.2958 25.2899 36.3179 25.247 36.3179 25.204C36.4947 24.7958 37.0249 23.7647 37.7539 24.3662C38.6597 25.0966 37.4004 27.6744 37.4004 27.6744C37.4004 27.6744 38.5934 26.4929 38.8585 27.7818C39.1236 29.0492 38.4388 30.3811 38.3946 30.4456Z" fill="#EAB568"/>
<path d="M21.3833 43.7645C21.4938 43.077 21.7147 39.3177 21.8251 35.7302H21.9135C21.8031 39.0384 24.0786 41.6163 23.8576 41.6378C22.0019 41.9385 21.4717 43.2919 21.3833 43.7645Z" fill="#F4C77F"/>
<path d="M21.9137 35.73H21.8253C21.7149 39.339 21.4719 43.0983 21.3835 43.7642C21.4719 43.2916 22.0021 41.9383 23.8799 41.6375C24.0788 41.616 21.8033 39.0382 21.9137 35.73ZM9.49781 44.1724L9.38735 44.2368C9.38735 44.2368 8.43738 44.4946 7.86298 44.2153C7.7967 44.2153 6.58162 44.3657 6.18396 43.6139C5.72002 42.7331 7.04556 41.5946 7.66415 40.1553C8.0839 39.1456 9.89547 21.6379 9.89547 21.6379C10.735 22.0246 12.6791 22.4542 14.9988 21.8957C18.0255 21.1438 20.1463 18.6305 20.7428 17.8571C20.9196 17.9001 21.0963 17.943 21.2951 17.986C21.2951 17.986 26.6857 25.741 29.8007 29.8655C31.9657 32.7226 33.5122 35.3863 33.932 37.7923C34.0645 38.5227 34.0645 39.2101 33.9761 39.8975C33.932 40.1982 33.8657 40.499 33.7773 40.7997C33.4238 41.9168 31.1704 43.3346 29.6239 42.3249C30.2646 44.065 29.8007 44.1724 29.3147 44.3442C27.238 45.0961 24.8962 45.3969 24.3881 44.9028L24.366 44.9243C24.366 44.9243 23.2613 45.3969 22.8195 44.8168C22.7532 44.8383 21.1847 45.0746 21.3614 43.8502C21.1847 44.7739 19.2184 45.4828 18.2022 44.9887C18.2022 44.9887 16.9208 45.4613 16.3906 44.9887L16.3023 45.0317C16.3023 45.0317 14.4465 45.2894 14.5128 43.979C14.557 43.0768 15.6616 42.4753 16.0592 41.5731C14.9104 40.2842 13.8942 38.3938 13.0547 36.4174C13.0547 37.5989 13.0547 42.239 12.5907 43.1198C12.1931 43.8931 9.98384 44.8168 9.542 44.2153C9.5199 44.2153 9.49781 44.1939 9.49781 44.1724Z" fill="#F4C77F"/>
<path d="M13.2535 10.6609C13.2535 11.0475 13.0105 11.3483 12.7233 11.3483C12.4361 11.3483 12.1931 11.0475 12.1931 10.6609C12.1931 10.2742 12.4361 9.97346 12.7233 9.97346C13.0105 9.97346 13.2535 10.2742 13.2535 10.6609Z" fill="black"/>
<path d="M8.19422 10.2956C8.19422 10.6823 7.9512 10.9831 7.664 10.9831C7.3768 10.9831 7.13379 10.6823 7.13379 10.2956C7.13379 9.90896 7.3768 9.60822 7.664 9.60822C7.9733 9.60822 8.19422 9.90896 8.19422 10.2956Z" fill="black"/>
<path d="M7.13382 17.7712C7.02336 17.7712 6.9129 17.6853 6.9129 17.5564C6.8908 16.9764 6.9129 16.0097 6.9129 15.9668C6.9129 15.8379 7.02336 15.7519 7.13382 15.7519C7.26638 15.7519 7.35475 15.8594 7.35475 15.9668C7.35475 15.9668 7.33265 16.9549 7.35475 17.5349C7.35475 17.6638 7.26638 17.7712 7.13382 17.7712Z" fill="#542B00"/>
<path d="M9.49766 17.2771C8.50351 18.7594 9.69649 22.9698 7.11169 22.3683C5.38848 21.9602 5.71987 18.566 6.27218 17.3416C6.27218 17.3416 7.33261 17.6853 8.19421 17.5564C9.05582 17.4275 9.49766 17.2771 9.49766 17.2771Z" fill="#E09BAC"/>
<path d="M7.42104 17.4706C7.37685 17.621 7.33266 17.7714 7.28848 17.9218C7.2443 18.0721 7.2222 18.2225 7.20011 18.3729C7.15593 18.6736 7.11174 18.9744 7.08965 19.2966C7.06756 19.5974 7.04547 19.9196 7.04547 20.2203C7.04547 20.5211 7.06756 20.8433 7.06756 21.1655C7.06756 21.2085 7.02337 21.2515 6.97919 21.2515C6.935 21.2515 6.91291 21.23 6.89082 21.187C6.84663 21.0366 6.82454 20.8648 6.78035 20.7144C6.75826 20.564 6.73617 20.3922 6.71408 20.2418C6.69199 19.9196 6.69199 19.5974 6.71408 19.2751C6.73617 18.9529 6.78036 18.6307 6.86873 18.3299C6.9571 18.0077 7.06756 17.7069 7.2222 17.4277C7.24429 17.3847 7.28848 17.3847 7.33266 17.4062C7.42103 17.4062 7.44313 17.4277 7.42104 17.4706Z" fill="#AB657F"/>
<path d="M12.8559 7.2237C12.635 7.67481 14.2698 8.36223 14.5791 7.91111C14.8663 7.46 13.2536 6.36443 12.8559 7.2237Z" fill="#C48D3D"/>
<path d="M9.12216 6.90125C9.10006 6.51458 7.5536 6.42865 7.44314 7.13755C7.31058 7.82497 9.14425 7.61015 9.12216 6.90125Z" fill="#C48D3D"/>
<path d="M13.1208 19.3181C13.0324 19.7907 12.9883 20.2633 12.9883 20.7359C12.9883 20.9722 13.0104 21.2085 13.0545 21.4448C13.0987 21.6811 13.165 21.8959 13.2313 22.1322C13.2313 22.1537 13.2313 22.1966 13.1871 22.1966C13.165 22.1966 13.1429 22.1966 13.1208 22.1752C13.0104 21.9603 12.8999 21.724 12.8557 21.4877C12.7894 21.2514 12.7673 20.9937 12.7673 20.7574C12.7673 20.4996 12.7894 20.2633 12.8336 20.027C12.8778 19.7907 12.9441 19.5544 13.0324 19.3181C13.0324 19.2966 13.0766 19.2751 13.0987 19.2966C13.0987 19.2751 13.1208 19.2966 13.1208 19.3181Z" fill="#3E6FA7"/>
<path d="M13.1649 23.1632C13.0986 23.1632 13.0544 23.1202 13.0544 23.0558V22.1536C13.0544 22.0891 13.0986 22.0461 13.1649 22.0461C13.2312 22.0461 13.2754 22.0891 13.2754 22.1536V23.0558C13.2754 23.0988 13.2091 23.1632 13.1649 23.1632Z" fill="#3E6FA7"/>
<path d="M11.8395 22.798C11.3976 23.0558 11.9058 23.5498 11.9058 23.5498C11.9058 23.5498 11.5744 23.9365 11.7732 24.1943C11.972 24.4521 12.3918 24.0439 12.3918 24.0439L14.4243 24.001C14.4243 24.001 14.8661 24.3017 15.065 24.0224C15.2638 23.7002 14.844 23.5069 14.844 23.5069C14.844 23.5069 15.2638 23.0343 14.9987 22.8195C14.6231 22.5187 14.1592 23.0343 14.1592 23.0343L12.5023 23.1202C12.5023 23.0987 12.1488 22.6046 11.8395 22.798Z" fill="white"/>
<path d="M39.3888 23.464C38.9691 22.4758 38.3726 21.5951 37.5552 20.8862C37.4005 20.7573 37.1796 20.9506 37.3121 21.1225C37.997 21.8529 38.5714 22.7121 38.9249 23.6359C39.1016 24.087 39.2342 24.5381 39.3004 25.0107C39.3888 25.5048 39.3888 26.0204 39.4551 26.5359C39.4772 26.7293 39.8086 26.8152 39.8528 26.5789C40.0737 25.5478 39.7865 24.4092 39.3888 23.464Z" fill="black"/>
<path d="M40.6038 21.9388C40.2724 21.2514 39.8085 20.6284 39.2562 20.0913C39.0794 19.9195 38.7922 20.1773 38.969 20.3706C39.4771 20.8862 39.8969 21.4877 40.2061 22.1321C40.5154 22.7766 40.6701 23.4855 40.8689 24.1729C40.9131 24.3233 41.1119 24.2803 41.134 24.1299C41.1782 23.3781 40.9131 22.6262 40.6038 21.9388Z" fill="black"/>
<path d="M7.17797 41.208C7.00123 41.5517 6.8024 41.8739 6.62566 42.1961C6.44892 42.5184 6.27218 42.8621 6.25009 43.1843C6.25009 43.3562 6.29428 43.5065 6.38265 43.6354C6.47102 43.7643 6.62566 43.8717 6.78031 43.9362C7.11169 44.0866 7.48727 44.1295 7.86284 44.1295C7.90702 44.1295 7.92911 44.151 7.92911 44.194C7.92911 44.2369 7.90702 44.2584 7.86284 44.2584C7.46517 44.3229 7.04542 44.3229 6.66985 44.1725C6.47101 44.108 6.29428 43.9791 6.16172 43.7858C6.02917 43.6139 5.96289 43.3776 5.96289 43.1628C5.98498 42.7332 6.18381 42.368 6.40474 42.0458C6.60357 41.7235 6.84659 41.4228 7.06751 41.1006C7.0896 41.0791 7.13379 41.0576 7.15588 41.0791C7.17797 41.1435 7.20006 41.1865 7.17797 41.208Z" fill="#B78A48"/>
<path d="M8.48156 42.3896C8.21645 42.5829 7.95134 42.7977 7.7746 43.034C7.59786 43.2703 7.5095 43.5711 7.64205 43.8074C7.70833 43.9363 7.7967 44.0222 7.92925 44.0867C8.06181 44.1511 8.21645 44.1726 8.3711 44.1941C8.52575 44.2155 8.70248 44.2155 8.85713 44.1941C9.01178 44.1941 9.18851 44.1726 9.34316 44.1511C9.38735 44.1511 9.40944 44.1726 9.43153 44.2155C9.43153 44.2585 9.40944 44.28 9.38734 44.28C9.05596 44.3874 8.70248 44.4518 8.34901 44.4304C8.17227 44.4304 7.99553 44.3874 7.7967 44.3015C7.61996 44.2155 7.46531 44.0867 7.37694 43.8933C7.28857 43.7215 7.26648 43.5066 7.31067 43.3348C7.35485 43.1415 7.44322 42.9696 7.57577 42.8407C7.81879 42.5615 8.10599 42.3681 8.41528 42.2177C8.45947 42.1963 8.48156 42.2177 8.50365 42.2392C8.52574 42.3252 8.52575 42.3681 8.48156 42.3896Z" fill="#B78A48"/>
<path d="M10.2046 42.4754C10.0721 42.6473 9.96159 42.8406 9.82904 43.0125C9.71858 43.2058 9.60811 43.3777 9.56393 43.571C9.49765 43.7643 9.49765 43.9362 9.60811 44.0651C9.71858 44.194 9.9395 44.2584 10.1604 44.3229C10.2046 44.3229 10.2267 44.3658 10.2046 44.4088C10.2046 44.4303 10.1604 44.4518 10.1383 44.4518C9.89532 44.4518 9.6523 44.4303 9.43137 44.2369C9.32091 44.151 9.25464 44.0006 9.23254 43.8717C9.21045 43.7429 9.23254 43.614 9.27673 43.4851C9.34301 43.2488 9.47556 43.0554 9.60811 42.8621C9.74067 42.6688 9.91741 42.5184 10.0941 42.368C10.1162 42.3465 10.1604 42.3465 10.1825 42.368C10.2267 42.411 10.2267 42.4539 10.2046 42.4754Z" fill="#B78A48"/>
<path d="M14.7556 28.684L15.1312 30.9396L15.4625 33.1952C15.6835 34.6989 15.8823 36.2027 16.0369 37.7064C16.1253 38.4583 16.1916 39.2101 16.2358 39.9835C16.2579 40.3702 16.28 40.7353 16.28 41.1435C16.28 41.2509 16.28 41.3368 16.2579 41.4442C16.2579 41.4872 16.2358 41.5517 16.2137 41.6161C16.1916 41.6805 16.1695 41.702 16.1474 41.7665C16.059 41.9383 15.9265 42.1102 15.816 42.2606C15.573 42.5613 15.2858 42.8406 15.0649 43.1198C14.8219 43.3991 14.6451 43.7213 14.6451 44.065V44.1939L14.6672 44.3228C14.6672 44.3658 14.6893 44.4087 14.7114 44.4302C14.7335 44.4732 14.7335 44.5162 14.7777 44.5376C14.8661 44.6665 15.0207 44.7739 15.1974 44.8384C15.5288 44.9673 15.9265 44.9888 16.3021 44.9673C16.3462 44.9673 16.3904 44.9888 16.3904 45.0317C16.3904 45.0747 16.3683 45.1176 16.3241 45.1176C15.9265 45.1606 15.5067 45.1606 15.1091 45.0317C14.9102 44.9673 14.7114 44.8599 14.5789 44.6665C14.4463 44.4947 14.38 44.2799 14.38 44.065C14.3579 43.8502 14.4242 43.6354 14.5126 43.4635C14.6009 43.2702 14.7114 43.0983 14.844 42.948C15.087 42.6257 15.3521 42.368 15.573 42.0672C15.6835 41.9168 15.7939 41.7665 15.8602 41.6161C15.8823 41.5731 15.9044 41.5302 15.9044 41.5087C15.9044 41.4657 15.9265 41.4442 15.9265 41.4013C15.9265 41.3154 15.9486 41.2294 15.9486 41.1435C15.9486 40.7783 15.9265 40.3916 15.9044 40.0264C15.8381 39.2746 15.7718 38.5227 15.6835 37.7709C15.5288 36.2671 15.33 34.7634 15.1532 33.2597L14.5789 28.7485C14.5789 28.7055 14.6009 28.6625 14.6451 28.6625C14.7114 28.5981 14.7556 28.6411 14.7556 28.684Z" fill="#B78A48"/>
<path d="M17.0313 42.6904C16.9872 42.7334 16.9209 42.7978 16.8546 42.8623C16.7883 42.9267 16.7441 43.0126 16.7 43.0771C16.5895 43.2274 16.5232 43.3778 16.4569 43.5497C16.3244 43.8719 16.2802 44.2371 16.3465 44.5808C16.3686 44.7312 16.4569 44.8601 16.5895 44.9245C16.722 45.0104 16.8988 45.0319 17.0755 45.0319C17.429 45.0319 17.8267 44.9675 18.1801 44.8815C18.2243 44.8815 18.2464 44.903 18.2685 44.9245C18.2685 44.946 18.2685 44.9889 18.2243 45.0104C17.8709 45.1608 17.4732 45.2682 17.0755 45.2682C16.8767 45.2682 16.6558 45.2467 16.4569 45.1393C16.2581 45.0319 16.0814 44.8386 16.0593 44.6238C15.9709 44.2156 16.0593 43.8074 16.2139 43.4423C16.3023 43.2704 16.4128 43.0986 16.5232 42.9482C16.5895 42.8623 16.6558 42.7978 16.722 42.7334C16.8104 42.6689 16.8546 42.6045 16.9872 42.54C17.0092 42.5185 17.0534 42.54 17.0755 42.5615C17.0976 42.583 17.0755 42.626 17.0534 42.6474L17.0313 42.6904Z" fill="#B78A48"/>
<path d="M18.7323 42.7332C18.4672 43.0769 18.2463 43.4636 18.0916 43.8717C18.0254 44.0651 17.9591 44.2799 17.9812 44.4732C18.0033 44.6666 18.1137 44.8169 18.2905 44.8814C18.666 45.0318 19.13 45.0317 19.5497 44.9458C19.9695 44.8599 20.3893 44.688 20.7427 44.4517C20.9195 44.3229 21.052 44.1725 21.1404 44.0221L21.1846 43.9577C21.1846 43.9362 21.2067 43.9147 21.2067 43.8932C21.2288 43.8503 21.2288 43.8073 21.2288 43.7428C21.2509 43.6354 21.2509 43.528 21.2729 43.4206C21.3171 42.991 21.3392 42.5399 21.3613 42.1102C21.4276 41.2295 21.4718 40.3487 21.516 39.468C21.6043 37.7064 21.6706 35.9235 21.7369 34.1619C21.759 33.2812 21.7811 32.4004 21.7811 31.5197V30.8537L21.759 30.1878C21.7369 29.7582 21.7148 29.307 21.6264 28.8774C21.6264 28.8344 21.6485 28.7915 21.6927 28.7915C21.7369 28.7915 21.7811 28.813 21.7811 28.8559C21.8915 29.307 21.9357 29.7367 21.9578 30.1878L22.002 30.8537L22.0241 31.5197C22.0462 32.4004 22.0462 33.3027 22.0462 34.1834C22.0241 35.9664 21.9578 37.7279 21.8694 39.4894C21.8253 40.3702 21.7811 41.2509 21.7148 42.1532C21.6927 42.6043 21.6485 43.0339 21.6043 43.4851C21.6043 43.5925 21.5822 43.7214 21.5601 43.8288C21.5601 43.8932 21.5381 43.9577 21.516 44.0006C21.516 44.0221 21.4939 44.0651 21.4939 44.0865L21.4497 44.1725C21.3171 44.3873 21.1404 44.5806 20.9416 44.7095C20.5439 44.9888 20.1021 45.1392 19.6381 45.2466C19.1742 45.3325 18.6661 45.3325 18.2242 45.1392C18.1137 45.0962 17.9812 45.0103 17.9149 44.9029C17.8265 44.7955 17.8045 44.6666 17.7824 44.5377C17.7603 44.2799 17.8265 44.0651 17.9149 43.8503C18.0916 43.4206 18.3568 43.0554 18.6219 42.6902C18.644 42.6473 18.7102 42.6473 18.7323 42.6688C18.7544 42.6473 18.7544 42.6902 18.7323 42.7332Z" fill="#B78A48"/>
<path d="M24.388 44.9887C24.0345 45.1606 23.6368 45.2895 23.195 45.2036C22.9741 45.1606 22.7532 45.0102 22.6427 44.8169L22.5764 44.6665C22.5543 44.6021 22.5322 44.5376 22.5322 44.4947C22.5322 44.4302 22.5322 44.3658 22.5322 44.3228C22.5322 44.2584 22.5543 44.2154 22.5764 44.1509C22.6427 43.9361 22.7532 43.7643 22.8636 43.6139C22.9962 43.4635 23.1287 43.3132 23.2834 43.1843C23.5927 42.9265 23.9461 42.7117 24.3659 42.6687C24.4101 42.6687 24.4543 42.6902 24.4543 42.7331C24.4543 42.7761 24.4322 42.8191 24.388 42.8191C24.2112 42.862 24.0566 42.948 23.902 43.0554C23.7473 43.1628 23.6148 43.2702 23.4822 43.3991C23.3496 43.528 23.2392 43.6569 23.1287 43.8072C23.0403 43.9576 22.9299 44.108 22.9078 44.2584C22.9078 44.3013 22.8857 44.3228 22.8857 44.3658C22.8857 44.4087 22.8857 44.4302 22.8857 44.4732C22.8857 44.4947 22.9078 44.5376 22.9078 44.5591C22.9299 44.6021 22.952 44.6235 22.952 44.6665C23.0183 44.7954 23.1287 44.8813 23.2834 44.9243C23.438 44.9673 23.6148 44.9672 23.7915 44.9458C23.9682 44.9243 24.145 44.8813 24.3217 44.8384C24.3659 44.8169 24.4101 44.8598 24.4322 44.9028C24.4543 44.9458 24.4322 44.9887 24.388 44.9887Z" fill="#B78A48"/>
<path d="M22.8415 44.8814C22.6206 44.9243 22.3776 44.9243 22.1567 44.9029C21.9357 44.8814 21.6927 44.7954 21.4939 44.6236C21.2951 44.4517 21.2288 44.194 21.2509 43.9577C21.2509 43.7213 21.3172 43.5065 21.4055 43.2917C21.5823 42.8836 21.8474 42.4969 22.2009 42.1961C22.5543 41.8954 22.9741 41.7021 23.4159 41.5732C23.5264 41.5302 23.6369 41.5302 23.7473 41.4872L23.8357 41.4658H23.8799C23.8799 41.4658 23.8136 41.4872 23.8136 41.5087C23.7915 41.5302 23.7694 41.5517 23.7694 41.5732C23.7694 41.5946 23.7694 41.5946 23.7694 41.5946V41.6161C23.7694 41.6161 23.7694 41.5946 23.7473 41.5732L23.7031 41.5087C23.5927 41.3369 23.4822 41.1435 23.3718 40.9717C23.1508 40.6065 22.9299 40.2198 22.7532 39.8331C22.3776 39.0598 22.0683 38.222 21.9137 37.3627C21.759 36.5034 21.7369 35.6227 21.8916 34.7634C22.0241 33.9041 22.3555 33.0449 22.9078 32.3574C23.195 32.0137 23.5264 31.6915 23.902 31.4552C24.2775 31.1974 24.7415 31.0685 25.1833 31.0256C26.0891 30.9396 26.9949 31.2189 27.7681 31.6271C27.8123 31.6485 27.8344 31.6915 27.8123 31.7345C27.7902 31.7774 27.746 31.7989 27.7019 31.7774C26.9286 31.3908 26.067 31.1759 25.2275 31.2834C24.8078 31.3478 24.4101 31.4767 24.0566 31.713C23.7031 31.9278 23.3938 32.2286 23.1508 32.5508C22.6648 33.2167 22.3555 34.0115 22.2229 34.8279C22.0904 35.6442 22.1125 36.5034 22.2671 37.3197C22.4218 38.1361 22.709 38.9524 23.0625 39.7042C23.2392 40.0909 23.438 40.4561 23.6589 40.8213C23.7694 41.0146 23.8799 41.1865 23.9903 41.3798L24.0345 41.4658C24.0566 41.4872 24.0566 41.5087 24.0787 41.5732C24.0787 41.5732 24.0787 41.5946 24.0787 41.6161C24.0787 41.6376 24.0787 41.6376 24.0787 41.6591C24.0787 41.7021 24.0566 41.7235 24.0345 41.745C24.0124 41.7665 23.9462 41.788 23.9462 41.788H23.902L23.8136 41.8095C23.7031 41.8309 23.6148 41.8524 23.5043 41.8739C23.1066 41.9813 22.709 42.1532 22.3997 42.411C22.0904 42.6687 21.8253 43.0124 21.6706 43.3776C21.5823 43.571 21.516 43.7643 21.516 43.9577C21.516 44.151 21.5602 44.3443 21.6927 44.4732C21.8253 44.6021 22.0241 44.6666 22.2229 44.7095C22.4218 44.731 22.6427 44.731 22.8415 44.7095C22.8857 44.7095 22.9299 44.731 22.9299 44.774C22.9078 44.8384 22.8857 44.8814 22.8415 44.8814Z" fill="#B78A48"/>
<path d="M28.9391 40.5635C29.16 41.0146 29.3809 41.4443 29.5797 41.9169C29.7786 42.3895 29.9553 42.8406 30.0437 43.3562C30.0658 43.4206 30.0658 43.485 30.0658 43.5495C30.0658 43.6139 30.0658 43.6784 30.0658 43.7643C30.0658 43.8932 29.9995 44.0651 29.889 44.1939C29.7786 44.3228 29.6239 44.3873 29.5135 44.4302C29.3809 44.4732 29.2704 44.5162 29.16 44.5591C28.674 44.731 28.1879 44.8814 27.6798 44.9888C27.1717 45.0962 26.6635 45.2036 26.1554 45.2466C25.8903 45.268 25.6473 45.2895 25.3822 45.2895C25.1171 45.2895 24.852 45.268 24.5869 45.1821C24.4543 45.1391 24.2997 45.0532 24.2113 44.9028C24.1671 44.8384 24.145 44.731 24.145 44.6665C24.145 44.6021 24.145 44.5162 24.1671 44.4517C24.2113 44.1725 24.388 43.9362 24.5869 43.7643C24.9845 43.3991 25.4706 43.1843 25.9566 43.0339C26.0008 43.0124 26.045 43.0554 26.0671 43.0984C26.0891 43.1413 26.0671 43.1843 26.0229 43.2058C25.5589 43.3776 25.1171 43.6139 24.7857 43.9576C24.631 44.1295 24.4985 44.3228 24.4543 44.5162C24.4322 44.5591 24.4543 44.6236 24.4543 44.6665C24.4543 44.731 24.4764 44.731 24.4764 44.774C24.5206 44.8384 24.609 44.8814 24.7194 44.9243C24.9403 44.9888 25.1834 45.0103 25.4264 45.0103C25.6694 45.0103 25.9124 44.9888 26.1775 44.9673C26.6636 44.9028 27.1717 44.8169 27.6577 44.688C28.1437 44.5806 28.6298 44.4302 29.0937 44.2799C29.3146 44.1939 29.6018 44.1295 29.6902 44.0006C29.8007 43.8717 29.8007 43.6354 29.7786 43.4206C29.7123 42.948 29.5576 42.4969 29.3809 42.0243C29.2042 41.5517 29.0053 41.1006 28.8286 40.6494C28.8065 40.6065 28.8286 40.5635 28.8728 40.542C28.8728 40.4991 28.917 40.5206 28.9391 40.5635Z" fill="#B78A48"/>
<path d="M10.3371 27.6099C10.4918 28.2114 10.6685 28.8344 10.8453 29.4359C11.022 30.0374 11.1987 30.6603 11.3976 31.2618C11.5964 31.8633 11.7731 32.4648 11.972 33.0663C12.1929 33.6678 12.3917 34.2693 12.6127 34.8493C13.0545 36.0308 13.5405 37.1908 14.1149 38.3294L14.3138 38.759L14.5347 39.1672C14.6893 39.4464 14.8219 39.7257 15.0207 39.9835C15.1975 40.2413 15.3521 40.5205 15.5288 40.7783L16.1032 41.5302C16.1253 41.5731 16.1253 41.6161 16.0812 41.6376C16.037 41.6591 15.9928 41.6591 15.9707 41.6376C15.087 40.6924 14.4021 39.5753 13.8056 38.4583C13.2091 37.3412 12.701 36.1597 12.2592 34.9567C11.8173 33.7752 11.4197 32.5507 11.0662 31.3478C10.7127 30.1233 10.4034 28.8988 10.1604 27.6529C10.1604 27.6099 10.1825 27.5669 10.2267 27.5669C10.293 27.5455 10.315 27.5669 10.3371 27.6099Z" fill="#B78A48"/>
<path d="M18.9975 6.23542C18.887 6.94432 18.7544 7.65322 18.5998 8.36212C18.5114 8.70583 18.423 9.07102 18.3126 9.41473C18.2021 9.75844 18.1138 10.1022 18.0254 10.4459C17.8707 11.1333 17.7161 11.8422 17.6277 12.5511C17.5394 13.26 17.4731 13.9689 17.5394 14.6563C17.5614 15 17.6056 15.3437 17.7382 15.6445C17.7603 15.7089 17.8045 15.7734 17.8486 15.8593L18.0033 16.0741L18.1579 16.2674L18.3347 16.4608C18.8207 16.9549 19.4614 17.2771 20.1462 17.5349C20.8311 17.7927 21.5381 17.943 22.2671 18.0504C22.9962 18.1579 23.7252 18.2008 24.4763 18.2438C24.4984 18.2438 24.5205 18.2653 24.5205 18.2867C24.5205 18.3082 24.4984 18.3297 24.4763 18.3297C23.7252 18.3727 22.9962 18.3512 22.245 18.2867C21.4939 18.2223 20.7648 18.0934 20.0358 17.8571C19.3067 17.6208 18.6219 17.2771 18.0475 16.74L17.8486 16.5252L17.6719 16.3104L17.4952 16.0741C17.451 15.9882 17.3847 15.9023 17.3626 15.7948C17.208 15.4297 17.1638 15.043 17.1417 14.6778C17.0975 13.9259 17.1417 13.1955 17.2521 12.4866C17.3626 11.7563 17.5173 11.0474 17.7161 10.3599C17.8045 10.0162 17.937 9.67252 18.0475 9.32881C18.18 8.9851 18.2905 8.64139 18.3789 8.29768C18.5998 7.61026 18.7765 6.92284 18.9533 6.21394C18.9533 6.19246 18.9754 6.17097 19.0195 6.17097C18.9754 6.19246 18.9975 6.21394 18.9975 6.23542Z" fill="#A76E33"/>
<path d="M4.88049 15.9452C5.01304 16.2244 5.23397 16.4822 5.47698 16.6755C5.72 16.8904 6.0072 17.0407 6.31649 17.1481C6.93508 17.3415 7.61994 17.4059 8.28271 17.3415C8.94548 17.277 9.58616 17.0622 10.1164 16.697C10.6687 16.3318 11.0884 15.8163 11.3977 15.2363C11.4198 15.1933 11.4861 15.1718 11.5303 15.1933C11.5745 15.2148 11.5966 15.2792 11.5745 15.3222C11.464 15.6444 11.2873 15.9666 11.0884 16.2459C10.8675 16.5252 10.6245 16.783 10.3373 16.9978C9.7629 17.4274 9.03385 17.6852 8.3269 17.7711C7.59785 17.8356 6.8688 17.7711 6.18394 17.4919C5.49908 17.2126 4.92467 16.697 4.68166 15.9881C4.65957 15.9452 4.70375 15.8807 4.74794 15.8592C4.79212 15.8807 4.8584 15.9022 4.88049 15.9452Z" fill="#542B00"/>
<path d="M5.18987 14.4202C4.8143 15.215 5.96311 16.1387 7.26656 16.1387C8.39327 16.1387 9.38742 15.5587 9.38742 14.8068C9.38742 13.7542 5.80846 13.0668 5.18987 14.4202Z" fill="black"/>
<path d="M17.3186 35.107C17.3186 35.021 17.3186 34.9136 17.2965 34.8277C17.2965 34.7418 17.2302 34.6559 17.1197 34.6559C17.0314 34.6559 16.943 34.7203 16.943 34.8277C16.943 34.9136 16.943 35.021 16.9209 35.107C16.9209 35.1499 16.9209 35.1929 16.9209 35.2359C16.9209 35.2788 16.9209 35.3003 16.943 35.3433C16.943 35.3648 16.943 35.3862 16.9651 35.4077C16.9872 35.4722 17.0535 35.5366 17.1197 35.5366C17.186 35.5366 17.2523 35.4936 17.2744 35.4077C17.2744 35.3862 17.2744 35.3648 17.2965 35.3433C17.2965 35.3003 17.3186 35.2788 17.3186 35.2359C17.3407 35.2144 17.3186 35.1714 17.3186 35.107Z" fill="#DDA85B"/>
<path d="M17.8487 34.8709C17.7604 34.8494 17.672 34.8924 17.6499 34.9783C17.6278 35.0857 17.6057 35.1931 17.6057 35.3005C17.6057 35.3435 17.6057 35.3865 17.6057 35.4509C17.6057 35.4939 17.6057 35.5154 17.6057 35.5583C17.6057 35.5798 17.6278 35.6013 17.6278 35.6228C17.6499 35.6657 17.6941 35.7302 17.7604 35.7302C17.8266 35.7302 17.8708 35.6872 17.8929 35.6228C17.8929 35.5798 17.915 35.5583 17.915 35.5154C17.915 35.4939 17.915 35.4509 17.915 35.4294C17.915 35.3865 17.915 35.322 17.9371 35.2791C17.9371 35.2146 17.9592 35.1502 17.9813 35.0857C17.9813 34.9998 17.9371 34.8924 17.8487 34.8709Z" fill="#DDA85B"/>
<path d="M24.1672 36.6752C24.1672 36.6322 24.1451 36.5892 24.1451 36.5463V36.5033C24.1451 36.4818 24.1451 36.4603 24.1451 36.4389C24.123 36.2455 24.1451 36.0737 24.1893 35.9018C24.2114 35.8159 24.1672 35.7085 24.0567 35.6655C23.9463 35.644 23.8579 35.687 23.8137 35.7944C23.7474 36.0092 23.7253 36.224 23.7253 36.4389C23.7253 36.5463 23.7474 36.6752 23.7695 36.7826C23.7695 36.8255 23.7916 36.8685 23.8137 36.9329C23.8358 36.9974 23.88 37.0618 23.9242 37.1263C23.9684 37.1907 24.0567 37.1907 24.123 37.1692C24.1893 37.1478 24.2335 37.0833 24.2335 37.0189C24.2114 36.89 24.1893 36.7826 24.1672 36.6752Z" fill="#DDA85B"/>
<path d="M24.8962 37.1907C24.8962 37.1477 24.8741 37.1048 24.8741 37.0403C24.852 36.9329 24.8299 36.847 24.8078 36.7396C24.7857 36.6536 24.6974 36.6107 24.609 36.6322C24.5206 36.6536 24.4985 36.7396 24.4985 36.8255C24.5206 36.9329 24.5427 37.0188 24.5427 37.1262C24.5427 37.1692 24.5648 37.2337 24.5648 37.2766C24.5648 37.3196 24.5869 37.3411 24.609 37.384C24.6311 37.427 24.6753 37.4485 24.7195 37.47C24.7636 37.4914 24.8078 37.47 24.8299 37.4485C24.8741 37.4055 24.8962 37.384 24.8962 37.3196C24.8962 37.2551 24.8962 37.2122 24.8962 37.1907Z" fill="#DDA85B"/>
<path d="M25.4265 36.9974C25.4265 36.976 25.4265 36.9545 25.4044 36.933C25.4044 36.9115 25.3823 36.8685 25.3823 36.8471C25.3602 36.7826 25.3381 36.7397 25.316 36.6752C25.2939 36.6322 25.2497 36.5893 25.1835 36.6108C25.1172 36.6322 25.0951 36.6752 25.1172 36.7397C25.1393 36.8041 25.1393 36.8685 25.1614 36.9115C25.1614 36.933 25.1835 36.976 25.1835 36.9974C25.1835 37.0404 25.2055 37.0619 25.2276 37.1048C25.2276 37.1263 25.2497 37.1478 25.2718 37.1478C25.2939 37.1478 25.316 37.1693 25.3381 37.1478C25.3602 37.1478 25.3823 37.1263 25.3823 37.1263C25.4044 37.1048 25.4265 37.0834 25.4044 37.0404C25.4265 37.0189 25.4265 36.9974 25.4265 36.9974Z" fill="#DDA85B"/>
<path d="M8.96749 38.6088C8.96749 38.5014 8.96749 38.394 8.96749 38.2866C8.96749 38.2007 8.90121 38.1147 8.79075 38.1147C8.70238 38.1147 8.63611 38.1792 8.61401 38.2866C8.61401 38.394 8.61401 38.5014 8.61401 38.6088C8.61401 38.6518 8.61401 38.7162 8.61401 38.7592C8.61401 38.8236 8.63611 38.8881 8.68029 38.9525C8.72448 39.0384 8.87912 39.0384 8.90121 38.9525C8.9233 38.8881 8.9454 38.8236 8.96749 38.7592C8.96749 38.7162 8.96749 38.6518 8.96749 38.6088Z" fill="#DDA85B"/>
<path d="M9.4094 38.6514C9.3873 38.63 9.34312 38.6085 9.32102 38.6085C9.29893 38.6085 9.25475 38.63 9.23266 38.6514C9.21056 38.6729 9.21056 38.6944 9.18847 38.7374L9.16638 38.9522C9.16638 38.9952 9.16638 39.0166 9.14429 39.0596C9.14429 39.0811 9.14429 39.1026 9.14429 39.1241C9.14429 39.1455 9.14429 39.167 9.16638 39.167C9.16638 39.21 9.21056 39.2315 9.25475 39.2315C9.29893 39.2315 9.34312 39.21 9.36521 39.1885C9.36521 39.167 9.3873 39.167 9.3873 39.1455C9.40939 39.124 9.4094 39.1026 9.4094 39.0811V39.0596C9.4094 39.0166 9.40939 38.9952 9.43149 38.9522C9.43149 38.8877 9.45358 38.8233 9.45358 38.7374C9.45358 38.7159 9.43149 38.6729 9.4094 38.6514Z" fill="#DDA85B"/>
<path d="M23.5484 22.3683C23.5484 22.3468 23.5263 22.3038 23.5263 22.2824C23.5042 22.2609 23.5042 22.2394 23.4821 22.2394C23.46 22.2179 23.4379 22.1964 23.4379 22.175C23.4158 22.132 23.3716 22.089 23.3274 22.0676C23.2612 21.9816 23.1728 21.9172 23.1065 21.8313C23.0623 21.7883 23.0182 21.7668 22.9519 21.7668C22.9077 21.7668 22.8414 21.7883 22.7972 21.8313C22.753 21.8742 22.731 21.9172 22.731 21.9816C22.731 22.0031 22.731 22.0246 22.731 22.0461C22.731 22.089 22.753 22.1105 22.7972 22.132C22.8635 22.2179 22.9298 22.2824 22.9961 22.3683C23.0182 22.4113 23.0623 22.4542 23.1065 22.4757C23.1286 22.4972 23.1507 22.5187 23.1728 22.5187C23.1949 22.5401 23.217 22.5616 23.2391 22.5616C23.2612 22.5831 23.2833 22.5831 23.3274 22.5831C23.3937 22.6046 23.46 22.5831 23.5042 22.5401C23.5484 22.4972 23.5926 22.4542 23.5926 22.3898C23.5705 22.4113 23.5705 22.3898 23.5484 22.3683Z" fill="#DDA85B"/>
<path d="M23.0626 22.6475C23.0405 22.6261 23.0184 22.5831 22.9963 22.5616C22.9742 22.5401 22.9742 22.5401 22.9521 22.5187L22.93 22.4972C22.9079 22.4542 22.8858 22.4112 22.8637 22.3898C22.8416 22.3683 22.8416 22.3468 22.8195 22.3468C22.7975 22.3253 22.7754 22.3253 22.7533 22.3038C22.7312 22.3038 22.7091 22.3038 22.7091 22.3038C22.687 22.3038 22.6649 22.3038 22.6428 22.3253C22.5986 22.3468 22.5765 22.3683 22.5544 22.4112C22.5323 22.4542 22.5103 22.5187 22.5323 22.5616C22.5544 22.6046 22.5765 22.6476 22.5986 22.6905C22.6207 22.7335 22.6428 22.755 22.6649 22.7979C22.687 22.8194 22.687 22.8409 22.7091 22.8624C22.7312 22.8839 22.7533 22.9053 22.7975 22.9268C22.8416 22.9483 22.8858 22.9698 22.93 22.9698C22.9521 22.9698 22.9521 22.9698 22.9742 22.9698C23.0184 22.9698 23.0626 22.9483 23.1067 22.9053C23.1288 22.8839 23.1288 22.8624 23.1288 22.8624C23.1288 22.8409 23.1288 22.7979 23.1288 22.7764C23.0847 22.712 23.0847 22.669 23.0626 22.6475Z" fill="#DDA85B"/>
<path d="M22.3557 23.378C22.3557 23.3565 22.3336 23.335 22.3115 23.3135C22.2673 23.2491 22.2231 23.2061 22.1789 23.1417C22.1568 23.1202 22.1347 23.1202 22.1126 23.0987C22.0905 23.0773 22.0685 23.0773 22.0464 23.0773C22.0243 23.0773 22.0022 23.0773 21.9801 23.0987C21.958 23.0987 21.9359 23.1202 21.9138 23.1417C21.9138 23.1632 21.8917 23.1632 21.8917 23.1847C21.8696 23.2061 21.8696 23.2491 21.8696 23.2706C21.8696 23.2921 21.8696 23.3135 21.8696 23.3135C21.8696 23.335 21.8917 23.378 21.9138 23.3995C21.9801 23.4424 22.0243 23.4854 22.0906 23.5284C22.1126 23.5498 22.1347 23.5498 22.1568 23.5713C22.1789 23.5713 22.201 23.5928 22.2231 23.5928C22.2452 23.5928 22.2673 23.5928 22.2894 23.5713C22.3115 23.5713 22.3336 23.5498 22.3557 23.5284C22.3557 23.5069 22.3778 23.5069 22.3778 23.4854C22.3998 23.4639 22.3998 23.421 22.3998 23.3995C22.3557 23.3995 22.3557 23.3995 22.3557 23.378Z" fill="#DDA85B"/>
<path d="M11.8839 25.9772C11.8839 25.9342 11.8618 25.8698 11.8176 25.8268C11.7734 25.7839 11.7292 25.7624 11.6629 25.7624C11.5525 25.7624 11.4641 25.8483 11.4641 25.9557C11.4641 25.9987 11.4641 26.0417 11.442 26.0846C11.442 26.1276 11.4199 26.1705 11.4199 26.192C11.3978 26.2565 11.3978 26.3209 11.3978 26.3854C11.3978 26.3639 11.3978 26.3424 11.3978 26.3209C11.3978 26.3639 11.3757 26.4068 11.3757 26.4283C11.3757 26.4713 11.3757 26.5357 11.3757 26.5787C11.3757 26.6646 11.442 26.7291 11.5083 26.7506C11.5967 26.772 11.6629 26.7291 11.7292 26.6646C11.7513 26.6432 11.7513 26.6217 11.7734 26.6002C11.7955 26.5572 11.8176 26.5143 11.8176 26.4928C11.8397 26.4283 11.8618 26.3639 11.8618 26.278C11.906 26.2135 11.906 26.0846 11.8839 25.9772Z" fill="#DDA85B"/>
<path d="M12.2592 27.6528C12.2371 27.6314 12.1709 27.6099 12.1267 27.6099C12.0825 27.6099 12.0383 27.6314 11.9941 27.6528C11.972 27.6958 11.95 27.7173 11.95 27.7817C11.95 27.8247 11.95 27.8891 11.95 27.9321C11.95 27.9751 11.95 28.018 11.95 28.0395C11.95 28.061 11.972 28.0825 11.972 28.104C11.9941 28.1684 12.0383 28.2114 12.1046 28.2114C12.1709 28.2114 12.2151 28.1684 12.2372 28.104C12.2372 28.0825 12.2592 28.061 12.2592 28.0395C12.2592 27.9966 12.2592 27.9536 12.2592 27.9321C12.2592 27.8891 12.2592 27.8247 12.2592 27.7817C12.3255 27.7388 12.3034 27.6958 12.2592 27.6528Z" fill="#DDA85B"/>
<path d="M36.2517 26.4714C36.2296 26.3425 36.2075 26.2136 36.1633 26.0847C36.1412 26.0203 36.097 25.9988 36.0308 25.9988C35.9645 25.9988 35.9203 26.0632 35.9203 26.1062C35.9203 26.2351 35.9424 26.364 35.9203 26.4714C35.9203 26.5358 35.8982 26.6003 35.8982 26.6647C35.8982 26.7506 35.8761 26.858 35.9645 26.901C36.0087 26.944 36.0749 26.944 36.1412 26.9225C36.2517 26.8795 36.2517 26.7721 36.2517 26.6647C36.2738 26.6218 36.2517 26.5573 36.2517 26.4714Z" fill="#E2A656"/>
<path d="M36.8703 26.9441C36.8703 26.8796 36.8482 26.7937 36.8482 26.7293C36.8261 26.6218 36.804 26.493 36.7599 26.3855C36.7378 26.3211 36.6715 26.2567 36.5831 26.2781C36.5168 26.2781 36.4285 26.3426 36.4506 26.4285C36.4727 26.6004 36.4727 26.7722 36.4506 26.9656C36.4506 26.9441 36.4506 26.9226 36.4506 26.9011C36.4506 26.9441 36.4285 26.987 36.4285 27.03C36.4285 27.0515 36.4285 27.073 36.4285 27.1159C36.4506 27.1804 36.4727 27.2019 36.5389 27.2448C36.6052 27.2878 36.6715 27.2663 36.7378 27.2448C36.8482 27.1804 36.8703 27.0515 36.8703 26.9441Z" fill="#E2A656"/>
<path d="M35.6772 24.6024C35.633 24.4735 35.5226 24.3661 35.39 24.3661C35.3679 24.1513 35.3016 23.915 35.2133 23.7216C35.147 23.5927 34.9702 23.5927 34.8819 23.6787C34.7714 23.7861 34.683 23.9365 34.6389 24.0868C34.5947 24.2587 34.8377 24.3661 34.9481 24.2372C34.9702 24.3876 34.9923 24.5594 34.9702 24.7098C34.9481 24.8172 34.9923 24.9246 35.1028 24.9676C35.147 24.9891 35.2133 24.9891 35.2795 24.9676C35.2795 25.032 35.2795 25.0965 35.2795 25.1609C35.2795 25.2898 35.2795 25.4187 35.4121 25.4832C35.4563 25.5261 35.5446 25.5046 35.5888 25.4832C35.7656 25.3757 35.7214 25.1824 35.7214 25.0106C35.6993 24.8602 35.6993 24.7313 35.6772 24.6024Z" fill="#E2A656"/>
<path d="M38.1738 28.8346C38.1517 28.7487 38.0412 28.6627 37.9308 28.7057C37.8203 28.7272 37.754 28.8346 37.7982 28.942C37.8203 28.985 37.8203 29.0279 37.8203 29.0709V29.0924V29.1353C37.8203 29.2213 37.8203 29.2857 37.8203 29.3716V29.3931C37.8203 29.4146 37.8203 29.4146 37.8203 29.4361C37.8203 29.479 37.7982 29.522 37.7761 29.565C37.754 29.6509 37.7319 29.7153 37.7098 29.8013C37.6878 29.8657 37.7319 29.9516 37.7982 29.9946C37.8645 30.0376 37.9529 30.0161 38.0191 29.9731C38.0633 29.9302 38.0854 29.8872 38.1075 29.8442C38.1517 29.8013 38.1517 29.7368 38.1738 29.6939C38.218 29.6079 38.218 29.5005 38.2401 29.3931C38.2622 29.1998 38.2401 29.0064 38.1738 28.8346Z" fill="#E2A656"/>
<path d="M38.0411 32.8731C38.019 32.8731 37.9969 32.8946 37.9748 32.916C38.019 32.8301 38.0411 32.7442 38.0853 32.6368C38.2179 32.2931 38.262 31.9279 38.1958 31.5627C38.1737 31.4553 37.9969 31.3908 37.9086 31.4982C37.5993 31.8634 37.29 32.2286 37.0249 32.6368C36.9365 32.7657 37.1574 32.8946 37.2458 32.7657C37.4446 32.5079 37.6435 32.2716 37.8644 32.0353C37.8423 32.2071 37.7981 32.4005 37.7318 32.5723C37.6655 32.7227 37.5993 32.8731 37.533 33.0235C37.4667 33.1738 37.3563 33.3242 37.3121 33.4746C37.2679 33.6464 37.4667 33.7109 37.5772 33.6249C37.6435 33.5605 37.6876 33.4746 37.7539 33.3886C37.776 33.3672 37.8202 33.3242 37.8423 33.3027C37.8644 33.3027 37.8644 33.2812 37.8865 33.2812C37.8644 33.3672 37.8423 33.4531 37.8202 33.5175C37.7539 33.6894 37.6435 33.8398 37.5551 34.0116C37.4667 34.1835 37.6876 34.3553 37.8202 34.2264C38.1295 33.9257 38.262 33.4531 38.262 33.0235C38.2399 32.9375 38.1295 32.8301 38.0411 32.8731Z" fill="#E2A656"/>
<path d="M37.0471 36.1383C36.9587 36.0953 36.8703 36.1168 36.804 36.2027C36.7599 36.2886 36.7157 36.3531 36.6715 36.439C36.6494 36.482 36.6273 36.5035 36.6052 36.5464C36.5831 36.5679 36.5831 36.6109 36.561 36.6323C36.561 36.6538 36.561 36.6753 36.561 36.6968C36.561 36.7183 36.561 36.7612 36.561 36.7827C36.5831 36.8042 36.5831 36.8257 36.6273 36.8472C36.6936 36.8686 36.7378 36.8686 36.804 36.8257C36.8261 36.8042 36.8482 36.8042 36.8482 36.7827C36.8703 36.7612 36.8924 36.7183 36.9145 36.6968C36.9366 36.6538 36.9587 36.6323 36.9808 36.5894C37.025 36.5034 37.0692 36.439 37.1133 36.3531C37.1575 36.2886 37.1354 36.1812 37.0471 36.1383Z" fill="#E2A656"/>
<path d="M18.9755 14.1622C18.9755 14.1407 18.9755 14.1192 18.9755 14.1192C18.9755 14.0977 18.9976 14.0548 18.9976 14.0333C19.0197 13.9044 18.9534 13.754 18.8208 13.7325C18.6883 13.7111 18.5557 13.7755 18.5115 13.9044C18.4452 14.1407 18.4011 14.377 18.379 14.6348C18.3569 14.8926 18.3348 15.2363 18.5778 15.4081C18.6883 15.4941 18.865 15.4941 18.9313 15.3652C19.0196 15.2148 19.0197 15.0644 18.9976 14.914C18.9976 14.8926 18.9976 14.8711 18.9755 14.8496C18.9755 14.9355 18.9755 14.8281 18.9755 14.8066C18.9755 14.7637 18.9755 14.6992 18.9534 14.6563C18.9534 14.5488 18.9534 14.4414 18.9534 14.334C18.9755 14.2696 18.9755 14.2051 18.9755 14.1622Z" fill="#BC7F2E"/>
<path d="M19.7708 14.9357C19.7487 14.8497 19.7266 14.7853 19.6824 14.6994C19.6603 14.6564 19.6603 14.6349 19.6382 14.592C19.6162 14.5275 19.5941 14.506 19.5499 14.4416C19.5278 14.4201 19.5278 14.4201 19.5057 14.3986C19.4394 14.3342 19.3289 14.3127 19.2406 14.3557C19.1522 14.3986 19.108 14.4845 19.0859 14.5705C19.0859 14.592 19.0859 14.6349 19.0859 14.6564C19.0859 14.6994 19.108 14.7423 19.108 14.7853C19.108 14.8497 19.1301 14.8927 19.1301 14.9571C19.1301 14.9357 19.1301 14.9142 19.1301 14.8712C19.1522 15.0001 19.1743 15.129 19.1964 15.2579C19.1964 15.2364 19.1964 15.1934 19.1743 15.172C19.1964 15.2794 19.1964 15.3653 19.2406 15.4512C19.2627 15.5157 19.3069 15.5586 19.3731 15.6016C19.4836 15.709 19.6382 15.666 19.7045 15.5586C19.7708 15.4512 19.815 15.3653 19.815 15.2364C19.8371 15.1505 19.7929 15.0431 19.7708 14.9357Z" fill="#BC7F2E"/>
<path d="M20.809 15.2793C20.7869 15.2149 20.7648 15.1504 20.7427 15.1075L20.7648 15.1719C20.7427 15.1075 20.7206 15.043 20.6985 14.9786C20.6985 14.9141 20.6985 14.8712 20.6985 14.8067C20.6985 14.7423 20.6764 14.6778 20.6323 14.6349C20.5881 14.5919 20.5439 14.5704 20.4997 14.5704C20.3892 14.5489 20.2567 14.6349 20.2346 14.7423C20.1904 14.9141 20.1904 15.0645 20.2125 15.2364C20.2346 15.3223 20.2567 15.3867 20.2788 15.4727C20.3009 15.4941 20.3009 15.5371 20.323 15.5586C20.3672 15.623 20.4113 15.6445 20.4776 15.6875C20.5218 15.709 20.566 15.709 20.5881 15.709C20.6323 15.709 20.6985 15.6875 20.7206 15.666C20.7648 15.623 20.7869 15.6016 20.809 15.5371C20.809 15.5586 20.7869 15.5801 20.7869 15.5801C20.7869 15.5586 20.809 15.5371 20.809 15.5156C20.809 15.4727 20.809 15.4512 20.809 15.4082C20.8311 15.3438 20.8311 15.3008 20.809 15.2793Z" fill="#BC7F2E"/>
<path d="M3.24548 11.6489C3.22339 11.5415 3.11293 11.477 3.00247 11.477C2.89201 11.477 2.78154 11.5415 2.75945 11.6489C2.73736 11.7563 2.69317 11.8852 2.64899 11.9926C2.6269 12.0141 2.6269 12.0355 2.60481 12.0785C2.60481 12.057 2.6269 12.0355 2.6269 12.0141C2.58272 12.1215 2.51644 12.2289 2.42807 12.3363C2.36179 12.4222 2.29551 12.5081 2.27342 12.6156C2.25133 12.7015 2.27342 12.8089 2.3397 12.8733C2.40598 12.9378 2.49434 12.9593 2.60481 12.9378C2.75945 12.9163 2.89201 12.7874 2.98037 12.6585C3.04665 12.5726 3.09084 12.4867 3.13502 12.4007C3.17921 12.2933 3.22339 12.1859 3.24548 12.057C3.24548 11.9926 3.26758 11.9281 3.26758 11.8637C3.28967 11.7778 3.26757 11.7133 3.24548 11.6489Z" fill="#BC7F2E"/>
<path d="M3.28969 12.4437C3.15714 12.6585 3.04667 12.8518 2.91412 13.0666C2.84784 13.174 2.78157 13.26 2.71529 13.3674C2.6711 13.4318 2.64901 13.4963 2.62692 13.5822C2.60483 13.6681 2.60483 13.7326 2.62692 13.8185C2.64901 13.9259 2.78156 13.9904 2.86993 13.9474C2.9583 13.9259 3.02458 13.8829 3.09086 13.84C3.13504 13.797 3.20132 13.7326 3.22341 13.6681C3.28969 13.5607 3.35597 13.4318 3.40015 13.3029C3.51061 13.0666 3.57689 12.8303 3.64316 12.594C3.68735 12.3792 3.40015 12.2503 3.28969 12.4437Z" fill="#BC7F2E"/>
<path d="M7.00141 3.89417C6.93513 3.87269 6.86886 3.89418 6.82467 3.91566C6.75839 3.95862 6.7363 4.00159 6.71421 4.06603C6.67002 4.19492 6.60374 4.32382 6.55956 4.45271C6.53747 4.51715 6.51538 4.5816 6.49329 4.64604C6.47119 4.68901 6.47119 4.73197 6.47119 4.79642C6.47119 4.83938 6.47119 4.86086 6.47119 4.90383C6.47119 4.96827 6.51538 5.03272 6.58165 5.07568C6.64793 5.09717 6.7363 5.09717 6.78048 5.03272C6.80258 5.01124 6.82467 4.98976 6.84676 4.96827C6.89095 4.92531 6.91304 4.88235 6.93513 4.83938C6.97932 4.75346 7.00141 4.68901 7.0456 4.60308C7.08978 4.47419 7.13397 4.3453 7.20024 4.2164C7.20024 4.06603 7.11187 3.91566 7.00141 3.89417Z" fill="#BC7F2E"/>
<path d="M23.3716 7.93255C23.3495 7.8681 23.3275 7.80366 23.3054 7.73921C23.2612 7.61032 23.217 7.48142 23.1728 7.37401C23.1507 7.2666 23.0402 7.20215 22.9298 7.22364C22.8414 7.24512 22.731 7.33105 22.731 7.43846C22.753 7.56735 22.753 7.69624 22.7751 7.82514C22.7751 7.91107 22.7972 7.99699 22.8193 8.06144C22.8193 8.10441 22.8414 8.12589 22.8414 8.16885C22.8414 8.19033 22.8635 8.2333 22.8856 8.25478C22.9077 8.29774 22.9519 8.34071 22.9961 8.36219C23.0402 8.40515 23.1286 8.40516 23.1949 8.38367C23.2612 8.36219 23.3054 8.31923 23.3495 8.27626C23.4379 8.16885 23.3937 8.06144 23.3716 7.93255Z" fill="#BC7F2E"/>
<path d="M24.0125 7.61037C23.9683 7.48148 23.902 7.33111 23.8578 7.20222C23.7474 6.92295 23.6369 6.62221 23.4602 6.36443C23.416 6.2785 23.3055 6.25702 23.2172 6.2785C23.1288 6.32146 23.0846 6.40739 23.1067 6.49332C23.1509 6.79406 23.2393 7.07333 23.3497 7.35259C23.3939 7.48148 23.4381 7.63185 23.4823 7.76074C23.5486 7.9326 23.6148 8.12593 23.8137 8.1689C23.902 8.19038 23.9683 8.14741 24.0125 8.08297C24.123 7.95408 24.0567 7.76074 24.0125 7.61037Z" fill="#BC7F2E"/>
<path d="M24.5205 6.8585C24.4985 6.81553 24.4764 6.77257 24.4764 6.7296C24.4764 6.70812 24.4543 6.68664 24.4543 6.66516C24.4322 6.6222 24.4101 6.57923 24.388 6.55775C24.3438 6.49331 24.2996 6.45034 24.2554 6.3859C24.2333 6.36441 24.2112 6.36441 24.2112 6.34293C24.1892 6.32145 24.145 6.32145 24.1229 6.32145C24.0787 6.32145 24.0124 6.32145 23.9682 6.34293C23.9241 6.36441 23.902 6.3859 23.8799 6.42886C23.8357 6.4933 23.8357 6.55775 23.8578 6.6222C23.8578 6.66516 23.8799 6.72961 23.902 6.77257C23.924 6.83702 23.9461 6.90146 23.9903 6.96591C24.0124 7.00887 24.0345 7.05184 24.0566 7.0948C24.0787 7.13776 24.1008 7.15925 24.145 7.18073C24.1671 7.20221 24.1892 7.22369 24.2112 7.22369C24.2333 7.24517 24.2775 7.26665 24.2996 7.28814C24.3438 7.30962 24.388 7.28814 24.4322 7.28814C24.5205 7.24517 24.5647 7.18073 24.5647 7.0948C24.5426 6.98739 24.5426 6.92294 24.5205 6.8585Z" fill="#BC7F2E"/>
</svg>
