<svg width="17" height="20" viewBox="0 0 17 20" fill="none" xmlns="http://www.w3.org/2000/svg">
<path fill-rule="evenodd" clip-rule="evenodd" d="M8.7395 0.0639648C13.2885 0.0639648 16.9895 3.79296 16.9895 8.37696C16.9895 14.012 10.5335 19.564 8.7395 19.564C6.9455 19.564 0.489502 14.012 0.489502 8.37696C0.489502 3.79296 4.1905 0.0639648 8.7395 0.0639648ZM8.7395 1.56396C5.0175 1.56396 1.9895 4.62096 1.9895 8.37696C1.9895 13.156 7.6135 17.812 8.7395 18.06C9.8655 17.811 15.4895 13.155 15.4895 8.37696C15.4895 4.62096 12.4615 1.56396 8.7395 1.56396ZM8.7405 5.06396C10.5325 5.06396 11.9905 6.52196 11.9905 8.31496C11.9905 10.107 10.5325 11.564 8.7405 11.564C6.9485 11.564 5.4905 10.107 5.4905 8.31496C5.4905 6.52196 6.9485 5.06396 8.7405 5.06396ZM8.7405 6.56396C7.7755 6.56396 6.9905 7.34896 6.9905 8.31496C6.9905 9.27996 7.7755 10.064 8.7405 10.064C9.7055 10.064 10.4905 9.27996 10.4905 8.31496C10.4905 7.34896 9.7055 6.56396 8.7405 6.56396Z" fill="#FF7717"/>
</svg>
