<svg width="18" height="21" viewBox="0 0 18 21" fill="none" xmlns="http://www.w3.org/2000/svg">
<path d="M12.8625 0.563965C16.0585 0.563965 17.9695 2.48396 17.9995 5.69596V15.355C17.9995 18.612 16.0835 20.564 12.8625 20.564H5.13751C4.72551 20.564 4.33451 20.532 3.96651 20.469L3.74851 20.428C1.37751 19.935 -0.000488281 18.119 -0.000488281 15.355V5.77296C-0.000488281 5.43896 0.0195117 5.11897 0.0595117 4.81296C0.408512 2.12796 2.25351 0.563965 5.13751 0.563965H12.8625ZM12.8535 2.02096H5.13751C2.68151 2.02096 1.43651 3.28396 1.43651 5.77296V15.355C1.43651 17.844 2.68151 19.107 5.13751 19.107H12.8535C15.3085 19.107 16.5455 17.844 16.5455 15.355V5.77296C16.5455 3.28396 15.3085 2.02096 12.8535 2.02096ZM12.5925 14.074C12.9865 14.074 13.3055 14.398 13.3055 14.798C13.3055 15.198 12.9865 15.522 12.5925 15.522H5.38151C4.98751 15.522 4.66751 15.198 4.66751 14.798C4.66751 14.398 4.98751 14.074 5.38151 14.074H12.5925ZM12.5925 9.83496C12.8675 9.80497 13.1365 9.93696 13.2835 10.174C13.4305 10.413 13.4305 10.715 13.2835 10.954C13.1365 11.191 12.8675 11.323 12.5925 11.293H5.38151C5.01551 11.251 4.73851 10.938 4.73851 10.564C4.73851 10.19 5.01551 9.87597 5.38151 9.83496H12.5925ZM8.13351 5.60596C8.49951 5.64696 8.77651 5.96096 8.77651 6.33496C8.77651 6.70796 8.49951 7.02197 8.13351 7.06296H5.39051C5.02351 7.02197 4.74651 6.70796 4.74651 6.33496C4.74651 5.96096 5.02351 5.64696 5.39051 5.60596H8.13351Z" fill="#FF7717"/>
</svg>
