<svg width="24" height="24" viewBox="0 0 24 24" fill="none" xmlns="http://www.w3.org/2000/svg">
<g clip-path="url(#clip0)">
<path d="M13 7.03001C15.99 7.03001 18.61 8.79001 19.53 11.4L20.89 15.29C21.16 16.06 20.93 16.89 20.31 17.44C19.6 18.07 18.58 18.21 17.71 17.79C16.5 17.2 15.19 16.85 13.86 16.75C13.42 15.16 11.97 14 10.25 14L9.99997 14L9.99997 13.75C9.99997 12 8.79997 10.53 7.17997 10.12C8.46997 8.17001 10.57 7.03001 13 7.03001Z" fill="#FF7717"/>
<path d="M15.541 5.583C16.404 5.583 17.39 4.91 18.034 3.792C18.413 3.136 18.616 2.423 18.605 1.783C18.592 1.06 18.3 0.481002 17.802 0.194002C17.304 -0.0939981 16.657 -0.0569982 16.025 0.294002C15.465 0.605002 14.949 1.137 14.571 1.793C14.192 2.448 13.989 3.161 14 3.801C14.013 4.523 14.305 5.103 14.803 5.39C15.029 5.521 15.279 5.583 15.541 5.583Z" fill="#FF7717"/>
<path d="M10.4591 5.58299C10.7211 5.58299 10.9711 5.52099 11.1971 5.39099C11.6951 5.10299 11.9871 4.52299 12.0001 3.80099C12.0111 3.16099 11.8081 2.44799 11.4291 1.79199C11.0511 1.13599 10.5341 0.603994 9.97506 0.292993C9.34206 -0.0570066 8.69506 -0.0940067 8.19806 0.192993C7.70006 0.479993 7.40806 1.05999 7.39506 1.78199C7.38406 2.42199 7.58706 3.13499 7.96606 3.79099C8.61006 4.90899 9.59706 5.58299 10.4591 5.58299Z" fill="#FF7717"/>
<path d="M20.855 8.82399C21.002 8.82399 21.155 8.80799 21.31 8.77799C21.907 8.65799 22.507 8.32099 23.001 7.82699C24.092 6.73699 24.324 5.26099 23.531 4.46799C23.132 4.06899 22.522 3.91699 21.863 4.04699C21.266 4.16699 20.666 4.50399 20.173 4.99799C19.082 6.08799 18.85 7.56399 19.643 8.35699C19.948 8.66299 20.376 8.82399 20.855 8.82399Z" fill="#FF7717"/>
<path d="M5.14505 8.824C5.62405 8.824 6.05205 8.662 6.35705 8.356C7.15005 7.564 6.91805 6.088 5.82705 4.998C5.33405 4.504 4.73304 4.166 4.13704 4.047C3.47604 3.915 2.86805 4.068 2.46905 4.468C1.67604 5.261 1.90805 6.737 2.99905 7.827C3.49305 8.321 4.09405 8.659 4.69005 8.778C4.84505 8.809 4.99705 8.824 5.14505 8.824ZM5.47305 5.352L5.46305 5.352L5.47305 5.352Z" fill="#FF7717"/>
<path d="M6.5 23.53C6.086 23.53 5.75 23.194 5.75 22.78L5.75 13.28C5.75 12.866 6.086 12.53 6.5 12.53C6.914 12.53 7.25 12.866 7.25 13.28L7.25 22.78C7.25 23.194 6.914 23.53 6.5 23.53Z" fill="#FF7717" stroke="#FF7717"/>
<path d="M11.25 18.7801L1.75 18.7801C1.336 18.7801 1 18.4441 1 18.0301C1 17.6161 1.336 17.2801 1.75 17.2801L11.25 17.2801C11.664 17.2801 12 17.6161 12 18.0301C12 18.4441 11.664 18.7801 11.25 18.7801Z" fill="#FF7717" stroke="#FF7717"/>
</g>
<defs>
<clipPath id="clip0">
<rect width="24" height="24" fill="white" transform="matrix(-1 -8.74228e-08 -8.74228e-08 1 24 0)"/>
</clipPath>
</defs>
</svg>
