<svg width="29" height="29" viewBox="0 0 29 29" fill="none" xmlns="http://www.w3.org/2000/svg">
<path d="M3.93668 28.4254C4.46636 28.4254 4.98234 28.316 5.48462 28.0972C5.98691 27.8785 6.35677 27.6688 6.59421 27.4683C6.83165 27.2678 7.11476 27.0035 7.44353 26.6754C8.61248 27.842 10.3659 28.4254 12.7038 28.4254H25.8545C26.0919 28.4254 26.2974 28.3388 26.4709 28.1656C26.6444 27.9924 26.7312 27.7873 26.7312 27.5504C26.7312 27.3134 26.6444 27.1083 26.4709 26.9351C26.2974 26.7619 26.0919 26.6754 25.8545 26.6754C25.6353 26.6754 25.375 26.4703 25.0737 26.0601C24.7723 25.65 24.4846 25.1304 24.2106 24.5015C23.9367 23.8726 23.7038 23.1207 23.512 22.2457C23.3202 21.3707 23.2243 20.5139 23.2243 19.6754C23.2243 19.2014 23.2837 18.8004 23.4024 18.4722C23.5211 18.1441 23.6673 17.8616 23.8408 17.6246C24.0143 17.3876 24.1878 17.1278 24.3613 16.8453C24.5348 16.5627 24.681 16.1435 24.7997 15.5875C24.9184 15.0315 24.9778 14.3524 24.9778 13.5504C24.9778 13.0764 24.9184 12.689 24.7997 12.3882C24.681 12.0875 24.5348 11.8596 24.3613 11.7047C24.1878 11.5497 24.0143 11.3902 23.8408 11.2261C23.6673 11.0621 23.5211 10.8114 23.4024 10.4742C23.2837 10.1369 23.2243 9.704 23.2243 9.17535C23.2243 8.00869 23.8088 7.42535 24.9778 7.42535C25.7997 7.42535 26.5896 7.1109 27.3476 6.48199C28.1056 5.85309 28.4846 5.29254 28.4846 4.80035C28.4846 4.38108 28.2883 3.9846 27.8956 3.6109C27.5029 3.2372 27.1148 3.05035 26.7312 3.05035C26.4207 3.05035 26.133 2.95921 25.8682 2.77692C25.6033 2.59462 25.3522 2.37587 25.1148 2.12067C24.8773 1.86546 24.617 1.61025 24.3339 1.35504C24.0508 1.09983 23.6673 0.881083 23.1832 0.698792C22.6992 0.5165 22.1285 0.425354 21.4709 0.425354C20.6125 0.425354 19.9138 0.525614 19.375 0.726135C18.8362 0.926656 18.4344 1.18642 18.1696 1.50543C17.9047 1.82444 17.6901 2.27106 17.5257 2.84528C17.3613 3.41949 17.2472 3.98916 17.1833 4.55426C17.1193 5.11936 17.0052 5.83942 16.8408 6.71442C16.6764 7.58942 16.4664 8.40973 16.2106 9.17535C15.8636 10.2144 15.0463 11.5406 13.7586 13.1539C12.4709 14.7672 11.5348 15.7743 10.9504 16.1754C8.61248 17.7248 7.44353 20.0582 7.44353 23.1754C7.44353 24.0686 6.92298 24.8752 5.88188 25.5953C4.84079 26.3153 3.60791 26.6754 2.18325 26.6754C1.70837 26.6754 1.15129 26.5842 0.51202 26.4019C0.676403 27.0399 1.07823 27.5367 1.7175 27.8922C2.35677 28.2476 3.09649 28.4254 3.93668 28.4254ZM19.7175 19.6754C19.7723 19.967 19.8454 20.3453 19.9367 20.8101C20.028 21.275 20.2243 21.9813 20.5257 22.9293C20.8271 23.8772 21.1422 24.5425 21.4709 24.9254H17.9641C17.9641 24.1415 18.0554 23.4625 18.238 22.8882C18.4207 22.314 18.6216 21.8993 18.8408 21.6441C19.06 21.3889 19.2609 21.0927 19.4435 20.7554C19.6262 20.4182 19.7175 20.0582 19.7175 19.6754Z" fill="#FF7717"/>
</svg>
