<svg width="37" height="38" viewBox="0 0 37 38" fill="none" xmlns="http://www.w3.org/2000/svg">
<rect y="0.344971" width="37" height="37" rx="12" fill="#C5C9F7" fill-opacity="0.14"/>
<path d="M11.5001 20.0117H13.1668V25.845C13.1668 26.066 13.2546 26.278 13.4109 26.4342C13.5671 26.5905 13.7791 26.6783 14.0001 26.6783H24.0001C24.2211 26.6783 24.4331 26.5905 24.5894 26.4342C24.7456 26.278 24.8334 26.066 24.8334 25.845V20.0117H26.5001C26.6612 20.0118 26.8188 19.9652 26.9538 19.8775C27.0889 19.7897 27.1956 19.6647 27.2609 19.5175C27.3267 19.3704 27.3484 19.2073 27.3232 19.0481C27.2981 18.8889 27.2272 18.7405 27.1193 18.6208L19.6193 10.2875C19.3034 9.93583 18.6968 9.93583 18.3809 10.2875L10.8809 18.6208C10.7732 18.7405 10.7024 18.8889 10.6772 19.048C10.6521 19.2071 10.6735 19.3701 10.739 19.5172C10.8045 19.6644 10.9113 19.7894 11.0464 19.8771C11.1814 19.9649 11.339 20.0116 11.5001 20.0117ZM16.4576 19.7483C16.4834 19.8275 17.1351 21.6783 19.0001 21.6783C20.8909 21.6783 21.5351 19.7725 21.5418 19.7525L23.1251 20.27C23.0843 20.3958 22.0859 23.345 19.0001 23.345C15.9143 23.345 14.9159 20.3958 14.8751 20.2708L16.4576 19.7483Z" fill="#C5C9F7"/>
</svg>
