<svg width="25" height="25" viewBox="0 0 25 25" fill="none" xmlns="http://www.w3.org/2000/svg">
<path d="M24.3495 4.37477L21.0349 1.06019C20.2125 0.237771 18.8743 0.237725 18.0518 1.06019C17.2293 1.88266 17.2294 3.22085 18.0518 4.04332L18.2176 4.20907L16.5603 5.86633L15.7316 5.03768C14.9092 4.21526 13.571 4.21521 12.7485 5.03768C12.1004 5.68586 11.9634 6.65416 12.3368 7.43805L5.12504 14.6499C4.47689 15.2981 4.33993 16.2664 4.71338 17.0503L3.79922 17.9644C3.15957 18.6041 3.15957 19.645 3.79922 20.2846L3.96497 20.4504L1.17225 23.2431C0.89766 23.5177 0.89766 23.9628 1.17225 24.2374C1.44685 24.512 1.89202 24.512 2.16661 24.2374L4.95929 21.4448L5.12499 21.6105C5.76464 22.2502 6.8055 22.2502 7.44516 21.6105L8.35932 20.6964C9.14325 21.0698 10.1116 20.9328 10.7597 20.2847L17.9715 13.0729C18.7555 13.4463 19.7238 13.3094 20.3719 12.6612C21.1944 11.8388 21.1944 10.5006 20.3719 9.67811L19.5433 8.84946L21.2005 7.19219L21.3663 7.35794C22.1888 8.18041 23.5269 8.18041 24.3494 7.35794C25.1719 6.53543 25.1719 5.19724 24.3495 4.37477ZM6.45085 20.6161C6.35949 20.7075 6.21075 20.7075 6.11939 20.6161L4.79358 19.2903C4.70222 19.1989 4.70222 19.0502 4.79358 18.9589L5.62224 18.1302L7.2795 19.7875L6.45085 20.6161ZM9.76543 19.2903C9.49125 19.5645 9.04524 19.5645 8.77107 19.2903L6.11939 16.6387C5.84522 16.3645 5.84522 15.9185 6.11939 15.6443L6.73603 15.0277L7.56469 15.8563C7.83929 16.1309 8.28446 16.1309 8.55905 15.8563C8.83364 15.5817 8.83364 15.1365 8.55905 14.8619L7.73039 14.0333L8.72475 13.0389L9.55341 13.8676C9.828 14.1422 10.2732 14.1422 10.5478 13.8676C10.8224 13.593 10.8224 13.1478 10.5478 12.8732L9.71911 12.0446L10.7135 11.0502L14.3595 14.6962L9.76543 19.2903ZM15.3539 13.7018L11.7078 10.0558L13.2457 8.51796L16.8917 12.164L15.3539 13.7018ZM19.3777 11.6668C19.1035 11.941 18.6575 11.941 18.3833 11.6668L13.7429 7.0264C13.4688 6.75222 13.4687 6.30616 13.7429 6.03204C14.0171 5.75786 14.4631 5.75786 14.7373 6.03204L19.3777 10.6724C19.6518 10.9466 19.6518 11.3927 19.3777 11.6668ZM18.549 7.85505L17.5546 6.86069L19.2119 5.20343L20.2063 6.19779L18.549 7.85505ZM23.3551 6.36349C23.0809 6.63766 22.6349 6.63766 22.3607 6.36349L19.0462 3.04891C18.772 2.77474 18.772 2.32872 19.0462 2.05455C19.3203 1.78038 19.7664 1.78043 20.0405 2.05455L23.3551 5.36913C23.6293 5.6433 23.6293 6.08937 23.3551 6.36349Z" fill="#FF7717"/>
</svg>
