<svg width="25" height="19" viewBox="0 0 25 19" fill="none" xmlns="http://www.w3.org/2000/svg">
<path d="M24.2637 13.878H24.0938L22.6706 8.11919C22.5121 7.47794 21.901 6.77467 21.0175 6.56598C20.8281 5.70597 20.3811 4.92123 19.7251 4.31359C18.9922 3.63466 18.0582 3.23289 17.0681 3.1653C16.461 1.45652 14.819 0.267578 12.9669 0.267578C11.1145 0.267578 9.47231 1.45652 8.86523 3.1653C7.87542 3.23294 6.94148 3.6347 6.20864 4.31359C5.55267 4.92128 5.10567 5.70602 4.9163 6.56598C4.15041 6.74692 3.52289 7.30726 3.27656 8.07245C3.27159 8.08787 3.26719 8.10348 3.2633 8.11923L1.84003 13.878H1.66992C1.28161 13.878 0.966797 14.1928 0.966797 14.5811V17.9149C0.966797 18.3032 1.28161 18.618 1.66992 18.618H24.2637C24.652 18.618 24.9668 18.3032 24.9668 17.9149V14.5811C24.9668 14.1928 24.652 13.878 24.2637 13.878ZM9.35414 4.56798C9.70284 4.58936 10.0134 4.35194 10.0851 4.01055C10.3692 2.65656 11.5811 1.67383 12.9669 1.67383C14.3525 1.67383 15.5642 2.65656 15.8483 4.01055C15.92 4.35198 16.2317 4.58931 16.5794 4.56798C17.9373 4.48483 19.1078 5.32895 19.5373 6.50336H6.39661C6.82463 5.3327 7.99195 4.48469 9.35414 4.56798ZM4.62169 8.48378C4.74192 8.13948 5.07422 7.90961 5.45517 7.90961H20.4786C20.8596 7.90961 21.1919 8.13944 21.3121 8.48378L22.6452 13.8781H3.28856L4.62169 8.48378ZM23.5605 17.2118H2.37305V15.2843H2.3873C2.38838 15.2843 2.38941 15.2845 2.39048 15.2845H23.5433C23.5444 15.2845 23.5454 15.2843 23.5465 15.2843H23.5605V17.2118Z" fill="#FF7717"/>
<path d="M17.2515 9.25572C16.9769 8.98112 16.5317 8.98117 16.2571 9.25572L15.3225 10.1903H10.6207L9.67638 9.24597C9.40183 8.97142 8.95661 8.97137 8.68202 9.24597C8.40743 9.52056 8.40743 9.96574 8.68202 10.2403L9.33508 10.8934L8.68202 11.5465C8.40743 11.8211 8.40743 12.2662 8.68202 12.5408C8.95657 12.8154 9.40174 12.8154 9.67638 12.5408L10.6207 11.5965H15.3226L16.2572 12.5311C16.5317 12.8056 16.9769 12.8057 17.2515 12.5311C17.5261 12.2565 17.5261 11.8113 17.2515 11.5367L16.6082 10.8934L17.2515 10.2501C17.5261 9.97553 17.5261 9.53031 17.2515 9.25572Z" fill="#FF7717"/>
</svg>
