
<svg width="23" height="23" viewBox="0 0 23 23" fill="none" xmlns="http://www.w3.org/2000/svg">
<path d="M15.9668 2.44336C15.9668 2.17814 15.8614 1.92379 15.6739 1.73625C15.4864 1.54872 15.232 1.44336 14.9668 1.44336H8.9668C8.70158 1.44336 8.44723 1.54872 8.25969 1.73625C8.07215 1.92379 7.9668 2.17814 7.9668 2.44336V7.44336H2.9668C2.70158 7.44336 2.44723 7.54872 2.25969 7.73625C2.07215 7.92379 1.9668 8.17814 1.9668 8.44336V14.4434C1.9668 14.7086 2.07215 14.9629 2.25969 15.1505C2.44723 15.338 2.70158 15.4434 2.9668 15.4434H7.9668V20.4434C7.9668 20.7086 8.07215 20.9629 8.25969 21.1505C8.44723 21.338 8.70158 21.4434 8.9668 21.4434H14.9668C15.232 21.4434 15.4864 21.338 15.6739 21.1505C15.8614 20.9629 15.9668 20.7086 15.9668 20.4434V15.4434H20.9668C21.232 15.4434 21.4864 15.338 21.6739 15.1505C21.8614 14.9629 21.9668 14.7086 21.9668 14.4434V8.44336C21.9668 8.17814 21.8614 7.92379 21.6739 7.73625C21.4864 7.54872 21.232 7.44336 20.9668 7.44336H15.9668V2.44336Z" stroke="#FF7717" stroke-width="2" stroke-linecap="round" stroke-linejoin="round"/>
</svg>
