<svg width="25" height="25" viewBox="0 0 25 25" fill="none" xmlns="http://www.w3.org/2000/svg">
<path d="M3.96658 13.4436H4.96658V20.4436C4.96658 21.5466 5.86358 22.4436 6.96658 22.4436H18.9666C20.0696 22.4436 20.9666 21.5466 20.9666 20.4436V13.4436H21.9666C22.1643 13.4435 22.3576 13.3848 22.522 13.275C22.6865 13.1651 22.8146 13.0089 22.8903 12.8262C22.9659 12.6435 22.9857 12.4425 22.9472 12.2485C22.9086 12.0546 22.8134 11.8764 22.6736 11.7366L13.6736 2.73656C13.5808 2.64361 13.4706 2.56988 13.3493 2.51957C13.228 2.46926 13.0979 2.44336 12.9666 2.44336C12.8353 2.44336 12.7052 2.46926 12.5839 2.51957C12.4626 2.56988 12.3524 2.64361 12.2596 2.73656L3.25958 11.7366C3.11977 11.8764 3.02457 12.0546 2.986 12.2485C2.94743 12.4425 2.96724 12.6435 3.04291 12.8262C3.11858 13.0089 3.24672 13.1651 3.41113 13.275C3.57554 13.3848 3.76883 13.4435 3.96658 13.4436ZM12.9666 4.85756L18.9666 10.8576V15.4436L18.9676 20.4436H6.96658V10.8576L12.9666 4.85756Z" fill="#FF7717"/>
<path d="M12.9666 18.443C16.6696 18.443 17.8676 14.904 17.9166 14.754L16.0166 14.133C16.0086 14.156 15.2356 16.443 12.9666 16.443C10.7286 16.443 9.9466 14.222 9.9156 14.127L8.0166 14.754C8.0656 14.904 9.2636 18.443 12.9666 18.443Z" fill="#FF7717"/>
</svg>
