<svg width="25" height="24" viewBox="0 0 25 24" fill="none" xmlns="http://www.w3.org/2000/svg">
<path d="M23.1307 3.12938C21.8862 1.73604 20.1734 0.96875 18.3077 0.96875C16.8491 0.96875 15.276 1.83657 14.1265 2.47063C13.708 2.70162 13.1358 3.01742 12.9667 3.03821C12.7983 3.01777 12.229 2.7028 11.8116 2.47187C10.6651 1.83751 9.09485 0.96875 7.62595 0.96875C5.76021 0.96875 4.04737 1.73604 2.80279 3.12938C1.61882 4.45493 0.966797 6.19976 0.966797 8.04241C0.966797 10.6747 1.91206 14.4181 3.49534 18.0563C4.19973 19.675 4.94952 21.0737 5.66362 22.1012C6.5136 23.3242 7.24301 23.9186 7.89363 23.9186C8.18233 23.9186 8.71098 23.7962 9.00757 22.9759C9.2958 22.1788 9.55506 21.2639 9.82998 20.2934C10.5576 17.7252 11.463 14.5289 12.9208 14.5289H13.0129C13.661 14.5289 14.2412 15.084 14.7865 16.2261C15.3267 17.3574 15.7373 18.8618 16.1351 20.3184C16.3979 21.2814 16.6463 22.1908 16.9252 22.9737C17.2158 23.789 17.7385 23.9109 18.0245 23.9111C18.6719 23.911 19.4006 23.3074 20.2524 22.0659C20.9647 21.0278 21.7161 19.6152 22.4254 17.9809C24.0167 14.3134 24.9668 10.5982 24.9668 8.04235C24.9668 6.1997 24.3147 4.45487 23.1307 3.12938ZM17.8577 5.01897C17.8428 5.01797 16.3357 4.94582 14.9637 4.5825C14.3451 4.41871 13.6136 4.0896 13.6136 3.99195C13.6136 3.8969 14.4083 3.43416 14.6 3.32838C15.6556 2.74603 17.1012 1.94847 18.3077 1.94847C21.8627 1.94847 23.9871 5.04688 23.9871 8.04241C23.9871 10.4347 23.0443 14.0935 21.5265 17.5908C20.8517 19.1459 20.1123 20.5384 19.4446 21.5116C18.6741 22.6346 18.1755 22.961 18.0245 22.9313C17.9318 22.913 17.9203 22.8472 17.8482 22.6447C17.5813 21.8961 17.3377 21.0038 17.0798 20.059C16.6712 18.5625 16.2488 17.0149 15.6706 15.8038C14.9461 14.2866 14.0767 13.549 13.0129 13.549H12.9208C11.896 13.549 11.0467 14.2807 10.3246 15.7858C9.7483 16.987 9.31059 18.5321 8.88737 20.0263C8.61763 20.9784 8.36291 21.8778 8.08628 22.6427C8.0252 22.8115 8.00635 22.9218 7.89363 22.9389C7.80529 22.9523 7.42795 22.923 6.46813 21.542C5.79991 20.5805 5.06319 19.2037 4.39367 17.6653C2.88419 14.1967 1.94652 10.5095 1.94652 8.04235C1.94652 5.04683 4.07092 1.94841 7.62595 1.94841C8.55002 1.94841 9.76437 2.36945 10.8743 3.07472C11.0371 3.1782 11.2663 3.35436 11.488 3.5248C11.5765 3.59282 11.6636 3.65979 11.7448 3.72086C12.005 3.91574 12.3566 4.17058 12.7694 4.41364C12.9455 4.51753 13.1645 4.64687 13.3971 4.74558C14.2868 5.12321 15.23 5.31468 16.2007 5.31468C17.1897 5.31468 17.8549 5.13876 17.8615 5.1367C17.8615 5.1367 18.0103 5.09736 18.0056 5.05866C18.0009 5.01997 17.8577 5.01897 17.8577 5.01897Z" fill="#FF7717"/>
</svg>
