<svg width="25" height="25" viewBox="0 0 25 25" fill="none" xmlns="http://www.w3.org/2000/svg">
<path d="M24.2637 9.38088C24.652 9.38088 24.9668 9.06606 24.9668 8.67775C24.9668 8.28944 24.652 7.97463 24.2637 7.97463H22.6658C22.5975 7.39375 22.4455 6.83814 22.2222 6.32013L23.6064 5.52109C23.9427 5.32694 24.0579 4.89695 23.8638 4.56063C23.6697 4.22434 23.2397 4.10908 22.9034 4.30319L21.5174 5.1032C21.1738 4.64439 20.7658 4.23644 20.307 3.8928L21.107 2.50727C21.3011 2.17098 21.1859 1.74095 20.8496 1.5468C20.5133 1.35255 20.0833 1.46786 19.8892 1.80414L19.0902 3.18803C18.5722 2.96472 18.0165 2.81275 17.4356 2.74436V1.14648C17.4356 0.758172 17.1208 0.443359 16.7325 0.443359C16.3442 0.443359 16.0294 0.758172 16.0294 1.14648V2.74431C15.4485 2.8127 14.8928 2.96467 14.3748 3.18798L13.5757 1.80409C13.3816 1.46781 12.9515 1.35255 12.6152 1.54675C12.279 1.74091 12.1637 2.17094 12.3579 2.50722L13.1579 3.89275C12.699 4.23639 12.2911 4.64434 11.9475 5.10316L10.5615 4.30314C10.2251 4.10903 9.79514 4.2243 9.60103 4.56058C9.40692 4.89691 9.52214 5.32694 9.85847 5.52105L11.2426 6.32008C10.9306 7.04383 10.7574 7.84084 10.7574 8.6777C10.7574 8.845 10.7308 9.00808 10.6803 9.16258L9.6983 8.18055C9.42375 7.90595 8.97853 7.90595 8.70394 8.18055C8.42934 8.45514 8.42934 8.90031 8.70394 9.17491L9.68592 10.1569C9.53137 10.2074 9.36834 10.234 9.20114 10.234C8.36428 10.234 7.56717 10.4072 6.84347 10.7192L6.04448 9.33536C5.85033 8.99903 5.4203 8.88381 5.08402 9.07802C4.74773 9.27217 4.63252 9.7022 4.82667 10.0385L5.62664 11.424C5.16783 11.7677 4.75983 12.1756 4.41623 12.6345L3.03023 11.8344C2.69395 11.6402 2.26388 11.7556 2.06977 12.0918C1.87561 12.4282 1.99088 12.8582 2.3272 13.0523L3.71142 13.8513C3.48811 14.3694 3.33619 14.925 3.26775 15.5058H1.66992C1.28161 15.5058 0.966797 15.8207 0.966797 16.209C0.966797 16.5973 1.28161 16.9121 1.66992 16.9121H3.26775C3.33614 17.493 3.48811 18.0486 3.71142 18.5666L2.3272 19.3656C1.99088 19.5598 1.87566 19.9898 2.06977 20.3261C2.19998 20.5517 2.43633 20.6778 2.67937 20.6778C2.79862 20.6778 2.91952 20.6474 3.03023 20.5835L4.41619 19.7835C4.75983 20.2424 5.16788 20.6504 5.62673 20.994L4.82663 22.3798C4.63247 22.7161 4.74769 23.1461 5.08397 23.3403C5.19469 23.4042 5.31558 23.4346 5.43488 23.4346C5.67788 23.4346 5.91422 23.3085 6.04444 23.083L6.84361 21.6988C7.36158 21.922 7.91719 22.074 8.49802 22.1424V23.7402C8.49802 24.1285 8.81283 24.4434 9.20114 24.4434C9.58945 24.4434 9.90427 24.1285 9.90427 23.7402V22.1655C10.6164 22.1289 11.3202 22.0359 12.013 21.8883L12.4206 23.409C12.5211 23.7841 12.9067 24.0066 13.2817 23.9061C13.6568 23.8056 13.8794 23.42 13.7789 23.0449L13.3713 21.5239C13.7075 21.4145 14.0405 21.2922 14.3697 21.1559C14.699 21.0195 15.021 20.8705 15.3362 20.71L16.1235 22.0737C16.3177 22.41 16.7477 22.5253 17.084 22.3311C17.4203 22.1369 17.5355 21.7069 17.3414 21.3706L16.5542 20.0073C17.1484 19.6218 17.7119 19.1899 18.2414 18.7123L19.3546 19.8258C19.6292 20.1004 20.0744 20.1005 20.349 19.8259C20.6236 19.5514 20.6236 19.1062 20.3491 18.8316L19.2358 17.718C19.7134 17.1885 20.1454 16.6249 20.5309 16.0307L21.8941 16.8178C22.2304 17.012 22.6604 16.8968 22.8546 16.5604C23.0487 16.2242 22.9335 15.7941 22.5972 15.6L21.2337 14.8127C21.394 14.4977 21.543 14.1757 21.6794 13.8465C21.8158 13.5173 21.9381 13.1841 22.0475 12.8479L23.5684 13.2554C23.9436 13.356 24.3291 13.1333 24.4296 12.7583C24.5301 12.3832 24.3075 11.9976 23.9324 11.8971L22.4118 11.4897C22.5594 10.7969 22.6524 10.093 22.689 9.38083H24.2637V9.38088ZM20.3801 13.3084C19.769 14.7839 18.8865 16.1046 17.7573 17.2338C16.6279 18.3631 15.3071 19.2456 13.8315 19.8567C12.356 20.4679 10.7982 20.7777 9.20114 20.7777C6.68194 20.7777 4.63242 18.7282 4.63242 16.209C4.63242 13.6898 6.68194 11.6403 9.20114 11.6403C9.99216 11.6403 10.7361 11.3322 11.2961 10.7727C11.8556 10.2132 12.1636 9.46923 12.1636 8.67775C12.1636 6.15855 14.2132 4.10903 16.7324 4.10903C19.2516 4.10903 21.3011 6.15855 21.3011 8.67775C21.3012 10.2749 20.9913 11.8329 20.3801 13.3084Z" fill="#FF7717"/>
<path d="M16.7325 5.71582C15.0968 5.71582 13.77 7.03952 13.77 8.67832C13.77 11.1975 11.7205 13.2471 9.20127 13.2471C7.56557 13.2471 6.23877 14.5707 6.23877 16.2096C6.23877 17.8461 7.56224 19.1721 9.20127 19.1721C12.0042 19.1721 14.6394 18.0806 16.6214 16.0986C18.6035 14.1166 19.695 11.4814 19.695 8.67832C19.695 7.04215 18.3711 5.71582 16.7325 5.71582ZM9.20132 17.7658C8.34294 17.7658 7.64507 17.0721 7.64507 16.2095C7.64507 15.3484 8.34243 14.6533 9.20132 14.6533C12.496 14.6533 15.1763 11.9729 15.1763 8.67827C15.1763 7.81873 15.872 7.12202 16.7326 7.12202C17.5921 7.12202 18.2888 7.8176 18.2888 8.67827C18.2888 13.6892 14.2122 17.7658 9.20132 17.7658Z" fill="#FF7717"/>
</svg>
