<svg width="24" height="25" viewBox="0 0 24 25" fill="none" xmlns="http://www.w3.org/2000/svg">
<path d="M15.4589 6.79492H8.43503C8.04671 6.79492 7.7319 6.48011 7.7319 6.0918C7.7319 5.70348 8.04671 5.38867 8.43503 5.38867H12.0696C12.5575 5.38867 12.9544 4.99178 12.9544 4.50391V1.23269C12.9544 0.797453 12.6003 0.443359 12.1651 0.443359H11.9742C11.5389 0.443359 11.1849 0.797453 11.1849 1.23269V2.91602C11.1849 3.30433 10.87 3.61914 10.4817 3.61914H8.06982C6.70642 3.61914 5.59717 4.72839 5.59717 6.0918C5.59717 7.4552 6.70642 8.56445 8.06982 8.56445H15.0937C15.482 8.56445 15.7968 8.87927 15.7968 9.26758C15.7968 9.65589 15.482 9.9707 15.0937 9.9707H8.06982C6.70642 9.9707 5.59717 11.08 5.59717 12.4434C5.59717 13.8068 6.70642 14.916 8.06982 14.916H15.0937C15.482 14.916 15.7968 15.2308 15.7968 15.6191C15.7968 16.0075 15.482 16.3223 15.0937 16.3223H8.06982C6.70642 16.3223 5.59717 17.4315 5.59717 18.7949C5.59717 20.1583 6.70642 21.2676 8.06982 21.2676H10.4817C10.87 21.2676 11.1849 21.5824 11.1849 21.9707V23.654C11.1849 24.0893 11.5389 24.4434 11.9742 24.4434H12.1651C12.6003 24.4434 12.9544 24.0893 12.9544 23.654V20.3828C12.9544 19.8949 12.5575 19.498 12.0696 19.498H8.43503C8.04671 19.498 7.7319 19.1832 7.7319 18.7949C7.7319 18.4066 8.04671 18.0918 8.43503 18.0918H15.4589C16.8223 18.0918 17.9316 16.9825 17.9316 15.6191C17.9316 14.2557 16.8223 13.1465 15.4589 13.1465H8.43503C8.04671 13.1465 7.7319 12.8317 7.7319 12.4434C7.7319 12.055 8.04671 11.7402 8.43503 11.7402H15.4589C16.8223 11.7402 17.9316 10.631 17.9316 9.26758C17.9316 7.90417 16.8223 6.79492 15.4589 6.79492Z" fill="#FF7717"/>
<path d="M2.86766 13.1465C3.25597 13.1465 3.57078 12.8317 3.57078 12.4434C3.57078 12.055 3.25597 11.7402 2.86766 11.7402H0.722656C0.334344 11.7402 0.0195312 12.055 0.0195312 12.4434C0.0195312 12.8317 0.334344 13.1465 0.722656 13.1465H2.86766Z" fill="#FF7717"/>
<path d="M3.51014 9.03355L1.48993 8.31261C1.12425 8.18202 0.721926 8.37275 0.591379 8.73852C0.460879 9.10424 0.651567 9.50656 1.01729 9.63706L3.0375 10.358C3.1156 10.3859 3.19538 10.3991 3.2738 10.3991C3.56264 10.3991 3.83339 10.2197 3.93605 9.93209C4.06655 9.56638 3.87586 9.16405 3.51014 9.03355Z" fill="#FF7717"/>
<path d="M3.0375 14.5284L1.01729 15.2493C0.651567 15.3798 0.460879 15.7821 0.591379 16.1478C0.694035 16.4355 0.964739 16.6148 1.25363 16.6148C1.33205 16.6148 1.41183 16.6016 1.48993 16.5738L3.51014 15.8528C3.87586 15.7223 4.06655 15.32 3.93605 14.9543C3.80555 14.5885 3.40336 14.3979 3.0375 14.5284Z" fill="#FF7717"/>
<path d="M23.2109 11.7402H21.0659C20.6776 11.7402 20.3628 12.055 20.3628 12.4434C20.3628 12.8317 20.6776 13.1465 21.0659 13.1465H23.2109C23.5992 13.1465 23.914 12.8317 23.914 12.4434C23.914 12.055 23.5992 11.7402 23.2109 11.7402Z" fill="#FF7717"/>
<path d="M22.9159 15.2493L20.8957 14.5284C20.53 14.3979 20.1277 14.5886 19.9971 14.9543C19.8666 15.32 20.0573 15.7224 20.423 15.8529L22.4433 16.5738C22.5214 16.6017 22.6011 16.6149 22.6796 16.6149C22.9684 16.6149 23.2392 16.4355 23.3418 16.1479C23.4723 15.7822 23.2816 15.3798 22.9159 15.2493Z" fill="#FF7717"/>
<path d="M20.6594 10.4C20.7378 10.4 20.8176 10.3868 20.8957 10.3589L22.9159 9.63798C23.2816 9.50748 23.4723 9.10515 23.3418 8.73943C23.2113 8.37372 22.8091 8.18308 22.4433 8.31353L20.423 9.03446C20.0573 9.16496 19.8666 9.56729 19.9971 9.93301C20.0998 10.2207 20.3705 10.4 20.6594 10.4Z" fill="#FF7717"/>
</svg>
