<svg width="21" height="23" viewBox="0 0 21 23" fill="none" xmlns="http://www.w3.org/2000/svg">
<path d="M7.23822 9.0104C8.40322 8.82032 9.26722 7.80176 9.39872 6.58496C9.53222 5.34752 9.83322 0.374716 7.88872 0.691036C2.84472 1.51232 3.19872 9.668 7.23822 9.0104ZM13.8747 9.0104C17.9132 9.668 18.2672 1.51232 13.2232 0.690556C11.2792 0.374236 11.5797 5.34704 11.7127 6.58448C11.8447 7.80176 12.7097 8.82032 13.8747 9.0104ZM5.16622 12.8528C5.16622 12.2058 4.92572 11.6192 4.53822 11.1925C3.90072 10.3928 1.87422 8.77568 1.37672 9.18992C0.338216 10.0568 0.371716 12.1904 0.997216 13.7408C1.31872 14.6029 2.09522 15.2091 3.00272 15.2091C4.19722 15.2091 5.16622 14.1541 5.16622 12.8528ZM19.7347 9.18992C19.2382 8.77568 17.2117 10.3928 16.5742 11.1925C16.1867 11.6192 15.9457 12.2058 15.9457 12.8528C15.9457 14.1541 16.9157 15.2091 18.1092 15.2091C19.0172 15.2091 19.7942 14.6029 20.1157 13.7408C20.7397 12.1904 20.7742 10.0568 19.7347 9.18992ZM15.6667 16.5229C13.8287 15.643 13.8857 13.9486 13.4677 12.4026C13.1352 11.1694 11.9577 10.2574 10.5562 10.2574C9.90613 10.2558 9.27304 10.4566 8.75201 10.8298C8.23098 11.203 7.85015 11.7285 7.66672 12.3272C7.21922 13.8066 7.48872 15.5288 5.48522 16.5114C3.85772 17.0206 3.19872 17.7637 3.19872 19.521C3.19872 20.9485 4.47522 22.4768 6.12272 22.6669C7.96072 22.9328 9.39472 22.5853 10.5562 21.9498C11.7177 22.5853 13.1507 22.9323 14.9917 22.6669C16.6382 22.4768 17.9152 20.9542 17.9152 19.521C17.9147 17.7253 17.2977 17.0562 15.6667 16.5229ZM13.4982 18.6704H11.5927L11.5952 20.5904H9.51722L9.52022 18.6704H7.49822V16.7504H9.52072L9.51772 14.8304H11.5957L11.5932 16.7504H13.4982V18.6704Z" fill="#FF7717"/>
</svg>
