<svg width="26" height="25" viewBox="0 0 26 25" fill="none" xmlns="http://www.w3.org/2000/svg">
<g clip-path="url(#clip0)">
<path d="M16.4393 3.09679L3.62045 15.9157C1.99847 17.5377 1.99847 20.1674 3.62045 21.7894L3.62078 21.7897C5.24276 23.4117 7.8725 23.4117 9.49448 21.7897L22.3134 8.97083C23.9354 7.34885 23.9354 4.7191 22.3134 3.09712L22.313 3.09679C20.6911 1.47481 18.0613 1.47481 16.4393 3.09679Z" stroke="#FF7717" stroke-width="1.50825" stroke-linecap="round" stroke-linejoin="round"/>
<path d="M18.1654 10.9769L14.4327 7.24423C13.8437 6.65522 12.8887 6.65522 12.2997 7.24423L7.90044 11.6435C7.31143 12.2325 7.31143 13.1875 7.90044 13.7765L11.6332 17.5092C12.2222 18.0982 13.1771 18.0982 13.7661 17.5092L18.1654 13.1099C18.7544 12.5209 18.7544 11.566 18.1654 10.9769Z" stroke="#FF7717" stroke-width="1.50825" stroke-linecap="round" stroke-linejoin="round"/>
<path d="M12.9665 10.935C13.383 10.935 13.7206 10.5974 13.7206 10.1809C13.7206 9.76439 13.383 9.42676 12.9665 9.42676C12.55 9.42676 12.2124 9.76439 12.2124 10.1809C12.2124 10.5974 12.55 10.935 12.9665 10.935Z" fill="#FF7717"/>
<path d="M15.2292 13.1967C15.6457 13.1967 15.9833 12.8591 15.9833 12.4426C15.9833 12.0261 15.6457 11.6885 15.2292 11.6885C14.8127 11.6885 14.4751 12.0261 14.4751 12.4426C14.4751 12.8591 14.8127 13.1967 15.2292 13.1967Z" fill="#FF7717"/>
<path d="M10.7043 13.1967C11.1208 13.1967 11.4584 12.8591 11.4584 12.4426C11.4584 12.0261 11.1208 11.6885 10.7043 11.6885C10.2878 11.6885 9.9502 12.0261 9.9502 12.4426C9.9502 12.8591 10.2878 13.1967 10.7043 13.1967Z" fill="#FF7717"/>
<path d="M12.9665 15.4594C13.383 15.4594 13.7206 15.1218 13.7206 14.7053C13.7206 14.2888 13.383 13.9512 12.9665 13.9512C12.55 13.9512 12.2124 14.2888 12.2124 14.7053C12.2124 15.1218 12.55 15.4594 12.9665 15.4594Z" fill="#FF7717"/>
</g>
<defs>
<clipPath id="clip0">
<rect width="24.132" height="24.132" fill="white" transform="translate(0.900879 0.376953)"/>
</clipPath>
</defs>
</svg>
