<svg width="21" height="5" viewBox="0 0 21 5" fill="none" xmlns="http://www.w3.org/2000/svg">
<path d="M2.5 3.44336C3.05228 3.44336 3.5 2.99564 3.5 2.44336C3.5 1.89107 3.05228 1.44336 2.5 1.44336C1.94772 1.44336 1.5 1.89107 1.5 2.44336C1.5 2.99564 1.94772 3.44336 2.5 3.44336Z" stroke="#FF7717" stroke-width="2"/>
<path d="M10.5 3.44336C11.0523 3.44336 11.5 2.99564 11.5 2.44336C11.5 1.89107 11.0523 1.44336 10.5 1.44336C9.94772 1.44336 9.5 1.89107 9.5 2.44336C9.5 2.99564 9.94772 3.44336 10.5 3.44336Z" stroke="#FF7717" stroke-width="2"/>
<path d="M18.5 3.44336C19.0523 3.44336 19.5 2.99564 19.5 2.44336C19.5 1.89107 19.0523 1.44336 18.5 1.44336C17.9477 1.44336 17.5 1.89107 17.5 2.44336C17.5 2.99564 17.9477 3.44336 18.5 3.44336Z" stroke="#FF7717" stroke-width="2"/>
</svg>
