<svg width="23" height="23" viewBox="0 0 23 23" fill="none" xmlns="http://www.w3.org/2000/svg">
<path fill-rule="evenodd" clip-rule="evenodd" d="M11.4983 0.760254C5.42329 0.760254 0.498291 5.68525 0.498291 11.7603C0.498291 17.8353 5.42329 22.7603 11.4983 22.7603C17.5733 22.7603 22.4983 17.8353 22.4983 11.7603C22.4983 5.68525 17.5733 0.760254 11.4983 0.760254ZM10.3903 8.69525C10.6203 8.24225 10.7903 8.02725 10.9313 7.91525C11.0373 7.83125 11.1813 7.76025 11.4983 7.76025C12.1233 7.76025 12.4983 8.23025 12.4983 8.73825C12.4983 9.01625 12.4443 9.15425 12.2963 9.33025C12.0893 9.57625 11.7063 9.87525 10.9483 10.3763L10.4983 10.6723V12.7603C10.4983 13.0255 10.6036 13.2798 10.7912 13.4674C10.9787 13.6549 11.2331 13.7603 11.4983 13.7603C11.7635 13.7603 12.0179 13.6549 12.2054 13.4674C12.3929 13.2798 12.4983 13.0255 12.4983 12.7603V11.7433C13.0403 11.3693 13.4953 11.0113 13.8253 10.6193C14.3023 10.0533 14.4983 9.44925 14.4983 8.73825C14.4983 7.26825 13.3653 5.76025 11.4983 5.76025C10.8143 5.76025 10.2093 5.93625 9.69029 6.34725C9.20629 6.73025 8.87629 7.25725 8.60629 7.79225C8.54355 7.90972 8.5049 8.03854 8.49262 8.17114C8.48034 8.30375 8.49466 8.43747 8.53476 8.56446C8.57486 8.69146 8.63992 8.80916 8.72612 8.91067C8.81232 9.01218 8.91793 9.09545 9.03675 9.15559C9.15557 9.21574 9.2852 9.25154 9.41805 9.2609C9.55089 9.27027 9.68427 9.253 9.81035 9.21012C9.93643 9.16724 10.0527 9.09961 10.1523 9.0112C10.2519 8.92278 10.3328 8.81537 10.3903 8.69525ZM12.4983 16.2603C12.4983 15.995 12.3929 15.7407 12.2054 15.5531C12.0179 15.3656 11.7635 15.2603 11.4983 15.2603C11.2331 15.2603 10.9787 15.3656 10.7912 15.5531C10.6036 15.7407 10.4983 15.995 10.4983 16.2603V16.7603C10.4983 17.0255 10.6036 17.2798 10.7912 17.4674C10.9787 17.6549 11.2331 17.7603 11.4983 17.7603C11.7635 17.7603 12.0179 17.6549 12.2054 17.4674C12.3929 17.2798 12.4983 17.0255 12.4983 16.7603V16.2603Z" fill="#FF7717"/>
</svg>
