<svg width="25" height="25" viewBox="0 0 25 25" fill="none" xmlns="http://www.w3.org/2000/svg">
<g clip-path="url(#clip0)">
<path d="M16.1 15.2441V15.6441C16.1 17.6323 14.4882 19.2441 12.5 19.2441C10.5118 19.2441 8.9 17.6323 8.9 15.6441V15.2441H0.5V16.0441H8.118C8.32755 18.3085 10.226 20.0414 12.5 20.0441C14.774 20.0414 16.6725 18.3085 16.882 16.0441H24.5V15.2441H16.1Z" fill="#FF7717"/>
<path d="M12.5002 17.6441C11.3956 17.6441 10.5002 16.7486 10.5002 15.6441V15.5925C10.5013 15.2345 10.5454 14.878 10.6314 14.5305C11.081 12.3225 9.41946 11.232 13.0403 9.12012C15.1052 11.232 13.6334 10.8513 14.0534 12.9493C14.2637 13.8363 14.413 14.7367 14.5002 15.6441C14.5002 16.7486 13.6047 17.6441 12.5002 17.6441Z" fill="#FF7717"/>
<path d="M6.4998 16.8438C5.83705 16.8438 5.2998 17.381 5.2998 18.0438C5.2998 18.7065 5.83705 19.2438 6.4998 19.2438C7.16255 19.2438 7.6998 18.7065 7.6998 18.0438C7.6998 17.381 7.16255 16.8438 6.4998 16.8438ZM6.4998 18.4438C6.2789 18.4438 6.0998 18.2647 6.0998 18.0438C6.0998 17.8229 6.2789 17.6438 6.4998 17.6438C6.7207 17.6438 6.8998 17.8229 6.8998 18.0438C6.8998 18.2647 6.7207 18.4438 6.4998 18.4438Z" fill="#FF7717"/>
<path d="M2.8998 17.6436C2.01615 17.6436 1.2998 18.3599 1.2998 19.2436C1.2998 20.1272 2.01615 20.8436 2.8998 20.8436C3.78345 20.8436 4.4998 20.1272 4.4998 19.2436C4.4998 18.3599 3.78345 17.6436 2.8998 17.6436ZM2.8998 20.0436C2.45795 20.0436 2.0998 19.6854 2.0998 19.2436C2.0998 18.8017 2.45795 18.4436 2.8998 18.4436C3.34165 18.4436 3.6998 18.8017 3.6998 19.2436C3.6998 19.6854 3.34165 20.0436 2.8998 20.0436Z" fill="#FF7717"/>
<path d="M22.1 17.6436C21.2163 17.6436 20.5 18.3599 20.5 19.2436C20.5 20.1272 21.2163 20.8436 22.1 20.8436C22.9836 20.8436 23.7 20.1272 23.7 19.2436C23.7 18.3599 22.9836 17.6436 22.1 17.6436ZM22.1 20.0436C21.6581 20.0436 21.3 19.6854 21.3 19.2436C21.3 18.8017 21.6581 18.4436 22.1 18.4436C22.5418 18.4436 22.9 18.8017 22.9 19.2436C22.9 19.6854 22.5418 20.0436 22.1 20.0436Z" fill="#FF7717"/>
<path d="M18.4998 16.8438C17.8371 16.8438 17.2998 17.381 17.2998 18.0438C17.2998 18.7065 17.8371 19.2438 18.4998 19.2438C19.1626 19.2438 19.6998 18.7065 19.6998 18.0438C19.6998 17.381 19.1626 16.8438 18.4998 16.8438ZM18.4998 18.4438C18.2789 18.4438 18.0998 18.2647 18.0998 18.0438C18.0998 17.8229 18.2789 17.6438 18.4998 17.6438C18.7207 17.6438 18.8998 17.8229 18.8998 18.0438C18.8998 18.2647 18.7207 18.4438 18.4998 18.4438Z" fill="#FF7717"/>
<path d="M8.9002 19.6436C8.23745 19.6436 7.7002 20.1808 7.7002 20.8436C7.7002 21.5063 8.23745 22.0436 8.9002 22.0436C9.56295 22.0436 10.1002 21.5063 10.1002 20.8436C10.1002 20.1808 9.56295 19.6436 8.9002 19.6436ZM8.9002 21.2436C8.6793 21.2436 8.5002 21.0645 8.5002 20.8436C8.5002 20.6227 8.6793 20.4436 8.9002 20.4436C9.1211 20.4436 9.3002 20.6227 9.3002 20.8436C9.3002 21.0645 9.1211 21.2436 8.9002 21.2436Z" fill="#FF7717"/>
<path d="M16.0999 19.6436C15.4372 19.6436 14.8999 20.1808 14.8999 20.8436C14.8999 21.5063 15.4372 22.0436 16.0999 22.0436C16.7627 22.0436 17.2999 21.5063 17.2999 20.8436C17.2999 20.1808 16.7627 19.6436 16.0999 19.6436ZM16.0999 21.2436C15.879 21.2436 15.6999 21.0645 15.6999 20.8436C15.6999 20.6227 15.879 20.4436 16.0999 20.4436C16.3208 20.4436 16.4999 20.6227 16.4999 20.8436C16.4999 21.0645 16.3208 21.2436 16.0999 21.2436Z" fill="#FF7717"/>
</g>
<defs>
<clipPath id="clip0">
<rect width="24" height="24" fill="white" transform="translate(0.5 0.443359)"/>
</clipPath>
</defs>
</svg>
