<svg width="37" height="38" viewBox="0 0 37 38" fill="none" xmlns="http://www.w3.org/2000/svg">
<rect y="0.759155" width="37" height="37" rx="12" fill="#C5C9F7" fill-opacity="0.14"/>
<g clip-path="url(#clip0)">
<path d="M27.6669 21.4901H27.6644C26.6998 20.5211 25.1803 20.3806 24.0544 21.1564L16.6222 13.7267C17.5043 12.4322 17.17 10.6676 15.8754 9.78557C14.5809 8.90344 12.8164 9.23782 11.9343 10.5323C11.6029 11.0187 11.4309 11.5962 11.4424 12.1846C10.6702 12.1621 9.92289 12.4594 9.37703 13.0061C8.24437 14.0882 8.20342 15.8837 9.28552 17.0163C10.2617 18.0381 11.8412 18.1855 12.9895 17.3618L20.4192 24.7916C19.5371 26.0861 19.8715 27.8506 21.166 28.7327C22.4606 29.6147 24.2251 29.2804 25.1072 27.9858C25.4386 27.4995 25.6105 26.922 25.599 26.3336C27.1651 26.3693 28.4636 25.1287 28.4993 23.5625C28.517 22.787 28.2161 22.038 27.6669 21.4901Z" fill="#C5C9F7"/>
</g>
<defs>
<clipPath id="clip0">
<rect width="20" height="20" fill="white" transform="translate(8.5 9.25916)"/>
</clipPath>
</defs>
</svg>
