<svg width="49" height="49" viewBox="0 0 49 49" fill="none" xmlns="http://www.w3.org/2000/svg">
<path fill-rule="evenodd" clip-rule="evenodd" d="M25.7574 6.76061C30.0061 6.96942 33.9652 8.72148 36.989 11.7473C40.2144 14.9748 41.9898 19.2649 41.988 23.8273C41.9842 33.2421 34.3197 40.9025 24.9043 40.9025C21.3636 40.9025 18.55 39.8146 16.7332 38.8242L7.67676 41.1986L10.1005 32.3502C8.60545 29.7607 7.81877 26.8233 7.82 23.8137C7.82378 14.3991 15.4876 6.7395 24.904 6.7395L25.7574 6.76061ZM17.1528 35.7329L17.6713 36.0405C19.8515 37.3336 22.3505 38.0178 24.8984 38.0187H24.9042C32.7306 38.0187 39.1004 31.6519 39.1035 23.8263C39.105 20.0341 37.6294 16.4683 34.9486 13.7857C32.2676 11.103 28.7025 9.62473 24.9099 9.6235C17.0775 9.6235 10.7076 15.9897 10.7044 23.8147C10.7034 26.4965 11.4541 29.1082 12.8754 31.3677L13.2131 31.9048L11.7786 37.1419L17.1528 35.7329ZM33.5109 27.8877C33.4042 27.7097 33.1197 27.603 32.6928 27.3894C32.266 27.1758 30.1673 26.1437 29.776 26.0011C29.3847 25.8589 29.1001 25.7878 28.8156 26.2148C28.5311 26.6419 27.713 27.603 27.4639 27.8877C27.215 28.1725 26.966 28.2081 26.5392 27.9945C26.1123 27.781 24.7369 27.3304 23.1064 25.8769C21.8374 24.7455 20.9807 23.3484 20.7317 22.9212C20.4827 22.4942 20.7051 22.2632 20.9188 22.0505C21.1109 21.8593 21.3457 21.5521 21.5592 21.303C21.7726 21.0539 21.8437 20.8758 21.986 20.5912C22.1283 20.3064 22.0571 20.0574 21.9505 19.8438C21.8437 19.6301 20.99 17.53 20.6344 16.6757C20.2878 15.8439 19.9359 15.9565 19.6739 15.9433C19.4252 15.931 19.1403 15.9283 18.8558 15.9283C18.5712 15.9283 18.1087 16.035 17.7174 16.4622C17.3262 16.8893 16.2234 17.9216 16.2234 20.0215C16.2234 22.1217 17.753 24.1504 17.9665 24.4351C18.1799 24.72 20.9765 29.0293 25.2586 30.8775C26.277 31.3172 27.0721 31.5796 27.6921 31.7763C28.7147 32.101 29.6452 32.0552 30.3807 31.9453C31.2009 31.8229 32.9063 30.9132 33.262 29.9167C33.6177 28.9199 33.6177 28.0657 33.5109 27.8877Z" fill="white"/>
<mask id="mask0" style="mask-type:alpha" maskUnits="userSpaceOnUse" x="10" y="9" width="30" height="30">
<path fill-rule="evenodd" clip-rule="evenodd" d="M17.1524 35.733L17.671 36.0405C19.8511 37.3336 22.3501 38.0178 24.8981 38.0188H24.9038C32.7302 38.0188 39.1 31.652 39.1032 23.8263C39.1046 20.0342 37.6291 16.4684 34.9482 13.7858C32.2673 11.103 28.7022 9.62477 24.9095 9.62354C17.0771 9.62354 10.7072 15.9897 10.7041 23.8147C10.703 26.4965 11.4537 29.1082 12.8751 31.3677L13.2127 31.9048L11.7783 37.142L17.1524 35.733ZM33.5106 27.8878C33.4039 27.7097 33.1194 27.603 32.6925 27.3894C32.2656 27.1758 30.167 26.1437 29.7757 26.0012C29.3844 25.859 29.0998 25.7878 28.8153 26.2148C28.5307 26.6419 27.7127 27.603 27.4636 27.8878C27.2146 28.1725 26.9656 28.2081 26.5388 27.9946C26.112 27.7811 24.7365 27.3304 23.106 25.8769C21.837 24.7455 20.9803 23.3484 20.7313 22.9213C20.4824 22.4942 20.7048 22.2632 20.9184 22.0505C21.1105 21.8593 21.3454 21.5522 21.5588 21.303C21.7723 21.054 21.8434 20.8759 21.9857 20.5912C22.128 20.3065 22.0568 20.0574 21.9501 19.8438C21.8434 19.6302 20.9897 17.5301 20.634 16.6758C20.2874 15.8439 19.9355 15.9565 19.6735 15.9434C19.4248 15.9311 19.14 15.9283 18.8554 15.9283C18.5708 15.9283 18.1084 16.035 17.7171 16.4623C17.3258 16.8893 16.2231 17.9216 16.2231 20.0216C16.2231 22.1218 17.7527 24.1504 17.9661 24.4352C18.1796 24.7201 20.9761 29.0293 25.2582 30.8776C26.2767 31.3172 27.0718 31.5797 27.6917 31.7763C28.7143 32.101 29.6448 32.0553 30.3804 31.9454C31.2005 31.8229 32.9059 30.9132 33.2616 29.9167C33.6173 28.9199 33.6173 28.0657 33.5106 27.8878Z" fill="black"/>
</mask>
<g mask="url(#mask0)">
<path d="M48.3632 0.167969H0.363281V48.168H48.3632V0.167969Z" fill="url(#paint0_linear)"/>
</g>
<defs>
<linearGradient id="paint0_linear" x1="24.3633" y1="48.168" x2="24.3633" y2="0.167969" gradientUnits="userSpaceOnUse">
<stop stop-color="#25CF43"/>
<stop offset="1" stop-color="#61FD7D"/>
</linearGradient>
</defs>
</svg>
