<svg width="41" height="41" viewBox="0 0 41 41" fill="none" xmlns="http://www.w3.org/2000/svg">
<path d="M18.1152 35.0013C11.0319 33.7513 5.61523 27.5847 5.61523 20.168C5.61523 11.918 12.3652 5.16797 20.6152 5.16797C28.8652 5.16797 35.6152 11.918 35.6152 20.168C35.6152 27.5847 30.1986 33.7513 23.1152 35.0013L22.2819 34.3347H18.9486L18.1152 35.0013Z" fill="url(#paint0_linear)"/>
<path d="M26.4486 24.3346L27.1152 20.1679H23.1152V17.2512C23.1152 16.0846 23.5319 15.1679 25.3652 15.1679H27.2819V11.3346C26.1986 11.1679 25.0319 11.0012 23.9486 11.0012C20.5319 11.0012 18.1152 13.0846 18.1152 16.8346V20.1679H14.3652V24.3346H18.1152V34.9179C18.9486 35.0846 19.7819 35.1679 20.6152 35.1679C21.4486 35.1679 22.2819 35.0846 23.1152 34.9179V24.3346H26.4486Z" fill="white"/>
<defs>
<linearGradient id="paint0_linear" x1="20.6152" y1="34.1297" x2="20.6152" y2="5.16797" gradientUnits="userSpaceOnUse">
<stop stop-color="#0062E0"/>
<stop offset="1" stop-color="#19AFFF"/>
</linearGradient>
</defs>
</svg>
