<svg width="99" height="101" viewBox="0 0 99 101" fill="none" xmlns="http://www.w3.org/2000/svg">
<path d="M83.7871 86.5775C74.9491 95.4987 62.8492 101 49.4992 101C34.5712 101 21.2011 94.1196 12.2132 83.2672C13.2893 70.1538 13.3793 56.9721 12.4852 43.8462C11.9592 36.127 11.0933 28.4262 9.88728 20.7687C9.52322 18.4499 9.1272 16.1351 8.69922 13.8265L13.6991 16.0197L15.3091 16.7248L20.4211 11.5223L27.0312 14.4203L32.1411 9.21783L38.7512 12.1159L43.8611 6.91534L50.4711 9.8114L55.5832 4.60891H55.5851L62.1952 7.50694L66.5012 3.12469L67.3072 2.30426L73.9192 5.20229L79.0313 0C79.7592 3.93071 80.4153 7.86971 81.0012 11.819C82.1512 19.5445 83.0313 27.3008 83.6453 35.0758C84.9951 52.2129 85.0431 69.4343 83.7871 86.5775Z" fill="white"/>
<path d="M83.6453 35.0758L12.4852 43.8462C11.9593 36.127 11.0933 28.4262 9.88728 20.7687C9.52322 18.4499 9.1272 16.1351 8.69922 13.8265L13.6991 16.0197L15.3091 16.7248L20.4211 11.5223L27.0312 14.4203L32.1411 9.21783L38.7512 12.1159L43.8611 6.91534L50.4711 9.8114L55.5832 4.60891H55.5851L62.1952 7.50694L66.5012 3.12469L67.3072 2.30426L73.9192 5.20229L79.0315 0C79.7594 3.93071 80.4155 7.86971 81.0014 11.819C82.1514 19.5445 83.0315 27.301 83.6453 35.0758Z" fill="#FF7717"/>
<path d="M30.4512 68.0658V60.4689C30.4512 55.1725 33.8257 53.2464 38.2378 53.2464C42.5984 53.2464 46.0246 55.1727 46.0246 60.4689V68.0658C46.0246 73.3623 42.5982 75.2882 38.2378 75.2882C33.8257 75.288 30.4512 73.3621 30.4512 68.0658ZM40.8336 60.4687C40.8336 58.7031 39.8473 57.9009 38.2378 57.9009C36.6286 57.9009 35.6944 58.7033 35.6944 60.4687V68.0656C35.6944 69.8313 36.6286 70.6336 38.2378 70.6336C39.8471 70.6336 40.8336 69.8311 40.8336 68.0656V60.4687ZM62.1167 53.8885C62.1167 54.2094 62.0648 54.5838 61.9092 54.9048L43.6366 93.4779C43.2731 94.2804 42.2868 94.8154 41.3008 94.8154C39.5359 94.8154 38.3938 93.3173 38.3938 91.9799C38.3938 91.6587 38.4975 91.2845 38.6533 90.9636L56.8737 52.3904C57.2888 51.4808 58.1195 51.053 59.0538 51.053C60.5075 51.0528 62.1167 52.1764 62.1167 53.8885ZM54.2784 85.2928V77.6959C54.2784 72.3993 57.6525 70.4734 62.065 70.4734C66.4256 70.4734 69.8516 72.3995 69.8516 77.6959V85.2928C69.8516 90.5893 66.4256 92.5153 62.065 92.5153C57.6523 92.5151 54.2784 90.589 54.2784 85.2928ZM64.6603 77.6957C64.6603 75.9301 63.6739 75.1277 62.0646 75.1277C60.4554 75.1277 59.521 75.9303 59.521 77.6957V85.2926C59.521 87.0581 60.4556 87.8604 62.0646 87.8604C63.6735 87.8604 64.6603 87.0579 64.6603 85.2926V77.6957Z" fill="#232C63"/>
</svg>
