<svg width="19" height="20" viewBox="0 0 19 20" fill="none" xmlns="http://www.w3.org/2000/svg">
<path fill-rule="evenodd" clip-rule="evenodd" d="M14.5574 0C16.9964 0 18.9824 1.985 18.9824 4.425V15.564C18.9824 18.01 16.9914 20 14.5464 20H9.66139C7.22239 20 5.23739 18.015 5.23739 15.575V14.633C5.23739 14.219 5.57339 13.883 5.98739 13.883C6.40139 13.883 6.73739 14.219 6.73739 14.633V15.575C6.73739 17.187 8.04939 18.5 9.66139 18.5H14.5464C16.1654 18.5 17.4824 17.184 17.4824 15.564V4.425C17.4824 2.813 16.1694 1.5 14.5574 1.5H9.67239C8.05439 1.5 6.73739 2.816 6.73739 4.434V5.367C6.73739 5.781 6.40139 6.117 5.98739 6.117C5.57339 6.117 5.23739 5.781 5.23739 5.367V4.434C5.23739 1.989 7.22739 0 9.67239 0H14.5574ZM10.8967 6.553L13.8256 9.46975C13.8494 9.49351 13.8716 9.51885 13.892 9.5456L13.8257 9.469C13.8656 9.50837 13.9006 9.55185 13.9302 9.59844C13.9362 9.61011 13.9431 9.62152 13.9496 9.63312C13.961 9.65102 13.9707 9.67005 13.9795 9.68945C13.9845 9.7032 13.9902 9.71689 13.9956 9.73077C14.0041 9.74978 14.0107 9.76932 14.0165 9.78911C14.0199 9.8047 14.0239 9.82026 14.0274 9.83601C14.0328 9.85507 14.0364 9.87426 14.0391 9.89359C14.0391 9.90237 14.0403 9.9116 14.0413 9.92089C14.0453 9.94728 14.0467 9.97358 14.0467 10L14.0394 10.079L14.0385 10.1017C14.0383 10.1034 14.0381 10.1051 14.0378 10.1068L14.0467 10C14.0467 10.0555 14.0405 10.1105 14.0286 10.1639C14.0239 10.1797 14.0199 10.1953 14.0154 10.2107C14.0107 10.2307 14.0041 10.2502 13.9967 10.2695C13.9902 10.2831 13.9845 10.2968 13.9783 10.3103C13.9707 10.33 13.961 10.349 13.9505 10.3676C13.9431 10.3785 13.9362 10.3899 13.9291 10.4011C13.9184 10.4202 13.9057 10.4383 13.8922 10.4558C13.8829 10.4662 13.8744 10.4768 13.8655 10.4872C13.8535 10.5025 13.8399 10.517 13.8257 10.531L10.8967 13.446C10.7507 13.592 10.5587 13.665 10.3677 13.665C10.1757 13.665 9.98269 13.592 9.83669 13.444C9.54369 13.15 9.54569 12.676 9.83869 12.384L11.4794 10.75H1.25439C0.840394 10.75 0.504395 10.414 0.504395 10C0.504395 9.586 0.840394 9.25 1.25439 9.25H11.4794L9.83869 7.615C9.54569 7.323 9.54369 6.849 9.83669 6.555C10.1297 6.261 10.6037 6.261 10.8967 6.553Z" fill="#FF7717"/>
</svg>
