<svg width="22" height="20" viewBox="0 0 22 20" fill="none" xmlns="http://www.w3.org/2000/svg">
<path fill-rule="evenodd" clip-rule="evenodd" d="M10.1444 0C12.5904 0 14.5804 1.99 14.5804 4.436V5.368C14.5804 5.782 14.2444 6.118 13.8304 6.118C13.4164 6.118 13.0804 5.782 13.0804 5.368V4.436C13.0804 2.816 11.7634 1.5 10.1444 1.5H5.26943C3.65243 1.5 2.33643 2.816 2.33643 4.436V15.565C2.33643 17.184 3.65243 18.5 5.26943 18.5H10.1554C11.7674 18.5 13.0804 17.188 13.0804 15.576V14.633C13.0804 14.219 13.4164 13.883 13.8304 13.883C14.2444 13.883 14.5804 14.219 14.5804 14.633V15.576C14.5804 18.016 12.5944 20 10.1554 20H5.26943C2.82543 20 0.836426 18.011 0.836426 15.565V4.436C0.836426 1.99 2.82543 0 5.26943 0H10.1444ZM18.2245 6.554L21.1525 9.469C21.1786 9.49492 21.202 9.52187 21.2234 9.5504L21.1525 9.469C21.188 9.50393 21.2195 9.5421 21.2468 9.58281C21.2588 9.60125 21.2704 9.62032 21.2812 9.63992C21.2899 9.65523 21.298 9.67122 21.3054 9.68747C21.3117 9.70182 21.3178 9.71619 21.3234 9.73077C21.3309 9.74978 21.3375 9.76932 21.3433 9.78911C21.3477 9.8047 21.3517 9.82026 21.3552 9.836C21.3597 9.8551 21.3632 9.87432 21.366 9.89368C21.3675 9.90627 21.3691 9.91947 21.3702 9.93276C21.3725 9.95557 21.3735 9.97774 21.3735 10L21.3684 10.062L21.3664 10.1017C21.3661 10.1034 21.3659 10.1051 21.3657 10.1068L21.3735 10C21.3735 10.0555 21.3674 10.1105 21.3554 10.1639C21.3517 10.1797 21.3477 10.1953 21.3432 10.2107C21.3375 10.2307 21.3309 10.2502 21.3235 10.2695C21.3178 10.2838 21.3117 10.2982 21.3052 10.3123C21.298 10.3288 21.2899 10.3448 21.2813 10.3605C21.2704 10.3797 21.2588 10.3988 21.2464 10.4172C21.2394 10.4282 21.2317 10.439 21.2237 10.4497C21.1999 10.481 21.174 10.5104 21.1459 10.5377L18.2245 13.447C18.0785 13.593 17.8865 13.666 17.6955 13.666C17.5035 13.666 17.3105 13.593 17.1645 13.445C16.8725 13.151 16.8735 12.677 17.1665 12.385L18.8064 10.75H8.58223C8.16823 10.75 7.83223 10.414 7.83223 10C7.83223 9.586 8.16823 9.25 8.58223 9.25H18.8084L17.1665 7.616C16.8735 7.324 16.8715 6.85 17.1645 6.556C17.4565 6.262 17.9305 6.262 18.2245 6.554Z" fill="#FF7717"/>
</svg>
