<svg width="18" height="20" viewBox="0 0 18 20" fill="none" xmlns="http://www.w3.org/2000/svg">
<path fill-rule="evenodd" clip-rule="evenodd" d="M12.7503 0.590851C15.7633 0.590851 17.7873 2.65414 17.7873 5.72464V14.5375C17.7873 17.6348 15.8256 19.6492 12.7896 19.6684L5.41711 19.6713C2.40411 19.6713 0.37915 17.608 0.37915 14.5375V5.72464C0.37915 2.62635 2.34086 0.612892 5.37686 0.594684L12.7493 0.590851H12.7503ZM12.7503 2.02835L5.38165 2.03218C3.15065 2.0456 1.81665 3.4256 1.81665 5.72464V14.5375C1.81665 16.8519 3.16311 18.2338 5.41615 18.2338L12.7848 18.2309C15.0158 18.2175 16.3498 16.8356 16.3498 14.5375V5.72464C16.3498 3.41027 15.0043 2.02835 12.7503 2.02835ZM12.5654 13.5031C12.9622 13.5031 13.2842 13.8251 13.2842 14.2219C13.2842 14.6186 12.9622 14.9406 12.5654 14.9406H5.64625C5.2495 14.9406 4.9275 14.6186 4.9275 14.2219C4.9275 13.8251 5.2495 13.5031 5.64625 13.5031H12.5654ZM12.5654 9.49108C12.9622 9.49108 13.2842 9.81308 13.2842 10.2098C13.2842 10.6066 12.9622 10.9286 12.5654 10.9286H5.64625C5.2495 10.9286 4.9275 10.6066 4.9275 10.2098C4.9275 9.81308 5.2495 9.49108 5.64625 9.49108H12.5654ZM8.28617 5.48832C8.68292 5.48832 9.00492 5.81032 9.00492 6.20707C9.00492 6.60382 8.68292 6.92582 8.28617 6.92582H5.64596C5.24921 6.92582 4.92721 6.60382 4.92721 6.20707C4.92721 5.81032 5.24921 5.48832 5.64596 5.48832H8.28617Z" fill="#FF7717"/>
</svg>
