<svg width="21" height="20" viewBox="0 0 21 20" fill="none" xmlns="http://www.w3.org/2000/svg">
<path fill-rule="evenodd" clip-rule="evenodd" d="M8.42697 12.8537L8.54111 12.8537L8.79408 12.8544C10.9426 12.8659 15.9758 13.0612 15.9758 16.3813C15.9758 19.4595 11.8421 19.8709 8.62669 19.8864L8.05985 19.8862C5.91133 19.8747 0.878174 19.6794 0.878174 16.3602C0.878174 13.2169 5.18588 12.8537 8.42697 12.8537ZM8.42697 14.2912C4.37226 14.2912 2.31567 14.9879 2.31567 16.3602C2.31567 17.746 4.37226 18.4494 8.42697 18.4494C12.4817 18.4494 14.5383 17.7527 14.5383 16.3813C14.5383 14.9936 12.4817 14.2912 8.42697 14.2912ZM17.3654 6.58876C17.7622 6.58876 18.0842 6.91076 18.0842 7.30751L18.0841 8.50955L19.3261 8.51031C19.7228 8.51031 20.0448 8.83231 20.0448 9.22906C20.0448 9.62581 19.7228 9.94781 19.3261 9.94781L18.0841 9.94705L18.0842 11.1514C18.0842 11.5481 17.7622 11.8701 17.3654 11.8701C16.9687 11.8701 16.6467 11.5481 16.6467 11.1514L16.6466 9.94705L15.4065 9.94781C15.0098 9.94781 14.6878 9.62581 14.6878 9.22906C14.6878 8.83231 15.0098 8.51031 15.4065 8.51031L16.6466 8.50955L16.6467 7.30751C16.6467 6.91076 16.9687 6.58876 17.3654 6.58876ZM8.42697 0.916672C11.2378 0.916672 13.5234 3.20326 13.5234 6.01309C13.5234 8.82292 11.2378 11.1095 8.42697 11.1095H8.39726C7.03738 11.1047 5.7628 10.5709 4.80734 9.60876C3.85092 8.64563 3.32672 7.36721 3.33147 6.01021C3.33147 3.20326 5.61713 0.916672 8.42697 0.916672ZM8.42697 2.35417C6.41063 2.35417 4.76898 3.9958 4.76898 6.01309C4.76517 6.98963 5.14084 7.90484 5.82605 8.5958C6.51222 9.2858 7.42647 9.66817 8.40013 9.672L8.42697 10.3821V9.672C10.4443 9.672 12.0859 8.03038 12.0859 6.01309C12.0859 3.9958 10.4443 2.35417 8.42697 2.35417Z" fill="#FF7717"/>
</svg>
