<svg width="21" height="20" viewBox="0 0 21 20" fill="none" xmlns="http://www.w3.org/2000/svg">
<path fill-rule="evenodd" clip-rule="evenodd" d="M9.97467 0.120394C10.3714 0.120394 10.6934 0.442394 10.6934 0.839144C10.6934 1.23589 10.3714 1.55789 9.97467 1.55789H6.39146C3.91513 1.55789 2.31567 3.25414 2.31567 5.87902V13.8466C2.31567 16.4715 3.91513 18.1677 6.39146 18.1677H14.8478C17.3241 18.1677 18.9245 16.4715 18.9245 13.8466V9.98643C18.9245 9.58968 19.2465 9.26768 19.6433 9.26768C20.04 9.26768 20.362 9.58968 20.362 9.98643V13.8466C20.362 17.2908 18.1454 19.6052 14.8478 19.6052H6.39146C3.09384 19.6052 0.878174 17.2908 0.878174 13.8466V5.87902C0.878174 2.43477 3.09384 0.120394 6.39146 0.120394H9.97467ZM18.3214 0.962385L19.4877 2.12868C20.056 2.69601 20.3684 3.45022 20.3674 4.2533C20.3674 5.05638 20.055 5.80963 19.4877 6.37601L12.2915 13.5721C11.7635 14.1002 11.0601 14.3915 10.3126 14.3915H6.72266C6.52908 14.3915 6.34316 14.3129 6.20804 14.174C6.07291 14.036 5.99912 13.8491 6.00391 13.6545L6.094 10.033C6.11221 9.31234 6.40258 8.6348 6.91241 8.12401H6.91337L14.075 0.962385C15.2461 -0.206781 17.1503 -0.206781 18.3214 0.962385ZM13.485 3.58438L7.92921 9.1408C7.681 9.38901 7.54012 9.71868 7.5315 10.0685L7.45962 12.954H10.3126C10.6767 12.954 11.0179 12.8131 11.2757 12.5553L16.8651 6.96443L13.485 3.58438ZM15.0908 1.97918L14.5009 2.56759L17.8809 5.94859L18.4718 5.35922C18.767 5.06405 18.9299 4.67113 18.9299 4.2533C18.9299 3.83451 18.767 3.44063 18.4718 3.14547L17.3055 1.97918C16.6951 1.37064 15.7022 1.37064 15.0908 1.97918Z" fill="#FF7717"/>
</svg>
