<svg width="20" height="20" viewBox="0 0 20 20" fill="none" xmlns="http://www.w3.org/2000/svg">
<path fill-rule="evenodd" clip-rule="evenodd" d="M5.73368 16.6205C6.41793 16.6205 6.97472 17.1763 6.97472 17.8606C6.97472 18.5448 6.41793 19.1016 5.73368 19.1016C5.04943 19.1016 4.4936 18.5448 4.4936 17.8606C4.4936 17.1763 5.04943 16.6205 5.73368 16.6205ZM16.544 16.6205C17.2292 16.6205 17.786 17.1763 17.786 17.8606C17.786 18.5448 17.2292 19.1016 16.544 19.1016C15.8597 19.1016 15.3039 18.5448 15.3039 17.8606C15.3039 17.1763 15.8597 16.6205 16.544 16.6205ZM1.63604 0.384L3.62937 0.729C3.95042 0.785542 4.19479 1.05196 4.22258 1.37779L4.44779 4.06208L5.28523 4.06245C5.42189 4.06251 5.55709 4.06257 5.69086 4.06263L7.22832 4.06336C7.35087 4.06342 7.47206 4.06348 7.59188 4.06354L9.28946 4.06447C9.39611 4.06454 9.50148 4.0646 9.60559 4.06466L10.7952 4.06542C10.8894 4.06548 10.9825 4.06555 11.0743 4.06561L12.1207 4.06638C12.2033 4.06645 12.2848 4.06651 12.3651 4.06658L13.2774 4.06736C13.3492 4.06743 13.4199 4.06749 13.4895 4.06756L14.0892 4.06815C14.1528 4.06822 14.2154 4.06829 14.2771 4.06835L14.9714 4.06916C15.0256 4.06923 15.0788 4.0693 15.1312 4.06936L15.7175 4.07018C15.7629 4.07025 15.8075 4.07032 15.8513 4.07039L16.2239 4.07101C16.263 4.07108 16.3013 4.07115 16.3388 4.07122L16.7539 4.07206C16.7856 4.07213 16.8166 4.0722 16.847 4.07227L17.1025 4.07291C17.1289 4.07298 17.1547 4.07305 17.1799 4.07313L17.4538 4.07399C17.4743 4.07406 17.4943 4.07413 17.5137 4.07421L17.6745 4.07486C17.6908 4.07494 17.7067 4.07501 17.7221 4.07508L17.8847 4.07597C17.8965 4.07604 17.9079 4.07612 17.9189 4.07619L18.0076 4.07686C18.0163 4.07694 18.0247 4.07701 18.0328 4.07709L18.0966 4.07777C18.1028 4.07785 18.1086 4.07792 18.1143 4.078L18.1577 4.07869C18.1618 4.07876 18.1656 4.07884 18.1693 4.07892L18.1967 4.07961C18.1993 4.07969 18.2016 4.07977 18.2038 4.07984L18.2237 4.08078C18.2249 4.08086 18.226 4.08094 18.2271 4.08102C18.2364 4.08189 18.2378 4.08205 18.2392 4.08221C18.773 4.15983 19.2425 4.43871 19.5626 4.86804C19.8827 5.29642 20.0169 5.82446 19.9402 6.35346L19.0307 12.6382C18.8592 13.8342 17.8204 14.736 16.6129 14.736H6.14691C4.88479 14.736 3.81625 13.7508 3.71371 12.4906L2.83587 2.05054L1.39167 1.80138C0.999708 1.73238 0.738083 1.3615 0.805167 0.969542C0.874167 0.577584 1.25271 0.322667 1.63604 0.384ZM5.09297 5.49991L4.56854 5.49959L5.14642 12.3728C5.18858 12.9018 5.62079 13.2985 6.14883 13.2985H16.611C17.1102 13.2985 17.5367 12.9267 17.6076 12.4331L18.518 6.14742C18.5391 5.99792 18.5017 5.84842 18.4107 5.72767C18.3206 5.60596 18.1884 5.52738 18.0389 5.50629C18.032 5.50656 18.0154 5.5068 17.9897 5.50702L17.8855 5.50762C17.8636 5.5077 17.8397 5.50779 17.8136 5.50787L17.2707 5.50869C17.2249 5.50872 17.1772 5.50875 17.1278 5.50878L15.8514 5.50872C15.7802 5.5087 15.7076 5.50867 15.6337 5.50863L14.1769 5.50775C14.0897 5.50769 14.0014 5.50762 13.9123 5.50755L13.088 5.50689C12.9941 5.50681 12.8995 5.50673 12.8043 5.50665L11.9312 5.50588C11.8326 5.5058 11.7335 5.50571 11.634 5.50562L11.0326 5.50506C10.9316 5.50497 10.8304 5.50488 10.729 5.50478L9.8112 5.50392C9.70886 5.50383 9.60646 5.50373 9.50406 5.50364L8.89011 5.50307C8.78794 5.50297 8.68588 5.50288 8.584 5.50278L7.97526 5.50223C7.8743 5.50214 7.77364 5.50205 7.67334 5.50196L6.7816 5.50119C6.68392 5.50111 6.58677 5.50103 6.4902 5.50095L5.36328 5.5001C5.27234 5.50003 5.18221 5.49997 5.09297 5.49991ZM15.0718 7.60437C15.4685 7.60437 15.7905 7.92637 15.7905 8.32312C15.7905 8.71987 15.4685 9.04187 15.0718 9.04187H12.4153C12.0176 9.04187 11.6965 8.71987 11.6965 8.32312C11.6965 7.92637 12.0176 7.60437 12.4153 7.60437H15.0718Z" fill="#FF7717"/>
</svg>
