<svg width="20" height="19" viewBox="0 0 20 19" fill="none" xmlns="http://www.w3.org/2000/svg">
<path fill-rule="evenodd" clip-rule="evenodd" d="M9.76481 2.1496C9.6776 2.1496 9.46294 2.17355 9.3489 2.40164L7.59898 5.90051C7.32202 6.45347 6.78823 6.83776 6.17106 6.92593L2.2534 7.49039C1.99465 7.52776 1.90648 7.71943 1.87965 7.79993C1.85569 7.87755 1.81735 8.07497 1.9956 8.24555L4.82844 10.9672C5.27981 11.4013 5.4849 12.0271 5.37756 12.6395L4.71056 16.4824C4.66935 16.723 4.81981 16.8629 4.8869 16.9108C4.95781 16.9645 5.14756 17.0708 5.38235 16.9482L8.88506 15.1321C9.43706 14.8475 10.0945 14.8475 10.6446 15.1321L14.1463 16.9472C14.3821 17.0689 14.5718 16.9625 14.6437 16.9108C14.7108 16.8629 14.8612 16.723 14.82 16.4824L14.1511 12.6395C14.0438 12.0271 14.2489 11.4013 14.7002 10.9672L17.5331 8.24555C17.7123 8.07497 17.6739 7.87659 17.649 7.79993C17.6231 7.71943 17.535 7.52776 17.2762 7.49039L13.3586 6.92593C12.7424 6.83776 12.2086 6.45347 11.9316 5.89955L10.1798 2.40164C10.0667 2.17355 9.85202 2.1496 9.76481 2.1496ZM5.16194 18.4413C4.76615 18.4413 4.37323 18.3167 4.03685 18.0713C3.4561 17.6458 3.17148 16.9434 3.2951 16.2361L3.9621 12.3932C3.98702 12.2504 3.93815 12.1057 3.83273 12.0041L0.999896 9.28247C0.478562 8.78318 0.291687 8.04526 0.512104 7.36005C0.734437 6.66718 1.32285 6.17172 2.04831 6.06822L5.96598 5.50376C6.1174 5.48268 6.24773 5.38972 6.3129 5.25747L8.06377 1.75764C8.38673 1.11268 9.0384 0.712097 9.76481 0.712097C10.4912 0.712097 11.1429 1.11268 11.4659 1.75764L13.2177 5.25651C13.2838 5.38972 13.4132 5.48268 13.5636 5.50376L17.4813 6.06822C18.2068 6.17172 18.7952 6.66718 19.0175 7.36005C19.2379 8.04526 19.0501 8.78318 18.5288 9.28247L15.6959 12.0041C15.5905 12.1057 15.5426 12.2504 15.5675 12.3923L16.2355 16.2361C16.3581 16.9443 16.0735 17.6468 15.4918 18.0713C14.9024 18.5035 14.1348 18.562 13.4841 18.2228L9.98331 16.4086C9.84627 16.3377 9.6824 16.3377 9.54535 16.4086L6.04456 18.2237C5.76473 18.3694 5.46285 18.4413 5.16194 18.4413Z" fill="#FF7717"/>
</svg>
