<svg width="17" height="20" viewBox="0 0 17 20" fill="none" xmlns="http://www.w3.org/2000/svg">
<path fill-rule="evenodd" clip-rule="evenodd" d="M8.46782 0.416656C9.55361 0.416656 15.2509 2.37262 16.0051 3.12682C16.6338 3.75549 16.6242 4.26341 16.5801 6.69757C16.5629 7.67316 16.5389 9.00237 16.5389 10.8424C16.5389 17.4376 8.99682 19.797 8.67578 19.8938C8.60773 19.9149 8.53778 19.9245 8.46782 19.9245C8.39786 19.9245 8.3279 19.9149 8.25986 19.8938C7.93882 19.797 0.396732 17.4376 0.396732 10.8424C0.396732 9.00524 0.372774 7.67603 0.355524 6.70045C0.347652 6.26526 0.34088 5.89159 0.338652 5.56776L0.338379 5.20235C0.3466 4.0019 0.459264 3.59832 0.931483 3.12682C1.68377 2.37262 7.38107 0.416656 8.46782 0.416656ZM8.46782 1.85416C7.65515 1.85416 2.52807 3.65966 1.93677 4.1532C1.76236 4.32857 1.75565 4.63332 1.79302 6.67362C1.81027 7.65687 1.83423 8.99278 1.83423 10.8424C1.83423 15.8267 7.31782 18.0394 8.46686 18.4467C9.61494 18.0375 15.1014 15.8123 15.1014 10.8424C15.1014 8.99087 15.1254 7.65399 15.1436 6.67074C15.18 4.63237 15.1733 4.32762 14.9883 4.14362C14.4085 3.65966 9.28048 1.85416 8.46782 1.85416ZM12.0343 7.45035C12.315 7.73114 12.315 8.18635 12.0343 8.46714L8.29867 12.2037C8.19134 12.3118 8.05272 12.3819 7.90393 12.4056L7.79075 12.4145C7.60005 12.4145 7.417 12.3388 7.28188 12.2037L5.46871 10.3886C5.18888 10.1078 5.18888 9.65164 5.46967 9.3718C5.7495 9.09101 6.20567 9.09101 6.48646 9.3718L7.79075 10.678L11.0184 7.45035C11.2992 7.16955 11.7535 7.16955 12.0343 7.45035Z" fill="#FF7717"/>
</svg>
